<svg xmlns="http://www.w3.org/2000/svg" xmlns:xlink="http://www.w3.org/1999/xlink" fill="none" version="1.1" width="238" height="126" viewBox="0 0 238 126"><defs><mask id="master_svg0_7132_044508/125_04803" style="mask-type:alpha" maskUnits="userSpaceOnUse"><g><path d="M56.0031,11.745124196090698C55.8661,9.381394196090698,53.90517,7.507345915090698,51.50599,7.507345915090698C49.0178,7.507345915090698,47,9.522934196090699,47,12.009704196090699C47,14.496474196090698,49.0178,16.512074196090698,51.50599,16.512074196090698L51.50599,14.994604196090698L51.28296,14.9864141960907C49.73663,14.872454196090699,48.51747,13.583104196090698,48.51747,12.009704196090699C48.51747,10.361384196090698,49.8555,9.024814196090698,51.50599,9.024814196090698C53.15617,9.024814196090698,54.49328,10.361074196090698,54.49328,12.009704196090699L56.01075,12.009704196090699L56.0031,11.745124196090698ZM68,12.009704196090699C68,9.522934196090699,65.9822,7.507345915090698,63.494,7.507345915090698C61.006,7.507345915090698,58.9893,9.522784196090697,58.9893,12.009704196090699L60.5067,12.009704196090699L60.5149,11.786924196090698C60.6289,10.242354196090698,61.9189,9.024814196090698,63.494,9.024814196090698C65.1445,9.024814196090698,66.4825,10.361384196090698,66.4825,12.009704196090699C66.4825,13.658034196090698,65.1445,14.994604196090698,63.494,14.994604196090698L63.494,16.512074196090698L63.758700000000005,16.504424196090696C66.1238,16.367494196090696,68,14.407664196090698,68,12.009704196090699ZM63.115300000000005,22.7189341960907C63.3119,22.9055341960907,63.474000000000004,23.029534196090697,63.698,23.1417341960907C64.0162,23.2574341960907,64.2438,23.559834196090698,64.2438,23.9141341960907C64.2438,24.3688341960907,63.872,24.7373341960907,63.4132,24.7373341960907C63.0069,24.7373341960907,62.6696,24.4479341960907,62.597,24.0665341960907C62.4456,23.8350341960907,62.207300000000004,23.574034196090697,62.0834,23.470034196090698C61.9165,23.3000341960907,61.5102,23.003534196090698,61.050200000000004,22.637434196090698C59.8431,21.6736341960907,58.5276,20.9544341960907,57.5385,20.9544341960907C56.5495,20.9544341960907,55.616460000000004,21.5520341960907,54.60478,22.2559341960907C54.36288,22.4236341960907,53.89934,22.773234196090698,53.294,23.226734196090696C52.68747,23.680334196090698,52.33118,24.299134196090698,52.33118,24.299134196090698L52.32403,24.2909341960907C52.1858,24.556634196090698,51.90696,24.7373341960907,51.586420000000004,24.7373341960907C51.12764,24.7373341960907,50.75586,24.3688341960907,50.75586,23.9141341960907C50.75586,23.532634196090697,51.01921,23.2114341960907,51.3755,23.119234196090698C51.87836,22.872434196090698,51.82116,22.976334196090697,52.26921,22.487434196090696C52.73513,21.9772341960907,53.29162,21.224834196090697,53.5216,20.9024341960907C54.35335,19.739134196090696,54.79186,18.8651341960907,54.79186,18.1434341960907C54.79186,17.107694196090698,54.21274,16.3577241960907,53.61812,15.473114196090698C53.40721,15.160134196090699,52.95677,14.584954196090699,52.50396,14.0215941960907C52.05353,13.460584196090698,51.60786,13.020054196090697,51.17769,12.803914196090698L51.18127,12.801554196090699C50.92745,12.661014196090697,50.75586,12.391734196090699,50.75586,12.083474196090698C50.75586,11.6287641960907,51.12764,11.260274196090698,51.586420000000004,11.260274196090698C51.99395,11.260274196090698,52.33237,11.551994196090698,52.40267,11.935844196090699C52.57427,12.396454196090698,53.5216,13.196034196090698,53.5216,13.196034196090698C53.5216,13.196034196090698,54.53447,13.956634196090699,54.79186,14.1267041960907C56.7342,15.402244196090699,59.1794,15.114074196090698,60.510400000000004,14.0215941960907C61.094300000000004,13.542084196090698,62.0834,12.782664196090698,62.0834,12.782664196090698C62.2025,12.677544196090698,62.5159,12.267714196090697,62.585,12.0362341960907C62.6089,11.603964196090697,62.9711,11.260274196090698,63.4132,11.260274196090698C63.872,11.260274196090698,64.2438,11.6287641960907,64.2438,12.083474196090698C64.2438,12.414174196090698,64.0471,12.698804196090698,63.7624,12.829904196090698L63.7659,12.831084196090698C63.2893,13.042494196090697,63.043800000000005,13.474764196090698,62.927,13.596414196090699C62.927,13.596414196090699,62.4039,14.331024196090699,61.7688,15.142414196090698C60.9025,16.250244196090698,60.346000000000004,17.258874196090698,60.3508,18.2486341960907C60.3555,19.2371341960907,61.0693,20.267034196090698,61.8701,21.2461341960907C62.333600000000004,21.810634196090696,62.3431,21.990234196090697,63.115300000000005,22.7189341960907ZM51.50599,21.004334196090696L51.50599,19.486834196090697L51.24127,19.494434196090697C48.87624,19.631434196090698,47,21.591234196090696,47,23.9892341960907C47,26.475934196090698,49.0178,28.491534196090697,51.50599,28.491534196090697C53.99402,28.491534196090697,56.01075,26.476134196090698,56.01075,23.9892341960907L54.49328,23.9892341960907L54.48509,24.2119341960907C54.37108,25.756534196090698,53.08116,26.9741341960907,51.50599,26.9741341960907C49.8555,26.9741341960907,48.51747,25.637534196090698,48.51747,23.9892341960907C48.51747,22.340834196090697,49.8555,21.004334196090696,51.50599,21.004334196090696ZM68,23.9892341960907C68,21.502434196090697,65.9822,19.486834196090697,63.494,19.486834196090697L63.494,21.004334196090696L63.7171,21.012534196090698C65.2634,21.1264341960907,66.4825,22.4158341960907,66.4825,23.9892341960907C66.4825,25.637534196090698,65.1445,26.9741341960907,63.494,26.9741341960907C61.8438,26.9741341960907,60.5067,25.637834196090697,60.5067,23.9892341960907L58.9893,23.9892341960907L58.9969,24.253734196090697C59.1339,26.6175341960907,61.0948,28.491534196090697,63.494,28.491534196090697C65.9822,28.491534196090697,68,26.475934196090698,68,23.9892341960907Z" fill-rule="evenodd" fill="#FFFFFF" fill-opacity="1"/></g></mask><mask id="master_svg1_7132_044522/125_04718" style="mask-type:alpha" maskUnits="userSpaceOnUse"><g><path d="M59,73L63.5,78L54.5,78L59,73ZM61,78.5L61,80L57,80L57,78.5L61,78.5ZM61,82.5L61,81L57,81L57,82.5L61,82.5ZM58.41609,83.01050000000001L59,83L59.5839,83.01050000000001C63.7296,83.16,67,84.889,67,87C67,89.2091,63.4183,91,59,91C54.58172,91,51,89.2091,51,87C51,84.889,54.27042,83.16,58.41609,83.01050000000001ZM69,88C69,85.2386,64.5228,83,59,83L58.706720000000004,83.0026L58.379419999999996,83.0095C53.14563,83.1697,49,85.3428,49,88C49,90.7614,53.47715,93,59,93C64.5228,93,69,90.7614,69,88ZM57.87714,84.1709L57.52809,85.6679L60.5111,85.6679L60.1631,84.1709L61.4978,84.1709L62.8771,88.8297L61.2478,88.8297L60.7901,86.8669L57.24909,86.8669L56.79239,88.8297L55.16309,88.8297L56.542410000000004,84.1709L57.87714,84.1709Z" fill-rule="evenodd" fill="#FFFFFF" fill-opacity="1"/></g></mask></defs><g><g></g><g><g><g><g><g><path d="M56.0031,11.745124196090698C55.8661,9.381394196090698,53.90517,7.507345915090698,51.50599,7.507345915090698C49.0178,7.507345915090698,47,9.522934196090699,47,12.009704196090699C47,14.496474196090698,49.0178,16.512074196090698,51.50599,16.512074196090698L51.50599,14.994604196090698L51.28296,14.9864141960907C49.73663,14.872454196090699,48.51747,13.583104196090698,48.51747,12.009704196090699C48.51747,10.361384196090698,49.8555,9.024814196090698,51.50599,9.024814196090698C53.15617,9.024814196090698,54.49328,10.361074196090698,54.49328,12.009704196090699L56.01075,12.009704196090699L56.0031,11.745124196090698ZM68,12.009704196090699C68,9.522934196090699,65.9822,7.507345915090698,63.494,7.507345915090698C61.006,7.507345915090698,58.9893,9.522784196090697,58.9893,12.009704196090699L60.5067,12.009704196090699L60.5149,11.786924196090698C60.6289,10.242354196090698,61.9189,9.024814196090698,63.494,9.024814196090698C65.1445,9.024814196090698,66.4825,10.361384196090698,66.4825,12.009704196090699C66.4825,13.658034196090698,65.1445,14.994604196090698,63.494,14.994604196090698L63.494,16.512074196090698L63.758700000000005,16.504424196090696C66.1238,16.367494196090696,68,14.407664196090698,68,12.009704196090699ZM63.115300000000005,22.7189341960907C63.3119,22.9055341960907,63.474000000000004,23.029534196090697,63.698,23.1417341960907C64.0162,23.2574341960907,64.2438,23.559834196090698,64.2438,23.9141341960907C64.2438,24.3688341960907,63.872,24.7373341960907,63.4132,24.7373341960907C63.0069,24.7373341960907,62.6696,24.4479341960907,62.597,24.0665341960907C62.4456,23.8350341960907,62.207300000000004,23.574034196090697,62.0834,23.470034196090698C61.9165,23.3000341960907,61.5102,23.003534196090698,61.050200000000004,22.637434196090698C59.8431,21.6736341960907,58.5276,20.9544341960907,57.5385,20.9544341960907C56.5495,20.9544341960907,55.616460000000004,21.5520341960907,54.60478,22.2559341960907C54.36288,22.4236341960907,53.89934,22.773234196090698,53.294,23.226734196090696C52.68747,23.680334196090698,52.33118,24.299134196090698,52.33118,24.299134196090698L52.32403,24.2909341960907C52.1858,24.556634196090698,51.90696,24.7373341960907,51.586420000000004,24.7373341960907C51.12764,24.7373341960907,50.75586,24.3688341960907,50.75586,23.9141341960907C50.75586,23.532634196090697,51.01921,23.2114341960907,51.3755,23.119234196090698C51.87836,22.872434196090698,51.82116,22.976334196090697,52.26921,22.487434196090696C52.73513,21.9772341960907,53.29162,21.224834196090697,53.5216,20.9024341960907C54.35335,19.739134196090696,54.79186,18.8651341960907,54.79186,18.1434341960907C54.79186,17.107694196090698,54.21274,16.3577241960907,53.61812,15.473114196090698C53.40721,15.160134196090699,52.95677,14.584954196090699,52.50396,14.0215941960907C52.05353,13.460584196090698,51.60786,13.020054196090697,51.17769,12.803914196090698L51.18127,12.801554196090699C50.92745,12.661014196090697,50.75586,12.391734196090699,50.75586,12.083474196090698C50.75586,11.6287641960907,51.12764,11.260274196090698,51.586420000000004,11.260274196090698C51.99395,11.260274196090698,52.33237,11.551994196090698,52.40267,11.935844196090699C52.57427,12.396454196090698,53.5216,13.196034196090698,53.5216,13.196034196090698C53.5216,13.196034196090698,54.53447,13.956634196090699,54.79186,14.1267041960907C56.7342,15.402244196090699,59.1794,15.114074196090698,60.510400000000004,14.0215941960907C61.094300000000004,13.542084196090698,62.0834,12.782664196090698,62.0834,12.782664196090698C62.2025,12.677544196090698,62.5159,12.267714196090697,62.585,12.0362341960907C62.6089,11.603964196090697,62.9711,11.260274196090698,63.4132,11.260274196090698C63.872,11.260274196090698,64.2438,11.6287641960907,64.2438,12.083474196090698C64.2438,12.414174196090698,64.0471,12.698804196090698,63.7624,12.829904196090698L63.7659,12.831084196090698C63.2893,13.042494196090697,63.043800000000005,13.474764196090698,62.927,13.596414196090699C62.927,13.596414196090699,62.4039,14.331024196090699,61.7688,15.142414196090698C60.9025,16.250244196090698,60.346000000000004,17.258874196090698,60.3508,18.2486341960907C60.3555,19.2371341960907,61.0693,20.267034196090698,61.8701,21.2461341960907C62.333600000000004,21.810634196090696,62.3431,21.990234196090697,63.115300000000005,22.7189341960907ZM51.50599,21.004334196090696L51.50599,19.486834196090697L51.24127,19.494434196090697C48.87624,19.631434196090698,47,21.591234196090696,47,23.9892341960907C47,26.475934196090698,49.0178,28.491534196090697,51.50599,28.491534196090697C53.99402,28.491534196090697,56.01075,26.476134196090698,56.01075,23.9892341960907L54.49328,23.9892341960907L54.48509,24.2119341960907C54.37108,25.756534196090698,53.08116,26.9741341960907,51.50599,26.9741341960907C49.8555,26.9741341960907,48.51747,25.637534196090698,48.51747,23.9892341960907C48.51747,22.340834196090697,49.8555,21.004334196090696,51.50599,21.004334196090696ZM68,23.9892341960907C68,21.502434196090697,65.9822,19.486834196090697,63.494,19.486834196090697L63.494,21.004334196090696L63.7171,21.012534196090698C65.2634,21.1264341960907,66.4825,22.4158341960907,66.4825,23.9892341960907C66.4825,25.637534196090698,65.1445,26.9741341960907,63.494,26.9741341960907C61.8438,26.9741341960907,60.5067,25.637834196090697,60.5067,23.9892341960907L58.9893,23.9892341960907L58.9969,24.253734196090697C59.1339,26.6175341960907,61.0948,28.491534196090697,63.494,28.491534196090697C65.9822,28.491534196090697,68,26.475934196090698,68,23.9892341960907Z" fill-rule="evenodd" fill="#FEFEFE" fill-opacity="1"/></g><g mask="url(#master_svg0_7132_044508/125_04803)"><g></g></g></g></g><g><g><path d="M142.49999773502,19L143,19L154.2843,19L154.7843,19L154.7843,17.99999773502L154.2843,18L143,18L142.49999773502,17.99999773502L142.49999773502,19Z" fill-rule="evenodd" fill="#00F380" fill-opacity="1"/></g><g><path d="M152.16667,20L155.83333,26L148.5,26L152.16667,20Z" fill-rule="evenodd" fill="#00F380" fill-opacity="1"/></g><g transform="matrix(1,0,0,-1,0,154)"><path d="M152.16667,77L155.83333,83L148.5,83L152.16667,77Z" fill-rule="evenodd" fill="#00F380" fill-opacity="1"/></g><g><path d="M151.49999773502,25.99999773502L151.5,26.5L151.5,27.51111L152.5,27.51111L152.5,26.5L152.5,25.99999773502L151.49999773502,25.99999773502ZM151.5,29.05555L151.5,30.57777L152.5,30.57777L152.5,28.55555L151.5,28.55555L151.5,29.05555ZM151.5,32.12222L151.5,33.64444L152.5,33.64444L152.5,31.62222L151.5,31.62222L151.5,32.12222ZM151.5,35.18889L151.5,36.7111L152.5,36.7111L152.5,34.68889L151.5,34.68889L151.5,35.18889ZM151.5,38.2556L151.5,39.7778L152.5,39.7778L152.5,37.7556L151.5,37.7556L151.5,38.2556ZM151.5,41.3222L151.5,42.8444L152.5,42.8444L152.5,40.8222L151.5,40.8222L151.5,41.3222ZM151.5,44.3889L151.5,45.911100000000005L152.5,45.911100000000005L152.5,43.8889L151.5,43.8889L151.5,44.3889ZM151.5,47.455600000000004L151.5,48.9778L152.5,48.9778L152.5,46.955600000000004L151.5,46.955600000000004L151.5,47.455600000000004ZM151.5,50.5222L151.5,52.044399999999996L152.5,52.044399999999996L152.5,50.0222L151.5,50.0222L151.5,50.5222ZM151.5,53.588899999999995L151.5,55.1111L152.5,55.1111L152.5,53.088899999999995L151.5,53.088899999999995L151.5,53.588899999999995ZM151.5,56.6556L151.5,58.1778L152.5,58.1778L152.5,56.1556L151.5,56.1556L151.5,56.6556ZM151.5,59.7222L151.5,61.2444L152.5,61.2444L152.5,59.2222L151.5,59.2222L151.5,59.7222ZM151.5,62.7889L151.5,64.31110000000001L152.5,64.31110000000001L152.5,62.2889L151.5,62.2889L151.5,62.7889ZM151.5,65.85560000000001L151.5,67.37780000000001L152.5,67.37780000000001L152.5,65.35560000000001L151.5,65.35560000000001L151.5,65.85560000000001ZM151.5,68.9222L151.5,70.4444L152.5,70.4444L152.5,68.4222L151.5,68.4222L151.5,68.9222ZM151.5,71.9889L151.5,72.5L151.49999773502,73L152.5,73L152.5,72.5L152.5,71.4889L151.5,71.4889L151.5,71.9889Z" fill-rule="evenodd" fill="#00F380" fill-opacity="1"/></g><g><path d="M140.868419,78L141.368421,78L154.8411,78L155.3411,78L155.3411,76.99999773502L154.8411,77L141.368421,77L140.868419,76.99999773502L140.868419,78Z" fill-rule="evenodd" fill="#00F380" fill-opacity="1"/></g></g><g><path d="M171.61784,51.42188L166.94987,51.42188L166.94987,60.0124L167.63997,60.0124L167.63997,59.3809L170.91797,59.3809L170.91797,60.0026L171.61784,60.0026L171.61784,51.42188ZM167.63997,58.7005L167.63997,56.93294L170.91797,56.93294L170.91797,58.7005L167.63997,58.7005ZM167.63997,56.262370000000004L167.63997,54.49154L170.91797,54.49154L170.91797,56.262370000000004L167.63997,56.262370000000004ZM167.63997,53.82096L167.63997,52.10221L170.91797,52.10221L170.91797,53.82096L167.63997,53.82096ZM165.1888,54.77148C165.46875,55.14258,165.79753,55.62109,166.17839,56.20052L166.56901,55.62109C166.11003,55.0319,165.64779,54.49154,165.1888,54.00977L165.1888,53.48242L166.47786,53.48242L166.47786,52.792320000000004L165.1888,52.792320000000004L165.1888,50.84245L164.47917,50.84245L164.47917,52.792320000000004L163.069661,52.792320000000004L163.069661,53.48242L164.45964,53.48242C164.13737,54.73242,163.61979,55.84245,162.88737,56.8125L163.167318,57.52214C163.70768,56.74089,164.13737,55.88151,164.47917,54.92122L164.47917,59.9928L165.1888,59.9928L165.1888,54.77148ZM177.2689,52.76953L177.2689,53.45964L180.1693,53.45964L180.1693,58.7819C180.1693,59.1302,179.9805,59.3125,179.6094,59.3125C179.1504,59.3125,178.6589,59.293,178.138,59.260400000000004L178.2878,59.9733L179.86,59.9733C180.5404,59.9733,180.8887,59.6315,180.8887,58.9609L180.8887,53.45964L181.99869999999999,53.45964L181.99869999999999,52.76953L180.8887,52.76953L180.8887,50.8099L180.1693,50.8099L180.1693,52.76953L177.2689,52.76953ZM173.6882,53.42057L173.2096,53.86979C173.9095,54.65104,174.5475,55.42253,175.1074,56.17122C174.5898,57.15104,173.8574,58.0007,172.9199,58.7201L173.3398,59.3516C174.2578,58.5931,175,57.73047,175.5501,56.770179999999996C175.9082,57.28125,176.2402,57.78255,176.5397,58.2806L177.0573,57.76302C176.709,57.199870000000004,176.3184,56.63021,175.8984,56.07031C176.4193,54.96029,176.6992,53.72005,176.748,52.36263L176.748,51.83203L173.3594,51.83203L173.3594,52.5319L176.1003,52.5319C176.0286,53.58984,175.8073,54.56966,175.4395,55.47135C174.8991,54.79102,174.3197,54.10091,173.6882,53.42057ZM177.8092,54.64128L177.2591,55.041669999999996C177.8776,55.8099,178.3887,56.542320000000004,178.7891,57.23242L179.3587,56.83203C178.9974,56.19076,178.4798,55.46159,177.8092,54.64128ZM191.7285,52.75977L189.58010000000002,53.42057L189.58010000000002,50.82943L188.8802,50.82943L188.8802,53.64193L187.4186,54.09115L187.4186,51.85156L186.7188,51.85156L186.7188,54.3125L185.8789,54.56966L185.8789,55.27279L186.7188,55.01237L186.7188,58.821C186.7188,59.4818,187.0475,59.8203,187.7181,59.8203L190.8789,59.8203C191.25,59.8203,191.5202,59.7227,191.6895,59.5306C191.888,59.3125,192.0182,58.7005,192.0898,57.69141L191.4193,57.48307C191.3802,58.2904,191.2988,58.7819,191.1882,58.9414C191.11,59.071600000000004,190.9603,59.1432,190.74869999999999,59.1432L187.9395,59.1432C187.5879,59.1432,187.4186,58.9805,187.4186,58.681L187.4186,54.80078L188.8802,54.36133L188.8802,57.93229L189.58010000000002,57.93229L189.58010000000002,54.14974L191.0384,53.71029C191.0286,55.07096,190.9993,55.86198,190.9505,56.07031C190.8887,56.291669999999996,190.7194,56.40234,190.4492,56.40234C190.3288,56.40234,190.18880000000001,56.39258,190.0391,56.38281L190.2376,57.09245L190.2995,57.09245C191.0482,57.09245,191.4779,56.87109,191.5788,56.45117C191.6797,56.01172,191.7285,54.78125,191.7285,52.75977ZM186.0091,57.011070000000004C185.6283,57.1901,185.2279,57.362629999999996,184.8275,57.512370000000004L184.8275,54.19206L185.8691,54.19206L185.8691,53.49219L184.8275,53.49219L184.8275,50.91081L184.1178,50.91081L184.1178,53.49219L182.9785,53.49219L182.9785,54.19206L184.1178,54.19206L184.1178,57.75C183.6979,57.87044,183.278,57.981120000000004,182.8581,58.0723L183.0371,58.7917C184.0983,58.5117,185.0879,58.1504,186.0091,57.7207L186.0091,57.011070000000004ZM193.0469,51.229820000000004L193.0469,51.92969L197.2103,51.92969C197.1289,52.3724,196.99869999999999,52.792320000000004,196.8392,53.21224L193.6198,53.21224L193.6198,60.0319L194.3099,60.0319L194.3099,59.5306L200.7194,59.5306L200.7194,60.0319L201.4095,60.0319L201.4095,53.21224L197.5684,53.21224C197.7279,52.802080000000004,197.8581,52.3724,197.9395,51.92969L201.9499,51.92969L201.9499,51.229820000000004L193.0469,51.229820000000004ZM194.3099,58.873L194.3099,53.86003L195.6901,53.86003L195.6901,58.873L194.3099,58.873ZM196.35739999999998,58.873L196.35739999999998,57.5905L198.6393,57.5905L198.6393,58.873L196.35739999999998,58.873ZM199.3099,58.873L199.3099,53.86003L200.7194,53.86003L200.7194,58.873L199.3099,58.873ZM196.35739999999998,56.96224L196.35739999999998,55.74154L198.6393,55.74154L198.6393,56.96224L196.35739999999998,56.96224ZM196.35739999999998,55.10026L196.35739999999998,53.86003L198.6393,53.86003L198.6393,55.10026L196.35739999999998,55.10026ZM207.6302,50.770830000000004L206.8392,50.91081C206.9596,51.14193,207.08010000000002,51.39258,207.17770000000002,51.67253L203.0794,51.67253L203.0794,52.33008L211.9108,52.33008L211.9108,51.67253L207.9492,51.67253C207.8483,51.3405,207.7376,51.04102,207.6302,50.770830000000004ZM210.3092,59.9733C211.0384,59.9733,211.4095,59.650999999999996,211.4095,59.022800000000004L211.4095,55.520179999999996L203.5872,55.520179999999996L203.5872,60.0026L204.2773,60.0026L204.2773,56.15169L210.7194,56.15169L210.7194,58.873C210.7194,59.192099999999996,210.5078,59.3516,210.0977,59.3516L209.3001,59.3223L209.4694,59.9733L210.3092,59.9733ZM204.707,52.98112L204.707,54.92122L210.2995,54.92122L210.2995,52.98112L204.707,52.98112ZM209.5996,54.36133L205.4102,54.36133L205.4102,53.54102L209.5996,53.54102L209.5996,54.36133ZM205.5371,56.79297L205.5371,58.7917L209.4694,58.7917L209.4694,56.79297L205.5371,56.79297ZM208.8281,58.2513L206.1882,58.2513L206.1882,57.33008L208.8281,57.33008L208.8281,58.2513ZM167.88086,64.73179999999999C167.44141,65.3698,167.10286,66.0599,166.85221,66.7923C166.55273,67.6517,166.41276,68.52080000000001,166.41276,69.4128C166.41276,70.28190000000001,166.55273,71.151,166.85221,72.0104C167.10286,72.73310000000001,167.44141,73.42320000000001,167.88086,74.071L168.58073,74.071C168.17057,73.4004,167.85156,72.7103,167.63346,72.0007C167.33073,71.1217,167.19075,70.2526,167.19075,69.3997C167.19075,68.5404,167.33073,67.681,167.63346,66.8021C167.85156,66.07939999999999,168.17057,65.3926,168.58073,64.73179999999999L167.88086,64.73179999999999ZM171.97591,65.8613L169.16667,73L170.04557,73L170.80404,71.0013L174.0853,71.0013L174.847,73L175.7357,73L172.9264,65.8613L171.97591,65.8613ZM171.06445,70.3112L172.4349,66.7402L172.47396,66.7402L173.8249,70.3112L171.06445,70.3112ZM179.6029,65.7214C178.5514,65.7214,177.7214,66.0924,177.1126,66.8411C176.5332,67.5312,176.2533,68.4004,176.2533,69.4616C176.2533,70.5228,176.543,71.39189999999999,177.1224,72.0625C177.7409,72.78190000000001,178.623,73.14320000000001,179.7526,73.14320000000001C180.3418,73.14320000000001,180.8919,73.0618,181.4128,72.9023C181.901,72.7428,182.321,72.5312,182.6628,72.2513L182.6628,69.3314L179.6126,69.3314L179.6126,70.041L181.8522,70.041L181.8522,71.86070000000001C181.6016,72.0202,181.3021,72.1602,180.9538,72.2611C180.5924,72.362,180.2214,72.42060000000001,179.8307,72.42060000000001C178.903,72.42060000000001,178.2031,72.1406,177.7311,71.59049999999999C177.2917,71.0729,177.0703,70.36,177.0703,69.4616C177.0703,68.5404,177.2917,67.8112,177.7507,67.27080000000001C178.2129,66.7207,178.8216,66.4505,179.6029,66.4505C180.2311,66.4505,180.7422,66.6003,181.1328,66.90950000000001C181.5007,67.2025,181.7415,67.6126,181.8522,68.1497L182.6725,68.1497C182.5423,67.3717,182.2331,66.7826,181.7318,66.3724C181.2012,65.9297,180.4915,65.7214,179.6029,65.7214ZM184.05270000000002,65.8613L184.05270000000002,73L188.9909,73L188.9909,72.2904L184.8633,72.2904L184.8633,65.8613L184.05270000000002,65.8613ZM189.7461,64.73179999999999C190.1465,65.3926,190.4655,66.07939999999999,190.6966,66.8021C190.9863,67.681,191.1361,68.5404,191.1361,69.3997C191.1361,70.2526,190.9863,71.1217,190.6966,72.0007C190.4655,72.7103,190.1465,73.4004,189.7461,74.071L190.446,74.071C190.8756,73.42320000000001,191.2142,72.73310000000001,191.4746,72.0104C191.7643,71.151,191.9141,70.28190000000001,191.9141,69.4128C191.9141,68.52080000000001,191.7643,67.6517,191.4746,66.7923C191.2142,66.0599,190.8756,65.3698,190.446,64.73179999999999L189.7461,64.73179999999999Z" fill="#FFFFFF" fill-opacity="1"/></g></g><g><path d="M18.97368551269531,94.7631607055664Q17.423335512695314,94.7631607055664,15.907504512695313,95.9180767055664L16.513546512695314,96.7135107055664Q17.760875512695314,95.7631607055664,18.97368551269531,95.7631607055664Q20.186485512695313,95.7631607055664,21.433825512695314,96.7135107055664L21.73684551269531,96.9443807055664L22.039865512695314,96.7135107055664Q23.287195512695313,95.7631607055664,24.499995512695314,95.7631607055664Q25.71280551269531,95.7631607055664,26.960125512695313,96.7135107055664L27.26312551269531,96.9443807055664L27.56622551269531,96.7135107055664Q28.813525512695314,95.7631607055664,30.026325512695312,95.7631607055664Q31.239125512695313,95.7631607055664,32.48642551269531,96.7135107055664L32.78942551269532,96.9443807055664L33.09252551269532,96.7135107055664Q34.33982551269531,95.7631607055664,35.552625512695315,95.7631607055664Q36.765425512695316,95.7631607055664,38.01272551269531,96.7135107055664L38.31582551269531,96.9443807055664L38.61882551269531,96.7135107055664Q39.86612551269531,95.7631607055664,41.078925512695314,95.7631607055664Q42.29172551269531,95.7631607055664,43.539125512695314,96.7135107055664L43.84212551269531,96.9443807055664L44.145125512695316,96.7135107055664Q45.39242551269531,95.7631607055664,46.60522551269531,95.7631607055664Q47.818025512695314,95.7631607055664,49.06542551269531,96.7135107055664L49.36842551269531,96.9443807055664L49.671425512695315,96.7135107055664Q50.91872551269531,95.7631607055664,52.131625512695315,95.7631607055664Q53.34442551269531,95.7631607055664,54.59172551269531,96.7135107055664L54.89472551269531,96.9443807055664L55.197725512695314,96.7135107055664Q56.44512551269531,95.7631607055664,57.657925512695314,95.7631607055664Q58.870725512695316,95.7631607055664,60.11802551269531,96.7135107055664L60.72402551269531,95.9180767055664Q59.208225512695314,94.7631607055664,57.657925512695314,94.7631607055664Q56.26232551269531,94.7631607055664,54.89472551269531,95.69898170556641Q53.527125512695314,94.7631607055664,52.131625512695315,94.7631607055664Q50.73602551269531,94.7631607055664,49.36842551269531,95.69898070556641Q48.000825512695315,94.7631607055664,46.60522551269531,94.7631607055664Q45.209725512695314,94.7631607055664,43.84212551269531,95.6989797055664Q42.47452551269531,94.7631607055664,41.078925512695314,94.7631607055664Q39.68342551269531,94.7631607055664,38.31582551269531,95.6989797055664Q36.948225512695316,94.7631607055664,35.552625512695315,94.7631607055664Q34.15702551269531,94.7631607055664,32.78942551269532,95.6989797055664Q31.42192551269531,94.7631607055664,30.026325512695312,94.7631607055664Q28.630725512695314,94.7631607055664,27.26312551269531,95.6989787055664Q25.895575512695313,94.7631607055664,24.499995512695314,94.7631607055664Q23.10443551269531,94.7631607055664,21.73684551269531,95.69897670556641Q20.36924551269531,94.7631607055664,18.97368551269531,94.7631607055664Z" fill-rule="evenodd" fill="#FFFFFF" fill-opacity="1"/></g><g><g><g><path d="M59,73L63.5,78L54.5,78L59,73ZM61,78.5L61,80L57,80L57,78.5L61,78.5ZM61,82.5L61,81L57,81L57,82.5L61,82.5ZM58.41609,83.01050000000001L59,83L59.5839,83.01050000000001C63.7296,83.16,67,84.889,67,87C67,89.2091,63.4183,91,59,91C54.58172,91,51,89.2091,51,87C51,84.889,54.27042,83.16,58.41609,83.01050000000001ZM69,88C69,85.2386,64.5228,83,59,83L58.706720000000004,83.0026L58.379419999999996,83.0095C53.14563,83.1697,49,85.3428,49,88C49,90.7614,53.47715,93,59,93C64.5228,93,69,90.7614,69,88ZM57.87714,84.1709L57.52809,85.6679L60.5111,85.6679L60.1631,84.1709L61.4978,84.1709L62.8771,88.8297L61.2478,88.8297L60.7901,86.8669L57.24909,86.8669L56.79239,88.8297L55.16309,88.8297L56.542410000000004,84.1709L57.87714,84.1709Z" fill-rule="evenodd" fill="#FFFFFF" fill-opacity="1"/></g><g mask="url(#master_svg1_7132_044522/125_04718)"><g></g></g></g></g><g><path d="M143.50077807617185,95.5400390625Q144.63487807617187,95.5400390625,145.82977807617186,96.7348690625L146.5368780761719,96.0277680625Q145.04917807617187,94.5400390625,143.50077807617185,94.5400390625Q142.13587807617188,94.5400390625,140.81817807617188,95.6959680625Q139.50047807617187,94.5400390625,138.1355780761719,94.5400390625Q136.7707780761719,94.5400390625,135.4530780761719,95.6959730625Q134.13527807617186,94.5400390625,132.77047807617186,94.5400390625Q131.40567807617188,94.5400390625,130.08787807617188,95.6959710625Q128.77017807617187,94.5400390625,127.40537807617187,94.5400390625Q126.04047807617188,94.5400390625,124.72277807617188,95.6959700625Q123.40507807617188,94.5400390625,122.04027807617187,94.5400390625Q120.67537807617188,94.5400390625,119.35767807617188,95.6959700625Q118.03997807617188,94.5400390625,116.67507807617187,94.5400390625Q115.31027807617187,94.5400390625,113.99257807617187,95.6959710625Q112.67477807617188,94.5400390625,111.30997807617187,94.5400390625Q109.94517807617189,94.5400390625,108.62737807617188,95.6959710625Q107.30967807617188,94.5400390625,105.94487807617188,94.5400390625Q104.57997807617187,94.5400390625,103.26227807617187,95.6959720625Q101.94457807617187,94.5400390625,100.57967807617187,94.5400390625Q99.21487807617189,94.5400390625,97.89717807617188,95.6959710625Q96.57947807617188,94.5400390625,95.21457807617188,94.5400390625Q93.84977807617187,94.5400390625,92.53207807617187,95.6959700625Q91.21437807617187,94.5400390625,89.84947807617188,94.5400390625Q88.48467807617187,94.5400390625,87.16687807617188,95.6959700625Q85.84917807617188,94.5400390625,84.48437807617188,94.5400390625Q83.11947807617187,94.5400390625,81.80177807617187,95.6959710625Q80.48407807617187,94.5400390625,79.11917807617188,94.5400390625Q77.75437807617188,94.5400390625,76.43667807617187,95.6959700625Q75.11897807617187,94.5400390625,73.75407807617188,94.5400390625Q72.38927807617188,94.5400390625,71.07157807617187,95.6959710625Q69.75381807617188,94.5400390625,68.38896807617188,94.5400390625Q67.02411807617187,94.5400390625,65.70640807617187,95.6959710625Q64.38868807617187,94.5400390625,63.02383807617188,94.5400390625Q61.47544807617187,94.5400390625,59.98772507617188,96.0277670625L60.69483107617187,96.7348790625Q61.88966807617187,95.5400390625,63.02383807617188,95.5400390625Q64.15801807617187,95.5400390625,65.35284807617188,96.7348690625L65.70640807617187,97.0884290625L66.05995807617188,96.7348790625Q67.25479807617188,95.5400390625,68.38896807617188,95.5400390625Q69.52313807617188,95.5400390625,70.71797807617187,96.7348790625L71.07157807617187,97.0884290625L71.42507807617187,96.7348790625Q72.61987807617187,95.5400390625,73.75407807617188,95.5400390625Q74.88827807617187,95.5400390625,76.08307807617187,96.7348790625L76.43667807617187,97.0884290625L76.79017807617187,96.7348690625Q77.98507807617187,95.5400390625,79.11917807617188,95.5400390625Q80.25337807617187,95.5400390625,81.44827807617187,96.7348790625L81.80177807617187,97.0884290625L82.15537807617187,96.7348790625Q83.35017807617187,95.5400390625,84.48437807617188,95.5400390625Q85.61847807617187,95.5400390625,86.81337807617187,96.7348790625L87.16687807617188,97.0884290625L87.52047807617188,96.7348790625Q88.71527807617187,95.5400390625,89.84947807617188,95.5400390625Q90.98367807617187,95.5400390625,92.17847807617187,96.7348790625L92.53207807617187,97.0884290625L92.88557807617187,96.7348790625Q94.08047807617187,95.5400390625,95.21457807617188,95.5400390625Q96.34877807617187,95.5400390625,97.54357807617188,96.7348790625L97.89717807617188,97.0884290625L98.25067807617188,96.7348790625Q99.44557807617187,95.5400390625,100.57967807617187,95.5400390625Q101.71387807617188,95.5400390625,102.90877807617187,96.7348790625L103.26227807617187,97.0884290625L103.61587807617187,96.7348790625Q104.81067807617188,95.5400390625,105.94487807617188,95.5400390625Q107.07897807617186,95.5400390625,108.27387807617188,96.7348790625L108.62737807617188,97.0884290625L108.98097807617188,96.7348790625Q110.17577807617187,95.5400390625,111.30997807617187,95.5400390625Q112.44417807617188,95.5400390625,113.63897807617187,96.7348790625L113.99257807617187,97.0884290625L114.34607807617188,96.7348790625Q115.54097807617188,95.5400390625,116.67507807617187,95.5400390625Q117.80927807617188,95.5400390625,119.00407807617188,96.7348690625L119.35767807617188,97.0884290625L119.71117807617188,96.7348790625Q120.90607807617187,95.5400390625,122.04027807617187,95.5400390625Q123.17437807617188,95.5400390625,124.36927807617188,96.7348790625L124.72277807617188,97.0884290625L125.07637807617188,96.7348690625Q126.27117807617188,95.5400390625,127.40537807617187,95.5400390625Q128.5395780761719,95.5400390625,129.73437807617188,96.7348690625L130.08787807617188,97.0884290625L130.44147807617188,96.7348790625Q131.6362780761719,95.5400390625,132.77047807617186,95.5400390625Q133.90467807617188,95.5400390625,135.09947807617186,96.7348690625L135.4530780761719,97.0884290625L135.8065780761719,96.7348790625Q137.00147807617188,95.5400390625,138.1355780761719,95.5400390625Q139.26977807617186,95.5400390625,140.46457807617188,96.7348690625L140.81817807617188,97.0884290625L141.17177807617188,96.7348790625Q142.3665780761719,95.5400390625,143.50077807617185,95.5400390625Z" fill-rule="evenodd" fill="#FFFFFF" fill-opacity="1"/></g><g><path d="M169.84947807617186,95.5400390625Q170.98367807617188,95.5400390625,172.17847807617187,96.7348790625L172.88557807617187,96.0277670625Q171.39787807617188,94.5400390625,169.84947807617186,94.5400390625Q168.48467807617186,94.5400390625,167.16687807617188,95.6959700625Q165.84917807617188,94.5400390625,164.48437807617188,94.5400390625Q163.11947807617187,94.5400390625,161.80177807617187,95.6959710625Q160.48407807617187,94.5400390625,159.11917807617186,94.5400390625Q157.75437807617186,94.5400390625,156.4366780761719,95.6959700625Q155.11897807617189,94.5400390625,153.75407807617188,94.5400390625Q152.38927807617188,94.5400390625,151.07157807617187,95.6959710625Q149.75381807617188,94.5400390625,148.38896807617186,94.5400390625Q147.02411807617187,94.5400390625,145.70640807617187,95.6959710625Q144.3886880761719,94.5400390625,143.02383807617187,94.5400390625Q141.4754480761719,94.5400390625,139.98772507617187,96.0277670625L140.69483107617188,96.7348790625Q141.8896680761719,95.5400390625,143.02383807617187,95.5400390625Q144.15801807617189,95.5400390625,145.35284807617188,96.7348690625L145.70640807617187,97.0884290625L146.05995807617188,96.7348790625Q147.25479807617188,95.5400390625,148.38896807617186,95.5400390625Q149.52313807617188,95.5400390625,150.71797807617187,96.7348790625L151.07157807617187,97.0884290625L151.42507807617187,96.7348790625Q152.6198780761719,95.5400390625,153.75407807617188,95.5400390625Q154.88827807617187,95.5400390625,156.0830780761719,96.7348790625L156.4366780761719,97.0884290625L156.79017807617188,96.7348690625Q157.98507807617187,95.5400390625,159.11917807617186,95.5400390625Q160.25337807617188,95.5400390625,161.44827807617187,96.7348790625L161.80177807617187,97.0884290625L162.15537807617187,96.7348790625Q163.3501780761719,95.5400390625,164.48437807617188,95.5400390625Q165.61847807617187,95.5400390625,166.8133780761719,96.7348790625L167.16687807617188,97.0884290625L167.52047807617188,96.7348790625Q168.71527807617187,95.5400390625,169.84947807617186,95.5400390625Z" fill-rule="evenodd" fill="#FFFFFF" fill-opacity="1"/></g><g><path d="M196.84950859375,95.5400390625Q197.98370859375,95.5400390625,199.17850859375,96.7348790625L199.88560859375,96.0277670625Q198.39790859375,94.5400390625,196.84950859375,94.5400390625Q195.48470859374999,94.5400390625,194.16690859375,95.6959700625Q192.84920859375,94.5400390625,191.48440859375,94.5400390625Q190.11950859375,94.5400390625,188.80180859375,95.6959710625Q187.48410859375,94.5400390625,186.11920859375,94.5400390625Q184.75440859375,94.5400390625,183.43670859375,95.6959700625Q182.11900859375,94.5400390625,180.75410859375,94.5400390625Q179.38930859375,94.5400390625,178.07160859375,95.6959710625Q176.75384859375,94.5400390625,175.38899859375,94.5400390625Q174.02414859375,94.5400390625,172.70643859375,95.6959710625Q171.38871859375,94.5400390625,170.02386859375,94.5400390625Q168.47547859375,94.5400390625,166.98775559375,96.0277670625L167.69486159375,96.7348790625Q168.88969859375,95.5400390625,170.02386859375,95.5400390625Q171.15804859375,95.5400390625,172.35287859375,96.7348690625L172.70643859375,97.0884290625L173.05998859375,96.7348790625Q174.25482859375,95.5400390625,175.38899859375,95.5400390625Q176.52316859375,95.5400390625,177.71800859375,96.7348790625L178.07160859375,97.0884290625L178.42510859375,96.7348790625Q179.61990859375,95.5400390625,180.75410859375,95.5400390625Q181.88830859375,95.5400390625,183.08310859375,96.7348790625L183.43670859375,97.0884290625L183.79020859375,96.7348690625Q184.98510859375,95.5400390625,186.11920859375,95.5400390625Q187.25340859375,95.5400390625,188.44830859375,96.7348790625L188.80180859375,97.0884290625L189.15540859375,96.7348790625Q190.35020859375,95.5400390625,191.48440859375,95.5400390625Q192.61850859375,95.5400390625,193.81340859375,96.7348790625L194.16690859375,97.0884290625L194.52050859375,96.7348790625Q195.71530859375,95.5400390625,196.84950859375,95.5400390625Z" fill-rule="evenodd" fill="#FFFFFF" fill-opacity="1"/></g><g><path d="M153.813,94.3761Q159.716,95.1756,160.871,95.4832L161.129,94.5168Q159.912,94.1931,153.947,93.3852Q149.23399999999998,92.7467,148.261,92.525Q147.726,92.4031,147.11599999999999,91.1381Q146.692,90.2574,145.862,87.79134Q144.50900000000001,83.77351,143.51,82.04551000000001Q141.727,78.9621906,139.215,78.55479Q136.728,78.151673,134.774,80.72261Q133.69400000000002,82.14414,132.08100000000002,85.82395Q130.96699999999998,88.36473,130.402,89.2282Q129.608,90.4417,128.92770000000002,90.3618Q127.6825,90.2154,125.8735,89.2088Q124.7454,88.58098,122.307,86.92403Q119.0181,84.68911,117.3032,83.82508Q114.3528,82.33861,111.9874,82.3936Q108.6527,82.47112,104.52,84.98078Q102.2719,86.34597,99.1504,88.94513Q98.2703,89.678,98.0722,89.807Q97.9582,89.8811,97.0779,88.76916Q95.9443,87.33734,95.1485,86.789Q93.6855,85.78094,92.02369999999999,86.25303Q90.87049999999999,86.58064,89.4263,87.53796Q88.57820000000001,88.10019,86.85849999999999,89.449Q84.73949999999999,91.111,83.6554,91.7763Q81.8877,92.8611,80.4417,93.0559Q79.76820000000001,93.1466,76.723,92.6289Q70.75,91.6133,66.5133,91.5002Q63.8684,91.4296,63.0454,91.3161Q62.6691,91.2643,61.9294,91.2769Q61.2249,91.289,57.3523,91.4076Q55.139399999999995,91.47540000000001,53.697500000000005,91.519Q45.8804,91.7555,28.9199468,94.5064L29.0800532,95.4935Q45.976,92.753,53.7278,92.51859999999999Q55.1712,92.4749,57.382999999999996,92.4071Q62.4998,92.2504,62.9088,92.3068Q63.7866,92.4277,66.4867,92.4998Q70.6523,92.6111,76.55539999999999,93.6147Q79.7507,94.158,80.5752,94.0469Q82.23060000000001,93.8239,84.1785,92.6286Q85.3115,91.9333,87.4757,90.2358Q89.164,88.91164,89.97890000000001,88.37146Q91.29339999999999,87.50008,92.297,87.21497Q93.5059,86.87155,94.5811,87.61245Q95.2533,88.07566,96.2938,89.3899Q96.9455,90.213,97.2572,90.4701Q97.9757,91.0629,98.6177,90.645Q98.8651,90.484,99.7903,89.7136Q102.8546,87.16208,105.0391,85.83553Q108.9432,83.46463,112.0107,83.39333Q114.1262,83.34415,116.8533,84.71814Q118.5099,85.55284,121.745,87.75113Q124.2202,89.4331,125.3873,90.0826Q127.3692,91.1855,128.8111,91.3549Q130.107,91.5072,131.239,89.7755Q131.849,88.84246,132.997,86.22539Q134.562,82.65458,135.57,81.32777Q137.161,79.234889,139.055,79.541899Q141.099,79.873384,142.64499999999998,82.54606Q143.594,84.18736,144.914,88.11032Q145.764,90.6354,146.215,91.5724Q147.034,93.2711,148.038,93.5Q149.055,93.7317,153.813,94.3761Z" fill-rule="evenodd" fill="#FFFFFF" fill-opacity="1"/></g><g><path d="M19.879,106.961L24.369999999999997,106.961L24.369999999999997,106.358L20.212,106.358C20.311,106.16,20.41,105.944,20.5,105.719L19.852,105.584C19.465,106.538,18.97,107.303,18.358,107.888L18.772,108.383C18.979,108.176,19.177,107.951,19.366,107.708C19.348,108.41,19.303,109.112,19.231,109.805L18.268,109.805L18.268,110.408L19.168,110.408C19.078,111.128,18.951999999999998,111.848,18.808,112.568L23.092,112.568C23.073999999999998,112.712,23.056,112.811,23.038,112.856C22.948,113.063,22.804000000000002,113.19800000000001,22.606,113.261C22.408,113.306,22.192,113.333,21.948999999999998,113.333C21.679000000000002,113.333,21.381999999999998,113.315,21.058,113.297L21.247,113.891C21.544,113.891,21.805,113.882,22.03,113.882C22.516,113.882,22.876,113.819,23.128,113.693C23.38,113.549,23.551000000000002,113.333,23.641,113.045C23.659,112.973,23.686,112.82,23.713,112.568L24.496000000000002,112.568L24.496000000000002,112.01L23.758,112.01C23.785,111.596,23.812,111.065,23.848,110.408L24.64,110.408L24.64,109.805L23.875,109.805C23.893,109.193,23.92,108.491,23.947,107.699L19.375,107.699C19.555,107.465,19.717,107.222,19.879,106.961ZM19.78,110.408L23.236,110.408C23.2,111.074,23.173000000000002,111.605,23.146,112.01L19.528,112.01C19.627,111.524,19.708,110.984,19.78,110.408ZM23.262999999999998,109.805L19.843,109.805C19.887999999999998,109.328,19.924,108.815,19.951,108.275L23.317,108.275C23.299,108.824,23.281,109.337,23.262999999999998,109.805ZM21.157,108.428L20.752,108.824C21.229,109.139,21.607,109.436,21.877,109.724L22.291,109.31C21.985,109.013,21.607,108.716,21.157,108.428ZM21.076,110.516L20.671,110.912C21.139,111.263,21.508,111.596,21.778,111.902L22.201,111.488C21.895,111.164,21.526,110.84,21.076,110.516ZM17.044,105.8L16.576,106.241C17.17,106.637,17.629,107.015,17.962,107.375L18.421,106.907C18.043,106.529,17.584,106.16,17.044,105.8ZM16.9,107.987L16.432,108.437C17.026,108.851,17.485,109.229,17.818,109.589L18.277,109.13C17.899,108.752,17.44,108.365,16.9,107.987ZM17.826999999999998,110.624C17.449,111.614,17.008,112.577,16.504,113.522L17.107,113.783C17.575,112.865,18.007,111.884,18.384999999999998,110.84L17.826999999999998,110.624ZM25.872999999999998,106.05199999999999L25.872999999999998,106.682L29.131,106.682L29.131,110.084L25.512999999999998,110.084L25.512999999999998,110.705L29.131,110.705L29.131,113.891L29.797,113.891L29.797,110.705L33.486999999999995,110.705L33.486999999999995,110.084L29.797,110.084L29.797,106.682L33.144999999999996,106.682L33.144999999999996,106.05199999999999L25.872999999999998,106.05199999999999ZM26.971,107.258L26.368000000000002,107.555C26.71,108.158,27.034,108.842,27.34,109.616L27.942999999999998,109.319C27.637,108.572,27.313000000000002,107.888,26.971,107.258ZM32.074,107.213C31.813000000000002,107.897,31.462,108.581,31.021,109.283L31.597,109.58C32.038,108.896,32.397999999999996,108.203,32.668,107.492L32.074,107.213ZM34.495000000000005,106.007L34.495000000000005,106.637L38.239000000000004,106.637C38.167,107.033,38.05,107.411,37.906,107.789L35.007999999999996,107.789L35.007999999999996,113.92699999999999L35.629000000000005,113.92699999999999L35.629000000000005,113.477L41.397999999999996,113.477L41.397999999999996,113.92699999999999L42.019,113.92699999999999L42.019,107.789L38.563,107.789C38.707,107.42,38.824,107.033,38.896,106.637L42.504999999999995,106.637L42.504999999999995,106.007L34.495000000000005,106.007ZM35.629000000000005,112.883L35.629000000000005,108.374L36.870999999999995,108.374L36.870999999999995,112.883L35.629000000000005,112.883ZM37.474000000000004,112.883L37.474000000000004,111.731L39.525999999999996,111.731L39.525999999999996,112.883L37.474000000000004,112.883ZM40.129000000000005,112.883L40.129000000000005,108.374L41.397999999999996,108.374L41.397999999999996,112.883L40.129000000000005,112.883ZM37.474000000000004,111.164L37.474000000000004,110.066L39.525999999999996,110.066L39.525999999999996,111.164L37.474000000000004,111.164ZM37.474000000000004,109.49L37.474000000000004,108.374L39.525999999999996,108.374L39.525999999999996,109.49L37.474000000000004,109.49Z" fill="#F7B500" fill-opacity="1"/></g><g><path d="M89.30566,78.38379L87.37207,78.97852L87.37207,76.64648L86.74219,76.64648L86.74219,79.17773L85.42676,79.58203L85.42676,77.56641L84.79688,77.56641L84.79688,79.78125L84.04102,80.0127L84.04102,80.64551L84.79688,80.41113L84.79688,83.8389C84.79688,84.4336,85.09277,84.7383,85.69629,84.7383L88.54102,84.7383C88.875,84.7383,89.11816,84.6504,89.27051,84.47749999999999C89.44922,84.2812,89.56641,83.7305,89.63086,82.8223L89.02734,82.6348C88.99219,83.3613,88.91895,83.80369999999999,88.81934,83.9473C88.74902,84.0645,88.61426,84.1289,88.42383,84.1289L85.89551,84.1289C85.5791,84.1289,85.42676,83.9824,85.42676,83.7129L85.42676,80.2207L86.74219,79.8252L86.74219,83.0391L87.37207,83.0391L87.37207,79.63477L88.68457,79.23926C88.67578,80.46387,88.64941,81.1758,88.60547,81.3633C88.5498,81.5625,88.39746,81.6621,88.1543,81.6621C88.0459,81.6621,87.91992,81.6533,87.78516,81.6445L87.96387,82.2832L88.01953,82.2832C88.69336,82.2832,89.08008,82.084,89.1709,81.70609999999999C89.26172,81.3105,89.30566,80.20312,89.30566,78.38379ZM84.1582,82.21000000000001C83.81543,82.3711,83.45508,82.5264,83.09473,82.6611L83.09473,79.67285L84.03223,79.67285L84.03223,79.04297L83.09473,79.04297L83.09473,76.71973L82.45605,76.71973L82.45605,79.04297L81.430664,79.04297L81.430664,79.67285L82.45605,79.67285L82.45605,82.875C82.07812,82.9834,81.700195,83.083,81.322266,83.16499999999999L81.483398,83.8125C82.43848,83.5605,83.3291,83.2354,84.1582,82.8486L84.1582,82.21000000000001ZM90.49219,77.00684L90.49219,77.63672L94.2393,77.63672C94.166,78.03516,94.0488,78.41309,93.9053,78.79102L91.0078,78.79102L91.0078,84.92869999999999L91.6289,84.92869999999999L91.6289,84.47749999999999L97.39750000000001,84.47749999999999L97.39750000000001,84.92869999999999L98.01859999999999,84.92869999999999L98.01859999999999,78.79102L94.5615,78.79102C94.7051,78.42188,94.8223,78.03516,94.8955,77.63672L98.50489999999999,77.63672L98.50489999999999,77.00684L90.49219,77.00684ZM91.6289,83.8857L91.6289,79.37402L92.8711,79.37402L92.8711,83.8857L91.6289,83.8857ZM93.4717,83.8857L93.4717,82.73140000000001L95.5254,82.73140000000001L95.5254,83.8857L93.4717,83.8857ZM96.1289,83.8857L96.1289,79.37402L97.39750000000001,79.37402L97.39750000000001,83.8857L96.1289,83.8857ZM93.4717,82.166L93.4717,81.06739999999999L95.5254,81.06739999999999L95.5254,82.166L93.4717,82.166ZM93.4717,80.49023L93.4717,79.37402L95.5254,79.37402L95.5254,80.49023L93.4717,80.49023Z" fill="#F7B500" fill-opacity="1"/></g><g transform="matrix(0,1,-1,0,155.5,-118.5)"><path d="M136.5,18.5L137.5,18.5L137.500002,17.999998L136.499998,17.999998L136.5,18.5ZM136.5,21.54L137.5,21.54L137.5,21.04L136.5,21.04L136.5,21.54ZM137.5,25.08L137.5,24.08L136.5,24.08L136.5,25.08L137.5,25.08ZM137.5,28.119999999999997L137.5,27.119999999999997L136.5,27.119999999999997L136.5,28.119999999999997L137.5,28.119999999999997ZM137.5,31.16L137.5,30.16L136.5,30.16L136.5,31.16L137.5,31.16ZM137.5,34.2L137.5,33.2L136.5,33.2L136.5,34.2L137.5,34.2ZM137.5,37.239999999999995L137.5,36.239999999999995L136.5,36.239999999999995L136.5,37.239999999999995L137.5,37.239999999999995ZM137.5,40.28L137.5,39.28L136.5,39.28L136.5,40.28L137.5,40.28ZM137.5,43.32L137.5,42.32L136.5,42.32L136.5,43.32L137.5,43.32ZM137.5,46.36L137.5,45.36L136.5,45.36L136.5,46.36L137.5,46.36ZM137.5,49.4L137.5,48.4L136.5,48.4L136.5,49.4L137.5,49.4ZM137.5,52.44L137.5,51.44L136.5,51.44L136.5,52.44L137.5,52.44ZM137.5,55.48L137.5,54.48L136.5,54.48L136.5,55.48L137.5,55.48ZM137.5,58.52L137.5,57.52L136.5,57.52L136.5,58.52L137.5,58.52ZM137.5,61.56L137.5,60.56L136.5,60.56L136.5,61.56L137.5,61.56ZM137.5,64.6L137.5,63.6L136.5,63.6L136.5,64.6L137.5,64.6ZM137.5,67.64L137.5,66.64L136.5,66.64L136.5,67.64L137.5,67.64ZM137.5,70.68L137.5,69.68L136.5,69.68L136.5,70.68L137.5,70.68ZM137.5,73.72L137.5,72.72L136.5,72.72L136.5,73.72L137.5,73.72ZM137.5,76.75999999999999L137.5,75.75999999999999L136.5,75.75999999999999L136.5,76.75999999999999L137.5,76.75999999999999ZM137.5,79.8L137.5,78.8L136.5,78.8L136.5,79.8L137.5,79.8ZM137.5,82.84L137.5,81.84L136.5,81.84L136.5,82.84L137.5,82.84ZM137.5,85.88L137.5,84.88L136.5,84.88L136.5,85.88L137.5,85.88ZM137.5,88.92L137.5,87.92L136.5,87.92L136.5,88.92L137.5,88.92ZM137.5,91.96L137.5,90.96L136.5,90.96L136.5,91.96L137.5,91.96ZM136.5,94.5L136.499998,95L137.5,95L137.5,94.5L136.5,94.5Z" fill-rule="evenodd" fill="#FFFFFF" fill-opacity="1"/></g><g transform="matrix(-1,0,0,-1,116.5849609375,158)"><path d="M57.79248046875,79L58.79248046875,79L58.79248246875,78.499998L57.79247846875,78.499998L57.79248046875,79ZM57.79248046875,82L58.79248046875,82L58.79248046875,81.5L57.79248046875,81.5L57.79248046875,82ZM58.79248046875,85.5L58.79248046875,84.5L57.79248046875,84.5L57.79248046875,85.5L58.79248046875,85.5ZM58.79248046875,88.5L58.79248046875,87.5L57.79248046875,87.5L57.79248046875,88.5L58.79248046875,88.5ZM58.79248046875,91.5L58.79248046875,90.5L57.79248046875,90.5L57.79248046875,91.5L58.79248046875,91.5ZM58.79248046875,94.5L58.79248046875,93.5L57.79248046875,93.5L57.79248046875,94.5L58.79248046875,94.5ZM58.79248046875,97.5L58.79248046875,96.5L57.79248046875,96.5L57.79248046875,97.5L58.79248046875,97.5ZM58.79248046875,100.5L58.79248046875,99.5L57.79248046875,99.5L57.79248046875,100.5L58.79248046875,100.5ZM58.79248046875,103.5L58.79248046875,102.5L57.79248046875,102.5L57.79248046875,103.5L58.79248046875,103.5ZM58.79248046875,106.5L58.79248046875,105.5L57.79248046875,105.5L57.79248046875,106.5L58.79248046875,106.5ZM58.79248046875,109.5L58.79248046875,108.5L57.79248046875,108.5L57.79248046875,109.5L58.79248046875,109.5ZM58.79248046875,112.5L58.79248046875,111.5L57.79248046875,111.5L57.79248046875,112.5L58.79248046875,112.5ZM58.79248046875,115.5L58.79248046875,114.5L57.79248046875,114.5L57.79248046875,115.5L58.79248046875,115.5ZM58.79248046875,118.5L58.79248046875,117.5L57.79248046875,117.5L57.79248046875,118.5L58.79248046875,118.5ZM58.79248046875,121.5L58.79248046875,120.5L57.79248046875,120.5L57.79248046875,121.5L58.79248046875,121.5ZM58.79248046875,124.5L58.79248046875,123.5L57.79248046875,123.5L57.79248046875,124.5L58.79248046875,124.5ZM58.79248046875,127.5L58.79248046875,126.5L57.79248046875,126.5L57.79248046875,127.5L58.79248046875,127.5ZM58.79248046875,130.5L58.79248046875,129.5L57.79248046875,129.5L57.79248046875,130.5L58.79248046875,130.5ZM58.79248046875,133.5L58.79248046875,132.5L57.79248046875,132.5L57.79248046875,133.5L58.79248046875,133.5ZM58.79248046875,136.5L58.79248046875,135.5L57.79248046875,135.5L57.79248046875,136.5L58.79248046875,136.5ZM57.79248046875,139L57.79247846875,139.5L58.79248046875,139.5L58.79248046875,139L57.79248046875,139Z" fill-rule="evenodd" fill="#FFFFFF" fill-opacity="1"/></g><g transform="matrix(1,0,0,-1,0,40)"><path d="M136.49869999999999,21.24808L145.2969,34.4453C145.7399,35.109899999999996,145.2635,36,144.4648,36L126.86852,36C126.06981999999999,36,125.59343,35.109899999999996,126.03647,34.4453L134.83462,21.24808C135.2304,20.654342,136.1029,20.654342,136.49869999999999,21.24808ZM127.61593,34.6L135.6667,22.52389L143.7174,34.6L127.61593,34.6Z" fill-rule="evenodd" fill="#FFFFFF" fill-opacity="1"/></g></g></g></svg>