<?xml version="1.0" standalone="no"?><!DOCTYPE svg PUBLIC "-//W3C//DTD SVG 1.1//EN" "http://www.w3.org/Graphics/SVG/1.1/DTD/svg11.dtd"><svg t="1765436905067" class="icon" viewBox="0 0 1024 1024" version="1.1" xmlns="http://www.w3.org/2000/svg" p-id="5143" xmlns:xlink="http://www.w3.org/1999/xlink" width="48" height="48"><path d="M526.1312 375.0912h-0.0512a34.90304 34.90304 0 0 0-32.4096-20.0704c-13.824 0.3584-26.112 8.8064-31.3856 21.6064L218.112 969.5744a34.97984 34.97984 0 0 0 7.7824 38.144 34.93376 34.93376 0 0 0 38.2464 7.2192l231.2704-99.1232 265.9328 99.7376a34.9952 34.9952 0 0 0 37.888-9.0112 34.88768 34.88768 0 0 0 5.9392-38.5024l-279.04-592.9472z" p-id="5144"></path><path d="M883.7632 209.92C802.048 83.968 654.2848 6.2464 494.592 6.2464c-150.784 0-290.2528 68.3008-374.9376 183.1424L6.2976 75.9808v313.9072h313.9072L169.472 239.1552c0.768-0.8704 1.4848-1.792 2.2016-2.7648C242.7392 135.936 363.4688 75.9808 494.592 75.9808c140.3392 0 269.4144 69.632 336.8448 181.7088 0.5632 0.9728 1.2288 1.8432 1.8944 2.7136l-129.4848 129.4848h313.9072V75.9808L883.8144 209.92z" p-id="5145"></path></svg>