<?xml version="1.0" standalone="no"?><!DOCTYPE svg PUBLIC "-//W3C//DTD SVG 1.1//EN" "http://www.w3.org/Graphics/SVG/1.1/DTD/svg11.dtd"><svg t="1770188589601" class="icon" viewBox="0 0 1024 1024" version="1.1" xmlns="http://www.w3.org/2000/svg" p-id="7537" xmlns:xlink="http://www.w3.org/1999/xlink" width="48" height="48"><path d="M510.037849 81.061993L146.76352 293.52704v75.446095a69.753093 69.753093 0 0 1 30.123166 57.510375A69.946544 69.946544 0 1 1 67.061491 369.028406v-80.475834c0-25.20397 13.375791-48.528697 35.097634-61.241226L474.276953 9.706016A70.913802 70.913802 0 0 1 545.992197 9.761288l369.85168 217.550058a70.913802 70.913802 0 0 1 34.959455 61.130682v107.918315c0 8.567139-6.964255 15.55903-15.531394 15.55903h-48.583969a15.55903 15.55903 0 0 1-15.55903-15.55903v-102.916211L510.065485 81.061993z m-2.183239 834.688061l363.274329-212.465047v-79.370398a69.808365 69.808365 0 0 1-30.123166-57.510375 69.946544 69.946544 0 1 1 109.797559 57.482739v84.400137c0 25.20397-13.348155 48.501061-35.097634 61.241226l-372.03492 217.577694a70.913802 70.913802 0 0 1-71.770516-0.082907L102.048581 769.473064a70.913802 70.913802 0 0 1-34.959454-61.130682v-107.918315c0-8.567139 6.964255-15.55903 15.531394-15.55903h48.583969c8.567139 0 15.55903 6.964255 15.55903 15.55903v102.916211l361.09109 212.409776z m13.956146-245.324171h80.890374l-127.926731-346.084779h-86.500468l-126.01985 346.084779h80.862737l26.337044-78.983494h126.019851l26.337043 78.983494z m-80.890374-257.677432l39.519383 120.382121h-92.165834l39.491748-120.382121c0.552719-2.818865 1.298889-5.831182 2.045059-8.89877 1.741064-7.130071 3.592671-14.647044 3.592671-21.19676h1.879243c1.879243 13.154704 3.758487 22.578557 5.63773 30.09553z m280.283625 255.798189V322.461861h-73.3734v346.084779h73.3734z" fill="#ffffff" p-id="7538"></path></svg>