<?xml version="1.0" standalone="no"?><!DOCTYPE svg PUBLIC "-//W3C//DTD SVG 1.1//EN" "http://www.w3.org/Graphics/SVG/1.1/DTD/svg11.dtd"><svg t="1770189443040" class="icon" viewBox="0 0 1024 1024" version="1.1" xmlns="http://www.w3.org/2000/svg" p-id="14682" xmlns:xlink="http://www.w3.org/1999/xlink" width="48" height="48"><path d="M699.584 96a32 32 0 0 1 0-64H896A96 96 0 0 1 992 128v204.352a32 32 0 1 1-64 0V128a32 32 0 0 0-32-32h-196.416z m228.416 628.672a32 32 0 1 1 64 0V896a96 96 0 0 1-96 96h-186.688a32 32 0 1 1 0-64H896a32 32 0 0 0 32-32v-171.328zM306.56 928a32 32 0 1 1 0 64H128A96 96 0 0 1 32 896v-202.56a32 32 0 1 1 64 0V896a32 32 0 0 0 32 32h178.56zM96 324.8a32 32 0 1 1-64 0V128A96 96 0 0 1 128 32h219.328a32 32 0 1 1 0 64H128a32 32 0 0 0-32 32v196.8zM799.872 571.52v-2.944c0.128-2.112 0.128-2.112 0.128-4.288 0-58.368-56.384-107.648-128-107.648l-4.16 0.064-24.64 0.64-6.912-23.552C622.4 386.752 571.776 352 512 352c-59.776 0-110.4 34.752-124.288 81.856l-6.912 23.616-24.64-0.64-4.16-0.128c-71.616 0-128 49.28-128 107.648l0.128 7.232C224 573.76 224 573.76 224 576A96 96 0 0 0 320 672h384A96 96 0 0 0 800 576l-0.128-4.48zM864 576a160 160 0 0 1-160 160H320A160 160 0 0 1 160 576c0-3.648 0-3.648 0.192-4.416-0.192-3.584-0.192-3.584-0.192-7.232 0-90.56 77.504-163.2 174.72-170.944C364.16 330.24 433.792 288 512 288s147.84 42.24 177.28 105.408c97.216 7.744 174.72 80.384 174.72 170.944 0 3.072 0 3.52-0.128 5.76 0.128 2.304 0.128 2.752 0.128 5.888z" fill="#ffffff" p-id="14683"></path></svg>