<?xml version="1.0" standalone="no"?><!DOCTYPE svg PUBLIC "-//W3C//DTD SVG 1.1//EN" "http://www.w3.org/Graphics/SVG/1.1/DTD/svg11.dtd"><svg class="icon" width="48px" height="48.00px" viewBox="0 0 1024 1024" version="1.1" xmlns="http://www.w3.org/2000/svg"><path fill="#be8dbd" d="M147.26315762 625.68421016H71.47368388v265.26315849c0 33.15789492 28.42105253 56.84210508 56.84210596 56.84210508h288.94736778v-71.05263135H147.26315762v-251.05263222zM890.94736865 71.47368388h-265.26315849v71.05263224h251.05263222v255.78947372h71.05263135V133.05263135c4.73684238-33.15789492-23.68421016-61.57894747-56.84210508-61.57894747zM876.73684238 876.73684238h-251.05263222v71.05263135h265.26315849c33.15789492 0 56.84210508-28.42105253 56.84210508-56.84210508v-265.26315849h-71.05263135v251.05263222zM147.26315762 147.26315762h279.47368477V71.47368388H133.05263135C99.89473643 71.47368388 76.21052627 99.89473643 76.21052627 128.31578984V393.57894747h71.05263135V147.26315762zM393.57894747 303.57894746L251.47368388 677.78947373h61.57894747l33.15789492-94.73684238h161.05263135l33.15789492 94.73684238h61.57894746l-142.10526357-374.21052626H393.57894747zM365.15789492 535.68421016l61.57894747-170.52631524L488.31578984 535.68421016H365.15789492zM639.89473643 303.57894746h56.84210596V677.78947373h-56.84210596z"  /></svg>