<svg xmlns="http://www.w3.org/2000/svg" xmlns:xlink="http://www.w3.org/1999/xlink" fill="none" version="1.1" width="238" height="126" viewBox="0 0 238 126"><defs><mask id="master_svg0_7132_044418/125_04803" style="mask-type:alpha" maskUnits="userSpaceOnUse"><g><path d="M136.0031,11.745124196090698C135.8661,9.381394196090698,133.90517,7.507345915090698,131.50599,7.507345915090698C129.0178,7.507345915090698,127,9.522934196090699,127,12.009704196090699C127,14.496474196090698,129.0178,16.512074196090698,131.50599,16.512074196090698L131.50599,14.994604196090698L131.28296,14.9864141960907C129.73663,14.872454196090699,128.51747,13.583104196090698,128.51747,12.009704196090699C128.51747,10.361384196090698,129.8555,9.024814196090698,131.50599,9.024814196090698C133.15617,9.024814196090698,134.49328,10.361074196090698,134.49328,12.009704196090699L136.01075,12.009704196090699L136.0031,11.745124196090698ZM148,12.009704196090699C148,9.522934196090699,145.9822,7.507345915090698,143.494,7.507345915090698C141.006,7.507345915090698,138.98930000000001,9.522784196090697,138.98930000000001,12.009704196090699L140.5067,12.009704196090699L140.5149,11.786924196090698C140.6289,10.242354196090698,141.9189,9.024814196090698,143.494,9.024814196090698C145.1445,9.024814196090698,146.48250000000002,10.361384196090698,146.48250000000002,12.009704196090699C146.48250000000002,13.658034196090698,145.1445,14.994604196090698,143.494,14.994604196090698L143.494,16.512074196090698L143.7587,16.504424196090696C146.1238,16.367494196090696,148,14.407664196090698,148,12.009704196090699ZM143.1153,22.7189341960907C143.3119,22.9055341960907,143.474,23.029534196090697,143.698,23.1417341960907C144.0162,23.2574341960907,144.2438,23.559834196090698,144.2438,23.9141341960907C144.2438,24.3688341960907,143.872,24.7373341960907,143.4132,24.7373341960907C143.0069,24.7373341960907,142.6696,24.4479341960907,142.597,24.0665341960907C142.4456,23.8350341960907,142.2073,23.574034196090697,142.0834,23.470034196090698C141.91649999999998,23.3000341960907,141.5102,23.003534196090698,141.0502,22.637434196090698C139.8431,21.6736341960907,138.5276,20.9544341960907,137.5385,20.9544341960907C136.5495,20.9544341960907,135.61646,21.5520341960907,134.60478,22.2559341960907C134.36288,22.4236341960907,133.89934,22.773234196090698,133.294,23.226734196090696C132.68747,23.680334196090698,132.33118,24.299134196090698,132.33118,24.299134196090698L132.32403,24.2909341960907C132.1858,24.556634196090698,131.90696,24.7373341960907,131.58642,24.7373341960907C131.12764,24.7373341960907,130.75586,24.3688341960907,130.75586,23.9141341960907C130.75586,23.532634196090697,131.01921,23.2114341960907,131.3755,23.119234196090698C131.87836,22.872434196090698,131.82116,22.976334196090697,132.26921,22.487434196090696C132.73513,21.9772341960907,133.29162,21.224834196090697,133.5216,20.9024341960907C134.35335,19.739134196090696,134.79185999999999,18.8651341960907,134.79185999999999,18.1434341960907C134.79185999999999,17.107694196090698,134.21274,16.3577241960907,133.61812,15.473114196090698C133.40721,15.160134196090699,132.95677,14.584954196090699,132.50396,14.0215941960907C132.05353,13.460584196090698,131.60786,13.020054196090697,131.17769,12.803914196090698L131.18127,12.801554196090699C130.92745,12.661014196090697,130.75586,12.391734196090699,130.75586,12.083474196090698C130.75586,11.6287641960907,131.12764,11.260274196090698,131.58642,11.260274196090698C131.99395,11.260274196090698,132.33237,11.551994196090698,132.40267,11.935844196090699C132.57427,12.396454196090698,133.5216,13.196034196090698,133.5216,13.196034196090698C133.5216,13.196034196090698,134.53447,13.956634196090699,134.79185999999999,14.1267041960907C136.7342,15.402244196090699,139.1794,15.114074196090698,140.5104,14.0215941960907C141.0943,13.542084196090698,142.0834,12.782664196090698,142.0834,12.782664196090698C142.2025,12.677544196090698,142.5159,12.267714196090697,142.585,12.0362341960907C142.6089,11.603964196090697,142.9711,11.260274196090698,143.4132,11.260274196090698C143.872,11.260274196090698,144.2438,11.6287641960907,144.2438,12.083474196090698C144.2438,12.414174196090698,144.0471,12.698804196090698,143.7624,12.829904196090698L143.7659,12.831084196090698C143.2893,13.042494196090697,143.0438,13.474764196090698,142.927,13.596414196090699C142.927,13.596414196090699,142.4039,14.331024196090699,141.7688,15.142414196090698C140.9025,16.250244196090698,140.346,17.258874196090698,140.3508,18.2486341960907C140.3555,19.2371341960907,141.0693,20.267034196090698,141.8701,21.2461341960907C142.3336,21.810634196090696,142.3431,21.990234196090697,143.1153,22.7189341960907ZM131.50599,21.004334196090696L131.50599,19.486834196090697L131.24127,19.494434196090697C128.87624,19.631434196090698,127,21.591234196090696,127,23.9892341960907C127,26.475934196090698,129.0178,28.491534196090697,131.50599,28.491534196090697C133.99402,28.491534196090697,136.01075,26.476134196090698,136.01075,23.9892341960907L134.49328,23.9892341960907L134.48509,24.2119341960907C134.37108,25.756534196090698,133.08116,26.9741341960907,131.50599,26.9741341960907C129.8555,26.9741341960907,128.51747,25.637534196090698,128.51747,23.9892341960907C128.51747,22.340834196090697,129.8555,21.004334196090696,131.50599,21.004334196090696ZM148,23.9892341960907C148,21.502434196090697,145.9822,19.486834196090697,143.494,19.486834196090697L143.494,21.004334196090696L143.7171,21.012534196090698C145.2634,21.1264341960907,146.48250000000002,22.4158341960907,146.48250000000002,23.9892341960907C146.48250000000002,25.637534196090698,145.1445,26.9741341960907,143.494,26.9741341960907C141.8438,26.9741341960907,140.5067,25.637834196090697,140.5067,23.9892341960907L138.98930000000001,23.9892341960907L138.9969,24.253734196090697C139.1339,26.6175341960907,141.0948,28.491534196090697,143.494,28.491534196090697C145.9822,28.491534196090697,148,26.475934196090698,148,23.9892341960907Z" fill-rule="evenodd" fill="#FFFFFF" fill-opacity="1"/></g></mask><mask id="master_svg1_7132_044432/125_04718" style="mask-type:alpha" maskUnits="userSpaceOnUse"><g><path d="M138,60L142.5,65L133.5,65L138,60ZM140,65.5L140,67L136,67L136,65.5L140,65.5ZM140,69.5L140,68L136,68L136,69.5L140,69.5ZM137.41609,70.01050000000001L138,70L138.5839,70.01050000000001C142.7296,70.16,146,71.889,146,74C146,76.2091,142.4183,78,138,78C133.58172,78,130,76.2091,130,74C130,71.889,133.27042,70.16,137.41609,70.01050000000001ZM148,75C148,72.2386,143.5228,70,138,70L137.70672,70.0026L137.37942,70.0095C132.14563,70.1697,128,72.3428,128,75C128,77.7614,132.47715,80,138,80C143.5228,80,148,77.7614,148,75ZM136.87714,71.1709L136.52809,72.6679L139.5111,72.6679L139.1631,71.1709L140.4978,71.1709L141.8771,75.8297L140.2478,75.8297L139.7901,73.8669L136.24909,73.8669L135.79239,75.8297L134.16309,75.8297L135.54241,71.1709L136.87714,71.1709Z" fill-rule="evenodd" fill="#FFFFFF" fill-opacity="1"/></g></mask></defs><g><g></g><g><g><g><g><g><path d="M136.0031,11.745124196090698C135.8661,9.381394196090698,133.90517,7.507345915090698,131.50599,7.507345915090698C129.0178,7.507345915090698,127,9.522934196090699,127,12.009704196090699C127,14.496474196090698,129.0178,16.512074196090698,131.50599,16.512074196090698L131.50599,14.994604196090698L131.28296,14.9864141960907C129.73663,14.872454196090699,128.51747,13.583104196090698,128.51747,12.009704196090699C128.51747,10.361384196090698,129.8555,9.024814196090698,131.50599,9.024814196090698C133.15617,9.024814196090698,134.49328,10.361074196090698,134.49328,12.009704196090699L136.01075,12.009704196090699L136.0031,11.745124196090698ZM148,12.009704196090699C148,9.522934196090699,145.9822,7.507345915090698,143.494,7.507345915090698C141.006,7.507345915090698,138.98930000000001,9.522784196090697,138.98930000000001,12.009704196090699L140.5067,12.009704196090699L140.5149,11.786924196090698C140.6289,10.242354196090698,141.9189,9.024814196090698,143.494,9.024814196090698C145.1445,9.024814196090698,146.48250000000002,10.361384196090698,146.48250000000002,12.009704196090699C146.48250000000002,13.658034196090698,145.1445,14.994604196090698,143.494,14.994604196090698L143.494,16.512074196090698L143.7587,16.504424196090696C146.1238,16.367494196090696,148,14.407664196090698,148,12.009704196090699ZM143.1153,22.7189341960907C143.3119,22.9055341960907,143.474,23.029534196090697,143.698,23.1417341960907C144.0162,23.2574341960907,144.2438,23.559834196090698,144.2438,23.9141341960907C144.2438,24.3688341960907,143.872,24.7373341960907,143.4132,24.7373341960907C143.0069,24.7373341960907,142.6696,24.4479341960907,142.597,24.0665341960907C142.4456,23.8350341960907,142.2073,23.574034196090697,142.0834,23.470034196090698C141.91649999999998,23.3000341960907,141.5102,23.003534196090698,141.0502,22.637434196090698C139.8431,21.6736341960907,138.5276,20.9544341960907,137.5385,20.9544341960907C136.5495,20.9544341960907,135.61646,21.5520341960907,134.60478,22.2559341960907C134.36288,22.4236341960907,133.89934,22.773234196090698,133.294,23.226734196090696C132.68747,23.680334196090698,132.33118,24.299134196090698,132.33118,24.299134196090698L132.32403,24.2909341960907C132.1858,24.556634196090698,131.90696,24.7373341960907,131.58642,24.7373341960907C131.12764,24.7373341960907,130.75586,24.3688341960907,130.75586,23.9141341960907C130.75586,23.532634196090697,131.01921,23.2114341960907,131.3755,23.119234196090698C131.87836,22.872434196090698,131.82116,22.976334196090697,132.26921,22.487434196090696C132.73513,21.9772341960907,133.29162,21.224834196090697,133.5216,20.9024341960907C134.35335,19.739134196090696,134.79185999999999,18.8651341960907,134.79185999999999,18.1434341960907C134.79185999999999,17.107694196090698,134.21274,16.3577241960907,133.61812,15.473114196090698C133.40721,15.160134196090699,132.95677,14.584954196090699,132.50396,14.0215941960907C132.05353,13.460584196090698,131.60786,13.020054196090697,131.17769,12.803914196090698L131.18127,12.801554196090699C130.92745,12.661014196090697,130.75586,12.391734196090699,130.75586,12.083474196090698C130.75586,11.6287641960907,131.12764,11.260274196090698,131.58642,11.260274196090698C131.99395,11.260274196090698,132.33237,11.551994196090698,132.40267,11.935844196090699C132.57427,12.396454196090698,133.5216,13.196034196090698,133.5216,13.196034196090698C133.5216,13.196034196090698,134.53447,13.956634196090699,134.79185999999999,14.1267041960907C136.7342,15.402244196090699,139.1794,15.114074196090698,140.5104,14.0215941960907C141.0943,13.542084196090698,142.0834,12.782664196090698,142.0834,12.782664196090698C142.2025,12.677544196090698,142.5159,12.267714196090697,142.585,12.0362341960907C142.6089,11.603964196090697,142.9711,11.260274196090698,143.4132,11.260274196090698C143.872,11.260274196090698,144.2438,11.6287641960907,144.2438,12.083474196090698C144.2438,12.414174196090698,144.0471,12.698804196090698,143.7624,12.829904196090698L143.7659,12.831084196090698C143.2893,13.042494196090697,143.0438,13.474764196090698,142.927,13.596414196090699C142.927,13.596414196090699,142.4039,14.331024196090699,141.7688,15.142414196090698C140.9025,16.250244196090698,140.346,17.258874196090698,140.3508,18.2486341960907C140.3555,19.2371341960907,141.0693,20.267034196090698,141.8701,21.2461341960907C142.3336,21.810634196090696,142.3431,21.990234196090697,143.1153,22.7189341960907ZM131.50599,21.004334196090696L131.50599,19.486834196090697L131.24127,19.494434196090697C128.87624,19.631434196090698,127,21.591234196090696,127,23.9892341960907C127,26.475934196090698,129.0178,28.491534196090697,131.50599,28.491534196090697C133.99402,28.491534196090697,136.01075,26.476134196090698,136.01075,23.9892341960907L134.49328,23.9892341960907L134.48509,24.2119341960907C134.37108,25.756534196090698,133.08116,26.9741341960907,131.50599,26.9741341960907C129.8555,26.9741341960907,128.51747,25.637534196090698,128.51747,23.9892341960907C128.51747,22.340834196090697,129.8555,21.004334196090696,131.50599,21.004334196090696ZM148,23.9892341960907C148,21.502434196090697,145.9822,19.486834196090697,143.494,19.486834196090697L143.494,21.004334196090696L143.7171,21.012534196090698C145.2634,21.1264341960907,146.48250000000002,22.4158341960907,146.48250000000002,23.9892341960907C146.48250000000002,25.637534196090698,145.1445,26.9741341960907,143.494,26.9741341960907C141.8438,26.9741341960907,140.5067,25.637834196090697,140.5067,23.9892341960907L138.98930000000001,23.9892341960907L138.9969,24.253734196090697C139.1339,26.6175341960907,141.0948,28.491534196090697,143.494,28.491534196090697C145.9822,28.491534196090697,148,26.475934196090698,148,23.9892341960907Z" fill-rule="evenodd" fill="#FEFEFE" fill-opacity="1"/></g><g mask="url(#master_svg0_7132_044418/125_04803)"><g></g></g></g></g><g><path d="M136.7623652420044,24.067994144169923L137.7622242420044,24.05123048416992L137.7538452420044,23.551298274169923L136.7539812420044,23.56806227416992L136.7623652420044,24.067994144169923ZM136.81388224200438,27.136532274169923L137.81388224200438,27.136532274169923L137.81388224200438,26.636532274169923L136.81388224200438,26.636532274169923L136.81388224200438,27.136532274169923ZM137.8654702420044,30.71345227416992L137.8654702420044,29.71345227416992L136.8654702420044,29.71345227416992L136.8654702420044,30.71345227416992L137.8654702420044,30.71345227416992ZM137.9170582420044,33.79038227416992L137.9170582420044,32.79038227416992L136.9170582420044,32.79038227416992L136.9170582420044,33.79038227416992L137.9170582420044,33.79038227416992ZM137.96864624200438,36.86731227416992L137.96864624200438,35.86731227416992L136.96864624200438,35.86731227416992L136.96864624200438,36.86731227416992L137.96864624200438,36.86731227416992ZM138.0202332420044,39.94421227416992L138.0202332420044,38.94421227416992L137.0202336420044,38.94421227416992L137.0202336420044,39.94421227416992L138.0202332420044,39.94421227416992ZM138.0718212420044,43.02111227416992L138.0718212420044,42.02111227416992L137.0718213420044,42.02111227416992L137.0718213420044,43.02111227416992L138.0718212420044,43.02111227416992ZM138.1234052420044,46.09811227416992L138.1234052420044,45.09811227416992L137.1234091420044,45.09811227416992L137.1234091420044,46.09811227416992L138.1234052420044,46.09811227416992ZM138.1749952420044,49.17501227416992L138.1749952420044,48.17501227416992L137.1749968420044,48.17501227416992L137.1749968420044,49.17501227416992L138.1749952420044,49.17501227416992ZM138.2265852420044,52.251912274169925L138.2265852420044,51.251912274169925L137.2265842420044,51.251912274169925L137.2265842420044,52.251912274169925L138.2265852420044,52.251912274169925ZM138.2781752420044,55.32881227416992L138.2781752420044,54.32881227416992L137.2781722420044,54.32881227416992L137.2781722420044,55.32881227416992L138.2781752420044,55.32881227416992ZM138.32975524200438,58.405812274169925L138.32975524200438,57.405812274169925L137.3297602420044,57.405812274169925L137.3297602420044,58.405812274169925L138.32975524200438,58.405812274169925ZM138.3813452420044,61.48271227416992L138.3813452420044,60.48271227416992L137.3813482420044,60.48271227416992L137.3813482420044,61.48271227416992L138.3813452420044,61.48271227416992ZM137.44124624200438,64.55961227416992L137.4329352420044,64.55961227416992L137.4329352420044,64.05961227416992L137.9329352420044,64.05961227416992L138.4328652420044,64.05121227416993L138.44124524200438,64.55121227416993L138.4329352420044,64.55131227416993L138.4329352420044,64.55961227416992L137.9372212420044,64.55961227416992L137.4413852420044,64.56791227416991L137.44124624200438,64.55961227416992Z" fill-rule="evenodd" fill="#FFFFFF" fill-opacity="1"/></g><g><g><path d="M142.49999773502,19L143,19L154.2843,19L154.7843,19L154.7843,17.99999773502L154.2843,18L143,18L142.49999773502,17.99999773502L142.49999773502,19Z" fill-rule="evenodd" fill="#00F380" fill-opacity="1"/></g><g><path d="M152.16667,20L155.83333,26L148.5,26L152.16667,20Z" fill-rule="evenodd" fill="#00F380" fill-opacity="1"/></g><g transform="matrix(1,0,0,-1,0,154)"><path d="M152.16667,77L155.83333,83L148.5,83L152.16667,77Z" fill-rule="evenodd" fill="#00F380" fill-opacity="1"/></g><g><path d="M151.49999773502,25.99999773502L151.5,26.5L151.5,27.51111L152.5,27.51111L152.5,26.5L152.5,25.99999773502L151.49999773502,25.99999773502ZM151.5,29.05555L151.5,30.57777L152.5,30.57777L152.5,28.55555L151.5,28.55555L151.5,29.05555ZM151.5,32.12222L151.5,33.64444L152.5,33.64444L152.5,31.62222L151.5,31.62222L151.5,32.12222ZM151.5,35.18889L151.5,36.7111L152.5,36.7111L152.5,34.68889L151.5,34.68889L151.5,35.18889ZM151.5,38.2556L151.5,39.7778L152.5,39.7778L152.5,37.7556L151.5,37.7556L151.5,38.2556ZM151.5,41.3222L151.5,42.8444L152.5,42.8444L152.5,40.8222L151.5,40.8222L151.5,41.3222ZM151.5,44.3889L151.5,45.911100000000005L152.5,45.911100000000005L152.5,43.8889L151.5,43.8889L151.5,44.3889ZM151.5,47.455600000000004L151.5,48.9778L152.5,48.9778L152.5,46.955600000000004L151.5,46.955600000000004L151.5,47.455600000000004ZM151.5,50.5222L151.5,52.044399999999996L152.5,52.044399999999996L152.5,50.0222L151.5,50.0222L151.5,50.5222ZM151.5,53.588899999999995L151.5,55.1111L152.5,55.1111L152.5,53.088899999999995L151.5,53.088899999999995L151.5,53.588899999999995ZM151.5,56.6556L151.5,58.1778L152.5,58.1778L152.5,56.1556L151.5,56.1556L151.5,56.6556ZM151.5,59.7222L151.5,61.2444L152.5,61.2444L152.5,59.2222L151.5,59.2222L151.5,59.7222ZM151.5,62.7889L151.5,64.31110000000001L152.5,64.31110000000001L152.5,62.2889L151.5,62.2889L151.5,62.7889ZM151.5,65.85560000000001L151.5,67.37780000000001L152.5,67.37780000000001L152.5,65.35560000000001L151.5,65.35560000000001L151.5,65.85560000000001ZM151.5,68.9222L151.5,70.4444L152.5,70.4444L152.5,68.4222L151.5,68.4222L151.5,68.9222ZM151.5,71.9889L151.5,72.5L151.49999773502,73L152.5,73L152.5,72.5L152.5,71.4889L151.5,71.4889L151.5,71.9889Z" fill-rule="evenodd" fill="#00F380" fill-opacity="1"/></g><g><path d="M147.684208,78L148.184211,78L154.92054,78L155.42054,78L155.42054,76.99999773502L154.92054,77L148.184211,77L147.684208,76.99999773502L147.684208,78Z" fill-rule="evenodd" fill="#00F380" fill-opacity="1"/></g></g><g><path d="M171.61784,51.42188L166.94987,51.42188L166.94987,60.0124L167.63997,60.0124L167.63997,59.3809L170.91797,59.3809L170.91797,60.0026L171.61784,60.0026L171.61784,51.42188ZM167.63997,58.7005L167.63997,56.93294L170.91797,56.93294L170.91797,58.7005L167.63997,58.7005ZM167.63997,56.262370000000004L167.63997,54.49154L170.91797,54.49154L170.91797,56.262370000000004L167.63997,56.262370000000004ZM167.63997,53.82096L167.63997,52.10221L170.91797,52.10221L170.91797,53.82096L167.63997,53.82096ZM165.1888,54.77148C165.46875,55.14258,165.79753,55.62109,166.17839,56.20052L166.56901,55.62109C166.11003,55.0319,165.64779,54.49154,165.1888,54.00977L165.1888,53.48242L166.47786,53.48242L166.47786,52.792320000000004L165.1888,52.792320000000004L165.1888,50.84245L164.47917,50.84245L164.47917,52.792320000000004L163.069661,52.792320000000004L163.069661,53.48242L164.45964,53.48242C164.13737,54.73242,163.61979,55.84245,162.88737,56.8125L163.167318,57.52214C163.70768,56.74089,164.13737,55.88151,164.47917,54.92122L164.47917,59.9928L165.1888,59.9928L165.1888,54.77148ZM177.2689,52.76953L177.2689,53.45964L180.1693,53.45964L180.1693,58.7819C180.1693,59.1302,179.9805,59.3125,179.6094,59.3125C179.1504,59.3125,178.6589,59.293,178.138,59.260400000000004L178.2878,59.9733L179.86,59.9733C180.5404,59.9733,180.8887,59.6315,180.8887,58.9609L180.8887,53.45964L181.99869999999999,53.45964L181.99869999999999,52.76953L180.8887,52.76953L180.8887,50.8099L180.1693,50.8099L180.1693,52.76953L177.2689,52.76953ZM173.6882,53.42057L173.2096,53.86979C173.9095,54.65104,174.5475,55.42253,175.1074,56.17122C174.5898,57.15104,173.8574,58.0007,172.9199,58.7201L173.3398,59.3516C174.2578,58.5931,175,57.73047,175.5501,56.770179999999996C175.9082,57.28125,176.2402,57.78255,176.5397,58.2806L177.0573,57.76302C176.709,57.199870000000004,176.3184,56.63021,175.8984,56.07031C176.4193,54.96029,176.6992,53.72005,176.748,52.36263L176.748,51.83203L173.3594,51.83203L173.3594,52.5319L176.1003,52.5319C176.0286,53.58984,175.8073,54.56966,175.4395,55.47135C174.8991,54.79102,174.3197,54.10091,173.6882,53.42057ZM177.8092,54.64128L177.2591,55.041669999999996C177.8776,55.8099,178.3887,56.542320000000004,178.7891,57.23242L179.3587,56.83203C178.9974,56.19076,178.4798,55.46159,177.8092,54.64128ZM191.8978,56.229820000000004L191.2207,56.00195C191.1784,56.581379999999996,191.1296,56.97201,191.0579,57.16081C190.9701,57.3724,190.778,57.48307,190.498,57.48307L189.1374,57.48307C188.85739999999998,57.47005,188.7174,57.33008,188.7174,57.0599L188.7174,54.76172L191.4193,54.76172L191.4193,51.4707L187.8288,51.4707L187.8288,52.14128L190.7194,52.14128L190.7194,54.07161L187.998,54.07161L187.998,57.32031C187.998,57.88997,188.278,58.182900000000004,188.8477,58.182900000000004L190.6283,58.182900000000004C191.1003,58.182900000000004,191.4095,58.0527,191.5592,57.81185C191.7188,57.57096,191.8392,57.04036,191.8978,56.229820000000004ZM183.7077,55.5918C183.6589,57.04036,183.3789,58.352199999999996,182.8776,59.5111L183.42770000000002,60.0026C183.6882,59.4232,183.89,58.8014,184.0495,58.1309C184.4271,58.7331,184.8796,59.162800000000004,185.3874,59.4004C185.9701,59.6706,187.4382,59.8105,189.7786,59.8105L191.9792,59.8105L192.0996,59.1107C191.5592,59.1432,190.7292,59.162800000000004,189.6191,59.162800000000004C187.7897,59.162800000000004,186.5592,59.071600000000004,185.9375,58.9023L185.9375,57.020830000000004L187.36,57.020830000000004L187.36,56.36003L185.9375,56.36003L185.9375,54.95052L187.4772,54.95052L187.4772,54.28971L185.74869999999999,54.28971L185.74869999999999,52.82161L187.3503,52.82161L187.3503,52.16081L185.74869999999999,52.16081L185.74869999999999,50.8099L185.0293,50.8099L185.0293,52.16081L183.3789,52.16081L183.3789,52.82161L185.0293,52.82161L185.0293,54.28971L183.1999,54.28971L183.1999,54.95052L185.2474,54.95052L185.2474,58.5605C184.847,58.2806,184.5085,57.86068,184.209,57.30078C184.2871,56.77995,184.3392,56.24284,184.3587,55.66992L183.7077,55.5918ZM201.0677,52.29102C200.4004,52.88021,199.6582,53.37175,198.8477,53.76237C198.8281,53.2513,198.8184,52.70117,198.8184,52.11198L198.8184,51.41211L192.8678,51.41211L192.8678,52.13151L198.099,52.13151C198.099,55.302080000000004,198.3594,57.38216,198.8802,58.371700000000004C199.388,59.3418,200.0293,59.8301,200.7878,59.8431C201.0189,59.8431,201.24020000000002,59.7324,201.4583,59.5306C201.748,59.153,201.9401,58.5215,202.0378,57.66211L201.3477,57.43099C201.2891,58.1113,201.2077,58.5605,201.11,58.7624C201.0091,58.9609,200.8887,59.0618,200.74869999999999,59.071600000000004C200.2507,59.052099999999996,199.7982,58.6419,199.4206,57.82161C199.1797,57.33008,199.0202,56.46094,198.929,55.20117C199.7493,55.5918,200.5501,56.08984,201.3281,56.70182L201.748,56.07031C200.8691,55.46159,199.9186,54.93099,198.8802,54.49154L198.8802,54.47201C199.86,54.042320000000004,200.7194,53.50195,201.4779,52.86068L201.0677,52.29102ZM206.9792,50.85221L206.9792,53.77214L204.2578,53.77214L204.2578,56.98177L210.8789,56.98177L210.8789,53.77214L207.68880000000001,53.77214L207.68880000000001,52.5026L211.56900000000002,52.5026L211.56900000000002,51.82227L207.68880000000001,51.82227L207.68880000000001,50.85221L206.9792,50.85221ZM210.1595,56.3112L204.9772,56.3112L204.9772,54.45247L210.1595,54.45247L210.1595,56.3112ZM204.2383,57.42122C203.877,58.2415,203.44729999999998,58.9512,202.9492,59.5404L203.5384,59.9733C204.0397,59.332,204.4694,58.5801,204.847,57.71094L204.2383,57.42122ZM206.4193,57.71094L205.74869999999999,57.85091C205.9375,58.4824,206.1003,59.2018,206.24020000000002,60.0221L206.9596,59.8626C206.8001,59.0911,206.6178,58.371700000000004,206.4193,57.71094ZM208.5091,57.61003L207.8288,57.75C208.1283,58.400999999999996,208.3789,59.153,208.5775,60.0026L209.2904,59.8431C209.06900000000002,59.0423,208.8086,58.2904,208.5091,57.61003ZM210.5599,57.41146L209.9805,57.78255C210.5892,58.6029,211.0677,59.3418,211.4193,60.0221L212.0182,59.602199999999996C211.6797,58.9805,211.1979,58.2513,210.5599,57.41146ZM217.6302,50.770830000000004L216.8392,50.91081C216.9596,51.14193,217.08010000000002,51.39258,217.17770000000002,51.67253L213.0794,51.67253L213.0794,52.33008L221.9108,52.33008L221.9108,51.67253L217.9492,51.67253C217.8483,51.3405,217.7376,51.04102,217.6302,50.770830000000004ZM220.3092,59.9733C221.0384,59.9733,221.4095,59.650999999999996,221.4095,59.022800000000004L221.4095,55.520179999999996L213.5872,55.520179999999996L213.5872,60.0026L214.2773,60.0026L214.2773,56.15169L220.7194,56.15169L220.7194,58.873C220.7194,59.192099999999996,220.5078,59.3516,220.0977,59.3516L219.3001,59.3223L219.4694,59.9733L220.3092,59.9733ZM214.707,52.98112L214.707,54.92122L220.2995,54.92122L220.2995,52.98112L214.707,52.98112ZM219.5996,54.36133L215.4102,54.36133L215.4102,53.54102L219.5996,53.54102L219.5996,54.36133ZM215.5371,56.79297L215.5371,58.7917L219.4694,58.7917L219.4694,56.79297L215.5371,56.79297ZM218.8281,58.2513L216.1882,58.2513L216.1882,57.33008L218.8281,57.33008L218.8281,58.2513ZM167.88086,64.73179999999999C167.44141,65.3698,167.10286,66.0599,166.85221,66.7923C166.55273,67.6517,166.41276,68.52080000000001,166.41276,69.4128C166.41276,70.28190000000001,166.55273,71.151,166.85221,72.0104C167.10286,72.73310000000001,167.44141,73.42320000000001,167.88086,74.071L168.58073,74.071C168.17057,73.4004,167.85156,72.7103,167.63346,72.0007C167.33073,71.1217,167.19075,70.2526,167.19075,69.3997C167.19075,68.5404,167.33073,67.681,167.63346,66.8021C167.85156,66.07939999999999,168.17057,65.3926,168.58073,64.73179999999999L167.88086,64.73179999999999ZM171.97591,65.8613L169.16667,73L170.04557,73L170.80404,71.0013L174.0853,71.0013L174.847,73L175.7357,73L172.9264,65.8613L171.97591,65.8613ZM171.06445,70.3112L172.4349,66.7402L172.47396,66.7402L173.8249,70.3112L171.06445,70.3112ZM176.5527,65.8613L176.5527,73L181.4909,73L181.4909,72.2904L177.3633,72.2904L177.3633,65.8613L176.5527,65.8613ZM181.8359,65.8613L181.8359,66.571L184.3555,66.571L184.3555,73L185.166,73L185.166,66.571L187.6855,66.571L187.6855,65.8613L181.8359,65.8613ZM188.4961,64.73179999999999C188.8965,65.3926,189.2155,66.07939999999999,189.4466,66.8021C189.7363,67.681,189.8861,68.5404,189.8861,69.3997C189.8861,70.2526,189.7363,71.1217,189.4466,72.0007C189.2155,72.7103,188.8965,73.4004,188.4961,74.071L189.196,74.071C189.6257,73.42320000000001,189.9642,72.73310000000001,190.2246,72.0104C190.5143,71.151,190.6641,70.28190000000001,190.6641,69.4128C190.6641,68.52080000000001,190.5143,67.6517,190.2246,66.7923C189.9642,66.0599,189.6257,65.3698,189.196,64.73179999999999L188.4961,64.73179999999999Z" fill="#FFFFFF" fill-opacity="1"/></g></g><g><path d="M18.97360921875,94.7631607055664Q17.42325921875,94.7631607055664,15.90742821875,95.9180767055664L16.51347021875,96.7135107055664Q17.76079921875,95.7631607055664,18.97360921875,95.7631607055664Q20.18640921875,95.7631607055664,21.433749218750002,96.7135107055664L21.73676921875,96.9443807055664L22.039789218750002,96.7135107055664Q23.28711921875,95.7631607055664,24.49991921875,95.7631607055664Q25.71272921875,95.7631607055664,26.96004921875,96.7135107055664L27.263049218749998,96.9443807055664L27.56614921875,96.7135107055664Q28.81344921875,95.7631607055664,30.02624921875,95.7631607055664Q31.23904921875,95.7631607055664,32.48634921875,96.7135107055664L32.789349218750004,96.9443807055664L33.092449218750005,96.7135107055664Q34.33974921875,95.7631607055664,35.55254921875,95.7631607055664Q36.76534921875,95.7631607055664,38.01264921875,96.7135107055664L38.31574921875,96.9443807055664L38.61874921875,96.7135107055664Q39.86604921875,95.7631607055664,41.07884921875,95.7631607055664Q42.291649218749995,95.7631607055664,43.53904921875,96.7135107055664L43.84204921875,96.9443807055664L44.14504921875,96.7135107055664Q45.39234921875,95.7631607055664,46.60514921875,95.7631607055664Q47.81794921875,95.7631607055664,49.06534921875,96.7135107055664L49.36834921875,96.9443807055664L49.67134921875,96.7135107055664Q50.91864921875,95.7631607055664,52.13154921875,95.7631607055664Q53.34434921875,95.7631607055664,54.59164921875,96.7135107055664L54.89464921875,96.9443807055664L55.19764921875,96.7135107055664Q56.44504921875,95.7631607055664,57.65784921875,95.7631607055664Q58.87064921875,95.7631607055664,60.11794921875,96.7135107055664L60.72394921875,95.9180767055664Q59.20814921875,94.7631607055664,57.65784921875,94.7631607055664Q56.26224921875,94.7631607055664,54.89464921875,95.69898170556641Q53.52704921875,94.7631607055664,52.13154921875,94.7631607055664Q50.73594921875,94.7631607055664,49.36834921875,95.69898070556641Q48.00074921875,94.7631607055664,46.60514921875,94.7631607055664Q45.20964921875,94.7631607055664,43.84204921875,95.6989797055664Q42.474449218749996,94.7631607055664,41.07884921875,94.7631607055664Q39.683349218749996,94.7631607055664,38.31574921875,95.6989797055664Q36.948149218750004,94.7631607055664,35.55254921875,94.7631607055664Q34.15694921875,94.7631607055664,32.789349218750004,95.6989797055664Q31.421849218749998,94.7631607055664,30.02624921875,94.7631607055664Q28.63064921875,94.7631607055664,27.263049218749998,95.6989787055664Q25.89549921875,94.7631607055664,24.49991921875,94.7631607055664Q23.104359218749998,94.7631607055664,21.73676921875,95.69897670556641Q20.36916921875,94.7631607055664,18.97360921875,94.7631607055664Z" fill-rule="evenodd" fill="#FFFFFF" fill-opacity="1"/></g><g><g><g><path d="M138,60L142.5,65L133.5,65L138,60ZM140,65.5L140,67L136,67L136,65.5L140,65.5ZM140,69.5L140,68L136,68L136,69.5L140,69.5ZM137.41609,70.01050000000001L138,70L138.5839,70.01050000000001C142.7296,70.16,146,71.889,146,74C146,76.2091,142.4183,78,138,78C133.58172,78,130,76.2091,130,74C130,71.889,133.27042,70.16,137.41609,70.01050000000001ZM148,75C148,72.2386,143.5228,70,138,70L137.70672,70.0026L137.37942,70.0095C132.14563,70.1697,128,72.3428,128,75C128,77.7614,132.47715,80,138,80C143.5228,80,148,77.7614,148,75ZM136.87714,71.1709L136.52809,72.6679L139.5111,72.6679L139.1631,71.1709L140.4978,71.1709L141.8771,75.8297L140.2478,75.8297L139.7901,73.8669L136.24909,73.8669L135.79239,75.8297L134.16309,75.8297L135.54241,71.1709L136.87714,71.1709Z" fill-rule="evenodd" fill="#FFFFFF" fill-opacity="1"/></g><g mask="url(#master_svg1_7132_044432/125_04718)"><g></g></g></g></g><g><path d="M143.50080859374998,95.5400390625Q144.63490859375,95.5400390625,145.82980859375,96.7348690625L146.53690859375,96.0277680625Q145.04920859375,94.5400390625,143.50080859374998,94.5400390625Q142.13590859375,94.5400390625,140.81820859375,95.6959680625Q139.50050859375,94.5400390625,138.13560859375002,94.5400390625Q136.77080859375002,94.5400390625,135.45310859375002,95.6959730625Q134.13530859374998,94.5400390625,132.77050859374998,94.5400390625Q131.40570859375,94.5400390625,130.08790859375,95.6959710625Q128.77020859375,94.5400390625,127.40540859375,94.5400390625Q126.04050859375,94.5400390625,124.72280859375,95.6959700625Q123.40510859375,94.5400390625,122.04030859375,94.5400390625Q120.67540859375,94.5400390625,119.35770859375,95.6959700625Q118.04000859375,94.5400390625,116.67510859375,94.5400390625Q115.31030859375,94.5400390625,113.99260859374999,95.6959710625Q112.67480859375,94.5400390625,111.31000859375,94.5400390625Q109.94520859375001,94.5400390625,108.62740859375,95.6959710625Q107.30970859375,94.5400390625,105.94490859375,94.5400390625Q104.58000859375,94.5400390625,103.26230859374999,95.6959720625Q101.94460859374999,94.5400390625,100.57970859375,94.5400390625Q99.21490859375001,94.5400390625,97.89720859375001,95.6959710625Q96.57950859375,94.5400390625,95.21460859375,94.5400390625Q93.84980859375,94.5400390625,92.53210859375,95.6959700625Q91.21440859375,94.5400390625,89.84950859375,94.5400390625Q88.48470859375,94.5400390625,87.16690859375001,95.6959700625Q85.84920859375,94.5400390625,84.48440859375,94.5400390625Q83.11950859375,94.5400390625,81.80180859375,95.6959710625Q80.48410859375,94.5400390625,79.11920859375,94.5400390625Q77.75440859375,94.5400390625,76.43670859375,95.6959700625Q75.11900859375,94.5400390625,73.75410859375,94.5400390625Q72.38930859375,94.5400390625,71.07160859375,95.6959710625Q69.75384859375,94.5400390625,68.38899859375,94.5400390625Q67.02414859375,94.5400390625,65.70643859375,95.6959710625Q64.38871859375,94.5400390625,63.02386859375,94.5400390625Q61.47547859375,94.5400390625,59.98775559375,96.0277670625L60.69486159375,96.7348790625Q61.88969859375,95.5400390625,63.02386859375,95.5400390625Q64.15804859375,95.5400390625,65.35287859375,96.7348690625L65.70643859375,97.0884290625L66.05998859375,96.7348790625Q67.25482859375,95.5400390625,68.38899859375,95.5400390625Q69.52316859375,95.5400390625,70.71800859375,96.7348790625L71.07160859375,97.0884290625L71.42510859375,96.7348790625Q72.61990859375,95.5400390625,73.75410859375,95.5400390625Q74.88830859375,95.5400390625,76.08310859375,96.7348790625L76.43670859375,97.0884290625L76.79020859375,96.7348690625Q77.98510859375,95.5400390625,79.11920859375,95.5400390625Q80.25340859375,95.5400390625,81.44830859375,96.7348790625L81.80180859375,97.0884290625L82.15540859375,96.7348790625Q83.35020859375,95.5400390625,84.48440859375,95.5400390625Q85.61850859375,95.5400390625,86.81340859375,96.7348790625L87.16690859375001,97.0884290625L87.52050859375001,96.7348790625Q88.71530859375,95.5400390625,89.84950859375,95.5400390625Q90.98370859375,95.5400390625,92.17850859375,96.7348790625L92.53210859375,97.0884290625L92.88560859374999,96.7348790625Q94.08050859375,95.5400390625,95.21460859375,95.5400390625Q96.34880859375,95.5400390625,97.54360859375001,96.7348790625L97.89720859375001,97.0884290625L98.25070859375,96.7348790625Q99.44560859375,95.5400390625,100.57970859375,95.5400390625Q101.71390859375,95.5400390625,102.90880859375,96.7348790625L103.26230859374999,97.0884290625L103.61590859374999,96.7348790625Q104.81070859375001,95.5400390625,105.94490859375,95.5400390625Q107.07900859374999,95.5400390625,108.27390859375001,96.7348790625L108.62740859375,97.0884290625L108.98100859375,96.7348790625Q110.17580859374999,95.5400390625,111.31000859375,95.5400390625Q112.44420859375,95.5400390625,113.63900859374999,96.7348790625L113.99260859374999,97.0884290625L114.34610859375,96.7348790625Q115.54100859375,95.5400390625,116.67510859375,95.5400390625Q117.80930859375,95.5400390625,119.00410859375,96.7348690625L119.35770859375,97.0884290625L119.71120859375,96.7348790625Q120.90610859374999,95.5400390625,122.04030859375,95.5400390625Q123.17440859375,95.5400390625,124.36930859375,96.7348790625L124.72280859375,97.0884290625L125.07640859375,96.7348690625Q126.27120859375,95.5400390625,127.40540859375,95.5400390625Q128.53960859375002,95.5400390625,129.73440859375,96.7348690625L130.08790859375,97.0884290625L130.44150859375,96.7348790625Q131.63630859375002,95.5400390625,132.77050859374998,95.5400390625Q133.90470859375,95.5400390625,135.09950859375,96.7348690625L135.45310859375002,97.0884290625L135.80660859375,96.7348790625Q137.00150859375,95.5400390625,138.13560859375002,95.5400390625Q139.26980859374999,95.5400390625,140.46460859375,96.7348690625L140.81820859375,97.0884290625L141.17180859375,96.7348790625Q142.36660859375002,95.5400390625,143.50080859374998,95.5400390625Z" fill-rule="evenodd" fill="#FFFFFF" fill-opacity="1"/></g><g><path d="M169.84950859375,95.5400390625Q170.98370859375,95.5400390625,172.17850859375,96.7348790625L172.88560859375,96.0277670625Q171.39790859375,94.5400390625,169.84950859375,94.5400390625Q168.48470859374999,94.5400390625,167.16690859375,95.6959700625Q165.84920859375,94.5400390625,164.48440859375,94.5400390625Q163.11950859375,94.5400390625,161.80180859375,95.6959710625Q160.48410859375,94.5400390625,159.11920859375,94.5400390625Q157.75440859375,94.5400390625,156.43670859375,95.6959700625Q155.11900859375,94.5400390625,153.75410859375,94.5400390625Q152.38930859375,94.5400390625,151.07160859375,95.6959710625Q149.75384859375,94.5400390625,148.38899859375,94.5400390625Q147.02414859375,94.5400390625,145.70643859375,95.6959710625Q144.38871859375,94.5400390625,143.02386859375,94.5400390625Q141.47547859375,94.5400390625,139.98775559375,96.0277670625L140.69486159375,96.7348790625Q141.88969859375,95.5400390625,143.02386859375,95.5400390625Q144.15804859375,95.5400390625,145.35287859375,96.7348690625L145.70643859375,97.0884290625L146.05998859375,96.7348790625Q147.25482859375,95.5400390625,148.38899859375,95.5400390625Q149.52316859375,95.5400390625,150.71800859375,96.7348790625L151.07160859375,97.0884290625L151.42510859375,96.7348790625Q152.61990859375,95.5400390625,153.75410859375,95.5400390625Q154.88830859375,95.5400390625,156.08310859375,96.7348790625L156.43670859375,97.0884290625L156.79020859375,96.7348690625Q157.98510859375,95.5400390625,159.11920859375,95.5400390625Q160.25340859375,95.5400390625,161.44830859375,96.7348790625L161.80180859375,97.0884290625L162.15540859375,96.7348790625Q163.35020859375,95.5400390625,164.48440859375,95.5400390625Q165.61850859375,95.5400390625,166.81340859375,96.7348790625L167.16690859375,97.0884290625L167.52050859375,96.7348790625Q168.71530859375,95.5400390625,169.84950859375,95.5400390625Z" fill-rule="evenodd" fill="#FFFFFF" fill-opacity="1"/></g><g><path d="M196.84950859375,95.5400390625Q197.98370859375,95.5400390625,199.17850859375,96.7348790625L199.88560859375,96.0277670625Q198.39790859375,94.5400390625,196.84950859375,94.5400390625Q195.48470859374999,94.5400390625,194.16690859375,95.6959700625Q192.84920859375,94.5400390625,191.48440859375,94.5400390625Q190.11950859375,94.5400390625,188.80180859375,95.6959710625Q187.48410859375,94.5400390625,186.11920859375,94.5400390625Q184.75440859375,94.5400390625,183.43670859375,95.6959700625Q182.11900859375,94.5400390625,180.75410859375,94.5400390625Q179.38930859375,94.5400390625,178.07160859375,95.6959710625Q176.75384859375,94.5400390625,175.38899859375,94.5400390625Q174.02414859375,94.5400390625,172.70643859375,95.6959710625Q171.38871859375,94.5400390625,170.02386859375,94.5400390625Q168.47547859375,94.5400390625,166.98775559375,96.0277670625L167.69486159375,96.7348790625Q168.88969859375,95.5400390625,170.02386859375,95.5400390625Q171.15804859375,95.5400390625,172.35287859375,96.7348690625L172.70643859375,97.0884290625L173.05998859375,96.7348790625Q174.25482859375,95.5400390625,175.38899859375,95.5400390625Q176.52316859375,95.5400390625,177.71800859375,96.7348790625L178.07160859375,97.0884290625L178.42510859375,96.7348790625Q179.61990859375,95.5400390625,180.75410859375,95.5400390625Q181.88830859375,95.5400390625,183.08310859375,96.7348790625L183.43670859375,97.0884290625L183.79020859375,96.7348690625Q184.98510859375,95.5400390625,186.11920859375,95.5400390625Q187.25340859375,95.5400390625,188.44830859375,96.7348790625L188.80180859375,97.0884290625L189.15540859375,96.7348790625Q190.35020859375,95.5400390625,191.48440859375,95.5400390625Q192.61850859375,95.5400390625,193.81340859375,96.7348790625L194.16690859375,97.0884290625L194.52050859375,96.7348790625Q195.71530859375,95.5400390625,196.84950859375,95.5400390625Z" fill-rule="evenodd" fill="#FFFFFF" fill-opacity="1"/></g><g><path d="M153.813,94.3761Q159.716,95.1756,160.871,95.4832L161.129,94.5168Q159.912,94.1931,153.947,93.3852Q149.23399999999998,92.7467,148.261,92.525Q147.726,92.4031,147.11599999999999,91.1381Q146.692,90.2574,145.862,87.79134Q144.50900000000001,83.77351,143.51,82.04551000000001Q141.727,78.9621906,139.215,78.55479Q136.728,78.151673,134.774,80.72261Q133.69400000000002,82.14414,132.08100000000002,85.82395Q130.96699999999998,88.36473,130.402,89.2282Q129.608,90.4417,128.92770000000002,90.3618Q127.6825,90.2154,125.8735,89.2088Q124.7454,88.58098,122.307,86.92403Q119.0181,84.68911,117.3032,83.82508Q114.3528,82.33861,111.9874,82.3936Q108.6527,82.47112,104.52,84.98078Q102.2719,86.34597,99.1504,88.94513Q98.2703,89.678,98.0722,89.807Q97.9582,89.8811,97.0779,88.76916Q95.9443,87.33734,95.1485,86.789Q93.6855,85.78094,92.02369999999999,86.25303Q90.87049999999999,86.58064,89.4263,87.53796Q88.57820000000001,88.10019,86.85849999999999,89.449Q84.73949999999999,91.111,83.6554,91.7763Q81.8877,92.8611,80.4417,93.0559Q79.76820000000001,93.1466,76.723,92.6289Q70.75,91.6133,66.5133,91.5002Q63.8684,91.4296,63.0454,91.3161Q62.6691,91.2643,61.9294,91.2769Q61.2249,91.289,57.3523,91.4076Q55.139399999999995,91.47540000000001,53.697500000000005,91.519Q45.8804,91.7555,28.9199468,94.5064L29.0800532,95.4935Q45.976,92.753,53.7278,92.51859999999999Q55.1712,92.4749,57.382999999999996,92.4071Q62.4998,92.2504,62.9088,92.3068Q63.7866,92.4277,66.4867,92.4998Q70.6523,92.6111,76.55539999999999,93.6147Q79.7507,94.158,80.5752,94.0469Q82.23060000000001,93.8239,84.1785,92.6286Q85.3115,91.9333,87.4757,90.2358Q89.164,88.91164,89.97890000000001,88.37146Q91.29339999999999,87.50008,92.297,87.21497Q93.5059,86.87155,94.5811,87.61245Q95.2533,88.07566,96.2938,89.3899Q96.9455,90.213,97.2572,90.4701Q97.9757,91.0629,98.6177,90.645Q98.8651,90.484,99.7903,89.7136Q102.8546,87.16208,105.0391,85.83553Q108.9432,83.46463,112.0107,83.39333Q114.1262,83.34415,116.8533,84.71814Q118.5099,85.55284,121.745,87.75113Q124.2202,89.4331,125.3873,90.0826Q127.3692,91.1855,128.8111,91.3549Q130.107,91.5072,131.239,89.7755Q131.849,88.84246,132.997,86.22539Q134.562,82.65458,135.57,81.32777Q137.161,79.234889,139.055,79.541899Q141.099,79.873384,142.64499999999998,82.54606Q143.594,84.18736,144.914,88.11032Q145.764,90.6354,146.215,91.5724Q147.034,93.2711,148.038,93.5Q149.055,93.7317,153.813,94.3761Z" fill-rule="evenodd" fill="#FFFFFF" fill-opacity="1"/></g><g><path d="M19.879,106.961L24.369999999999997,106.961L24.369999999999997,106.358L20.212,106.358C20.311,106.16,20.41,105.944,20.5,105.719L19.852,105.584C19.465,106.538,18.97,107.303,18.358,107.888L18.772,108.383C18.979,108.176,19.177,107.951,19.366,107.708C19.348,108.41,19.303,109.112,19.231,109.805L18.268,109.805L18.268,110.408L19.168,110.408C19.078,111.128,18.951999999999998,111.848,18.808,112.568L23.092,112.568C23.073999999999998,112.712,23.056,112.811,23.038,112.856C22.948,113.063,22.804000000000002,113.19800000000001,22.606,113.261C22.408,113.306,22.192,113.333,21.948999999999998,113.333C21.679000000000002,113.333,21.381999999999998,113.315,21.058,113.297L21.247,113.891C21.544,113.891,21.805,113.882,22.03,113.882C22.516,113.882,22.876,113.819,23.128,113.693C23.38,113.549,23.551000000000002,113.333,23.641,113.045C23.659,112.973,23.686,112.82,23.713,112.568L24.496000000000002,112.568L24.496000000000002,112.01L23.758,112.01C23.785,111.596,23.812,111.065,23.848,110.408L24.64,110.408L24.64,109.805L23.875,109.805C23.893,109.193,23.92,108.491,23.947,107.699L19.375,107.699C19.555,107.465,19.717,107.222,19.879,106.961ZM19.78,110.408L23.236,110.408C23.2,111.074,23.173000000000002,111.605,23.146,112.01L19.528,112.01C19.627,111.524,19.708,110.984,19.78,110.408ZM23.262999999999998,109.805L19.843,109.805C19.887999999999998,109.328,19.924,108.815,19.951,108.275L23.317,108.275C23.299,108.824,23.281,109.337,23.262999999999998,109.805ZM21.157,108.428L20.752,108.824C21.229,109.139,21.607,109.436,21.877,109.724L22.291,109.31C21.985,109.013,21.607,108.716,21.157,108.428ZM21.076,110.516L20.671,110.912C21.139,111.263,21.508,111.596,21.778,111.902L22.201,111.488C21.895,111.164,21.526,110.84,21.076,110.516ZM17.044,105.8L16.576,106.241C17.17,106.637,17.629,107.015,17.962,107.375L18.421,106.907C18.043,106.529,17.584,106.16,17.044,105.8ZM16.9,107.987L16.432,108.437C17.026,108.851,17.485,109.229,17.818,109.589L18.277,109.13C17.899,108.752,17.44,108.365,16.9,107.987ZM17.826999999999998,110.624C17.449,111.614,17.008,112.577,16.504,113.522L17.107,113.783C17.575,112.865,18.007,111.884,18.384999999999998,110.84L17.826999999999998,110.624ZM25.872999999999998,106.05199999999999L25.872999999999998,106.682L29.131,106.682L29.131,110.084L25.512999999999998,110.084L25.512999999999998,110.705L29.131,110.705L29.131,113.891L29.797,113.891L29.797,110.705L33.486999999999995,110.705L33.486999999999995,110.084L29.797,110.084L29.797,106.682L33.144999999999996,106.682L33.144999999999996,106.05199999999999L25.872999999999998,106.05199999999999ZM26.971,107.258L26.368000000000002,107.555C26.71,108.158,27.034,108.842,27.34,109.616L27.942999999999998,109.319C27.637,108.572,27.313000000000002,107.888,26.971,107.258ZM32.074,107.213C31.813000000000002,107.897,31.462,108.581,31.021,109.283L31.597,109.58C32.038,108.896,32.397999999999996,108.203,32.668,107.492L32.074,107.213ZM34.495000000000005,106.007L34.495000000000005,106.637L38.239000000000004,106.637C38.167,107.033,38.05,107.411,37.906,107.789L35.007999999999996,107.789L35.007999999999996,113.92699999999999L35.629000000000005,113.92699999999999L35.629000000000005,113.477L41.397999999999996,113.477L41.397999999999996,113.92699999999999L42.019,113.92699999999999L42.019,107.789L38.563,107.789C38.707,107.42,38.824,107.033,38.896,106.637L42.504999999999995,106.637L42.504999999999995,106.007L34.495000000000005,106.007ZM35.629000000000005,112.883L35.629000000000005,108.374L36.870999999999995,108.374L36.870999999999995,112.883L35.629000000000005,112.883ZM37.474000000000004,112.883L37.474000000000004,111.731L39.525999999999996,111.731L39.525999999999996,112.883L37.474000000000004,112.883ZM40.129000000000005,112.883L40.129000000000005,108.374L41.397999999999996,108.374L41.397999999999996,112.883L40.129000000000005,112.883ZM37.474000000000004,111.164L37.474000000000004,110.066L39.525999999999996,110.066L39.525999999999996,111.164L37.474000000000004,111.164ZM37.474000000000004,109.49L37.474000000000004,108.374L39.525999999999996,108.374L39.525999999999996,109.49L37.474000000000004,109.49Z" fill="#F7B500" fill-opacity="1"/></g><g><path d="M89.30566,78.38379L87.37207,78.97852L87.37207,76.64648L86.74219,76.64648L86.74219,79.17773L85.42676,79.58203L85.42676,77.56641L84.79688,77.56641L84.79688,79.78125L84.04102,80.0127L84.04102,80.64551L84.79688,80.41113L84.79688,83.8389C84.79688,84.4336,85.09277,84.7383,85.69629,84.7383L88.54102,84.7383C88.875,84.7383,89.11816,84.6504,89.27051,84.47749999999999C89.44922,84.2812,89.56641,83.7305,89.63086,82.8223L89.02734,82.6348C88.99219,83.3613,88.91895,83.80369999999999,88.81934,83.9473C88.74902,84.0645,88.61426,84.1289,88.42383,84.1289L85.89551,84.1289C85.5791,84.1289,85.42676,83.9824,85.42676,83.7129L85.42676,80.2207L86.74219,79.8252L86.74219,83.0391L87.37207,83.0391L87.37207,79.63477L88.68457,79.23926C88.67578,80.46387,88.64941,81.1758,88.60547,81.3633C88.5498,81.5625,88.39746,81.6621,88.1543,81.6621C88.0459,81.6621,87.91992,81.6533,87.78516,81.6445L87.96387,82.2832L88.01953,82.2832C88.69336,82.2832,89.08008,82.084,89.1709,81.70609999999999C89.26172,81.3105,89.30566,80.20312,89.30566,78.38379ZM84.1582,82.21000000000001C83.81543,82.3711,83.45508,82.5264,83.09473,82.6611L83.09473,79.67285L84.03223,79.67285L84.03223,79.04297L83.09473,79.04297L83.09473,76.71973L82.45605,76.71973L82.45605,79.04297L81.430664,79.04297L81.430664,79.67285L82.45605,79.67285L82.45605,82.875C82.07812,82.9834,81.700195,83.083,81.322266,83.16499999999999L81.483398,83.8125C82.43848,83.5605,83.3291,83.2354,84.1582,82.8486L84.1582,82.21000000000001ZM90.49219,77.00684L90.49219,77.63672L94.2393,77.63672C94.166,78.03516,94.0488,78.41309,93.9053,78.79102L91.0078,78.79102L91.0078,84.92869999999999L91.6289,84.92869999999999L91.6289,84.47749999999999L97.39750000000001,84.47749999999999L97.39750000000001,84.92869999999999L98.01859999999999,84.92869999999999L98.01859999999999,78.79102L94.5615,78.79102C94.7051,78.42188,94.8223,78.03516,94.8955,77.63672L98.50489999999999,77.63672L98.50489999999999,77.00684L90.49219,77.00684ZM91.6289,83.8857L91.6289,79.37402L92.8711,79.37402L92.8711,83.8857L91.6289,83.8857ZM93.4717,83.8857L93.4717,82.73140000000001L95.5254,82.73140000000001L95.5254,83.8857L93.4717,83.8857ZM96.1289,83.8857L96.1289,79.37402L97.39750000000001,79.37402L97.39750000000001,83.8857L96.1289,83.8857ZM93.4717,82.166L93.4717,81.06739999999999L95.5254,81.06739999999999L95.5254,82.166L93.4717,82.166ZM93.4717,80.49023L93.4717,79.37402L95.5254,79.37402L95.5254,80.49023L93.4717,80.49023Z" fill="#F7B500" fill-opacity="1"/></g><g transform="matrix(0,1,-1,0,155,-119)"><path d="M136.99999773502,17.499998L137,18L138,18L138,17.499998L136.99999773502,17.499998ZM138,21.5303L138,20.5303L137,20.5303L137,21.5303L138,21.5303ZM138,24.56061L138,23.56061L137,23.56061L137,24.56061L138,24.56061ZM138,27.59091L138,26.59091L137,26.59091L137,27.59091L138,27.59091ZM138,30.6212L138,29.6212L137,29.6212L137,30.6212L138,30.6212ZM138,33.6515L138,32.6515L137,32.6515L137,33.6515L138,33.6515ZM138,36.681799999999996L138,35.681799999999996L137,35.681799999999996L137,36.681799999999996L138,36.681799999999996ZM138,39.7121L138,38.7121L137,38.7121L137,39.7121L138,39.7121ZM138,42.7424L138,41.7424L137,41.7424L137,42.7424L138,42.7424ZM138,45.7727L138,44.7727L137,44.7727L137,45.7727L138,45.7727ZM138,48.803L138,47.803L137,47.803L137,48.803L138,48.803ZM138,51.8333L138,50.8333L137,50.8333L137,51.8333L138,51.8333ZM138,54.8636L138,53.8636L137,53.8636L137,54.8636L138,54.8636ZM138,57.8939L138,56.8939L137,56.8939L137,57.8939L138,57.8939ZM138,60.9242L138,59.9242L137,59.9242L137,60.9242L138,60.9242ZM138,63.9545L138,62.9545L137,62.9545L137,63.9545L138,63.9545ZM138,66.98490000000001L138,65.98490000000001L137,65.98490000000001L137,66.98490000000001L138,66.98490000000001ZM138,70.0152L138,69.0152L137,69.0152L137,70.0152L138,70.0152ZM138,73.0455L138,72.0455L137,72.0455L137,73.0455L138,73.0455ZM138,76.0758L138,75.0758L137,75.0758L137,76.0758L138,76.0758ZM138,79.1061L138,78.1061L137,78.1061L137,79.1061L138,79.1061ZM138,82.1364L138,81.13640000000001L137,81.13640000000001L137,82.1364L138,82.1364ZM138,85.1667L138,84.1667L137,84.1667L137,85.1667L138,85.1667ZM138,88.197L138,87.197L137,87.197L137,88.197L138,88.197ZM138,91.2273L138,90.2273L137,90.2273L137,91.2273L138,91.2273ZM138,94.2576L138,93.2576L137,93.2576L137,94.2576L138,94.2576ZM138,97.2879L138,96.2879L137,96.2879L137,97.2879L138,97.2879ZM138,100.3182L138,99.3182L137,99.3182L137,100.3182L138,100.3182ZM138,103.3485L138,102.3485L137,102.3485L137,103.3485L138,103.3485ZM138,106.3788L138,105.3788L137,105.3788L137,106.3788L138,106.3788ZM138,109.4091L138,108.4091L137,108.4091L137,109.4091L138,109.4091ZM138,112.4394L138,111.4394L137,111.4394L137,112.4394L138,112.4394ZM138,115.4697L138,114.4697L137,114.4697L137,115.4697L138,115.4697ZM137,118L136.99999773502,118.5L138,118.5L138,118L137,118Z" fill-rule="evenodd" fill="#FFFFFF" fill-opacity="1"/></g><g transform="matrix(1,0,0,-1,0,40)"><path d="M37.4987,21.24808L46.2969,34.4453C46.7399,35.109899999999996,46.2635,36,45.4648,36L27.86852,36C27.06982,36,26.59343,35.109899999999996,27.03647,34.4453L35.83462,21.24808C36.2304,20.654342,37.1029,20.654342,37.4987,21.24808ZM28.61593,34.6L36.6667,22.52389L44.7174,34.6L28.61593,34.6Z" fill-rule="evenodd" fill="#FFFFFF" fill-opacity="1"/></g></g></g></svg>