<?xml version="1.0" standalone="no"?><!DOCTYPE svg PUBLIC "-//W3C//DTD SVG 1.1//EN" "http://www.w3.org/Graphics/SVG/1.1/DTD/svg11.dtd"><svg t="1770188771190" class="icon" viewBox="0 0 1024 1024" version="1.1" xmlns="http://www.w3.org/2000/svg" p-id="13557" xmlns:xlink="http://www.w3.org/1999/xlink" width="48" height="48"><path d="M926.127158 581.685895a26.947368 26.947368 0 0 1 26.51621 22.096842l0.431158 4.850526v79.656421a134.736842 134.736842 0 0 1-59.230315 111.562105l-8.084211 5.12-312.32 180.277895a134.736842 134.736842 0 0 1-125.628632 4.850527l-9.10821-4.850527-312.266105-180.277895a134.736842 134.736842 0 0 1-67.045053-107.088842L59.068632 688.289684v-79.656421a26.947368 26.947368 0 0 1 53.463579-4.850526l0.431157 4.850526v79.656421c0 26.246737 12.719158 50.661053 33.845895 65.751579l6.575158 4.257684 312.266105 180.277895a80.842105 80.842105 0 0 0 13.473685 6.197895v-113.394526a26.947368 26.947368 0 0 1 53.463578-4.850527l0.431158 4.850527 0.053895 113.394526c1.940211-0.700632 3.880421-1.455158 5.766737-2.263579l7.653053-3.934316 312.266105-180.277895a80.842105 80.842105 0 0 0 40.043789-62.194526l0.377263-7.814737v-79.656421a26.947368 26.947368 0 0 1 26.947369-26.947368zM422.858105 356.405895l67.098948 310.433684H420.594526l-13.743158-75.237053H297.337263l-33.792 75.290948H196.500211l149.611789-310.433685H422.858105z m267.910737 0c71.733895 0 107.789474 37.726316 99.651369 99.004631-4.958316 36.971789-27.109053 69.254737-60.469895 84.884211l-7.922527 3.341474 49.313685 123.257263h-73.943579l-42.954106-113.610106h-52.277894l-15.144421 113.610106H521.754947l41.337264-310.433685h127.730526zM376.239158 415.905684h-1.509053L317.871158 542.989474h81.434947l-23.066947-127.191579z m300.894316-8.623158h-55.511579l-13.204211 98.950737h56.158316c32.875789 0 54.595368-18.701474 58.691368-49.475368 3.988211-30.127158-13.743158-49.475368-46.133894-49.475369zM555.061895 21.827368l9.323789 4.042106 9.054316 4.796631 312.266105 180.277895a134.736842 134.736842 0 0 1 67.045053 107.142737l0.323368 9.539368v86.824421a26.947368 26.947368 0 0 1-53.409684 4.850527l-0.485053-4.850527v-86.770526a80.842105 80.842105 0 0 0-33.792-65.805474l-6.629052-4.257684-312.266105-180.277895a80.842105 80.842105 0 0 0-14.120421-6.467368l0.215578 1.077895 0.431158 4.850526v127.407158a26.947368 26.947368 0 0 1-53.463579 4.850526l-0.431157-4.850526V76.853895c0-2.048 0.215579-3.988211 0.646736-5.874527l-6.467368 2.533053-7.653053 3.880421L153.384421 257.670737A80.842105 80.842105 0 0 0 113.340632 319.865263l-0.377264 7.814737v86.824421a26.947368 26.947368 0 0 1-53.463579 4.850526L59.068632 414.504421v-86.770526a134.736842 134.736842 0 0 1 59.28421-111.616l8.084211-5.12L438.703158 30.72A134.736842 134.736842 0 0 1 555.061895 21.827368z" fill="#ffffff" p-id="13558"></path></svg>