<svg xmlns="http://www.w3.org/2000/svg" xmlns:xlink="http://www.w3.org/1999/xlink" fill="none" version="1.1" width="238" height="126" viewBox="0 0 238 126"><defs><mask id="master_svg0_6810_045165/125_04803" style="mask-type:alpha" maskUnits="userSpaceOnUse"><g><path d="M136.0031,11.745124196090698C135.8661,9.381394196090698,133.90517,7.507345915090698,131.50599,7.507345915090698C129.0178,7.507345915090698,127,9.522934196090699,127,12.009704196090699C127,14.496474196090698,129.0178,16.512074196090698,131.50599,16.512074196090698L131.50599,14.994604196090698L131.28296,14.9864141960907C129.73663,14.872454196090699,128.51747,13.583104196090698,128.51747,12.009704196090699C128.51747,10.361384196090698,129.8555,9.024814196090698,131.50599,9.024814196090698C133.15617,9.024814196090698,134.49328,10.361074196090698,134.49328,12.009704196090699L136.01075,12.009704196090699L136.0031,11.745124196090698ZM148,12.009704196090699C148,9.522934196090699,145.9822,7.507345915090698,143.494,7.507345915090698C141.006,7.507345915090698,138.98930000000001,9.522784196090697,138.98930000000001,12.009704196090699L140.5067,12.009704196090699L140.5149,11.786924196090698C140.6289,10.242354196090698,141.9189,9.024814196090698,143.494,9.024814196090698C145.1445,9.024814196090698,146.48250000000002,10.361384196090698,146.48250000000002,12.009704196090699C146.48250000000002,13.658034196090698,145.1445,14.994604196090698,143.494,14.994604196090698L143.494,16.512074196090698L143.7587,16.504424196090696C146.1238,16.367494196090696,148,14.407664196090698,148,12.009704196090699ZM143.1153,22.7189341960907C143.3119,22.9055341960907,143.474,23.029534196090697,143.698,23.1417341960907C144.0162,23.2574341960907,144.2438,23.559834196090698,144.2438,23.9141341960907C144.2438,24.3688341960907,143.872,24.7373341960907,143.4132,24.7373341960907C143.0069,24.7373341960907,142.6696,24.4479341960907,142.597,24.0665341960907C142.4456,23.8350341960907,142.2073,23.574034196090697,142.0834,23.470034196090698C141.91649999999998,23.3000341960907,141.5102,23.003534196090698,141.0502,22.637434196090698C139.8431,21.6736341960907,138.5276,20.9544341960907,137.5385,20.9544341960907C136.5495,20.9544341960907,135.61646,21.5520341960907,134.60478,22.2559341960907C134.36288,22.4236341960907,133.89934,22.773234196090698,133.294,23.226734196090696C132.68747,23.680334196090698,132.33118,24.299134196090698,132.33118,24.299134196090698L132.32403,24.2909341960907C132.1858,24.556634196090698,131.90696,24.7373341960907,131.58642,24.7373341960907C131.12764,24.7373341960907,130.75586,24.3688341960907,130.75586,23.9141341960907C130.75586,23.532634196090697,131.01921,23.2114341960907,131.3755,23.119234196090698C131.87836,22.872434196090698,131.82116,22.976334196090697,132.26921,22.487434196090696C132.73513,21.9772341960907,133.29162,21.224834196090697,133.5216,20.9024341960907C134.35335,19.739134196090696,134.79185999999999,18.8651341960907,134.79185999999999,18.1434341960907C134.79185999999999,17.107694196090698,134.21274,16.3577241960907,133.61812,15.473114196090698C133.40721,15.160134196090699,132.95677,14.584954196090699,132.50396,14.0215941960907C132.05353,13.460584196090698,131.60786,13.020054196090697,131.17769,12.803914196090698L131.18127,12.801554196090699C130.92745,12.661014196090697,130.75586,12.391734196090699,130.75586,12.083474196090698C130.75586,11.6287641960907,131.12764,11.260274196090698,131.58642,11.260274196090698C131.99395,11.260274196090698,132.33237,11.551994196090698,132.40267,11.935844196090699C132.57427,12.396454196090698,133.5216,13.196034196090698,133.5216,13.196034196090698C133.5216,13.196034196090698,134.53447,13.956634196090699,134.79185999999999,14.1267041960907C136.7342,15.402244196090699,139.1794,15.114074196090698,140.5104,14.0215941960907C141.0943,13.542084196090698,142.0834,12.782664196090698,142.0834,12.782664196090698C142.2025,12.677544196090698,142.5159,12.267714196090697,142.585,12.0362341960907C142.6089,11.603964196090697,142.9711,11.260274196090698,143.4132,11.260274196090698C143.872,11.260274196090698,144.2438,11.6287641960907,144.2438,12.083474196090698C144.2438,12.414174196090698,144.0471,12.698804196090698,143.7624,12.829904196090698L143.7659,12.831084196090698C143.2893,13.042494196090697,143.0438,13.474764196090698,142.927,13.596414196090699C142.927,13.596414196090699,142.4039,14.331024196090699,141.7688,15.142414196090698C140.9025,16.250244196090698,140.346,17.258874196090698,140.3508,18.2486341960907C140.3555,19.2371341960907,141.0693,20.267034196090698,141.8701,21.2461341960907C142.3336,21.810634196090696,142.3431,21.990234196090697,143.1153,22.7189341960907ZM131.50599,21.004334196090696L131.50599,19.486834196090697L131.24127,19.494434196090697C128.87624,19.631434196090698,127,21.591234196090696,127,23.9892341960907C127,26.475934196090698,129.0178,28.491534196090697,131.50599,28.491534196090697C133.99402,28.491534196090697,136.01075,26.476134196090698,136.01075,23.9892341960907L134.49328,23.9892341960907L134.48509,24.2119341960907C134.37108,25.756534196090698,133.08116,26.9741341960907,131.50599,26.9741341960907C129.8555,26.9741341960907,128.51747,25.637534196090698,128.51747,23.9892341960907C128.51747,22.340834196090697,129.8555,21.004334196090696,131.50599,21.004334196090696ZM148,23.9892341960907C148,21.502434196090697,145.9822,19.486834196090697,143.494,19.486834196090697L143.494,21.004334196090696L143.7171,21.012534196090698C145.2634,21.1264341960907,146.48250000000002,22.4158341960907,146.48250000000002,23.9892341960907C146.48250000000002,25.637534196090698,145.1445,26.9741341960907,143.494,26.9741341960907C141.8438,26.9741341960907,140.5067,25.637834196090697,140.5067,23.9892341960907L138.98930000000001,23.9892341960907L138.9969,24.253734196090697C139.1339,26.6175341960907,141.0948,28.491534196090697,143.494,28.491534196090697C145.9822,28.491534196090697,148,26.475934196090698,148,23.9892341960907Z" fill-rule="evenodd" fill="#FFFFFF" fill-opacity="1"/></g></mask><mask id="master_svg1_6810_045166/125_04718" style="mask-type:alpha" maskUnits="userSpaceOnUse"><g><path d="M138,60L142.5,65L133.5,65L138,60ZM140,65.5L140,67L136,67L136,65.5L140,65.5ZM140,69.5L140,68L136,68L136,69.5L140,69.5ZM137.41609,70.01050000000001L138,70L138.5839,70.01050000000001C142.7296,70.16,146,71.889,146,74C146,76.2091,142.4183,78,138,78C133.58172,78,130,76.2091,130,74C130,71.889,133.27042,70.16,137.41609,70.01050000000001ZM148,75C148,72.2386,143.5228,70,138,70L137.70672,70.0026L137.37942,70.0095C132.14563,70.1697,128,72.3428,128,75C128,77.7614,132.47715,80,138,80C143.5228,80,148,77.7614,148,75ZM136.87714,71.1709L136.52809,72.6679L139.5111,72.6679L139.1631,71.1709L140.4978,71.1709L141.8771,75.8297L140.2478,75.8297L139.7901,73.8669L136.24909,73.8669L135.79239,75.8297L134.16309,75.8297L135.54241,71.1709L136.87714,71.1709Z" fill-rule="evenodd" fill="#FFFFFF" fill-opacity="1"/></g></mask></defs><g><g></g><g><g><g><g><path d="M136.0031,11.745124196090698C135.8661,9.381394196090698,133.90517,7.507345915090698,131.50599,7.507345915090698C129.0178,7.507345915090698,127,9.522934196090699,127,12.009704196090699C127,14.496474196090698,129.0178,16.512074196090698,131.50599,16.512074196090698L131.50599,14.994604196090698L131.28296,14.9864141960907C129.73663,14.872454196090699,128.51747,13.583104196090698,128.51747,12.009704196090699C128.51747,10.361384196090698,129.8555,9.024814196090698,131.50599,9.024814196090698C133.15617,9.024814196090698,134.49328,10.361074196090698,134.49328,12.009704196090699L136.01075,12.009704196090699L136.0031,11.745124196090698ZM148,12.009704196090699C148,9.522934196090699,145.9822,7.507345915090698,143.494,7.507345915090698C141.006,7.507345915090698,138.98930000000001,9.522784196090697,138.98930000000001,12.009704196090699L140.5067,12.009704196090699L140.5149,11.786924196090698C140.6289,10.242354196090698,141.9189,9.024814196090698,143.494,9.024814196090698C145.1445,9.024814196090698,146.48250000000002,10.361384196090698,146.48250000000002,12.009704196090699C146.48250000000002,13.658034196090698,145.1445,14.994604196090698,143.494,14.994604196090698L143.494,16.512074196090698L143.7587,16.504424196090696C146.1238,16.367494196090696,148,14.407664196090698,148,12.009704196090699ZM143.1153,22.7189341960907C143.3119,22.9055341960907,143.474,23.029534196090697,143.698,23.1417341960907C144.0162,23.2574341960907,144.2438,23.559834196090698,144.2438,23.9141341960907C144.2438,24.3688341960907,143.872,24.7373341960907,143.4132,24.7373341960907C143.0069,24.7373341960907,142.6696,24.4479341960907,142.597,24.0665341960907C142.4456,23.8350341960907,142.2073,23.574034196090697,142.0834,23.470034196090698C141.91649999999998,23.3000341960907,141.5102,23.003534196090698,141.0502,22.637434196090698C139.8431,21.6736341960907,138.5276,20.9544341960907,137.5385,20.9544341960907C136.5495,20.9544341960907,135.61646,21.5520341960907,134.60478,22.2559341960907C134.36288,22.4236341960907,133.89934,22.773234196090698,133.294,23.226734196090696C132.68747,23.680334196090698,132.33118,24.299134196090698,132.33118,24.299134196090698L132.32403,24.2909341960907C132.1858,24.556634196090698,131.90696,24.7373341960907,131.58642,24.7373341960907C131.12764,24.7373341960907,130.75586,24.3688341960907,130.75586,23.9141341960907C130.75586,23.532634196090697,131.01921,23.2114341960907,131.3755,23.119234196090698C131.87836,22.872434196090698,131.82116,22.976334196090697,132.26921,22.487434196090696C132.73513,21.9772341960907,133.29162,21.224834196090697,133.5216,20.9024341960907C134.35335,19.739134196090696,134.79185999999999,18.8651341960907,134.79185999999999,18.1434341960907C134.79185999999999,17.107694196090698,134.21274,16.3577241960907,133.61812,15.473114196090698C133.40721,15.160134196090699,132.95677,14.584954196090699,132.50396,14.0215941960907C132.05353,13.460584196090698,131.60786,13.020054196090697,131.17769,12.803914196090698L131.18127,12.801554196090699C130.92745,12.661014196090697,130.75586,12.391734196090699,130.75586,12.083474196090698C130.75586,11.6287641960907,131.12764,11.260274196090698,131.58642,11.260274196090698C131.99395,11.260274196090698,132.33237,11.551994196090698,132.40267,11.935844196090699C132.57427,12.396454196090698,133.5216,13.196034196090698,133.5216,13.196034196090698C133.5216,13.196034196090698,134.53447,13.956634196090699,134.79185999999999,14.1267041960907C136.7342,15.402244196090699,139.1794,15.114074196090698,140.5104,14.0215941960907C141.0943,13.542084196090698,142.0834,12.782664196090698,142.0834,12.782664196090698C142.2025,12.677544196090698,142.5159,12.267714196090697,142.585,12.0362341960907C142.6089,11.603964196090697,142.9711,11.260274196090698,143.4132,11.260274196090698C143.872,11.260274196090698,144.2438,11.6287641960907,144.2438,12.083474196090698C144.2438,12.414174196090698,144.0471,12.698804196090698,143.7624,12.829904196090698L143.7659,12.831084196090698C143.2893,13.042494196090697,143.0438,13.474764196090698,142.927,13.596414196090699C142.927,13.596414196090699,142.4039,14.331024196090699,141.7688,15.142414196090698C140.9025,16.250244196090698,140.346,17.258874196090698,140.3508,18.2486341960907C140.3555,19.2371341960907,141.0693,20.267034196090698,141.8701,21.2461341960907C142.3336,21.810634196090696,142.3431,21.990234196090697,143.1153,22.7189341960907ZM131.50599,21.004334196090696L131.50599,19.486834196090697L131.24127,19.494434196090697C128.87624,19.631434196090698,127,21.591234196090696,127,23.9892341960907C127,26.475934196090698,129.0178,28.491534196090697,131.50599,28.491534196090697C133.99402,28.491534196090697,136.01075,26.476134196090698,136.01075,23.9892341960907L134.49328,23.9892341960907L134.48509,24.2119341960907C134.37108,25.756534196090698,133.08116,26.9741341960907,131.50599,26.9741341960907C129.8555,26.9741341960907,128.51747,25.637534196090698,128.51747,23.9892341960907C128.51747,22.340834196090697,129.8555,21.004334196090696,131.50599,21.004334196090696ZM148,23.9892341960907C148,21.502434196090697,145.9822,19.486834196090697,143.494,19.486834196090697L143.494,21.004334196090696L143.7171,21.012534196090698C145.2634,21.1264341960907,146.48250000000002,22.4158341960907,146.48250000000002,23.9892341960907C146.48250000000002,25.637534196090698,145.1445,26.9741341960907,143.494,26.9741341960907C141.8438,26.9741341960907,140.5067,25.637834196090697,140.5067,23.9892341960907L138.98930000000001,23.9892341960907L138.9969,24.253734196090697C139.1339,26.6175341960907,141.0948,28.491534196090697,143.494,28.491534196090697C145.9822,28.491534196090697,148,26.475934196090698,148,23.9892341960907Z" fill-rule="evenodd" fill="#FEFEFE" fill-opacity="1"/></g><g mask="url(#master_svg0_6810_045165/125_04803)"><g></g></g></g></g><g><path d="M136.7623604736328,24.067994144169923L137.76221947363283,24.05123048416992L137.7538404736328,23.551298274169923L136.7539764736328,23.56806227416992L136.7623604736328,24.067994144169923ZM136.8138774736328,27.136532274169923L137.8138774736328,27.136532274169923L137.8138774736328,26.636532274169923L136.8138774736328,26.636532274169923L136.8138774736328,27.136532274169923ZM137.8654654736328,30.71345227416992L137.8654654736328,29.71345227416992L136.8654654736328,29.71345227416992L136.8654654736328,30.71345227416992L137.8654654736328,30.71345227416992ZM137.91705347363282,33.79038227416992L137.91705347363282,32.79038227416992L136.91705347363282,32.79038227416992L136.91705347363282,33.79038227416992L137.91705347363282,33.79038227416992ZM137.9686414736328,36.86731227416992L137.9686414736328,35.86731227416992L136.9686414736328,35.86731227416992L136.9686414736328,36.86731227416992L137.9686414736328,36.86731227416992ZM138.0202284736328,39.94421227416992L138.0202284736328,38.94421227416992L137.02022887363282,38.94421227416992L137.02022887363282,39.94421227416992L138.0202284736328,39.94421227416992ZM138.07181647363282,43.02111227416992L138.07181647363282,42.02111227416992L137.07181657363282,42.02111227416992L137.07181657363282,43.02111227416992L138.07181647363282,43.02111227416992ZM138.1234004736328,46.09811227416992L138.1234004736328,45.09811227416992L137.1234043736328,45.09811227416992L137.1234043736328,46.09811227416992L138.1234004736328,46.09811227416992ZM138.17499047363282,49.17501227416992L138.17499047363282,48.17501227416992L137.1749920736328,48.17501227416992L137.1749920736328,49.17501227416992L138.17499047363282,49.17501227416992ZM138.22658047363282,52.251912274169925L138.22658047363282,51.251912274169925L137.22657947363282,51.251912274169925L137.22657947363282,52.251912274169925L138.22658047363282,52.251912274169925ZM138.27817047363283,55.32881227416992L138.27817047363283,54.32881227416992L137.2781674736328,54.32881227416992L137.2781674736328,55.32881227416992L138.27817047363283,55.32881227416992ZM138.3297504736328,58.405812274169925L138.3297504736328,57.405812274169925L137.32975547363282,57.405812274169925L137.32975547363282,58.405812274169925L138.3297504736328,58.405812274169925ZM138.3813404736328,61.48271227416992L138.3813404736328,60.48271227416992L137.38134347363282,60.48271227416992L137.38134347363282,61.48271227416992L138.3813404736328,61.48271227416992ZM137.4412414736328,64.55961227416992L137.4329304736328,64.55961227416992L137.4329304736328,64.05961227416992L137.9329304736328,64.05961227416992L138.43286047363281,64.05121227416993L138.4412404736328,64.55121227416993L138.4329304736328,64.55131227416993L138.4329304736328,64.55961227416992L137.93721647363282,64.55961227416992L137.44138047363282,64.56791227416991L137.4412414736328,64.55961227416992Z" fill-rule="evenodd" fill="#FFFFFF" fill-opacity="1"/></g><g><g><g><path d="M138,60L142.5,65L133.5,65L138,60ZM140,65.5L140,67L136,67L136,65.5L140,65.5ZM140,69.5L140,68L136,68L136,69.5L140,69.5ZM137.41609,70.01050000000001L138,70L138.5839,70.01050000000001C142.7296,70.16,146,71.889,146,74C146,76.2091,142.4183,78,138,78C133.58172,78,130,76.2091,130,74C130,71.889,133.27042,70.16,137.41609,70.01050000000001ZM148,75C148,72.2386,143.5228,70,138,70L137.70672,70.0026L137.37942,70.0095C132.14563,70.1697,128,72.3428,128,75C128,77.7614,132.47715,80,138,80C143.5228,80,148,77.7614,148,75ZM136.87714,71.1709L136.52809,72.6679L139.5111,72.6679L139.1631,71.1709L140.4978,71.1709L141.8771,75.8297L140.2478,75.8297L139.7901,73.8669L136.24909,73.8669L135.79239,75.8297L134.16309,75.8297L135.54241,71.1709L136.87714,71.1709Z" fill-rule="evenodd" fill="#FFFFFF" fill-opacity="1"/></g><g mask="url(#master_svg1_6810_045166/125_04718)"><g></g></g></g></g><g><path d="M89.30566,78.38379L87.37207,78.97852L87.37207,76.64648L86.74219,76.64648L86.74219,79.17773L85.42676,79.58203L85.42676,77.56641L84.79688,77.56641L84.79688,79.78125L84.04102,80.0127L84.04102,80.64551L84.79688,80.41113L84.79688,83.8389C84.79688,84.4336,85.09277,84.7383,85.69629,84.7383L88.54102,84.7383C88.875,84.7383,89.11816,84.6504,89.27051,84.47749999999999C89.44922,84.2812,89.56641,83.7305,89.63086,82.8223L89.02734,82.6348C88.99219,83.3613,88.91895,83.80369999999999,88.81934,83.9473C88.74902,84.0645,88.61426,84.1289,88.42383,84.1289L85.89551,84.1289C85.5791,84.1289,85.42676,83.9824,85.42676,83.7129L85.42676,80.2207L86.74219,79.8252L86.74219,83.0391L87.37207,83.0391L87.37207,79.63477L88.68457,79.23926C88.67578,80.46387,88.64941,81.1758,88.60547,81.3633C88.5498,81.5625,88.39746,81.6621,88.1543,81.6621C88.0459,81.6621,87.91992,81.6533,87.78516,81.6445L87.96387,82.2832L88.01953,82.2832C88.69336,82.2832,89.08008,82.084,89.1709,81.70609999999999C89.26172,81.3105,89.30566,80.20312,89.30566,78.38379ZM84.1582,82.21000000000001C83.81543,82.3711,83.45508,82.5264,83.09473,82.6611L83.09473,79.67285L84.03223,79.67285L84.03223,79.04297L83.09473,79.04297L83.09473,76.71973L82.45605,76.71973L82.45605,79.04297L81.430664,79.04297L81.430664,79.67285L82.45605,79.67285L82.45605,82.875C82.07812,82.9834,81.700195,83.083,81.322266,83.16499999999999L81.483398,83.8125C82.43848,83.5605,83.3291,83.2354,84.1582,82.8486L84.1582,82.21000000000001ZM90.49219,77.00684L90.49219,77.63672L94.2393,77.63672C94.166,78.03516,94.0488,78.41309,93.9053,78.79102L91.0078,78.79102L91.0078,84.92869999999999L91.6289,84.92869999999999L91.6289,84.47749999999999L97.39750000000001,84.47749999999999L97.39750000000001,84.92869999999999L98.01859999999999,84.92869999999999L98.01859999999999,78.79102L94.5615,78.79102C94.7051,78.42188,94.8223,78.03516,94.8955,77.63672L98.50489999999999,77.63672L98.50489999999999,77.00684L90.49219,77.00684ZM91.6289,83.8857L91.6289,79.37402L92.8711,79.37402L92.8711,83.8857L91.6289,83.8857ZM93.4717,83.8857L93.4717,82.73140000000001L95.5254,82.73140000000001L95.5254,83.8857L93.4717,83.8857ZM96.1289,83.8857L96.1289,79.37402L97.39750000000001,79.37402L97.39750000000001,83.8857L96.1289,83.8857ZM93.4717,82.166L93.4717,81.06739999999999L95.5254,81.06739999999999L95.5254,82.166L93.4717,82.166ZM93.4717,80.49023L93.4717,79.37402L95.5254,79.37402L95.5254,80.49023L93.4717,80.49023Z" fill="#F7B500" fill-opacity="1"/></g><g transform="matrix(0,1,-1,0,155,-119)"><path d="M136.99999773502,17.499998L137,18L138,18L138,17.499998L136.99999773502,17.499998ZM138,21.5303L138,20.5303L137,20.5303L137,21.5303L138,21.5303ZM138,24.56061L138,23.56061L137,23.56061L137,24.56061L138,24.56061ZM138,27.59091L138,26.59091L137,26.59091L137,27.59091L138,27.59091ZM138,30.6212L138,29.6212L137,29.6212L137,30.6212L138,30.6212ZM138,33.6515L138,32.6515L137,32.6515L137,33.6515L138,33.6515ZM138,36.681799999999996L138,35.681799999999996L137,35.681799999999996L137,36.681799999999996L138,36.681799999999996ZM138,39.7121L138,38.7121L137,38.7121L137,39.7121L138,39.7121ZM138,42.7424L138,41.7424L137,41.7424L137,42.7424L138,42.7424ZM138,45.7727L138,44.7727L137,44.7727L137,45.7727L138,45.7727ZM138,48.803L138,47.803L137,47.803L137,48.803L138,48.803ZM138,51.8333L138,50.8333L137,50.8333L137,51.8333L138,51.8333ZM138,54.8636L138,53.8636L137,53.8636L137,54.8636L138,54.8636ZM138,57.8939L138,56.8939L137,56.8939L137,57.8939L138,57.8939ZM138,60.9242L138,59.9242L137,59.9242L137,60.9242L138,60.9242ZM138,63.9545L138,62.9545L137,62.9545L137,63.9545L138,63.9545ZM138,66.98490000000001L138,65.98490000000001L137,65.98490000000001L137,66.98490000000001L138,66.98490000000001ZM138,70.0152L138,69.0152L137,69.0152L137,70.0152L138,70.0152ZM138,73.0455L138,72.0455L137,72.0455L137,73.0455L138,73.0455ZM138,76.0758L138,75.0758L137,75.0758L137,76.0758L138,76.0758ZM138,79.1061L138,78.1061L137,78.1061L137,79.1061L138,79.1061ZM138,82.1364L138,81.13640000000001L137,81.13640000000001L137,82.1364L138,82.1364ZM138,85.1667L138,84.1667L137,84.1667L137,85.1667L138,85.1667ZM138,88.197L138,87.197L137,87.197L137,88.197L138,88.197ZM138,91.2273L138,90.2273L137,90.2273L137,91.2273L138,91.2273ZM138,94.2576L138,93.2576L137,93.2576L137,94.2576L138,94.2576ZM138,97.2879L138,96.2879L137,96.2879L137,97.2879L138,97.2879ZM138,100.3182L138,99.3182L137,99.3182L137,100.3182L138,100.3182ZM138,103.3485L138,102.3485L137,102.3485L137,103.3485L138,103.3485ZM138,106.3788L138,105.3788L137,105.3788L137,106.3788L138,106.3788ZM138,109.4091L138,108.4091L137,108.4091L137,109.4091L138,109.4091ZM138,112.4394L138,111.4394L137,111.4394L137,112.4394L138,112.4394ZM138,115.4697L138,114.4697L137,114.4697L137,115.4697L138,115.4697ZM137,118L136.99999773502,118.5L138,118.5L138,118L137,118Z" fill-rule="evenodd" fill="#FFFFFF" fill-opacity="1"/></g><g><g transform="matrix(1,0,0,-1,0,40)"><path d="M37.4987,21.24808L46.2969,34.4453C46.7399,35.109899999999996,46.2635,36,45.4648,36L27.86852,36C27.06982,36,26.59343,35.109899999999996,27.03647,34.4453L35.83462,21.24808C36.2304,20.654342,37.1029,20.654342,37.4987,21.24808ZM28.61593,34.6L36.6667,22.52389L44.7174,34.6L28.61593,34.6Z" fill-rule="evenodd" fill="#FFFFFF" fill-opacity="1"/></g></g><g><g><path d="M196.84950859375,95.5400390625Q197.98370859375,95.5400390625,199.17850859375,96.7348790625L199.88560859375,96.0277670625Q198.39790859375,94.5400390625,196.84950859375,94.5400390625Q195.48470859374999,94.5400390625,194.16690859375,95.6959700625Q192.84920859375,94.5400390625,191.48440859375,94.5400390625Q190.11950859375,94.5400390625,188.80180859375,95.6959710625Q187.48410859375,94.5400390625,186.11920859375,94.5400390625Q184.75440859375,94.5400390625,183.43670859375,95.6959700625Q182.11900859375,94.5400390625,180.75410859375,94.5400390625Q179.38930859375,94.5400390625,178.07160859375,95.6959710625Q176.75384859375,94.5400390625,175.38899859375,94.5400390625Q174.02414859375,94.5400390625,172.70643859375,95.6959710625Q171.38871859375,94.5400390625,170.02386859375,94.5400390625Q168.47547859375,94.5400390625,166.98775559375,96.0277670625L167.69486159375,96.7348790625Q168.88969859375,95.5400390625,170.02386859375,95.5400390625Q171.15804859375,95.5400390625,172.35287859375,96.7348690625L172.70643859375,97.0884290625L173.05998859375,96.7348790625Q174.25482859375,95.5400390625,175.38899859375,95.5400390625Q176.52316859375,95.5400390625,177.71800859375,96.7348790625L178.07160859375,97.0884290625L178.42510859375,96.7348790625Q179.61990859375,95.5400390625,180.75410859375,95.5400390625Q181.88830859375,95.5400390625,183.08310859375,96.7348790625L183.43670859375,97.0884290625L183.79020859375,96.7348690625Q184.98510859375,95.5400390625,186.11920859375,95.5400390625Q187.25340859375,95.5400390625,188.44830859375,96.7348790625L188.80180859375,97.0884290625L189.15540859375,96.7348790625Q190.35020859375,95.5400390625,191.48440859375,95.5400390625Q192.61850859375,95.5400390625,193.81340859375,96.7348790625L194.16690859375,97.0884290625L194.52050859375,96.7348790625Q195.71530859375,95.5400390625,196.84950859375,95.5400390625Z" fill-rule="evenodd" fill="#FFFFFF" fill-opacity="1"/></g><g><path d="M18.97360921875,94.76318359375Q17.42325921875,94.76318359375,15.90742821875,95.91809959375L16.51347021875,96.71353359375Q17.76079921875,95.76318359375,18.97360921875,95.76318359375Q20.18640921875,95.76318359375,21.433749218750002,96.71353359375L21.73676921875,96.94440359375L22.039789218750002,96.71353359375Q23.28711921875,95.76318359375,24.49991921875,95.76318359375Q25.71272921875,95.76318359375,26.96004921875,96.71353359375L27.263049218749998,96.94440359375L27.56614921875,96.71353359375Q28.81344921875,95.76318359375,30.02624921875,95.76318359375Q31.23904921875,95.76318359375,32.48634921875,96.71353359375L32.789349218750004,96.94440359375L33.092449218750005,96.71353359375Q34.33974921875,95.76318359375,35.55254921875,95.76318359375Q36.76534921875,95.76318359375,38.01264921875,96.71353359375L38.31574921875,96.94440359375L38.61874921875,96.71353359375Q39.86604921875,95.76318359375,41.07884921875,95.76318359375Q42.291649218749995,95.76318359375,43.53904921875,96.71353359375L43.84204921875,96.94440359375L44.14504921875,96.71353359375Q45.39234921875,95.76318359375,46.60514921875,95.76318359375Q47.81794921875,95.76318359375,49.06534921875,96.71353359375L49.36834921875,96.94440359375L49.67134921875,96.71353359375Q50.91864921875,95.76318359375,52.13154921875,95.76318359375Q53.34434921875,95.76318359375,54.59164921875,96.71353359375L54.89464921875,96.94440359375L55.19764921875,96.71353359375Q56.44504921875,95.76318359375,57.65784921875,95.76318359375Q58.87064921875,95.76318359375,60.11794921875,96.71353359375L60.72394921875,95.91809959375Q59.20814921875,94.76318359375,57.65784921875,94.76318359375Q56.26224921875,94.76318359375,54.89464921875,95.69900459375Q53.52704921875,94.76318359375,52.13154921875,94.76318359375Q50.73594921875,94.76318359375,49.36834921875,95.69900359375Q48.00074921875,94.76318359375,46.60514921875,94.76318359375Q45.20964921875,94.76318359375,43.84204921875,95.69900259375Q42.474449218749996,94.76318359375,41.07884921875,94.76318359375Q39.683349218749996,94.76318359375,38.31574921875,95.69900259375Q36.948149218750004,94.76318359375,35.55254921875,94.76318359375Q34.15694921875,94.76318359375,32.789349218750004,95.69900259375Q31.421849218749998,94.76318359375,30.02624921875,94.76318359375Q28.63064921875,94.76318359375,27.263049218749998,95.69900159375Q25.89549921875,94.76318359375,24.49991921875,94.76318359375Q23.104359218749998,94.76318359375,21.73676921875,95.69899959375Q20.36916921875,94.76318359375,18.97360921875,94.76318359375Z" fill-rule="evenodd" fill="#FFFFFF" fill-opacity="1"/></g><g><path d="M143.50080859374998,95.5400390625Q144.63490859375,95.5400390625,145.82980859375,96.7348690625L146.53690859375,96.0277680625Q145.04920859375,94.5400390625,143.50080859374998,94.5400390625Q142.13590859375,94.5400390625,140.81820859375,95.6959680625Q139.50050859375,94.5400390625,138.13560859375002,94.5400390625Q136.77080859375002,94.5400390625,135.45310859375002,95.6959730625Q134.13530859374998,94.5400390625,132.77050859374998,94.5400390625Q131.40570859375,94.5400390625,130.08790859375,95.6959710625Q128.77020859375,94.5400390625,127.40540859375,94.5400390625Q126.04050859375,94.5400390625,124.72280859375,95.6959700625Q123.40510859375,94.5400390625,122.04030859375,94.5400390625Q120.67540859375,94.5400390625,119.35770859375,95.6959700625Q118.04000859375,94.5400390625,116.67510859375,94.5400390625Q115.31030859375,94.5400390625,113.99260859374999,95.6959710625Q112.67480859375,94.5400390625,111.31000859375,94.5400390625Q109.94520859375001,94.5400390625,108.62740859375,95.6959710625Q107.30970859375,94.5400390625,105.94490859375,94.5400390625Q104.58000859375,94.5400390625,103.26230859374999,95.6959720625Q101.94460859374999,94.5400390625,100.57970859375,94.5400390625Q99.21490859375001,94.5400390625,97.89720859375001,95.6959710625Q96.57950859375,94.5400390625,95.21460859375,94.5400390625Q93.84980859375,94.5400390625,92.53210859375,95.6959700625Q91.21440859375,94.5400390625,89.84950859375,94.5400390625Q88.48470859375,94.5400390625,87.16690859375001,95.6959700625Q85.84920859375,94.5400390625,84.48440859375,94.5400390625Q83.11950859375,94.5400390625,81.80180859375,95.6959710625Q80.48410859375,94.5400390625,79.11920859375,94.5400390625Q77.75440859375,94.5400390625,76.43670859375,95.6959700625Q75.11900859375,94.5400390625,73.75410859375,94.5400390625Q72.38930859375,94.5400390625,71.07160859375,95.6959710625Q69.75384859375,94.5400390625,68.38899859375,94.5400390625Q67.02414859375,94.5400390625,65.70643859375,95.6959710625Q64.38871859375,94.5400390625,63.02386859375,94.5400390625Q61.47547859375,94.5400390625,59.98775559375,96.0277670625L60.69486159375,96.7348790625Q61.88969859375,95.5400390625,63.02386859375,95.5400390625Q64.15804859375,95.5400390625,65.35287859375,96.7348690625L65.70643859375,97.0884290625L66.05998859375,96.7348790625Q67.25482859375,95.5400390625,68.38899859375,95.5400390625Q69.52316859375,95.5400390625,70.71800859375,96.7348790625L71.07160859375,97.0884290625L71.42510859375,96.7348790625Q72.61990859375,95.5400390625,73.75410859375,95.5400390625Q74.88830859375,95.5400390625,76.08310859375,96.7348790625L76.43670859375,97.0884290625L76.79020859375,96.7348690625Q77.98510859375,95.5400390625,79.11920859375,95.5400390625Q80.25340859375,95.5400390625,81.44830859375,96.7348790625L81.80180859375,97.0884290625L82.15540859375,96.7348790625Q83.35020859375,95.5400390625,84.48440859375,95.5400390625Q85.61850859375,95.5400390625,86.81340859375,96.7348790625L87.16690859375001,97.0884290625L87.52050859375001,96.7348790625Q88.71530859375,95.5400390625,89.84950859375,95.5400390625Q90.98370859375,95.5400390625,92.17850859375,96.7348790625L92.53210859375,97.0884290625L92.88560859374999,96.7348790625Q94.08050859375,95.5400390625,95.21460859375,95.5400390625Q96.34880859375,95.5400390625,97.54360859375001,96.7348790625L97.89720859375001,97.0884290625L98.25070859375,96.7348790625Q99.44560859375,95.5400390625,100.57970859375,95.5400390625Q101.71390859375,95.5400390625,102.90880859375,96.7348790625L103.26230859374999,97.0884290625L103.61590859374999,96.7348790625Q104.81070859375001,95.5400390625,105.94490859375,95.5400390625Q107.07900859374999,95.5400390625,108.27390859375001,96.7348790625L108.62740859375,97.0884290625L108.98100859375,96.7348790625Q110.17580859374999,95.5400390625,111.31000859375,95.5400390625Q112.44420859375,95.5400390625,113.63900859374999,96.7348790625L113.99260859374999,97.0884290625L114.34610859375,96.7348790625Q115.54100859375,95.5400390625,116.67510859375,95.5400390625Q117.80930859375,95.5400390625,119.00410859375,96.7348690625L119.35770859375,97.0884290625L119.71120859375,96.7348790625Q120.90610859374999,95.5400390625,122.04030859375,95.5400390625Q123.17440859375,95.5400390625,124.36930859375,96.7348790625L124.72280859375,97.0884290625L125.07640859375,96.7348690625Q126.27120859375,95.5400390625,127.40540859375,95.5400390625Q128.53960859375002,95.5400390625,129.73440859375,96.7348690625L130.08790859375,97.0884290625L130.44150859375,96.7348790625Q131.63630859375002,95.5400390625,132.77050859374998,95.5400390625Q133.90470859375,95.5400390625,135.09950859375,96.7348690625L135.45310859375002,97.0884290625L135.80660859375,96.7348790625Q137.00150859375,95.5400390625,138.13560859375002,95.5400390625Q139.26980859374999,95.5400390625,140.46460859375,96.7348690625L140.81820859375,97.0884290625L141.17180859375,96.7348790625Q142.36660859375002,95.5400390625,143.50080859374998,95.5400390625Z" fill-rule="evenodd" fill="#FFFFFF" fill-opacity="1"/></g><g><path d="M169.84950859375,95.5400390625Q170.98370859375,95.5400390625,172.17850859375,96.7348790625L172.88560859375,96.0277670625Q171.39790859375,94.5400390625,169.84950859375,94.5400390625Q168.48470859374999,94.5400390625,167.16690859375,95.6959700625Q165.84920859375,94.5400390625,164.48440859375,94.5400390625Q163.11950859375,94.5400390625,161.80180859375,95.6959710625Q160.48410859375,94.5400390625,159.11920859375,94.5400390625Q157.75440859375,94.5400390625,156.43670859375,95.6959700625Q155.11900859375,94.5400390625,153.75410859375,94.5400390625Q152.38930859375,94.5400390625,151.07160859375,95.6959710625Q149.75384859375,94.5400390625,148.38899859375,94.5400390625Q147.02414859375,94.5400390625,145.70643859375,95.6959710625Q144.38871859375,94.5400390625,143.02386859375,94.5400390625Q141.47547859375,94.5400390625,139.98775559375,96.0277670625L140.69486159375,96.7348790625Q141.88969859375,95.5400390625,143.02386859375,95.5400390625Q144.15804859375,95.5400390625,145.35287859375,96.7348690625L145.70643859375,97.0884290625L146.05998859375,96.7348790625Q147.25482859375,95.5400390625,148.38899859375,95.5400390625Q149.52316859375,95.5400390625,150.71800859375,96.7348790625L151.07160859375,97.0884290625L151.42510859375,96.7348790625Q152.61990859375,95.5400390625,153.75410859375,95.5400390625Q154.88830859375,95.5400390625,156.08310859375,96.7348790625L156.43670859375,97.0884290625L156.79020859375,96.7348690625Q157.98510859375,95.5400390625,159.11920859375,95.5400390625Q160.25340859375,95.5400390625,161.44830859375,96.7348790625L161.80180859375,97.0884290625L162.15540859375,96.7348790625Q163.35020859375,95.5400390625,164.48440859375,95.5400390625Q165.61850859375,95.5400390625,166.81340859375,96.7348790625L167.16690859375,97.0884290625L167.52050859375,96.7348790625Q168.71530859375,95.5400390625,169.84950859375,95.5400390625Z" fill-rule="evenodd" fill="#FFFFFF" fill-opacity="1"/></g><g><path d="M153.813,94.3761Q159.716,95.1756,160.871,95.4832L161.129,94.5168Q159.912,94.1931,153.947,93.3852Q149.23399999999998,92.7467,148.261,92.525Q147.726,92.4031,147.11599999999999,91.1381Q146.692,90.2574,145.862,87.79134Q144.50900000000001,83.77351,143.51,82.04551000000001Q141.727,78.9621906,139.215,78.55479Q136.728,78.151673,134.774,80.72261Q133.69400000000002,82.14414,132.08100000000002,85.82395Q130.96699999999998,88.36473,130.402,89.2282Q129.608,90.4417,128.92770000000002,90.3618Q127.6825,90.2154,125.8735,89.2088Q124.7454,88.58098,122.307,86.92403Q119.0181,84.68911,117.3032,83.82508Q114.3528,82.33861,111.9874,82.3936Q108.6527,82.47112,104.52,84.98078Q102.2719,86.34597,99.1504,88.94513Q98.2703,89.678,98.0722,89.807Q97.9582,89.8811,97.0779,88.76916Q95.9443,87.33734,95.1485,86.789Q93.6855,85.78094,92.02369999999999,86.25303Q90.87049999999999,86.58064,89.4263,87.53796Q88.57820000000001,88.10019,86.85849999999999,89.449Q84.73949999999999,91.111,83.6554,91.7763Q81.8877,92.8611,80.4417,93.0559Q79.76820000000001,93.1466,76.723,92.6289Q70.75,91.6133,66.5133,91.5002Q63.8684,91.4296,63.0454,91.3161Q62.6691,91.2643,61.9294,91.2769Q61.2249,91.289,57.3523,91.4076Q55.139399999999995,91.47540000000001,53.697500000000005,91.519Q45.8804,91.7555,28.9199468,94.5064L29.0800532,95.4935Q45.976,92.753,53.7278,92.51859999999999Q55.1712,92.4749,57.382999999999996,92.4071Q62.4998,92.2504,62.9088,92.3068Q63.7866,92.4277,66.4867,92.4998Q70.6523,92.6111,76.55539999999999,93.6147Q79.7507,94.158,80.5752,94.0469Q82.23060000000001,93.8239,84.1785,92.6286Q85.3115,91.9333,87.4757,90.2358Q89.164,88.91164,89.97890000000001,88.37146Q91.29339999999999,87.50008,92.297,87.21497Q93.5059,86.87155,94.5811,87.61245Q95.2533,88.07566,96.2938,89.3899Q96.9455,90.213,97.2572,90.4701Q97.9757,91.0629,98.6177,90.645Q98.8651,90.484,99.7903,89.7136Q102.8546,87.16208,105.0391,85.83553Q108.9432,83.46463,112.0107,83.39333Q114.1262,83.34415,116.8533,84.71814Q118.5099,85.55284,121.745,87.75113Q124.2202,89.4331,125.3873,90.0826Q127.3692,91.1855,128.8111,91.3549Q130.107,91.5072,131.239,89.7755Q131.849,88.84246,132.997,86.22539Q134.562,82.65458,135.57,81.32777Q137.161,79.234889,139.055,79.541899Q141.099,79.873384,142.64499999999998,82.54606Q143.594,84.18736,144.914,88.11032Q145.764,90.6354,146.215,91.5724Q147.034,93.2711,148.038,93.5Q149.055,93.7317,153.813,94.3761Z" fill-rule="evenodd" fill="#FFFFFF" fill-opacity="1"/></g></g><g><g><path d="M142.49999773502,19L143,19L154.2843,19L154.7843,19L154.7843,17.99999773502L154.2843,18L143,18L142.49999773502,17.99999773502L142.49999773502,19Z" fill-rule="evenodd" fill="#00F380" fill-opacity="1"/></g><g><path d="M152.16667,20L155.83333,26L148.5,26L152.16667,20Z" fill-rule="evenodd" fill="#00F380" fill-opacity="1"/></g><g transform="matrix(1,0,0,-1,0,190)"><path d="M152.16667,95L155.83333,101L148.5,101L152.16667,95Z" fill-rule="evenodd" fill="#00F380" fill-opacity="1"/></g><g><path d="M151.49999773502,26.202125L151.5,26.702128L151.5,27.69149L152.5,27.69149L152.5,26.702128L152.5,26.202125L151.49999773502,26.202125ZM151.5,29.14893L151.5,30.62766L152.5,30.62766L152.5,28.64893L151.5,28.64893L151.5,29.14893ZM151.5,32.08511L151.5,33.56383L152.5,33.56383L152.5,31.58511L151.5,31.58511L151.5,32.08511ZM151.5,35.02127L151.5,36.5L152.5,36.5L152.5,34.52127L151.5,34.52127L151.5,35.02127ZM151.5,37.9574L151.5,39.4362L152.5,39.4362L152.5,37.4574L151.5,37.4574L151.5,37.9574ZM151.5,40.8936L151.5,42.372299999999996L152.5,42.372299999999996L152.5,40.3936L151.5,40.3936L151.5,40.8936ZM151.5,43.8298L151.5,45.308499999999995L152.5,45.308499999999995L152.5,43.3298L151.5,43.3298L151.5,43.8298ZM151.5,46.766L151.5,48.2447L152.5,48.2447L152.5,46.266L151.5,46.266L151.5,46.766ZM151.5,49.7021L151.5,51.1809L152.5,51.1809L152.5,49.2021L151.5,49.2021L151.5,49.7021ZM151.5,52.6383L151.5,54.117000000000004L152.5,54.117000000000004L152.5,52.1383L151.5,52.1383L151.5,52.6383ZM151.5,55.5745L151.5,57.053200000000004L152.5,57.053200000000004L152.5,55.0745L151.5,55.0745L151.5,55.5745ZM151.5,58.5106L151.5,59.9894L152.5,59.9894L152.5,58.0106L151.5,58.0106L151.5,58.5106ZM151.5,61.4468L151.5,62.9255L152.5,62.9255L152.5,60.9468L151.5,60.9468L151.5,61.4468ZM151.5,64.38300000000001L151.5,65.8617L152.5,65.8617L152.5,63.883L151.5,63.883L151.5,64.38300000000001ZM151.5,67.31909999999999L151.5,68.7979L152.5,68.7979L152.5,66.81909999999999L151.5,66.81909999999999L151.5,67.31909999999999ZM151.5,70.2553L151.5,71.73400000000001L152.5,71.73400000000001L152.5,69.7553L151.5,69.7553L151.5,70.2553ZM151.5,73.19149999999999L151.5,74.6702L152.5,74.6702L152.5,72.69149999999999L151.5,72.69149999999999L151.5,73.19149999999999ZM151.5,76.1277L151.5,77.60640000000001L152.5,77.60640000000001L152.5,75.6277L151.5,75.6277L151.5,76.1277ZM151.5,79.0638L151.5,80.5426L152.5,80.5426L152.5,78.5638L151.5,78.5638L151.5,79.0638ZM151.5,82L151.5,83.4787L152.5,83.4787L152.5,81.5L151.5,81.5L151.5,82ZM151.5,84.9362L151.5,86.4149L152.5,86.4149L152.5,84.4362L151.5,84.4362L151.5,84.9362ZM151.5,87.8723L151.5,89.3511L152.5,89.3511L152.5,87.3723L151.5,87.3723L151.5,87.8723ZM151.5,90.8085L151.5,91.2979L151.49999773502,91.7979L152.5,91.7979L152.5,91.2979L152.5,90.3085L151.5,90.3085L151.5,90.8085Z" fill-rule="evenodd" fill="#00F380" fill-opacity="1"/></g><g><path d="M147.684208,96L148.184211,96L154.92054,96L155.42054,96L155.42054,94.99999773502L154.92054,95L148.184211,95L147.684208,94.99999773502L147.684208,96Z" fill-rule="evenodd" fill="#00F380" fill-opacity="1"/></g></g><g><path d="M166.81,52.29L171.8,52.29L171.8,51.62L167.18,51.62C167.29,51.4,167.4,51.16,167.5,50.91L166.78,50.76C166.35,51.82,165.8,52.67,165.12,53.32L165.58,53.87C165.81,53.64,166.03,53.39,166.24,53.12C166.22,53.9,166.17,54.68,166.09,55.45L165.02,55.45L165.02,56.12L166.02,56.12C165.92,56.92,165.78,57.72,165.62,58.519999999999996L170.38,58.519999999999996C170.36,58.68,170.34,58.79,170.32,58.84C170.22,59.07,170.06,59.22,169.84,59.29C169.62,59.34,169.38,59.37,169.11,59.37C168.81,59.37,168.48,59.35,168.12,59.33L168.33,59.99C168.66,59.99,168.95,59.980000000000004,169.2,59.980000000000004C169.74,59.980000000000004,170.14,59.91,170.42,59.769999999999996C170.7,59.61,170.89,59.37,170.99,59.05C171.01,58.97,171.04,58.8,171.07,58.519999999999996L171.94,58.519999999999996L171.94,57.9L171.12,57.9C171.15,57.44,171.18,56.85,171.22,56.12L172.1,56.12L172.1,55.45L171.25,55.45C171.27,54.769999999999996,171.3,53.99,171.33,53.11L166.25,53.11C166.45,52.85,166.63,52.58,166.81,52.29ZM166.7,56.12L170.54,56.12C170.5,56.86,170.47,57.45,170.44,57.9L166.42,57.9C166.53,57.36,166.62,56.76,166.7,56.12ZM170.57,55.45L166.77,55.45C166.82,54.92,166.86,54.35,166.89,53.75L170.63,53.75C170.61,54.36,170.59,54.93,170.57,55.45ZM168.23,53.92L167.78,54.36C168.31,54.71,168.73,55.04,169.03,55.36L169.49,54.9C169.15,54.57,168.73,54.24,168.23,53.92ZM168.14,56.24L167.69,56.68C168.21,57.07,168.62,57.44,168.92,57.78L169.39,57.32C169.05,56.96,168.64,56.6,168.14,56.24ZM163.66,51L163.14,51.49C163.8,51.93,164.31,52.35,164.68,52.75L165.19,52.230000000000004C164.77,51.81,164.26,51.4,163.66,51ZM163.5,53.43L162.98,53.93C163.64,54.39,164.15,54.81,164.52,55.21L165.03,54.7C164.61,54.28,164.1,53.85,163.5,53.43ZM164.53,56.36C164.11,57.46,163.62,58.53,163.06,59.58L163.73,59.87C164.25,58.85,164.73,57.76,165.15,56.6L164.53,56.36ZM173.06,52.67L173.06,53.36L174.22,53.36L174.22,55.78C173.8,55.91,173.37,56.03,172.93,56.13L173.1,56.86C173.47,56.75,173.84,56.63,174.22,56.51L174.22,58.83C174.22,59.11,174.1,59.25,173.86,59.25C173.61,59.25,173.35,59.230000000000004,173.09,59.2L173.24,59.89L174.11,59.89C174.66,59.89,174.94,59.59,174.94,59.01L174.94,56.24C175.37,56.06,175.79,55.88,176.21,55.68L176.21,54.95C175.8,55.15,175.38,55.34,174.94,55.519999999999996L174.94,53.36L176.07,53.36L176.07,52.67L174.94,52.67L174.94,50.84L174.22,50.84L174.22,52.67L173.06,52.67ZM176.49,52.43L176.49,53.12L177.57,53.12C177.49,54.53,177.35,55.62,177.17,56.4C176.87,57.58,176.39,58.58,175.71,59.42L176.17,59.99C176.95,59.05,177.5,57.94,177.83,56.65C177.87,56.49,177.9,56.32,177.94,56.14C178.22,56.9,178.61,57.58,179.13,58.17C178.64,58.65,178.05,59.04,177.36,59.35L177.73,60C178.47,59.66,179.11,59.22,179.65,58.7C180.23,59.230000000000004,180.95,59.67,181.79,60.01L182.16,59.35C181.37,59.05,180.69,58.65,180.12,58.17C180.78,57.34,181.22,56.32,181.46,55.11L181.46,54.5L178.17,54.5C178.21,54.08,178.24,53.62,178.28,53.12L181.95,53.12L181.95,52.43L178.32,52.43C178.34,51.94,178.35,51.41,178.37,50.84L177.65,50.84C177.64,51.4,177.62,51.93,177.6,52.43L176.49,52.43ZM178.25,55.15L180.79,55.15C180.55,56.12,180.15,56.96,179.59,57.66C178.96,56.97,178.51,56.13,178.25,55.15ZM180.1,50.8L179.56,51.14C180.02,51.56,180.38,51.95,180.65,52.31L181.19,51.93C180.93,51.61,180.57,51.23,180.1,50.8ZM187.63,50.77L186.84,50.91C186.96,51.14,187.07999999999998,51.39,187.18,51.67L183.07999999999998,51.67L183.07999999999998,52.33L191.91,52.33L191.91,51.67L187.95,51.67C187.85,51.34,187.74,51.04,187.63,50.77ZM190.31,59.97C191.04,59.97,191.41,59.65,191.41,59.019999999999996L191.41,55.519999999999996L183.59,55.519999999999996L183.59,60L184.28,60L184.28,56.15L190.72,56.15L190.72,58.87C190.72,59.19,190.51,59.35,190.1,59.35L189.3,59.32L189.47,59.97L190.31,59.97ZM184.71,52.980000000000004L184.71,54.92L190.3,54.92L190.3,52.980000000000004L184.71,52.980000000000004ZM189.6,54.36L185.41,54.36L185.41,53.54L189.6,53.54L189.6,54.36ZM185.54,56.79L185.54,58.79L189.47,58.79L189.47,56.79L185.54,56.79ZM188.82999999999998,58.25L186.19,58.25L186.19,57.33L188.82999999999998,57.33L188.82999999999998,58.25ZM195.11,56.33L195.11,56.95L195.72,56.95C196.18,57.58,196.79,58.13,197.53,58.59C196.63,58.97,195.59,59.24,194.43,59.41L194.74,60.04C196.06,59.82,197.23,59.46,198.24,58.980000000000004C199.19,59.46,200.36,59.81,201.74,60.04L202.05,59.42C200.86,59.26,199.82,58.99,198.92000000000002,58.61C199.73,58.13,200.41,57.54,200.97,56.86L200.97,56.33L195.11,56.33ZM196.48,56.95L200.03,56.95C199.51,57.46,198.9,57.9,198.2,58.269999999999996C197.51,57.91,196.94,57.47,196.48,56.95ZM194.53,54.09L196.21,54.09L196.21,55.65L200.26,55.65L200.26,54.09L201.8,54.09L201.8,53.43L200.26,53.43L200.26,52.61L199.56,52.61L199.56,53.43L196.91,53.43L196.91,52.62L196.21,52.62L196.21,53.43L194.53,53.43L194.53,52.29L201.82,52.29L201.82,51.61L198.39,51.61C198.28,51.31,198.16,51.03,198.04,50.78L197.28,50.9C197.42000000000002,51.12,197.54,51.35,197.66,51.61L193.81,51.61L193.81,54.87C193.79,56.84,193.49,58.38,192.91,59.49L193.45,59.97C194.13,58.69,194.49,56.99,194.53,54.87L194.53,54.09ZM196.91,54.09L199.56,54.09L199.56,55.04L196.91,55.04L196.91,54.09ZM167.88,64.73C167.44,65.37,167.1,66.06,166.85,66.78999999999999C166.55,67.65,166.41,68.52,166.41,69.41C166.41,70.28,166.55,71.15,166.85,72.01C167.1,72.73,167.44,73.42,167.88,74.07L168.58,74.07C168.17,73.4,167.85,72.71000000000001,167.63,72C167.33,71.12,167.19,70.25,167.19,69.4C167.19,68.53999999999999,167.33,67.68,167.63,66.8C167.85,66.08,168.17,65.39,168.58,64.73L167.88,64.73ZM171.97,65.86L169.16,73L170.04,73L170.8,71L174.08,71L174.84,73L175.73,73L172.92,65.86L171.97,65.86ZM171.06,70.31L172.43,66.74L172.47,66.74L173.82,70.31L171.06,70.31ZM178.85,65.72C178.11,65.72,177.5,65.88,177.03,66.2C176.5,66.53999999999999,176.24,67.03,176.24,67.65C176.24,68.25,176.51,68.71000000000001,177.06,69.03C177.29,69.15,177.84,69.35,178.7,69.61C179.5,69.84,180.01,70.01,180.21,70.13C180.68,70.38,180.92000000000002,70.73,180.92000000000002,71.18C180.92000000000002,71.56,180.74,71.86,180.38,72.08C180.02,72.3,179.54,72.41,178.96,72.41C178.32,72.41,177.84,72.27,177.51,72.01C177.15,71.72,176.93,71.26,176.86,70.64L176.05,70.64C176.11,71.52,176.42,72.17,176.98,72.6C177.46,72.96000000000001,178.12,73.14,178.96,73.14C179.81,73.14,180.48,72.96000000000001,180.98,72.61C181.48,72.25,181.73,71.75,181.73,71.13C181.73,70.48,181.43,69.98,180.84,69.62C180.54,69.44,179.92000000000002,69.21000000000001,178.98,68.93C178.29,68.73,177.85,68.58,177.67,68.48C177.26,68.26,177.06,67.97,177.06,67.61C177.06,67.2,177.23,66.9,177.57,66.7C177.87,66.52,178.28,66.44,178.81,66.44C179.39,66.44,179.84,66.56,180.16,66.82C180.47,67.07,180.67000000000002,67.45,180.76,67.97L181.57,67.97C181.5,67.22,181.23,66.65,180.75,66.27C180.29,65.9,179.65,65.72,178.85,65.72ZM182.77,65.86L182.77,73L187.71,73L187.71,72.28999999999999L183.57999999999998,72.28999999999999L183.57999999999998,65.86L182.77,65.86ZM188.51,64.73C188.91,65.39,189.23,66.08,189.46,66.8C189.75,67.68,189.9,68.53999999999999,189.9,69.4C189.9,70.25,189.75,71.12,189.46,72C189.23,72.71000000000001,188.91,73.4,188.51,74.07L189.21,74.07C189.64,73.42,189.98,72.73,190.24,72.01C190.53,71.15,190.68,70.28,190.68,69.41C190.68,68.52,190.53,67.65,190.24,66.78999999999999C189.98,66.06,189.64,65.37,189.21,64.73L188.51,64.73Z" fill="#FFFFFF" fill-opacity="1"/></g><g><path d="M19.879,106.961L24.369999999999997,106.961L24.369999999999997,106.358L20.212,106.358C20.311,106.16,20.41,105.944,20.5,105.719L19.852,105.584C19.465,106.538,18.97,107.303,18.358,107.888L18.772,108.383C18.979,108.176,19.177,107.951,19.366,107.708C19.348,108.41,19.303,109.112,19.231,109.805L18.268,109.805L18.268,110.408L19.168,110.408C19.078,111.128,18.951999999999998,111.848,18.808,112.568L23.092,112.568C23.073999999999998,112.712,23.056,112.811,23.038,112.856C22.948,113.063,22.804000000000002,113.19800000000001,22.606,113.261C22.408,113.306,22.192,113.333,21.948999999999998,113.333C21.679000000000002,113.333,21.381999999999998,113.315,21.058,113.297L21.247,113.891C21.544,113.891,21.805,113.882,22.03,113.882C22.516,113.882,22.876,113.819,23.128,113.693C23.38,113.549,23.551000000000002,113.333,23.641,113.045C23.659,112.973,23.686,112.82,23.713,112.568L24.496000000000002,112.568L24.496000000000002,112.01L23.758,112.01C23.785,111.596,23.812,111.065,23.848,110.408L24.64,110.408L24.64,109.805L23.875,109.805C23.893,109.193,23.92,108.491,23.947,107.699L19.375,107.699C19.555,107.465,19.717,107.222,19.879,106.961ZM19.78,110.408L23.236,110.408C23.2,111.074,23.173000000000002,111.605,23.146,112.01L19.528,112.01C19.627,111.524,19.708,110.984,19.78,110.408ZM23.262999999999998,109.805L19.843,109.805C19.887999999999998,109.328,19.924,108.815,19.951,108.275L23.317,108.275C23.299,108.824,23.281,109.337,23.262999999999998,109.805ZM21.157,108.428L20.752,108.824C21.229,109.139,21.607,109.436,21.877,109.724L22.291,109.31C21.985,109.013,21.607,108.716,21.157,108.428ZM21.076,110.516L20.671,110.912C21.139,111.263,21.508,111.596,21.778,111.902L22.201,111.488C21.895,111.164,21.526,110.84,21.076,110.516ZM17.044,105.8L16.576,106.241C17.17,106.637,17.629,107.015,17.962,107.375L18.421,106.907C18.043,106.529,17.584,106.16,17.044,105.8ZM16.9,107.987L16.432,108.437C17.026,108.851,17.485,109.229,17.818,109.589L18.277,109.13C17.899,108.752,17.44,108.365,16.9,107.987ZM17.826999999999998,110.624C17.449,111.614,17.008,112.577,16.504,113.522L17.107,113.783C17.575,112.865,18.007,111.884,18.384999999999998,110.84L17.826999999999998,110.624ZM25.872999999999998,106.05199999999999L25.872999999999998,106.682L29.131,106.682L29.131,110.084L25.512999999999998,110.084L25.512999999999998,110.705L29.131,110.705L29.131,113.891L29.797,113.891L29.797,110.705L33.486999999999995,110.705L33.486999999999995,110.084L29.797,110.084L29.797,106.682L33.144999999999996,106.682L33.144999999999996,106.05199999999999L25.872999999999998,106.05199999999999ZM26.971,107.258L26.368000000000002,107.555C26.71,108.158,27.034,108.842,27.34,109.616L27.942999999999998,109.319C27.637,108.572,27.313000000000002,107.888,26.971,107.258ZM32.074,107.213C31.813000000000002,107.897,31.462,108.581,31.021,109.283L31.597,109.58C32.038,108.896,32.397999999999996,108.203,32.668,107.492L32.074,107.213ZM34.495000000000005,106.007L34.495000000000005,106.637L38.239000000000004,106.637C38.167,107.033,38.05,107.411,37.906,107.789L35.007999999999996,107.789L35.007999999999996,113.92699999999999L35.629000000000005,113.92699999999999L35.629000000000005,113.477L41.397999999999996,113.477L41.397999999999996,113.92699999999999L42.019,113.92699999999999L42.019,107.789L38.563,107.789C38.707,107.42,38.824,107.033,38.896,106.637L42.504999999999995,106.637L42.504999999999995,106.007L34.495000000000005,106.007ZM35.629000000000005,112.883L35.629000000000005,108.374L36.870999999999995,108.374L36.870999999999995,112.883L35.629000000000005,112.883ZM37.474000000000004,112.883L37.474000000000004,111.731L39.525999999999996,111.731L39.525999999999996,112.883L37.474000000000004,112.883ZM40.129000000000005,112.883L40.129000000000005,108.374L41.397999999999996,108.374L41.397999999999996,112.883L40.129000000000005,112.883ZM37.474000000000004,111.164L37.474000000000004,110.066L39.525999999999996,110.066L39.525999999999996,111.164L37.474000000000004,111.164ZM37.474000000000004,109.49L37.474000000000004,108.374L39.525999999999996,108.374L39.525999999999996,109.49L37.474000000000004,109.49Z" fill="#F7B500" fill-opacity="1"/></g></g></g></svg>