<?xml version="1.0" standalone="no"?><!DOCTYPE svg PUBLIC "-//W3C//DTD SVG 1.1//EN" "http://www.w3.org/Graphics/SVG/1.1/DTD/svg11.dtd"><svg t="1743416484598" class="icon" viewBox="0 0 1024 1024" version="1.1" xmlns="http://www.w3.org/2000/svg" p-id="3932" xmlns:xlink="http://www.w3.org/1999/xlink" width="200" height="200"><path d="M506.197333 574.976l-306.773333-221.44a41.984 41.984 0 0 0-59.221333 0 41.984 41.984 0 0 0 0 59.221333l336.384 251.050667a41.386667 41.386667 0 0 0 13.824 9.173333 42.496 42.496 0 0 0 27.733333 1.28l3.84-1.28a41.386667 41.386667 0 0 0 13.824-9.173333l336.341333-250.965333a41.984 41.984 0 0 0 0-59.221334 41.984 41.984 0 0 0-59.221333 0l-306.773333 221.354667z" fill="#999999" p-id="3933"></path></svg>