<?xml version="1.0" standalone="no"?><!DOCTYPE svg PUBLIC "-//W3C//DTD SVG 1.1//EN" "http://www.w3.org/Graphics/SVG/1.1/DTD/svg11.dtd"><svg t="1743403314534" class="icon" viewBox="0 0 1024 1024" version="1.1" xmlns="http://www.w3.org/2000/svg" p-id="7880" xmlns:xlink="http://www.w3.org/1999/xlink" width="200" height="200"><path d="M793.6 133.376H228.864a102.4 102.4 0 0 0-102.4 102.4v551.04a102.4 102.4 0 0 0 102.4 102.4H793.6a102.4 102.4 0 0 0 102.4-102.4V235.264a102.4 102.4 0 0 0-102.4-101.888z m-541.824 51.2h518.912a73.216 73.216 0 0 1 73.216 73.216v183.68a202.88 202.88 0 0 0-44.032-16.128 384 384 0 0 0-83.072-10.368c-101.504 0-172.8 38.4-235.648 72.832-54.4 29.568-101.504 55.168-161.152 55.168-103.808 0-134.272-43.776-140.8-56.576V257.792a73.216 73.216 0 0 1 73.216-73.216z m518.272 652.8H252.416A73.216 73.216 0 0 1 179.2 764.16V558.208c28.8 19.328 73.216 35.968 140.8 35.968 72.704 0 130.048-31.232 185.6-61.312 60.288-32.768 122.752-66.688 211.2-66.688 37.76 0 117.888 11.392 127.104 44.8V764.16a73.216 73.216 0 0 1-73.216 73.216z" p-id="7881" fill="#33d399"></path></svg>