<?xml version="1.0" standalone="no"?><!DOCTYPE svg PUBLIC "-//W3C//DTD SVG 1.1//EN" "http://www.w3.org/Graphics/SVG/1.1/DTD/svg11.dtd"><svg t="1765436900988" class="icon" viewBox="0 0 1024 1024" version="1.1" xmlns="http://www.w3.org/2000/svg" p-id="4819" xmlns:xlink="http://www.w3.org/1999/xlink" width="48" height="48"><path d="M853.333333 426.666667h-42.666666l-89.6-192c-25.6-38.4-64-64-110.933334-64H341.333333c-51.2 0-98.133333 29.866667-119.466666 81.066666L170.666667 426.666667c-72.533333 0-128 55.466667-128 128v85.333333c0 72.533333 55.466667 128 128 128h8.533333c17.066667 51.2 64 85.333333 119.466667 85.333333s102.4-34.133333 119.466666-85.333333h183.466667c17.066667 51.2 64 85.333333 119.466667 85.333333s102.4-34.133333 119.466666-85.333333h12.8c72.533333 0 128-55.466667 128-128v-85.333333c0-72.533333-55.466667-128-128-128z m-341.333333-170.666667h98.133333c17.066667 0 29.866667 8.533333 38.4 21.333333l72.533334 149.333334H512V256z m-209.066667 25.6c8.533333-17.066667 21.333333-25.6 38.4-25.6h85.333334v170.666667H260.266667l42.666666-145.066667zM298.666667 768c-25.6 0-42.666667-17.066667-42.666667-42.666667s17.066667-42.666667 42.666667-42.666666 42.666667 17.066667 42.666666 42.666666-17.066667 42.666667-42.666666 42.666667z m426.666666 0c-25.6 0-42.666667-17.066667-42.666666-42.666667s17.066667-42.666667 42.666666-42.666666 42.666667 17.066667 42.666667 42.666666-17.066667 42.666667-42.666667 42.666667z m170.666667-128c0 12.8-4.266667 21.333333-12.8 29.866667s-17.066667 12.8-29.866667 12.8h-8.533333c-17.066667-51.2-64-85.333333-119.466667-85.333334s-102.4 34.133333-119.466666 85.333334H418.133333c-17.066667-51.2-64-85.333333-119.466666-85.333334s-102.4 34.133333-119.466667 85.333334H170.666667c-12.8 0-21.333333-4.266667-29.866667-12.8S128 652.8 128 640v-85.333333c0-12.8 4.266667-21.333333 12.8-29.866667s17.066667-12.8 29.866667-12.8h682.666666c12.8 0 21.333333 4.266667 29.866667 12.8s12.8 17.066667 12.8 29.866667v85.333333z" p-id="4820"></path></svg>