<?xml version="1.0" standalone="no"?><!DOCTYPE svg PUBLIC "-//W3C//DTD SVG 1.1//EN" "http://www.w3.org/Graphics/SVG/1.1/DTD/svg11.dtd"><svg t="1765442488274" class="icon" viewBox="0 0 1024 1024" version="1.1" xmlns="http://www.w3.org/2000/svg" p-id="7373" xmlns:xlink="http://www.w3.org/1999/xlink" width="48" height="48"><path d="M143.36 394.24L435.2 271.36c10.24-5.12 10.24-20.48 0-25.6l-291.84-128C128 112.64 117.76 128 128 138.24L204.8 256 128 373.76c-10.24 10.24 0 25.6 15.36 20.48zM768 624.64H256c-35.84 0-61.44-30.72-61.44-61.44 0-35.84 30.72-61.44 61.44-61.44h512c76.8 0 143.36-61.44 143.36-143.36S844.8 215.04 768 215.04H604.16c-15.36 0-30.72 15.36-30.72 30.72V256c0 15.36 15.36 30.72 30.72 30.72H768c35.84 0 61.44 30.72 61.44 61.44s-25.6 71.68-61.44 71.68H256c-76.8 0-143.36 61.44-143.36 138.24 0 76.8 61.44 143.36 143.36 143.36h512c35.84 0 61.44 30.72 61.44 61.44 0 35.84-30.72 61.44-61.44 61.44H148.48c-15.36 0-30.72 15.36-30.72 30.72v10.24c0 15.36 15.36 30.72 30.72 30.72H768c76.8 0 143.36-61.44 143.36-143.36s-66.56-128-143.36-128z" p-id="7374"></path></svg>