<?xml version="1.0" standalone="no"?>
<!DOCTYPE svg PUBLIC "-//W3C//DTD SVG 1.1//EN" "http://www.w3.org/Graphics/SVG/1.1/DTD/svg11.dtd">
<svg t="1765437333700" class="icon" viewBox="0 0 1024 1024" version="1.1" xmlns="http://www.w3.org/2000/svg" p-id="2787" xmlns:xlink="http://www.w3.org/1999/xlink" width="48" height="48">
<path d="M921.408 727.232V281.92A229.952 229.952 0 0 0 691.2 52.48a229.952 229.952 0 0 0-230.4 229.504v459.136a127.744 127.744 0 0 1-127.872 127.488 127.744 127.744 0 0 1-127.872-127.488V296.64A152.704 152.704 0 0 0 307.328 152.96 153.344 153.344 0 0 0 153.728 0 153.28 153.28 0 0 0 0.256 152.96c0 66.56 42.88 122.56 102.336 143.68v444.416A229.888 229.888 0 0 0 332.8 970.496a229.952 229.952 0 0 0 230.4-229.44V281.92a127.68 127.68 0 0 1 128-127.36 127.744 127.744 0 0 1 127.872 127.36v445.312a152.576 152.576 0 0 0-102.4 143.616 153.28 153.28 0 0 0 153.6 153.024 153.344 153.344 0 0 0 153.472-152.96c0-66.56-42.88-122.624-102.4-143.68h0.064zM204.992 152.96a51.2 51.2 0 1 1-102.336-0.192 51.2 51.2 0 0 1 102.336 0.192z m716.416 717.888a51.2 51.2 0 0 1-102.4 0c0-28.224 22.912-51.136 51.2-51.008 28.288-0.064 51.2 22.72 51.2 50.88v0.128z" fill="#2c2c2c" p-id="2788"></path>
</svg>