<?xml version="1.0" standalone="no"?><!DOCTYPE svg PUBLIC "-//W3C//DTD SVG 1.1//EN" "http://www.w3.org/Graphics/SVG/1.1/DTD/svg11.dtd"><svg t="1743402399342" class="icon" viewBox="0 0 1024 1024" version="1.1" xmlns="http://www.w3.org/2000/svg" p-id="5715" xmlns:xlink="http://www.w3.org/1999/xlink" width="200" height="200"><path d="M512 64a448 448 0 1 1 0 896 448 448 0 0 1 0-896z m0 68.892444A378.88 378.88 0 0 0 132.892444 512 378.88 378.88 0 0 0 512 891.107556 378.88 378.88 0 0 0 891.107556 512 378.88 378.88 0 0 0 512 132.892444zM442.424889 265.671111v173.966222h139.150222V265.500444h135.509333v492.828445h-135.509333V550.684444H442.424889v207.758223H306.858667V265.671111h135.566222z" p-id="5716" fill="#33d399"></path></svg>