<?xml version="1.0" standalone="no"?><!DOCTYPE svg PUBLIC "-//W3C//DTD SVG 1.1//EN" "http://www.w3.org/Graphics/SVG/1.1/DTD/svg11.dtd"><svg t="1743402388312" class="icon" viewBox="0 0 1024 1024" version="1.1" xmlns="http://www.w3.org/2000/svg" p-id="5097" xmlns:xlink="http://www.w3.org/1999/xlink" width="200" height="200"><path d="M960 64v892.8H67.2V64H960m0-64H67.2C32 0 3.2 28.8 3.2 64v892.8c0 35.2 28.8 64 64 64H960c35.2 0 64-28.8 64-64V64c0-35.2-28.8-64-64-64z" p-id="5098" fill="#ffffff"></path><path d="M492.8 54.4h48v387.2h-48zM67.2 406.4h201.6v38.4H67.2z" p-id="5099" fill="#ffffff"></path><path d="M380.8 406.4h278.4v38.4h-278.4zM771.2 406.4h204.8v38.4h-204.8z" p-id="5100" fill="#ffffff"></path><path d="M665.6 342.4c9.6 0 16 3.2 22.4 9.6l230.4 272c3.2 6.4 6.4 12.8 6.4 19.2 0 6.4-3.2 12.8-9.6 19.2-9.6 6.4-16 9.6-19.2 9.6-9.6 0-16-3.2-22.4-9.6l-230.4-272c-3.2-6.4-3.2-16-3.2-22.4 0-6.4 3.2-12.8 9.6-19.2 6.4-3.2 12.8-6.4 16-6.4m0-32c-12.8 0-25.6 3.2-38.4 12.8-25.6 22.4-28.8 57.6-6.4 83.2l230.4 272c12.8 12.8 28.8 22.4 44.8 22.4 12.8 0 25.6-3.2 38.4-12.8 25.6-22.4 28.8-57.6 6.4-83.2l-230.4-272c-9.6-12.8-25.6-22.4-44.8-22.4z" p-id="5101" fill="#ffffff"></path><path d="M368 339.2c3.2 0 9.6 0 16 6.4 12.8 9.6 12.8 25.6 3.2 38.4l-220.8 278.4c-6.4 6.4-12.8 9.6-22.4 9.6-3.2 0-9.6 0-16-6.4-6.4-3.2-9.6-9.6-9.6-19.2 0-6.4 0-12.8 6.4-19.2l220.8-278.4c6.4-6.4 12.8-9.6 22.4-9.6m0-32c-16 0-35.2 6.4-48 22.4L99.2 608c-19.2 25.6-16 64 9.6 83.2 9.6 9.6 22.4 12.8 35.2 12.8 16 0 35.2-6.4 48-22.4l220.8-278.4c19.2-25.6 16-64-9.6-83.2-9.6-6.4-22.4-12.8-35.2-12.8z" p-id="5102" fill="#ffffff"></path></svg>