<?xml version="1.0" standalone="no"?><!DOCTYPE svg PUBLIC "-//W3C//DTD SVG 1.1//EN" "http://www.w3.org/Graphics/SVG/1.1/DTD/svg11.dtd"><svg t="1765436903106" class="icon" viewBox="0 0 1024 1024" version="1.1" xmlns="http://www.w3.org/2000/svg" p-id="4983" xmlns:xlink="http://www.w3.org/1999/xlink" width="48" height="48"><path d="M450.986667 146.346667H181.162667a34.816 34.816 0 0 0-34.816 34.773333v208.981333h-61.013334V120.149333c0-19.2 15.616-34.816 34.816-34.816h330.922667v61.013334z m391.893333 0H573.013333V85.333333h330.88c19.2 0 34.773333 15.573333 34.773334 34.816v269.952h-60.928V181.12a34.816 34.816 0 0 0-34.858667-34.816zM463.744 277.333333c9.301333-18.432 27.733333-32.853333 48.213333-32.853333 20.48 0 38.997333 14.378667 48.298667 32.853333l155.306667 304.512c7.893333 15.274667 8.448 33.28 1.493333 48.938667-9.472 21.546667-34.346667 33.066667-54.826667 33.066667a80.938667 80.938667 0 0 1-27.306666-6.826667l-95.786667-40.533333c-17.066667-8.96-37.461333-8.96-54.528 0l-95.530667 40.533333c-8.533333 3.84-17.749333 6.144-27.093333 6.826667-20.48 0-45.226667-11.52-54.826667-33.066667-6.954667-15.658667-6.4-33.706667 1.450667-48.938667L463.786667 277.333333z m111.36 261.717334l29.141333 12.373333L512 370.56 419.968 551.253333l28.586667-12.117333c42.197333-20.949333 84.394667-20.992 126.549333 0zM85.333333 512h61.013334v208.981333c0 19.2 15.573333 34.816 34.816 34.816h661.76c19.2 0 34.773333-15.573333 34.773333-34.816V512H938.666667v391.850667c0 19.2-15.616 34.816-34.858667 34.816H120.106667A34.816 34.816 0 0 1 85.333333 903.850667V512z m269.056 67.114667l0.085334-0.085334-0.085334 0.085334z" p-id="4984"></path></svg>