<?xml version="1.0" standalone="no"?><!DOCTYPE svg PUBLIC "-//W3C//DTD SVG 1.1//EN" "http://www.w3.org/Graphics/SVG/1.1/DTD/svg11.dtd"><svg t="1763191495143" class="icon" viewBox="0 0 1024 1024" version="1.1" xmlns="http://www.w3.org/2000/svg" p-id="21798" xmlns:xlink="http://www.w3.org/1999/xlink" width="48" height="48"><path d="M964.266667 657.066667l-21.333334-12.8c-2.133333-2.133333-4.266667-4.266667-4.266666-8.533334v-14.933333c0-2.133333 2.133333-6.4 4.266666-8.533333l21.333334-12.8c21.333333-12.8 27.733333-38.4 14.933333-57.6l-42.666667-74.666667c-8.533333-12.8-21.333333-21.333333-36.266666-21.333333-6.4 0-14.933333 2.133333-21.333334 6.4l-21.333333 12.8c-2.133333 0-2.133333 2.133333-4.266667 2.133333s-2.133333 0-4.266666-2.133333l-12.8-6.4c-2.133333 0-4.266667-2.133333-4.266667-6.4V426.666667c0-23.466667-19.2-42.666667-42.666667-42.666667h-85.333333c-23.466667 0-42.666667 19.2-42.666667 42.666667v25.6c0 2.133333-2.133333 6.4-4.266666 8.533333l-12.8 6.4c-2.133333 0-2.133333 2.133333-4.266667 2.133333s-2.133333 0-4.266667-2.133333l-21.333333-12.8c-6.4-4.266667-14.933333-6.4-21.333333-6.4-14.933333 0-29.866667 8.533333-36.266667 21.333333l-42.666667 74.666667c-12.8 21.333333-4.266667 46.933333 14.933334 57.6l21.333333 12.8c2.133333 2.133333 4.266667 4.266667 4.266667 8.533333v14.933334c0 2.133333-2.133333 4.266667-4.266667 6.4l-21.333333 12.8c-21.333333 12.8-27.733333 38.4-14.933334 57.6l42.666667 74.666666c8.533333 12.8 21.333333 21.333333 36.266667 21.333334 6.4 0 14.933333-2.133333 21.333333-6.4l21.333333-12.8c2.133333 0 2.133333-2.133333 4.266667-2.133334s2.133333 0 4.266667 2.133334l12.8 6.4c2.133333 2.133333 4.266667 4.266667 4.266666 8.533333V832c0 23.466667 19.2 42.666667 42.666667 42.666667h85.333333c23.466667 0 42.666667-19.2 42.666667-42.666667v-25.6c0-2.133333 2.133333-6.4 4.266667-8.533333l12.8-6.4c2.133333 0 2.133333-2.133333 4.266666-2.133334s2.133333 0 4.266667 2.133334l21.333333 12.8c6.4 4.266667 14.933333 6.4 21.333334 6.4 14.933333 0 29.866667-8.533333 36.266666-21.333334l42.666667-74.666666c12.8-21.333333 4.266667-46.933333-14.933333-57.6z m-53.333334 40.533333l-19.2 38.4-2.133333-2.133333c-10.666667-6.4-23.466667-10.666667-36.266667-10.666667s-27.733333 4.266667-38.4 10.666667c-2.133333 2.133333-4.266667 2.133333-8.533333 4.266666-23.466667 12.8-38.4 36.266667-38.4 64v8.533334h-42.666667v-4.266667c0-27.733333-14.933333-51.2-38.4-64-2.133333-2.133333-6.4-2.133333-8.533333-4.266667-10.666667-6.4-25.6-10.666667-38.4-10.666666s-25.6 4.266667-36.266667 10.666666l-2.133333 2.133334-21.333333-36.266667 2.133333-2.133333c23.466667-12.8 36.266667-38.4 36.266667-64v-14.933334c0-25.6-12.8-51.2-36.266667-64l-2.133333-2.133333 21.333333-36.266667 2.133333 2.133334c10.666667 6.4 23.466667 10.666667 36.266667 10.666666s27.733333-4.266667 38.4-10.666666c2.133333-2.133333 4.266667-2.133333 8.533333-4.266667 23.466667-12.8 38.4-36.266667 38.4-64V448h42.666667v4.266667c0 27.733333 14.933333 51.2 38.4 64 2.133333 2.133333 6.4 2.133333 8.533333 4.266666 10.666667 6.4 25.6 10.666667 38.4 10.666667s25.6-4.266667 36.266667-10.666667l2.133333-2.133333 21.333334 36.266667-2.133334 2.133333c-23.466667 12.8-36.266667 38.4-36.266666 64v12.8c0 25.6 12.8 51.2 36.266666 64z" p-id="21799" fill="#15803D"></path><path d="M746.666667 544c-46.933333 0-85.333333 38.4-85.333334 85.333333s38.4 85.333333 85.333334 85.333334 85.333333-38.4 85.333333-85.333334-38.4-85.333333-85.333333-85.333333z m0 106.666667c-12.8 0-21.333333-8.533333-21.333334-21.333334s8.533333-21.333333 21.333334-21.333333 21.333333 8.533333 21.333333 21.333333-8.533333 21.333333-21.333333 21.333334zM320 554.666667H85.333333c-23.466667 0-42.666667 19.2-42.666666 42.666666v234.666667c0 23.466667 19.2 42.666667 42.666666 42.666667h234.666667c23.466667 0 42.666667-19.2 42.666667-42.666667V597.333333c0-23.466667-19.2-42.666667-42.666667-42.666666z m-21.333333 256H106.666667v-192h192v192zM682.666667 288c0 17.066667 14.933333 32 32 32s32-14.933333 32-32V213.333333c0-23.466667-19.2-42.666667-42.666667-42.666666H469.333333c-23.466667 0-42.666667 19.2-42.666666 42.666666v245.333334c0 17.066667 14.933333 32 32 32s32-14.933333 32-32V234.666667h192v53.333333zM320 170.666667H85.333333c-23.466667 0-42.666667 19.2-42.666666 42.666666v234.666667c0 23.466667 19.2 42.666667 42.666666 42.666667h234.666667c23.466667 0 42.666667-19.2 42.666667-42.666667V213.333333c0-23.466667-19.2-42.666667-42.666667-42.666666z m-21.333333 256H106.666667v-192h192v192z" p-id="21800" fill="#15803D"></path></svg>