<?xml version="1.0" standalone="no"?><!DOCTYPE svg PUBLIC "-//W3C//DTD SVG 1.1//EN" "http://www.w3.org/Graphics/SVG/1.1/DTD/svg11.dtd"><svg t="1743760476719" class="icon" viewBox="0 0 1024 1024" version="1.1" xmlns="http://www.w3.org/2000/svg" p-id="9287" xmlns:xlink="http://www.w3.org/1999/xlink" width="200" height="200"><path d="M843.40179753 304.87387653h-331.40179753a41.42522469 41.42522469 0 0 1 0-82.85044936h331.40179753a41.42522469 41.42522469 0 0 1 0 82.85044936z m0 248.55134816h-248.55134814a41.42522469 41.42522469 0 0 1 0-82.85044938h248.55134814a41.42522469 41.42522469 0 0 1 0 82.85044938z m0 248.55134814h-331.40179753a41.42522469 41.42522469 0 0 1 0-82.85044936h331.40179753a41.42522469 41.42522469 0 0 1 0 82.85044936z m-579.95314568-124.27567407a41.42522469 41.42522469 0 0 1-41.42522468-41.42522468v-248.55134816a41.42522469 41.42522469 0 0 1 82.85044936 0v248.55134816a41.42522469 41.42522469 0 0 1-41.42522468 41.42522468z m0 207.12612346a124.27567408 124.27567408 0 1 1 0-248.55134814 124.27567408 124.27567408 0 0 1 0 248.55134814z m0-165.70089875a41.42522469 41.42522469 0 1 0 0 82.85044936 41.42522469 41.42522469 0 0 0 0-82.85044936z m0-331.40179755a124.27567408 124.27567408 0 1 1 0-248.55134814 124.27567408 124.27567408 0 0 1 0 248.55134814z m0-165.70089875a41.42522469 41.42522469 0 1 0 0 82.85044936 41.42522469 41.42522469 0 0 0 0-82.85044936z" p-id="9288" fill="#ffffff"></path></svg>