<?xml version="1.0" standalone="no"?><!DOCTYPE svg PUBLIC "-//W3C//DTD SVG 1.1//EN" "http://www.w3.org/Graphics/SVG/1.1/DTD/svg11.dtd"><svg class="icon" width="48px" height="48.00px" viewBox="0 0 1024 1024" version="1.1" xmlns="http://www.w3.org/2000/svg"><path fill="#be8dbd" d="M211.369354 126.030769A85.338585 85.338585 0 0 0 126.030769 211.369354V346.584615h47.261539v-130.630892A42.661415 42.661415 0 0 1 215.953723 173.292308H346.584615V126.030769h-135.215261zM677.415385 853.228308V897.969231h135.231015A85.338585 85.338585 0 0 0 897.969231 812.630646V677.415385h-44.740923v133.151507a42.661415 42.661415 0 0 1-42.67717 42.661416h-133.12zM812.630646 126.030769A85.338585 85.338585 0 0 1 897.969231 211.369354V346.584615h-47.261539v-130.630892A42.661415 42.661415 0 0 0 808.046277 173.292308H677.415385V126.030769h135.215261zM346.584615 850.077538V897.969231h-135.215261A85.338585 85.338585 0 0 1 126.030769 812.630646V677.415385h47.261539v130.000738a42.661415 42.661415 0 0 0 42.661415 42.661415H346.584615zM488.369231 535.630769v55.138462h47.261538V535.630769h55.138462v-47.261538H535.630769v-55.138462h-47.261538V488.369231h-55.138462v47.261538H488.369231z" /></svg>