<?xml version="1.0" standalone="no"?><!DOCTYPE svg PUBLIC "-//W3C//DTD SVG 1.1//EN" "http://www.w3.org/Graphics/SVG/1.1/DTD/svg11.dtd"><svg t="1765436907196" class="icon" viewBox="0 0 1024 1024" version="1.1" xmlns="http://www.w3.org/2000/svg" p-id="5304" xmlns:xlink="http://www.w3.org/1999/xlink" width="48" height="48"><path d="M387.712 387.328L263.424 262.912a351.168 351.168 0 0 0-102.4 222.336l-0.64 9.216a350.848 350.848 0 0 0 0.384 39.872c2.56 40.768 12.096 80.832 28.416 118.4l2.112 4.8a351.04 351.04 0 0 0 72.128 103.936l124.288-124.288v323.136H64.64l130.88-130.88a447.36 447.36 0 0 1-58.048-71.232l-1.28-2.048a447.36 447.36 0 0 1-12.224-20.032l-1.728-3.008a448.96 448.96 0 0 1-9.6-17.728l-1.408-2.752-0.96-2.112a452.8 452.8 0 0 1-8.32-17.728l-2.432-5.632-1.408-3.2a447.232 447.232 0 0 1-21.76-67.008l-1.28-5.632a447.232 447.232 0 0 1-3.84-18.88l-1.152-7.232a447.488 447.488 0 0 1-2.624-18.112l-0.704-5.44a446.464 446.464 0 0 1-1.728-20.352l-0.32-3.968a447.744 447.744 0 0 1 0-50.24c0-1.28 0.192-2.624 0.32-3.968a447.36 447.36 0 0 1 10.112-70.016 446.976 446.976 0 0 1 23.04-72.576l1.152-2.752c1.024-2.56 2.24-4.992 3.328-7.488 2.368-5.312 4.8-10.624 7.36-15.808l1.28-2.56 1.664-3.328c2.752-5.376 5.568-10.688 8.512-16l3.712-6.4a446.08 446.08 0 0 1 9.28-15.104l3.52-5.632c8.96-13.568 18.688-26.688 29.12-39.232l3.712-4.288a446.72 446.72 0 0 1 13.248-14.976l3.712-3.84 7.68-8L64.64 64.256h323.072v323.072zM896 320.128a64 64 0 0 1 64 64v256a64 64 0 0 1-64 64h-256a64 64 0 0 1-64-64v-32l-128 64v-320l128 64v-32a64 64 0 0 1 64-64h256z" p-id="5305"></path></svg>