<?xml version="1.0" standalone="no"?><!DOCTYPE svg PUBLIC "-//W3C//DTD SVG 1.1//EN" "http://www.w3.org/Graphics/SVG/1.1/DTD/svg11.dtd"><svg t="1765436894336" class="icon" viewBox="0 0 1024 1024" version="1.1" xmlns="http://www.w3.org/2000/svg" p-id="4339" xmlns:xlink="http://www.w3.org/1999/xlink" width="48" height="48"><path d="M311.466667 268.8l-8.533334-128c0-4.266667-4.266667-12.8-8.533333-12.8-4.266667-4.266667-12.8-4.266667-17.066667 0L170.666667 200.533333c-8.533333 4.266667-8.533333 21.333333 0 25.6l29.866666 12.8c-38.4 89.6-55.466667 179.2-55.466666 277.333334 0 89.6 17.066667 179.2 51.2 264.533333l-29.866667 17.066667c-4.266667 4.266667-8.533333 8.533333-8.533333 12.8 0 4.266667 4.266667 12.8 8.533333 12.8L268.8 896c4.266667 4.266667 12.8 4.266667 17.066667 0s8.533333-8.533333 8.533333-12.8l8.533333-128c0-12.8-12.8-21.333333-21.333333-12.8l-25.6 12.8c-29.866667-76.8-46.933333-153.6-42.666667-234.666667 0-85.333333 17.066667-170.666667 51.2-247.466666l29.866667 12.8c4.266667 4.266667 12.8 4.266667 17.066667 0-4.266667-4.266667 0-12.8 0-17.066667zM849.066667 328.533333h-358.4c-17.066667 4.266667-29.866667 17.066667-29.866667 34.133334v29.866666L362.666667 345.6h-12.8c-17.066667 0-34.133333 12.8-34.133334 34.133333v273.066667c0 4.266667 0 8.533333 4.266667 12.8 4.266667 8.533333 8.533333 12.8 17.066667 17.066667 8.533333 4.266667 17.066667 4.266667 25.6 0l93.866666-46.933334v29.866667c0 17.066667 12.8 34.133333 34.133334 34.133333h358.4c17.066667 0 34.133333-12.8 34.133333-34.133333V362.666667c0-17.066667-12.8-34.133333-34.133333-34.133334z m-388.266667 230.4L384 597.333333v-170.666666l76.8 38.4v93.866666z m358.4 68.266667h-294.4V396.8h294.4v230.4z" p-id="4340"></path></svg>