<?xml version="1.0" standalone="no"?><!DOCTYPE svg PUBLIC "-//W3C//DTD SVG 1.1//EN" "http://www.w3.org/Graphics/SVG/1.1/DTD/svg11.dtd"><svg t="1765436871655" class="icon" viewBox="0 0 1024 1024" version="1.1" xmlns="http://www.w3.org/2000/svg" p-id="3201" xmlns:xlink="http://www.w3.org/1999/xlink" width="48" height="48"><path d="M803.84 855.04l-256-563.2-10.24-25.6c-10.24-20.48-35.84-20.48-46.08 0l-15.36 25.6-256 563.2-15.36 30.72c-10.24 20.48 10.24 40.96 30.72 35.84l30.72-10.24L491.52 819.2c10.24-5.12 25.6-5.12 35.84 0l225.28 87.04 30.72 10.24c20.48 10.24 40.96-15.36 30.72-35.84l-10.24-25.6z m-133.12-66.56l-138.24-56.32c-10.24-5.12-25.6-5.12-35.84 0L358.4 788.48c-10.24 5.12-15.36-5.12-15.36-15.36l163.84-353.28c5.12-10.24 15.36-10.24 20.48 0l163.84 353.28c-5.12 10.24-15.36 20.48-20.48 15.36z" p-id="3202"></path><path d="M875.52 199.68l-30.72 30.72c-35.84-51.2-76.8-92.16-133.12-122.88C655.36 71.68 583.68 51.2 512 51.2s-143.36 20.48-204.8 56.32c-51.2 30.72-97.28 71.68-133.12 117.76l-25.6-25.6c-20.48-20.48-46.08-5.12-46.08 15.36v117.76c0 15.36 10.24 25.6 25.6 25.6h117.76c20.48 0 35.84-25.6 20.48-46.08l-35.84-30.72c30.72-46.08 66.56-81.92 112.64-107.52 51.2-30.72 107.52-46.08 163.84-46.08s117.76 15.36 163.84 46.08c46.08 25.6 87.04 66.56 112.64 107.52l-30.72 30.72c-10.24 20.48 5.12 46.08 25.6 46.08h117.76c15.36 0 25.6-10.24 25.6-25.6V215.04c0-20.48-25.6-35.84-46.08-15.36z" p-id="3203"></path></svg>