<?xml version="1.0" standalone="no"?><!DOCTYPE svg PUBLIC "-//W3C//DTD SVG 1.1//EN" "http://www.w3.org/Graphics/SVG/1.1/DTD/svg11.dtd"><svg t="1765436896716" class="icon" viewBox="0 0 1024 1024" version="1.1" xmlns="http://www.w3.org/2000/svg" p-id="4499" xmlns:xlink="http://www.w3.org/1999/xlink" width="48" height="48"><path d="M223.8464 447.71328c25.3952 0 51.32288-6.36928 76.6976-12.73856l-83.06688-83.06688c-64.04096-6.3488-121.73312-57.67168-121.73312-128.04096a128.57344 128.57344 0 0 1 128.12288-128.12288c70.36928 0 121.73312 51.36384 128 121.73312l83.10784 83.06688c6.36928-25.37472 12.6976-51.32288 12.6976-76.67712C447.6928 102.11328 345.51808 0 223.8464 0 102.11328 0 0 102.11328 0 223.8464c0 121.7536 102.11328 223.80544 223.8464 223.80544v0.06144z m447.67232-230.8096c6.30784-64.04096 64.06144-121.73312 128.06144-121.73312a128.57344 128.57344 0 0 1 128.1024 128.12288c0 64-51.36384 121.73312-121.73312 128l-83.06688 83.10784c140.73856 51.36384 300.544-57.69216 300.544-211.10784C1023.42656 102.11328 920.73984 0 799.58016 0 646.144 0 537.088 159.80544 588.45184 300.544l83.06688-83.06688v-0.55296z m-31.744 345.55904c0-70.36928 25.43616-134.43072 76.8-185.18016l95.744-95.744a31.35488 31.35488 0 0 0 0-44.99456l-25.43616-25.37472a31.35488 31.35488 0 0 0-44.93312 0l-128.12288 128c-25.37472 31.80544-64.06144 45.056-102.11328 45.056-38.11328 0-76.73856-12.6976-102.11328-44.99456l-128-128.06144a31.3344 31.3344 0 0 0-44.99456 0l-25.3952 25.37472a31.3344 31.3344 0 0 0 0 44.93312L339.23072 409.6c31.744 25.37472 45.01504 64.06144 45.01504 102.11328 0 38.11328-12.6976 76.73856-44.99456 102.11328l-128.06144 128a31.35488 31.35488 0 0 0 0 44.99456l25.37472 25.3952a31.3344 31.3344 0 0 0 44.93312 0l95.80544-95.76448a256.04096 256.04096 0 0 1 185.2416-76.73856 222.02368 222.02368 0 0 1 76.67712-76.73856l0.57344-0.57344v0.06144zM351.90784 805.376c-6.3488 64-57.67168 121.73312-128.04096 121.73312a128.57344 128.57344 0 0 1-128.12288-128.1024c0-70.36928 51.36384-121.7536 121.73312-128.06144l83.06688-83.0464c-25.37472-6.38976-51.32288-12.75904-76.67712-12.75904C102.11328 575.13984 0 677.2736 0 798.98624c0 121.7536 102.11328 223.86688 223.8464 223.86688 121.7536 0 223.80544-102.11328 223.80544-223.8464 0-25.37472-6.30784-51.36384-12.6976-76.73856l-83.0464 83.0464v0.06144z m387.64544-94.26944v284.4672c0 1.88416 0.2048 3.72736 0.57344 5.55008a29.3888 29.3888 0 0 0 4.21888 10.24c1.04448 1.51552 2.23232 2.9696 3.52256 4.32128 1.31072 1.29024 2.7648 2.4576 4.3008 3.54304A29.24544 29.24544 0 0 0 768 1024h56.89344c1.88416 0 3.74784-0.2048 5.57056-0.57344a29.184 29.184 0 0 0 10.24-4.21888c1.51552-1.04448 2.94912-2.23232 4.32128-3.52256 1.29024-1.31072 2.4576-2.7648 3.52256-4.3008a29.40928 29.40928 0 0 0 4.21888-10.24c0.36864-1.86368 0.57344-3.72736 0.57344-5.59104V711.10656c0-1.88416-0.2048-3.74784-0.57344-5.57056a29.34784 29.34784 0 0 0-4.21888-10.24 37.9904 37.9904 0 0 0-3.52256-4.32128 29.34784 29.34784 0 0 0-20.13184-8.31488H768c-1.90464 0-3.74784 0.2048-5.57056 0.57344a29.40928 29.40928 0 0 0-10.24 4.21888c-1.51552 1.04448-2.9696 2.23232-4.32128 3.52256-1.29024 1.3312-2.4576 2.7648-3.54304 4.32128a29.32736 29.32736 0 0 0-4.77184 15.81056z m170.65984 0v284.4672c0 1.88416 0.2048 3.72736 0.57344 5.55008a29.40928 29.40928 0 0 0 4.21888 10.24c1.06496 1.51552 2.23232 2.9696 3.52256 4.32128 1.3312 1.29024 2.7648 2.4576 4.32128 3.54304a29.184 29.184 0 0 0 15.81056 4.77184h56.89344c1.90464 0 3.74784-0.2048 5.57056-0.57344a29.24544 29.24544 0 0 0 10.24-4.21888c1.51552-1.04448 2.9696-2.23232 4.32128-3.52256 1.29024-1.31072 2.4576-2.7648 3.54304-4.3008A29.24544 29.24544 0 0 0 1024 995.5328V711.10656c0-1.88416-0.2048-3.74784-0.57344-5.57056a29.184 29.184 0 0 0-4.21888-10.24 38.21568 38.21568 0 0 0-3.52256-4.32128 29.40928 29.40928 0 0 0-14.56128-7.74144 27.83232 27.83232 0 0 0-5.57056-0.57344h-56.89344c-1.88416 0-3.74784 0.2048-5.57056 0.57344a29.34784 29.34784 0 0 0-10.24 4.21888c-1.51552 1.04448-2.94912 2.23232-4.32128 3.52256a29.34784 29.34784 0 0 0-8.31488 20.13184z" p-id="4500"></path></svg>