<svg xmlns="http://www.w3.org/2000/svg" xmlns:xlink="http://www.w3.org/1999/xlink" fill="none" version="1.1" width="77" height="77" viewBox="0 0 77 77"><g><g><g><g><g><g><g><path d="M76.6973,38.3487Q76.6973,39.2901,76.6511,40.2304Q76.6049,41.1706,76.5126,42.1075Q76.4203,43.0444,76.2822,43.9756Q76.1441,44.9068,75.9604,45.8301Q75.7767,46.7535,75.548,47.6666Q75.3192,48.5798,75.046,49.4807Q74.7727,50.3816,74.4555,51.268Q74.1384,52.1543,73.7781,53.0241Q73.4179,53.8938,73.0154,54.7448Q72.6129,55.5959,72.1691,56.4261Q71.7253,57.2564,71.2413,58.0638Q70.7574,58.8713,70.2343,59.6541Q69.7113,60.4368,69.1505,61.193Q68.5897,61.9491,67.9925,62.6768Q67.3953,63.4045,66.7631,64.1021Q66.1309,64.7996,65.4652,65.4653Q64.7995,66.131,64.102,66.7632Q63.4044,67.3954,62.6767,67.9926Q61.949,68.5898,61.1929,69.1506Q60.4367,69.7114,59.654,70.2344Q58.8712,70.7575,58.0638,71.2414Q57.2563,71.7254,56.426,72.1692Q55.5958,72.613,54.7448,73.0155Q53.8937,73.418,53.024,73.7782Q52.1543,74.1385,51.2679,74.4557Q50.3815,74.7728,49.4806,75.0461Q48.5798,75.3194,47.6666,75.5481Q46.7534,75.7768,45.8301,75.9605Q44.9068,76.1442,43.9755,76.2823Q43.0443,76.4204,42.1075,76.5127Q41.1706,76.605,40.2303,76.6512Q39.29,76.6974,38.3486,76.6974Q37.4072,76.6974,36.4669,76.6512Q35.5267,76.605,34.5898,76.5127Q33.6529,76.4204,32.7217,76.2823Q31.7905,76.1442,30.8672,75.9605Q29.9439,75.7769,29.0307,75.5481Q28.1175,75.3194,27.2166,75.0461Q26.3157,74.7728,25.4294,74.4557Q24.543,74.1385,23.6732,73.7782Q22.8035,73.418,21.9525,73.0155Q21.1015,72.613,20.2712,72.1692Q19.441,71.7254,18.6335,71.2414Q17.826,70.7575,17.0433,70.2344Q16.2605,69.7114,15.5044,69.1506Q14.7482,68.5898,14.0205,67.9926Q13.2928,67.3954,12.5953,66.7632Q11.8977,66.131,11.2321,65.4653Q10.5664,64.7996,9.93417,64.1021Q9.30196,63.4045,8.70474,62.6768Q8.10752,61.9491,7.54672,61.193Q6.98593,60.4368,6.46291,59.6541Q5.93989,58.8713,5.45591,58.0638Q4.97193,57.2564,4.52816,56.4261Q4.08438,55.5959,3.68188,54.7449Q3.27938,53.8938,2.91912,53.0241Q2.55885,52.1543,2.2417,51.268Q1.92455,50.3816,1.65128,49.4807Q1.378,48.5798,1.14926,47.6666Q0.920517,46.7535,0.736858,45.8301Q0.553199,44.9068,0.415066,43.9756Q0.276933,43.0444,0.184659,42.1075Q0.0923852,41.1706,0.0461926,40.2304Q0,39.2901,0,38.3487Q0,37.4073,0.0461926,36.467Q0.0923852,35.5267,0.184659,34.5899Q0.276933,33.653,0.415066,32.7218Q0.553199,31.7905,0.736858,30.8672Q0.920517,29.9439,1.14926,29.0307Q1.378,28.1175,1.65128,27.2166Q1.92455,26.3158,2.2417,25.4294Q2.55885,24.543,2.91912,23.6733Q3.27938,22.8035,3.68188,21.9525Q4.08438,21.1015,4.52816,20.2712Q4.97193,19.441,5.45591,18.6335Q5.93989,17.826,6.46291,17.0433Q6.98593,16.2605,7.54672,15.5044Q8.10752,14.7483,8.70474,14.0205Q9.30196,13.2928,9.93417,12.5953Q10.5664,11.8977,11.2321,11.2321Q11.8977,10.5664,12.5953,9.93418Q13.2928,9.30197,14.0205,8.70475Q14.7482,8.10753,15.5044,7.54673Q16.2605,6.98593,17.0433,6.46292Q17.826,5.9399,18.6335,5.45592Q19.441,4.97194,20.2712,4.52816Q21.1015,4.08439,21.9525,3.68188Q22.8035,3.27938,23.6732,2.91912Q24.543,2.55886,25.4294,2.24171Q26.3157,1.92456,27.2166,1.65128Q28.1175,1.37801,29.0307,1.14926Q29.9439,0.920518,30.8672,0.736859Q31.7905,0.5532,32.7217,0.415067Q33.6529,0.276933,34.5898,0.184659Q35.5267,0.0923853,36.4669,0.0461927Q37.4072,0,38.3486,0Q39.29,0,40.2303,0.0461927Q41.1706,0.0923853,42.1075,0.184659Q43.0443,0.276933,43.9755,0.415067Q44.9068,0.5532,45.8301,0.736859Q46.7534,0.920518,47.6666,1.14926Q48.5798,1.37801,49.4806,1.65128Q50.3815,1.92456,51.2679,2.24171Q52.1543,2.55886,53.024,2.91912Q53.8937,3.27938,54.7448,3.68188Q55.5958,4.08439,56.426,4.52816Q57.2563,4.97194,58.0638,5.45592Q58.8712,5.9399,59.654,6.46292Q60.4367,6.98593,61.1929,7.54673Q61.949,8.10753,62.6767,8.70475Q63.4044,9.30197,64.102,9.93418Q64.7995,10.5664,65.4652,11.2321Q66.1309,11.8977,66.7631,12.5953Q67.3953,13.2928,67.9925,14.0205Q68.5897,14.7483,69.1505,15.5044Q69.7113,16.2605,70.2343,17.0433Q70.7573,17.826,71.2413,18.6335Q71.7253,19.441,72.1691,20.2712Q72.6129,21.1015,73.0154,21.9525Q73.4179,22.8035,73.7781,23.6733Q74.1384,24.543,74.4555,25.4294Q74.7727,26.3158,75.046,27.2166Q75.3192,28.1175,75.548,29.0307Q75.7767,29.9439,75.9604,30.8672Q76.1441,31.7905,76.2822,32.7218Q76.4203,33.653,76.5126,34.5899Q76.6049,35.5267,76.6511,36.467Q76.6973,37.4073,76.6973,38.3487Z" fill="#000000" fill-opacity="0.5"/></g><g><path d="M76.6973,38.3487Q76.6973,39.2901,76.6511,40.2304Q76.6049,41.1706,76.5126,42.1075Q76.4203,43.0444,76.2822,43.9756Q76.1441,44.9068,75.9604,45.8301Q75.7767,46.7535,75.548,47.6666Q75.3192,48.5798,75.046,49.4807Q74.7727,50.3816,74.4555,51.268Q74.1384,52.1543,73.7781,53.0241Q73.4179,53.8938,73.0154,54.7448Q72.6129,55.5959,72.1691,56.4261Q71.7253,57.2564,71.2413,58.0638Q70.7574,58.8713,70.2343,59.6541Q69.7113,60.4368,69.1505,61.193Q68.5897,61.9491,67.9925,62.6768Q67.3953,63.4045,66.7631,64.1021Q66.1309,64.7996,65.4652,65.4653Q64.7995,66.131,64.102,66.7632Q63.4044,67.3954,62.6767,67.9926Q61.949,68.5898,61.1929,69.1506Q60.4367,69.7114,59.654,70.2344Q58.8712,70.7575,58.0638,71.2414Q57.2563,71.7254,56.426,72.1692Q55.5958,72.613,54.7448,73.0155Q53.8937,73.418,53.024,73.7782Q52.1543,74.1385,51.2679,74.4557Q50.3815,74.7728,49.4806,75.0461Q48.5798,75.3194,47.6666,75.5481Q46.7534,75.7768,45.8301,75.9605Q44.9068,76.1442,43.9755,76.2823Q43.0443,76.4204,42.1075,76.5127Q41.1706,76.605,40.2303,76.6512Q39.29,76.6974,38.3486,76.6974Q37.4072,76.6974,36.4669,76.6512Q35.5267,76.605,34.5898,76.5127Q33.6529,76.4204,32.7217,76.2823Q31.7905,76.1442,30.8672,75.9605Q29.9439,75.7769,29.0307,75.5481Q28.1175,75.3194,27.2166,75.0461Q26.3157,74.7728,25.4294,74.4557Q24.543,74.1385,23.6732,73.7782Q22.8035,73.418,21.9525,73.0155Q21.1015,72.613,20.2712,72.1692Q19.441,71.7254,18.6335,71.2414Q17.826,70.7575,17.0433,70.2344Q16.2605,69.7114,15.5044,69.1506Q14.7482,68.5898,14.0205,67.9926Q13.2928,67.3954,12.5953,66.7632Q11.8977,66.131,11.2321,65.4653Q10.5664,64.7996,9.93417,64.1021Q9.30196,63.4045,8.70474,62.6768Q8.10752,61.9491,7.54672,61.193Q6.98593,60.4368,6.46291,59.6541Q5.93989,58.8713,5.45591,58.0638Q4.97193,57.2564,4.52816,56.4261Q4.08438,55.5959,3.68188,54.7449Q3.27938,53.8938,2.91912,53.0241Q2.55885,52.1543,2.2417,51.268Q1.92455,50.3816,1.65128,49.4807Q1.378,48.5798,1.14926,47.6666Q0.920517,46.7535,0.736858,45.8301Q0.553199,44.9068,0.415066,43.9756Q0.276933,43.0444,0.184659,42.1075Q0.0923852,41.1706,0.0461926,40.2304Q0,39.2901,0,38.3487Q0,37.4073,0.0461926,36.467Q0.0923852,35.5267,0.184659,34.5899Q0.276933,33.653,0.415066,32.7218Q0.553199,31.7905,0.736858,30.8672Q0.920517,29.9439,1.14926,29.0307Q1.378,28.1175,1.65128,27.2166Q1.92455,26.3158,2.2417,25.4294Q2.55885,24.543,2.91912,23.6733Q3.27938,22.8035,3.68188,21.9525Q4.08438,21.1015,4.52816,20.2712Q4.97193,19.441,5.45591,18.6335Q5.93989,17.826,6.46291,17.0433Q6.98593,16.2605,7.54672,15.5044Q8.10752,14.7483,8.70474,14.0205Q9.30196,13.2928,9.93417,12.5953Q10.5664,11.8977,11.2321,11.2321Q11.8977,10.5664,12.5953,9.93418Q13.2928,9.30197,14.0205,8.70475Q14.7482,8.10753,15.5044,7.54673Q16.2605,6.98593,17.0433,6.46292Q17.826,5.9399,18.6335,5.45592Q19.441,4.97194,20.2712,4.52816Q21.1015,4.08439,21.9525,3.68188Q22.8035,3.27938,23.6732,2.91912Q24.543,2.55886,25.4294,2.24171Q26.3157,1.92456,27.2166,1.65128Q28.1175,1.37801,29.0307,1.14926Q29.9439,0.920518,30.8672,0.736859Q31.7905,0.5532,32.7217,0.415067Q33.6529,0.276933,34.5898,0.184659Q35.5267,0.0923853,36.4669,0.0461927Q37.4072,0,38.3486,0Q39.29,0,40.2303,0.0461927Q41.1706,0.0923853,42.1075,0.184659Q43.0443,0.276933,43.9755,0.415067Q44.9068,0.5532,45.8301,0.736859Q46.7534,0.920518,47.6666,1.14926Q48.5798,1.37801,49.4806,1.65128Q50.3815,1.92456,51.2679,2.24171Q52.1543,2.55886,53.024,2.91912Q53.8937,3.27938,54.7448,3.68188Q55.5958,4.08439,56.426,4.52816Q57.2563,4.97194,58.0638,5.45592Q58.8712,5.9399,59.654,6.46292Q60.4367,6.98593,61.1929,7.54673Q61.949,8.10753,62.6767,8.70475Q63.4044,9.30197,64.102,9.93418Q64.7995,10.5664,65.4652,11.2321Q66.1309,11.8977,66.7631,12.5953Q67.3953,13.2928,67.9925,14.0205Q68.5897,14.7483,69.1505,15.5044Q69.7113,16.2605,70.2343,17.0433Q70.7573,17.826,71.2413,18.6335Q71.7253,19.441,72.1691,20.2712Q72.6129,21.1015,73.0154,21.9525Q73.4179,22.8035,73.7781,23.6733Q74.1384,24.543,74.4555,25.4294Q74.7727,26.3158,75.046,27.2166Q75.3192,28.1175,75.548,29.0307Q75.7767,29.9439,75.9604,30.8672Q76.1441,31.7905,76.2822,32.7218Q76.4203,33.653,76.5126,34.5899Q76.6049,35.5267,76.6511,36.467Q76.6973,37.4073,76.6973,38.3487Z" fill="#000000" fill-opacity="0.5"/></g><g><path d="M38.4494,76.6963C59.5723,76.6963,76.6964,59.5725,76.6964,38.4493C76.6964,17.3261,59.5723,0.202365,38.4494,0.202365C17.3261,0.202365,0.202365,17.3261,0.202365,38.4493C0.202365,59.5725,17.3261,76.6963,38.4494,76.6963ZM76.8988,38.4493C76.8988,59.6843,59.6846,76.8986,38.4494,76.8986C17.2143,76.8986,0,59.6843,0,38.4493C0,17.2143,17.2143,0,38.4494,0C59.6846,0,76.8988,17.2143,76.8988,38.4493Z" fill-rule="evenodd" fill="#000000" fill-opacity="0.8600000143051147"/></g><g><path d="M76.4961,38.248Q76.4961,39.1869,76.45,40.1247Q76.404,41.0625,76.3119,41.997Q76.2199,42.9314,76.0821,43.8601Q75.9444,44.7889,75.7612,45.7098Q75.578,46.6307,75.3499,47.5415Q75.1217,48.4523,74.8492,49.3508Q74.5766,50.2493,74.2603,51.1334Q73.944,52.0174,73.5846,52.8849Q73.2253,53.7523,72.8239,54.6011Q72.4224,55.4499,71.9798,56.278Q71.5372,57.1061,71.0545,57.9114Q70.5718,58.7168,70.0501,59.4975Q69.5285,60.2781,68.9692,61.0323Q68.4099,61.7865,67.8142,62.5123Q67.2185,63.2381,66.588,63.9338Q65.9574,64.6295,65.2935,65.2934Q64.6296,65.9574,63.9339,66.5879Q63.2382,67.2185,62.5124,67.8141Q61.7866,68.4098,61.0324,68.9691Q60.2782,69.5284,59.4975,70.05Q58.7168,70.5717,57.9115,71.0544Q57.1061,71.5371,56.2781,71.9797Q55.45,72.4223,54.6012,72.8238Q53.7524,73.2252,52.8849,73.5845Q52.0175,73.9439,51.1334,74.2602Q50.2494,74.5765,49.3509,74.8491Q48.4524,75.1216,47.5416,75.3498Q46.6308,75.5779,45.7099,75.7611Q44.789,75.9443,43.8602,76.082Q42.9314,76.2198,41.997,76.3118Q41.0626,76.4039,40.1248,76.4499Q39.187,76.496,38.2481,76.496Q37.3091,76.496,36.3713,76.4499Q35.4335,76.4039,34.4991,76.3118Q33.5647,76.2198,32.6359,76.082Q31.7071,75.9443,30.7862,75.7611Q29.8653,75.5779,28.9545,75.3498Q28.0437,75.1216,27.1452,74.8491Q26.2467,74.5765,25.3627,74.2602Q24.4786,73.9439,23.6112,73.5845Q22.7437,73.2252,21.8949,72.8238Q21.0461,72.4223,20.218,71.9797Q19.39,71.5371,18.5846,71.0544Q17.7793,70.5717,16.9986,70.05Q16.2179,69.5284,15.4637,68.9691Q14.7096,68.4098,13.9837,67.8141Q13.2579,67.2185,12.5622,66.5879Q11.8665,65.9574,11.2026,65.2934Q10.5387,64.6295,9.90812,63.9338Q9.27756,63.2381,8.68191,62.5123Q8.08625,61.7865,7.52693,61.0323Q6.9676,60.2781,6.44596,59.4975Q5.92431,58.7168,5.4416,57.9114Q4.95889,57.1061,4.51628,56.278Q4.07367,55.4499,3.67222,54.6011Q3.27077,53.7523,2.91146,52.8849Q2.55214,52.0174,2.23583,51.1334Q1.91951,50.2493,1.64695,49.3508Q1.37439,48.4523,1.14625,47.5415Q0.918103,46.6307,0.734926,45.7098Q0.551748,44.7889,0.413977,43.8601Q0.276207,42.9314,0.184175,41.997Q0.0921429,41.0625,0.0460715,40.1247Q0,39.1869,0,38.248Q0,37.3091,0.0460715,36.3713Q0.0921429,35.4335,0.184175,34.4991Q0.276207,33.5646,0.413977,32.6359Q0.551748,31.7071,0.734926,30.7862Q0.918103,29.8653,1.14625,28.9545Q1.37439,28.0437,1.64695,27.1452Q1.91951,26.2467,2.23583,25.3626Q2.55214,24.4786,2.91146,23.6111Q3.27077,22.7437,3.67222,21.8949Q4.07367,21.0461,4.51628,20.218Q4.95889,19.39,5.4416,18.5846Q5.92431,17.7792,6.44596,16.9986Q6.9676,16.2179,7.52693,15.4637Q8.08625,14.7095,8.68191,13.9837Q9.27756,13.2579,9.90812,12.5622Q10.5387,11.8665,11.2026,11.2026Q11.8665,10.5387,12.5622,9.9081Q13.2579,9.27755,13.9837,8.6819Q14.7096,8.08624,15.4637,7.52692Q16.2179,6.9676,16.9986,6.44595Q17.7793,5.92431,18.5846,5.4416Q19.39,4.95889,20.218,4.51628Q21.0461,4.07366,21.8949,3.67222Q22.7437,3.27077,23.6112,2.91146Q24.4786,2.55214,25.3627,2.23582Q26.2467,1.9195,27.1452,1.64695Q28.0437,1.37439,28.9545,1.14624Q29.8653,0.918102,30.7862,0.734925Q31.7071,0.551747,32.6359,0.413977Q33.5647,0.276206,34.4991,0.184175Q35.4335,0.0921428,36.3713,0.0460714Q37.3091,0,38.2481,0Q39.187,0,40.1248,0.0460714Q41.0626,0.0921428,41.997,0.184175Q42.9314,0.276206,43.8602,0.413977Q44.789,0.551747,45.7099,0.734925Q46.6308,0.918102,47.5416,1.14624Q48.4524,1.37439,49.3509,1.64695Q50.2494,1.9195,51.1334,2.23582Q52.0175,2.55214,52.8849,2.91146Q53.7524,3.27077,54.6012,3.67222Q55.45,4.07366,56.2781,4.51628Q57.1061,4.95889,57.9115,5.4416Q58.7168,5.92431,59.4975,6.44595Q60.2782,6.9676,61.0324,7.52692Q61.7866,8.08624,62.5124,8.6819Q63.2382,9.27755,63.9339,9.9081Q64.6296,10.5387,65.2935,11.2026Q65.9574,11.8665,66.588,12.5622Q67.2185,13.2579,67.8142,13.9837Q68.4099,14.7095,68.9692,15.4637Q69.5285,16.2179,70.0501,16.9986Q70.5718,17.7792,71.0545,18.5846Q71.5372,19.39,71.9798,20.218Q72.4224,21.0461,72.8239,21.8949Q73.2253,22.7437,73.5846,23.6111Q73.944,24.4786,74.2603,25.3626Q74.5766,26.2467,74.8492,27.1452Q75.1217,28.0437,75.3499,28.9545Q75.578,29.8653,75.7612,30.7862Q75.9444,31.7071,76.0821,32.6359Q76.2199,33.5646,76.3119,34.499Q76.404,35.4335,76.4501,36.3713Q76.4961,37.3091,76.4961,38.248Z" fill="#000000" fill-opacity="0.75"/></g><g><path d="M57.4181,71.8177C51.8369,74.9935,45.3804,76.8075,38.5,76.8075C31.6176,76.8075,25.1591,74.9925,19.577,71.8151L20.7101,69.8523L20.2507,69.587L19.1176,71.5493C13.4801,68.236,8.76525,63.5214,5.45162,57.8841L7.41578,56.75L7.15038,56.2903L5.18581,57.4246C2.00777,51.8421,0.192449,45.383,0.192449,38.5C0.192449,31.6219,2.00514,25.1673,5.17893,19.5875L7.13955,20.7196L7.40485,20.2599L5.44454,19.1281C8.75372,13.4935,13.4625,8.78002,19.0932,5.46498L20.2435,7.45706L20.703,7.19166L19.5526,5.19927L19.1461,5.43391C24.8252,2.10247,31.4395,0.192449,38.5,0.192449C45.3804,0.192449,51.8369,2.00645,57.4181,5.18217L56.2859,7.14228L56.7463,7.40768L57.8775,5.44788C63.5174,8.76161,68.2345,13.4778,71.5493,19.1173L69.5813,20.2532L69.8464,20.7129L71.8144,19.5768C74.9925,25.159,76.8078,31.6175,76.8078,38.5C76.8078,45.3836,74.9915,51.8432,71.8134,57.4259L69.8474,56.2912L69.5823,56.7508L71.5473,57.8853C68.2335,63.5236,63.5164,68.2388,57.8775,71.552L56.7402,69.5816L56.2798,69.8469L57.4181,71.8177ZM38.5,77C59.7625,77,77,59.7629,77,38.5C77,17.2371,59.7625,0,38.5,0C17.237,0,0,17.2371,0,38.5C0,59.7629,17.237,77,38.5,77Z" fill-rule="evenodd" fill="#FFFFFF" fill-opacity="0.75"/></g><g><path d="M41.187069193115235,9.321193609657287L39.57080919311524,9.321193609657287L37.20307919311524,4.065813609657288L37.20307919311524,9.321193609657287L35.585079193115234,9.321193609657287L35.585079193115234,1.3087536096572876L37.20307919311524,1.3087536096572876L39.576039193115236,6.5697136096572875L39.576039193115236,1.3087536096572876L41.187069193115235,1.3087536096572876L41.187069193115235,9.321193609657287Z" fill="#FFFFFF" fill-opacity="1"/></g><g><path d="M6.100057520637512,37.538078572998046L1.0647975206375122,36.77867857299805L1.0647975206375122,35.17731857299805L9.077237520637512,36.60266857299805L9.077237520637512,38.22598857299805L4.355527520637512,39.161578572998046L9.077237520637512,40.08610857299804L9.077237520637512,41.714878572998046L1.0647975206375122,43.14566857299805L1.0647975206375122,41.53340857299805L6.094617520637512,40.779458572998045L1.0647975206375122,39.838418572998044L1.0647975206375122,38.47911857299805L6.100057520637512,37.538078572998046Z" fill="#FFFFFF" fill-opacity="1"/></g><g><path d="M71.59005333496094,40.366981535644534L71.59005333496094,37.84675153564453L69.46605333496093,37.84675153564453L69.46605333496093,40.829261535644534L68.12254333496094,40.829261535644534L68.12254333496094,36.22901153564453L76.13498333496094,36.22901153564453L76.13498333496094,40.81823153564453L74.78659333496094,40.81823153564453L74.78659333496094,37.84675153564453L72.89463333496094,37.84675153564453L72.89463333496094,40.366981535644534L71.59005333496094,40.366981535644534Z" fill="#FFFFFF" fill-opacity="1"/></g><g><path d="M39.58164160888672,73.965122890625C39.58164160888672,73.829282890625,39.56751160888672,73.707942890625,39.54278160888672,73.600892890625C39.51805160888672,73.49367289062499,39.46506160888672,73.393702890625,39.382041608886716,73.300962890625C39.30432160888672,73.204522890625,39.189501608886715,73.111612890625,39.03936160888672,73.022402890625C38.89275160888672,72.933202890625,38.69668160888672,72.838522890625,38.45116160888672,72.738552890625C38.157941608886716,72.627802890625,37.877091608886715,72.501152890625,37.610371608886716,72.358252890625C37.34541160888672,72.215352890625,37.112251608886716,72.047542890625,36.90735260888672,71.854832890625C36.70775260888672,71.658412890625,36.54701260888672,71.433382890625,36.42689860888672,71.179902890625C36.30855160888672,70.922892890625,36.25026360888672,70.624732890625,36.25026360888672,70.285592890625C36.25026360888672,69.960582890625,36.31031760888672,69.664182890625,36.43219760888672,69.396402890625C36.55231060888672,69.125082890625,36.72188160888672,68.894752890625,36.94091460888672,68.705573890625C37.16171160888672,68.516219890625,37.42313160888672,68.369781890625,37.72165160888672,68.266273890625C38.02547160888672,68.159233090625,38.35931160888672,68.105712890625,38.72318160888672,68.105712890625C39.09942160888672,68.105712890625,39.43679160888672,68.166297890625,39.73531160888672,68.287826890625C40.03913160888672,68.405639890625,40.297021608886716,68.571677890625,40.50722160888672,68.785766890625C40.72095160888672,68.996490890625,40.88522160888672,69.249972890625,41.000031608886715,69.546362890625C41.11485160888672,69.839222890625,41.171371608886716,70.162302890625,41.171371608886716,70.515742890625L39.60284160888672,70.515742890625C39.60284160888672,70.351482890625,39.58517160888672,70.201512890625,39.54808160888672,70.065852890625C39.51628160888672,69.926662890625,39.46329160888672,69.808842890625,39.38734160888672,69.712402890625C39.31668160888672,69.612422890625,39.22306160888672,69.535592890625,39.11001160888672,69.482072890625C38.99520160888672,69.425022890625,38.85742160888672,69.396402890625,38.69668160888672,69.396402890625C38.546551608886716,69.396402890625,38.41760160888672,69.419712890625,38.30632160888672,69.465992890625C38.198571608886716,69.512452890625,38.11025160888672,69.576742890625,38.03783160888672,69.658882890625C37.967171608886716,69.737482890625,37.91418160888672,69.831982890625,37.877091608886715,69.942742890625C37.84176160888672,70.053492890625,37.82410160888672,70.171312890625,37.82410160888672,70.296192890625C37.82410160888672,70.424782890625,37.85059160888672,70.540832890625,37.90359160888672,70.644342890625C37.96187160888672,70.747852890625,38.03959160888672,70.844292890625,38.14028160888672,70.933492890625C38.24449160888672,71.022872890625,38.366371608886716,71.106772890625,38.50945160888672,71.185382890625C38.656061608886716,71.263812890625,38.81680160888672,71.340642890625,38.99167160888672,71.415542890625C39.35554160888672,71.547662890625,39.67349160888672,71.694092890625,39.94551160888672,71.854832890625C40.21577160888672,72.015392890625,40.443621608886716,72.197512890625,40.62556160888672,72.401172890625C40.80750160888672,72.604662890625,40.943511608886716,72.834992890625,41.03183160888672,73.092002890625C41.12191160888672,73.345472890625,41.16607160888672,73.633042890625,41.16607160888672,73.954342890625C41.16607160888672,74.297022890625,41.10955160888672,74.60242289062501,40.99473160888672,74.870212890625C40.883451608886716,75.137992890625,40.72271160888672,75.364792890625,40.51251160888672,75.55044289062499C40.30585160888672,75.732552890625,40.05326160888672,75.873502890625,39.758271608886716,75.97348289062501C39.46152160888672,76.069922890625,39.12768160888672,76.118152890625,38.75674160888672,76.118152890625C38.42113160888672,76.118152890625,38.09082160888672,76.068162890625,37.76581160888672,75.968182890625C37.44433160888672,75.864672890625,37.15641160888672,75.707462890625,36.90205360888672,75.496742890625C36.64946360888672,75.286182890625,36.44456460888672,75.020172890625,36.287357608886715,74.698862890625C36.13368220888672,74.377392890625,36.05596160888672,73.995322890625,36.05596160888672,73.552672890625L37.63686160888672,73.552672890625C37.63686160888672,73.788302890625,37.65983160888672,73.988262890625,37.70575160888672,74.152532890625C37.75344160888672,74.316802890625,37.82233160888672,74.45069289062499,37.91595160888672,74.55420289062499C38.01133160888672,74.654182890625,38.12968160888672,74.727312890625,38.26922160888672,74.773762890625C38.407001608886716,74.816692890625,38.56951160888672,74.838062890625,38.75674160888672,74.838062890625C38.905121608886716,74.838062890625,39.03230160888672,74.816692890625,39.13651160888672,74.773762890625C39.24426160888672,74.727312890625,39.329051608886715,74.666722890625,39.39263160888672,74.591652890625C39.46152160888672,74.513042890625,39.509211608886716,74.420312890625,39.53748160888672,74.313092890625C39.56574160888672,74.206052890625,39.58164160888672,74.090002890625,39.58164160888672,73.965122890625Z" fill="#FFFFFF" fill-opacity="1"/></g><g style="opacity:0.800000011920929;"><g><path d="M20.09477267211914,11.088278263549805L20.52143267211914,10.842098263549804C20.68397267211914,10.748808263549805,20.76862267211914,10.624368263549805,20.778782672119142,10.469278263549805C20.79063267211914,10.310808263549804,20.741532672119142,10.137268263549805,20.63148267211914,9.948318263549805C20.58407267211914,9.865358263549805,20.53159267211914,9.795088263549804,20.47233267211914,9.737358263549805C20.416462672119142,9.676408263549805,20.35381267211914,9.631879263549806,20.28778267211914,9.603604263549805C20.22175267211914,9.572113263549804,20.15403267211914,9.557383263549804,20.084612672119142,9.559414263549805C20.01350267211914,9.561615263549804,19.94239267211914,9.582948263549804,19.87128267211914,9.623752263549804C19.81541267211914,9.656088263549805,19.76800267211914,9.698588263549805,19.73076267211914,9.751408263549806C19.69334267211914,9.802878263549804,19.66896267211914,9.861288263549804,19.65676967211914,9.926478263549805C19.64457967211914,9.991488263549805,19.644917672119142,10.061758263549805,19.65812367211914,10.137268263549805C19.67116267211914,10.212608263549805,19.70045267211914,10.289818263549805,19.74599267211914,10.368708263549804L18.86524967211914,10.877148263549804C18.757399672119142,10.690398263549804,18.69306227211914,10.502128263549805,18.671898592119142,10.312328263549805C18.64971907211914,10.120508263549805,18.66512623211914,9.938668263549804,18.71811997211914,9.766988263549806C18.76992867211914,9.593276263549805,18.85593767211914,9.432940263549805,18.97580867211914,9.286149263549804C19.096694672119142,9.136142263549806,19.246364672119142,9.009668263549806,19.424816672119142,8.906728263549805C19.62206167211914,8.792783263549804,19.81880267211914,8.716593863549805,20.01519267211914,8.677991363549804C20.209902672119142,8.637357263549804,20.39783267211914,8.638373133549806,20.577302672119142,8.681377663549805C20.75677267211914,8.720995863549804,20.92608267211914,8.803111263549805,21.08523267211914,8.927891263549805C21.24269267211914,9.049286263549805,21.38321267211914,9.215717263549804,21.50511267211914,9.427353263549804C21.56268267211914,9.527076263549805,21.60670267211914,9.632387263549806,21.633792672119142,9.743288263549804C21.66257267211914,9.851138263549805,21.677812672119142,9.961858263549805,21.676122672119142,10.075638263549806C21.674422672119142,10.187378263549805,21.65919267211914,10.300648263549805,21.62702267211914,10.415098263549805C21.598232672119142,10.526338263549805,21.550832672119142,10.633848263549805,21.48649267211914,10.737638263549805C21.75231267211914,10.705468263549804,21.99103267211914,10.750838263549804,22.19928267211914,10.873418263549805C22.410922672119142,10.994988263549805,22.58869267211914,11.180208263549805,22.73261267211914,11.429268263549805C22.854512672119142,11.640898263549804,22.92731267211914,11.850678263549804,22.94932267211914,12.058588263549805C22.974722672119142,12.265308263549805,22.95948267211914,12.461708263549806,22.900222672119142,12.647608263549804C22.84096267211914,12.831478263549805,22.74276267211914,13.002658263549804,22.60732267211914,13.161128263549806C22.47018267211914,13.317398263549805,22.30425267211914,13.452508263549806,22.10616267211914,13.566288263549804C21.94024267211914,13.662108263549804,21.76416267211914,13.729668263549804,21.57622267211914,13.768778263549805C21.38998267211914,13.806868263549806,21.20544267211914,13.807208263549803,21.02089267211914,13.769958263549805C20.83804267211914,13.731528263549805,20.66365267211914,13.652968263549806,20.494342672119142,13.534288263549804C20.32503267211914,13.413398263549805,20.17604267211914,13.241038263549804,20.047362672119142,13.016878263549804L20.92777267211914,12.508438263549804C20.97518267211914,12.591398263549804,21.03105267211914,12.661668263549805,21.09539267211914,12.718888263549804C21.15634267211914,12.774258263549804,21.222372672119143,12.816418263549805,21.29179267211914,12.845538263549805C21.36120267211914,12.872628263549805,21.430622672119142,12.885158263549805,21.50004267211914,12.882948263549805C21.57284267211914,12.879738263549804,21.64226267211914,12.858908263549804,21.70998267211914,12.820478263549806C21.78617267211914,12.776288263549805,21.84543267211914,12.722108263549805,21.88945267211914,12.658448263549804C21.93347267211914,12.594618263549805,21.960562672119142,12.523678263549805,21.97071267211914,12.445798263549804C21.98257267211914,12.366728263549804,21.97918267211914,12.283258263549804,21.95886267211914,12.195388263549805C21.93685267211914,12.105488263549805,21.89960267211914,12.013718263549805,21.84543267211914,11.920428263549805C21.70829267211914,11.681708263549805,21.56268267211914,11.537618263549804,21.40861267211914,11.487678263549805C21.25623267211914,11.434678263549804,21.09708267211914,11.456018263549804,20.93116267211914,11.551848263549804L20.50450267211914,11.798018263549805L20.09477267211914,11.088278263549805Z" fill="#FFFFFF" fill-opacity="1"/></g><g><path d="M23.32010674156189,9.226724594573975L23.74507674156189,8.980544594573974C23.90761674156189,8.887084594573974,23.993956741561888,8.762814594573975,24.00411674156189,8.607724594573975C24.01427674156189,8.449254594573974,23.96517674156189,8.275544594573974,23.85681674156189,8.086764594573975C23.80771674156189,8.003804594573975,23.75523674156189,7.933534594573975,23.69766674156189,7.8758045945739745C23.64010674156189,7.8148545945739745,23.57745674156189,7.770155594573975,23.51142674156189,7.742050594573975C23.44709674156189,7.710559594573975,23.37936674156189,7.695829594573975,23.30825674156189,7.697860594573974C23.23714674156189,7.699892594573974,23.16773674156189,7.721394594573974,23.096626741561888,7.762029594573974C23.04074674156189,7.794534594573975,22.99334674156189,7.837034594573975,22.95440674156189,7.889854594573975C22.91715674156189,7.941324594573975,22.89345674156189,7.999734594573974,22.88160074156189,8.064924594573975C22.86805574156189,8.129934594573974,22.86974874156189,8.200204594573975,22.88329374156189,8.275714594573975C22.895146741561888,8.351054594573975,22.92561674156189,8.428264594573974,22.96963674156189,8.507154594573974L22.08923374156189,9.015594594573974C21.98256894156189,8.828844594573974,21.91653844156189,8.640574594573975,21.89622140156189,8.450774594573975C21.87421104156189,8.258954594573975,21.88944888156189,8.077114594573974,21.94193484156189,7.905434594573975C21.99442074156189,7.7317225945739745,22.08076874156189,7.5713865945739744,22.20097774156189,7.424595594573974C22.32118774156189,7.2745885945739746,22.47017974156189,7.148114594573975,22.649646741561888,7.0450045945739745C22.84604574156189,6.931229594573975,23.04244674156189,6.8550401945739745,23.23884674156189,6.816437694573975C23.43354674156189,6.775803594573975,23.62147674156189,6.776819404573975,23.80094674156189,6.819823894573974C23.98210674156189,6.859442294573975,24.15141674156189,6.9415575945739745,24.30887674156189,7.066168594573974C24.46802674156189,7.1877325945739745,24.60855674156189,7.354163594573975,24.730456741561888,7.565799594573974C24.78801674156189,7.665353594573975,24.83034674156189,7.770663594573975,24.85912674156189,7.881734594573975C24.887916741561888,7.989584594573975,24.90145674156189,8.100304594573975,24.90145674156189,8.214084594573976C24.89976674156189,8.325824594573975,24.88283674156189,8.438924594573974,24.85235674156189,8.553544594573975C24.82188674156189,8.664784594573975,24.77447674156189,8.772294594573975,24.71013674156189,8.876084594573975C24.97764674156189,8.843914594573974,25.214676741561888,8.889284594573974,25.42462674156189,9.011864594573975C25.63456674156189,9.133434594573975,25.81233674156189,9.318654594573974,25.95625674156189,9.567714594573975C26.07815674156189,9.779344594573974,26.15095674156189,9.989124594573974,26.17466674156189,10.197034594573974C26.200056741561887,10.403754594573975,26.18312674156189,10.599984594573975,26.12386674156189,10.786054594573974C26.06461674156189,10.969924594573975,25.96641674156189,11.141104594573974,25.83096674156189,11.299574594573976C25.69551674156189,11.455844594573975,25.52789674156189,11.590954594573976,25.33150674156189,11.704734594573974C25.16557674156189,11.800554594573974,24.98780674156189,11.868114594573974,24.79987674156189,11.907224594573975C24.61532674156189,11.945144594573975,24.42908674156189,11.945654594573973,24.24453674156189,11.908404594573975C24.06337674156189,11.869974594573975,23.88729674156189,11.791414594573975,23.71967674156189,11.672734594573974C23.550366741561888,11.551844594573975,23.39968674156189,11.379484594573974,23.27100674156189,11.155324594573974L24.15141674156189,10.646884594573974C24.20051674156189,10.729844594573974,24.25469674156189,10.799944594573976,24.319036741561888,10.857334594573974C24.38167674156189,10.912704594573974,24.44770674156189,10.954864594573975,24.51712674156189,10.983984594573975C24.58484674156189,11.011074594573975,24.65426674156189,11.023434594573974,24.725376741561888,11.021394594573975C24.79817674156189,11.018184594573974,24.86759674156189,10.997354594573974,24.933626741561888,10.958924594573975C25.009816741561888,10.914564594573974,25.07076674156189,10.860554594573975,25.11309674156189,10.796724594573973C25.15711674156189,10.733064594573975,25.18420674156189,10.662124594573974,25.19436674156189,10.584244594573974C25.20621674156189,10.505174594573974,25.20282674156189,10.421704594573974,25.18250674156189,10.333834594573975C25.16049674156189,10.243764594573975,25.12325674156189,10.152164594573975,25.06907674156189,10.058874594573975C24.93193674156189,9.820154594573975,24.78632674156189,9.675894594573975,24.63394674156189,9.626124594573975C24.48156674156189,9.572954594573975,24.32072674156189,9.594464594573974,24.154806741561888,9.690294594573974L23.72983674156189,9.936464594573975L23.32010674156189,9.226724594573975Z" fill="#FFFFFF" fill-opacity="1"/></g></g><g style="opacity:0.800000011920929;"><g><path d="M7.632913830413818,24.391455927124024L7.879893830413819,23.963735927124024C7.973653830413818,23.801355927124025,7.985883830413819,23.650175927124025,7.9167538304138185,23.510375927124024C7.846763830413819,23.367185927124023,7.716993830413818,23.240975927124023,7.527593830413818,23.131585927124025C7.444363830413819,23.083515927124022,7.363003830413819,23.049035927124024,7.283333830413818,23.028145927124022C7.202993830413819,23.00385592712402,7.127063830413818,22.996037927124025,7.055383830413819,23.004705927124025C6.983023830413819,23.009965927124025,6.916603830413818,23.031365927124025,6.856133830413818,23.068735927124024C6.795833830413819,23.105935927124023,6.745213830413818,23.159955927124024,6.704276830413819,23.230785927124025C6.671832830413818,23.287015927124024,6.651959830413818,23.347655927124023,6.644824830413818,23.413045927124024C6.638879830413819,23.476065927124022,6.647033830413818,23.539085927124024,6.669115830413818,23.601765927124024C6.691197830413818,23.664445927124024,6.726868830413818,23.725425927124025,6.775953830413818,23.784365927124025C6.825213830413818,23.843305927124025,6.8894238304138185,23.895625927124023,6.968583830413818,23.941315927124023L6.4583168304138185,24.824935927124024C6.270959830413818,24.716735927124024,6.120631830413818,24.585435927124024,6.007164830413818,24.431025927124022C5.891488830413818,24.275605927124023,5.813692130413818,24.109815927124025,5.773604730413818,23.934015927124022C5.731479080413818,23.757015927124023,5.725703830413818,23.574755927124023,5.756448730413818,23.387055927124024C5.786174530413819,23.196135927124022,5.852759830413818,23.011155927124022,5.956035830413819,22.832120927124024C6.070182830413819,22.634232927124025,6.202844830413818,22.469466927124024,6.354021830413818,22.337483927124023C6.503160830413818,22.204312927124022,6.666567830413818,22.111228927124024,6.8440738304138184,22.058401827124023C7.020903830413818,22.00217747712402,7.209103830413818,21.988758327124025,7.408693830413818,22.017974627124023C7.607433830413818,22.043793727124022,7.8129638304138185,22.118192927124024,8.025293830413819,22.240662927124024C8.125173830413818,22.298415927124022,8.215193830413819,22.368398927124023,8.29537383041382,22.450781927124023C8.374523830413818,22.529937927124024,8.442473830413817,22.618944927124023,8.499033830413818,22.718313927124022C8.553393830413818,22.816323927124024,8.596023830413818,22.922827927124022,8.626773830413818,23.037655927124025C8.656663830413818,23.149255927124024,8.669573830413817,23.266455927124024,8.665503830413819,23.388925927124024C8.880883830413818,23.227385927124022,9.110193830413818,23.147555927124024,9.353443830413818,23.149255927124024C9.597873830413818,23.148745927124022,9.845023830413819,23.220765927124024,10.094883830413817,23.364975927124025C10.307213830413819,23.487615927124022,10.47554383041382,23.633355927124022,10.600053830413819,23.802375927124025C10.725583830413818,23.969345927124024,10.809663830413818,24.148205927124025,10.852123830413818,24.339305927124023C10.892383830413818,24.529035927124024,10.893403830413819,24.726755927124024,10.855183830413818,24.932295927124024C10.814933830413818,25.136635927124022,10.737813830413819,25.337745927124022,10.623493830413818,25.535465927124022C10.52735383041382,25.701935927124023,10.40760383041382,25.849375927124022,10.264233830413819,25.977445927124023C10.122063830413818,26.103485927124023,9.96137383041382,26.196745927124024,9.782343830413819,26.257045927124025C9.604323830413819,26.315305927124022,9.412553830413819,26.335005927124023,9.206843830413819,26.316155927124022C8.999273830413818,26.296105927124025,8.782873830413818,26.221205927124025,8.558143830413819,26.091425927124025L9.068243830413818,25.207805927124024C9.151643830413818,25.255875927124023,9.23521383041382,25.288825927124023,9.319123830413819,25.306835927124023C9.401173830413818,25.323655927124022,9.479473830413818,25.327215927124023,9.55438383041382,25.317705927124024C9.627083830413818,25.307005927124024,9.693843830413819,25.283055927124025,9.754143830413819,25.245685927124022C9.815803830413818,25.206445927124022,9.86574383041382,25.153455927124025,9.904303830413818,25.086865927124023C9.948633830413819,25.009745927124023,9.973773830413819,24.932635927124025,9.979553830413819,24.855515927124024C9.985153830413818,24.778225927124023,9.973093830413818,24.703145927124023,9.942863830413819,24.630275927124025C9.91398383041382,24.555365927124022,9.868803830413817,24.484875927124023,9.806973830413819,24.418625927124022C9.743273830413818,24.351195927124024,9.66445383041382,24.290555927124025,9.570863830413819,24.236535927124024C9.331523830413818,24.098265927124025,9.132623830413818,24.045955927124023,8.974473830413817,24.079415927124025C8.815483830413818,24.109815927124025,8.687923830413819,24.208165927124025,8.591783830413819,24.374805927124022L8.344803830413818,24.802515927124023L7.632913830413818,24.391455927124024Z" fill="#FFFFFF" fill-opacity="1"/></g><g><path d="M11.367489837722779,19.761532153320314C11.708909837722778,19.958742153320312,11.98374983772278,20.160372153320314,12.192169837722778,20.366752153320313C12.398379837722779,20.57194215332031,12.54700983772278,20.77849215332031,12.637879837722778,20.986402153320313C12.72671983772278,21.193122153320314,12.761709837722778,21.399342153320312,12.743029837722778,21.60487215332031C12.725359837722777,21.808532153320314,12.66064983772278,22.00710215332031,12.54887983772278,22.200572153320312C12.43710983772278,22.394222153320314,12.296969837722777,22.550662153320314,12.128299837722778,22.66973215332031C11.959629837722778,22.78880215332031,11.763439837722778,22.861512153320312,11.540069837722779,22.88800215332031C11.314489837722778,22.91314215332031,11.060889837722778,22.888852153320315,10.778749837722778,22.81479215332031C10.495929837722779,22.737512153320314,10.183719837722778,22.600262153320312,9.842469837722778,22.403222153320314L9.049389837722778,21.945272153320314C8.709999837722778,21.749252153320313,8.437205837722779,21.548812153320313,8.230993837722778,21.34362215332031C8.022572837722779,21.13724215332031,7.873943837722778,20.93069215332031,7.785106837722778,20.72397215332031C7.694230537722778,20.516062153320313,7.658729437722778,20.311032153320312,7.678433417722778,20.108562153320314C7.697118137722779,19.90302215332031,7.762515037722778,19.703439153320314,7.874283837722778,19.509797153320314C7.986052837722778,19.316155153320313,8.12618883772278,19.15988215332031,8.294860837722778,19.040809153320314C8.461495837722778,18.920377153320313,8.657515837722778,18.847676653320313,8.883089837722778,18.822367253320312C9.106459837722777,18.796038653320313,9.359549837722778,18.821517913320314,9.642539837722778,18.89880495332031C9.924509837722779,18.972695153320313,10.235189837722778,19.107735153320313,10.574399837722778,19.303585153320313L11.367489837722779,19.761532153320314ZM9.934539837722777,20.116542153320314C9.734609837722779,20.001042153320313,9.561009837722779,19.91475215332031,9.413739837722778,19.85750215332031C9.26425983772278,19.798902153320313,9.137209837722779,19.764420153320312,9.032229837722777,19.75371915332031C8.92538983772278,19.741998153320313,8.837399837722778,19.752360153320314,8.768779837722779,19.78480315332031C8.699979837722779,19.81724215332031,8.646474837722778,19.866842153320313,8.607916837722778,19.93343215332031C8.569527837722779,20.000022153320312,8.553390837722779,20.07119215332031,8.559675837722779,20.146952153320314C8.565790837722778,20.222702153320313,8.600781837722778,20.304072153320313,8.664480837722778,20.390702153320312C8.726139837722778,20.47631215332031,8.819559837722778,20.56922215332031,8.945089837722778,20.669272153320314C9.068239837722778,20.768302153320313,9.229779837722779,20.875482153320313,9.429709837722779,20.990822153320313L10.472489837722778,21.592982153320314C10.67444983772278,21.70950215332031,10.851109837722777,21.797662153320314,11.002629837722779,21.857452153320313C11.152099837722778,21.915892153320314,11.280179837722779,21.951052153320312,11.38718983772278,21.962942153320313C11.495389837722778,21.972622153320312,11.58388983772278,21.961242153320313,11.652519837722778,21.928802153320312C11.721309837722778,21.89618215332031,11.775499837722778,21.845732153320313,11.815069837722778,21.776942153320313C11.853629837722778,21.71035215332031,11.869089837722779,21.640202153320313,11.861619837722778,21.56648215332031C11.855499837722778,21.490722153320313,11.820509837722778,21.409532153320313,11.756809837722777,21.322732153320313C11.693109837722778,21.236102153320314,11.597989837722778,21.143692153320313,11.471439837722778,21.045512153320313C11.343879837722778,20.944282153320312,11.179279837722778,20.835232153320312,10.977319837722778,20.71870215332031L9.934539837722777,20.116542153320314Z" fill="#FFFFFF" fill-opacity="1"/></g></g><g style="opacity:0.800000011920929;"><g><path d="M11.958761610946656,54.3068733215332L13.295791610946655,56.62265332153321L12.756041610946657,56.9343733215332L10.789861610946655,56.6515833215332C10.641861610946656,56.6363133215332,10.511031610946656,56.6279433215332,10.397391610946656,56.62632332153321C10.281831610946655,56.6258833215332,10.179351610946656,56.631023321533206,10.089631610946656,56.642033321533205C10.000071610946655,56.6529033215332,9.921071610946655,56.6697833215332,9.852511610946655,56.6925433215332C9.784081610946656,56.715303321533206,9.721091610946655,56.7432033215332,9.663541610946655,56.7765333215332C9.488961610946655,56.8772533215332,9.369880610946655,56.986793321533206,9.306303610946655,57.1051333215332C9.241552610946655,57.2215733215332,9.241992610946655,57.3365333215332,9.307331610946655,57.4498933215332C9.346828610946655,57.518313321533206,9.398218610946655,57.5677933215332,9.461501610946655,57.5984833215332C9.523021610946655,57.630193321533206,9.593351610946655,57.645903321533204,9.672351610946656,57.645903321533204C9.749721610946656,57.646783321533206,9.833561610946655,57.6319533215332,9.923861610946656,57.6014133215332C10.014161610946655,57.570873321533206,10.106081610946655,57.5285933215332,10.199761610946656,57.4745533215332L10.642301610946655,58.241153321533204C10.464191610946655,58.3439333215332,10.281241610946655,58.413523321533205,10.093451610946655,58.449943321533205C9.904781610946655,58.484593321533204,9.722861610946655,58.4851833215332,9.547691610946655,58.4519933215332C9.371495610946655,58.416903321533205,9.207194610946654,58.34628332153321,9.054639610946655,58.239973321533206C8.901056610946656,58.131913321533204,8.771259610946656,57.9861033215332,8.665249610946656,57.8025733215332C8.561441610946655,57.6227033215332,8.496102810946656,57.4493033215332,8.469379910946655,57.2823533215332C8.439720610946654,57.1148233215332,8.445593590946656,56.9566933215332,8.486852610946656,56.807953321533205C8.528258310946656,56.659363321533206,8.604756610946655,56.5216333215332,8.716198610946655,56.394923321533206C8.826760610946655,56.2663033215332,8.968303610946656,56.1522133215332,9.141121610946655,56.0525233215332C9.272533610946656,55.9766133215332,9.410111610946656,55.9199333215332,9.554001610946655,55.882493321533204C9.696131610946654,55.8460833215332,9.847071610946655,55.8247933215332,10.006821610946655,55.8189133215332C10.165541610946654,55.8112833215332,10.334251610946655,55.8170033215332,10.513231610946654,55.836093321533205C10.690461610946656,55.856213321533204,10.880601610946655,55.8842533215332,11.083811610946656,55.9205233215332L12.095901610946655,56.00920332153321L11.324461610946656,54.673064321533204L11.958761610946656,54.3068733215332Z" fill="#FFFFFF" fill-opacity="1"/></g><g><path d="M9.034381151952743,52.67002617856407L8.841151151952744,52.33540417856407L9.475451151952743,51.96921317856407L9.668681151952743,52.30383517856407L10.518961151952745,51.81298717856407L10.959891151952743,52.576790178564075L10.109751151952743,53.06763717856407L10.860781151952743,54.36868717856407L10.387111151952745,54.68891717856407L7.031633151952743,54.84837717856407L6.5890911519527435,54.08192717856407L9.034381151952743,52.67002617856407ZM9.818291151952744,54.02774717856407L9.475451151952743,53.43382717856407L8.161041151952743,54.192787178564075L8.199951151952744,54.19190717856407L9.818291151952744,54.02774717856407Z" fill="#FFFFFF" fill-opacity="1"/></g><g><path d="M9.56579310180664,51.63204192841797L9.35204310180664,51.75545512841797L9.35203310180664,51.755457128417966L8.71774310180664,52.12164612841797L8.503983101806641,52.245064128417965L8.627393101806641,52.45881912841797L8.69720310180664,52.57969312841797L6.4656735018066405,53.86817912841797L6.251920101806641,53.99158912841797L6.375335601806641,54.20534912841797L6.817878101806641,54.97179912841797L6.8931541018066405,55.10210912841797L7.0432981018066405,55.094949128417966L10.39890310180664,54.93548912841797L10.468173101806642,54.932029128417966L10.525383101806641,54.89331912841797L10.999013101806641,54.57310912841797L11.18957310180664,54.444249128417965L11.074503101806641,54.24521912841797L10.44691310180664,53.15797912841797L11.08330310180664,52.79054912841797L11.297063101806641,52.66712912841797L11.17364310180664,52.45337512841797L10.732723101806641,51.68957742841797L10.609303101806642,51.47581612841797L10.395543101806641,51.59923162841797L9.75901310180664,51.966676128417966L9.68920310180664,51.84578912841797L9.56579310180664,51.63204192841797ZM8.81773310180664,52.29485412841797L9.452033101806641,51.928663128417966L9.452033101806641,51.92866112841797L9.49259310180664,51.905248128417966L9.51600310180664,51.945808128417966L9.68582310180664,52.23985912841797L10.49555310180664,51.77243512841797L10.53610310180664,51.74902212841797L10.55951310180664,51.78956812841797L11.00044310180664,52.55337712841797L11.02385310180664,52.59392912841797L10.98330310180664,52.61733912841797L10.17372310180664,53.08476912841797L10.901363101806641,54.345329128417966L10.923133101806641,54.38297912841797L10.886993101806642,54.40741912841797L10.41329310180664,54.72767912841797L10.40236310180664,54.73506912841797L10.38941310180664,54.73571912841797L7.033769101806641,54.89516912841797L7.0053701018066405,54.89652912841797L6.991080101806641,54.871789128417966L6.54853910180664,54.10534912841797L6.525126101806641,54.06478912841797L6.565680101806641,54.04137912841797L8.970423101806642,52.65287912841797L8.80060310180664,52.35881712841797L8.77718310180664,52.31826512841797L8.81773310180664,52.29485412841797ZM8.36714310180664,54.127699128417966L9.58772310180664,54.00404912841797L9.74157310180664,53.98846912841797L9.45831310180664,53.49795912841797L8.36714310180664,54.127699128417966ZM9.413713101806641,53.82065912841797L9.38511310180664,53.77112912841797L9.27492310180664,53.834719128417966L9.413713101806641,53.82065912841797ZM13.632963101806642,56.71299912841797L13.50954310180664,56.49923912841797L12.17252310180664,54.183459128417965L12.04910310180664,53.96969912841797L11.835353101806641,54.09311912841797L11.20105310180664,54.45930912841797L10.98729310180664,54.58271912841797L11.110713101806642,54.79647912841797L11.64499310180664,55.721919128417966L11.11631310180664,55.67562912841797Q10.80909310180664,55.621229128417966,10.54254310180664,55.59094912841797L10.54116310180664,55.59074912841797L10.53936310180664,55.590559128417965Q10.253003101806641,55.56012912841797,9.995763101806642,55.57234912841797Q9.73114310180664,55.58222912841797,9.49262310180664,55.64334912841797Q9.24318310180664,55.70849912841797,9.017683101806641,55.83877912841797Q8.72280310180664,56.00888912841797,8.52968310180664,56.23338912841797Q8.32613310180664,56.46476912841797,8.24911310180664,56.74181912841797Q8.17225310180664,57.01802912841797,8.225963101806641,57.32415912841797Q8.273463101806641,57.61743912841797,8.451483101806641,57.92596912841797Q8.63751310180664,58.24825912841797,8.91250310180664,58.44184912841797Q9.18323310180664,58.63056912841797,9.49710310180664,58.69361912841797L9.498763101806642,58.69403912841797L9.501593101806641,58.69457912841797Q9.80938310180664,58.752969128417966,10.138043101806641,58.69277912841797L10.14111310180664,58.69217912841797Q10.462633101806642,58.62971912841797,10.765673101806641,58.454929128417966L10.97947310180664,58.33148912841797L10.85605310180664,58.11772912841797L10.41351310180664,57.35114912841797L10.29009310180664,57.137389128417965L10.076343101806641,57.26079912841797Q9.957153101806641,57.32951912841797,9.844733101806641,57.36767912841797Q9.74966310180664,57.39984912841797,9.675283101806642,57.399079128417966L9.672203101806641,57.399079128417966Q9.61339310180664,57.399079128417966,9.57457310180664,57.37906912841797L9.57023310180664,57.37688912841797Q9.54242310180664,57.36339912841797,9.52107310180664,57.32644912841797Q9.492853101806642,57.27754912841797,9.52208310180664,57.22484912841797L9.52330310180664,57.22261912841797Q9.58592310180664,57.10619912841797,9.78690310180664,56.990319128417966Q9.85187310180664,56.952799128417965,9.93024310180664,56.92679912841797Q10.00988310180664,56.90045912841797,10.11975310180664,56.88693912841797Q10.23805310180664,56.872529128417966,10.39567310180664,56.87315912841797Q10.55271310180664,56.87530912841797,10.75953310180664,56.89664912841797L12.72096310180664,57.17871912841797L12.80543310180664,57.19081912841797L12.879413101806641,57.148159128417966L13.41921310180664,56.83640912841797L13.632963101806642,56.71299912841797ZM11.99931310180664,54.28345912841797L13.336333101806641,56.59923912841797L13.35975310180664,56.63979912841797L13.31919310180664,56.66320912841797L12.77950310180664,56.97489912841797L12.76539310180664,56.98303912841797L12.749433101806641,56.98074912841797L10.78407310180664,56.69811912841797L10.782093101806641,56.69790912841797Q10.56513310180664,56.67545912841797,10.39646310180664,56.67315912841797Q10.22631310180664,56.67247912841797,10.095343101806641,56.68843912841797Q9.96585310180664,56.704369128417966,9.86727310180664,56.73696912841797Q9.76953310180664,56.76938912841797,9.68700310180664,56.81705912841797Q9.436743101806641,56.96135912841797,9.34772310180664,57.126849128417966L9.34718310180664,57.12783912841797Q9.26307310180664,57.27948912841797,9.34790310180664,57.426499128417966Q9.399953101806641,57.516599128417965,9.480803101806641,57.55577912841797L9.48293310180664,57.55682912841797Q9.56487310180664,57.59907912841797,9.672203101806641,57.59907912841797L9.673233101806641,57.599069128417966Q9.78158310180664,57.60017912841797,9.90902310180664,57.55705912841797Q10.04003310180664,57.51258912841797,10.17634310180664,57.43400912841797L10.21689310180664,57.41058912841797L10.24030310180664,57.45113912841797L10.682853101806641,58.21773912841797L10.706263101806641,58.25828912841797L10.66574310180664,58.28167912841797Q10.39167310180664,58.43976912841797,10.10188310180664,58.49606912841797L10.10201310180664,58.49605912841797Q9.81152310180664,58.54924912841797,9.541653101806642,58.49860912841797L9.54097310180664,58.49843912841797L9.53860310180664,58.49795912841797Q9.264353101806641,58.44331912841797,9.027633101806641,58.278309128417966Q8.78869310180664,58.11009912841797,8.624713101806641,57.826009128417965Q8.46502310180664,57.54925912841797,8.422953101806641,57.28959912841797Q8.377063101806641,57.02804912841797,8.441803101806642,56.795389128417966Q8.506553101806642,56.56247912841797,8.681303101806641,56.36381912841797Q8.85222310180664,56.165129128417966,9.11773310180664,56.01194912841797Q9.31985310180664,55.895179128417965,9.54226310180664,55.83708912841797Q9.760023101806642,55.78128912841797,10.005253101806641,55.77211912841797Q10.24635310180664,55.760669128417966,10.51645310180664,55.78924912841797L10.51712310180664,55.78934912841797L10.518563101806642,55.78950912841797Q10.78138310180664,55.81930912841797,11.08572310180664,55.87332912841797L11.090073101806642,55.87409912841797L12.010303101806642,55.95466912841797L11.28391310180664,54.69647912841797L11.260503101806641,54.65592912841797L11.301053101806641,54.63251912841797L11.93535310180664,54.26631912841797L11.97590310180664,54.24290912841797L11.99931310180664,54.28345912841797Z" fill-rule="evenodd" fill="#000000" fill-opacity="0.6000000238418579"/></g></g><g style="opacity:0.75;"><g><path d="M65.77870154380798,52.95094960253906L66.22249454380798,52.18116760253906L69.23616154380798,53.92139760253906L69.38065154380799,53.00314360253906L70.01906154380798,53.372477602539064L69.77726154380798,55.15118760253906L69.73008154380798,55.23242760253906L65.77870154380798,52.95094960253906Z" fill="#FFFFFF" fill-opacity="1"/></g><g><path d="M63.78974151611328,56.39573106948853L65.13144151611328,54.070311069488525L65.67402151611329,54.38332506948853L66.41564151611328,56.23517106948852C66.47609151611329,56.371551069488525,66.53507151611328,56.489501069488526,66.59109151611328,56.58917106948853C66.64859151611329,56.689871069488525,66.70462151611328,56.77642106948853,66.75917151611328,56.84881106948853C66.81373151611328,56.92135106948852,66.86828151611329,56.98150106948852,66.92136151611328,57.029721069488524C66.97591151611329,57.07778106948852,67.03194151611328,57.118621069488526,67.08944151611328,57.15194106948852C67.26489151611328,57.253091069488526,67.41970151611328,57.30174106948853,67.55535151611328,57.297611069488525C67.68804151611329,57.29540106948853,67.78830151611328,57.23731106948853,67.85465151611328,57.12349106948852C67.89298151611328,57.05478106948853,67.91068151611329,56.98534106948853,67.90625151611329,56.91486106948852C67.90183151611328,56.84557106948853,67.88119151611328,56.77642106948853,67.84138151611329,56.707711069488525C67.80305151611329,56.64003106948852,67.74849151611328,56.57457106948853,67.67625151611328,56.511321069488524C67.60400151611329,56.44807106948853,67.52144151611328,56.389391069488525,67.42707151611329,56.335131069488526L67.87234151611328,55.56535106948853C68.05074151611328,55.66870106948853,68.20261151611328,55.79285106948853,68.32940151611328,55.93778106948852C68.45325151611328,56.08463106948852,68.54614151611328,56.24239106948853,68.60512151611329,56.41150106948852C68.66262151611328,56.582241069488525,68.68326151611328,56.76064106948853,68.66852151611329,56.94671106948852C68.65082151611328,57.134401069488526,68.58890151611328,57.320471069488526,68.48274151611328,57.50477106948853C68.37953151611327,57.685531069488526,68.26011151611328,57.82943106948853,68.12889151611328,57.936471069488526C67.99767151611329,58.046311069488524,67.85760151611328,58.12062106948852,67.70721151611328,58.159251069488526C67.55830151611327,58.19803106948852,67.39906151611328,58.200681069488525,67.23393151611329,58.16736106948853C67.06585151611328,58.135811069488526,66.89629151611328,58.06990106948852,66.72231151611328,57.96979106948852C66.59109151611328,57.89357106948852,66.47167151611328,57.80230106948853,66.36698151611328,57.696001069488524C66.26378151611328,57.59073106948853,66.16941151611329,57.47012106948853,66.08390151611329,57.33418106948852C65.99839151611329,57.200011069488525,65.91877151611328,57.050361069488524,65.84505151611329,56.88508106948853C65.77428151611328,56.72098106948852,65.70203151611328,56.54140106948852,65.63273151611328,56.346481069488526L65.20074151611328,55.421891069488524L64.42668051611328,56.76344106948852L63.78974151611328,56.39573106948853Z" fill="#FFFFFF" fill-opacity="1"/></g></g><g style="opacity:0.800000011920929;"><g><path d="M54.924202497558596,9.483256551971436L55.393102497558594,9.753806551971437C55.56987249755859,9.856516551971435,55.73548249755859,9.869916551971436,55.889922497558594,9.794186551971436C56.046222497558595,9.717516551971435,56.18392249755859,9.575356551971435,56.304862497558595,9.367886551971436C56.35696249755859,9.276716551971436,56.394182497558596,9.187586551971435,56.41837249755859,9.100506551971435C56.44442249755859,9.012486551971435,56.451862497558594,8.929126551971436,56.44256249755859,8.850786551971435C56.43697249755859,8.771336551971435,56.41465249755859,8.698586551971436,56.37371249755859,8.632526551971436C56.332772497558594,8.566286551971436,56.273232497558595,8.510836551971435,56.195082497558595,8.465996551971436C56.133682497558596,8.430456551971435,56.06669249755859,8.408866551971435,55.99598249755859,8.401052551971436C55.927132497558596,8.394539551971436,55.858292497558594,8.403285551971436,55.789442497558596,8.427476551971436C55.72059249755859,8.451666551971435,55.65361249755859,8.490736551971436,55.588482497558594,8.544696551971436C55.525222497558595,8.598666551971435,55.467532497558594,8.668816551971435,55.41729249755859,8.755526551971435L54.44971249755859,8.196743551971435C54.56694249755859,7.991504551971436,54.71208249755859,7.8266435519714355,54.8814024975586,7.702346551971435C55.05073249755859,7.5758175519714355,55.23308249755859,7.490409451971436,55.4247424975586,7.4466821519714355C55.61825249755859,7.400349931971435,55.819212497558595,7.394209551971436,56.02389249755859,7.427702751971435C56.23416249755859,7.460265551971435,56.43697249755859,7.5332065519714355,56.63235249755859,7.646524551971435C56.848202497558596,7.771566551971436,57.028692497558595,7.916889551971435,57.17383249755859,8.082494551971436C57.320822497558595,8.245680551971436,57.42130249755859,8.424686551971435,57.47899249755859,8.619316551971435C57.54039249755859,8.812836551971436,57.55528249755859,9.019006551971435,57.5236424975586,9.237636551971436C57.49573249755859,9.455346551971436,57.4138624975586,9.680496551971435,57.27989249755859,9.913086551971436C57.216622497558596,10.022496551971436,57.140332497558596,10.121116551971436,57.04916249755859,10.208936551971435C56.96356249755859,10.295836551971435,56.864942497558594,10.370076551971437,56.757022497558594,10.432046551971435C56.649102497558594,10.491586551971436,56.533732497558596,10.538286551971435,56.40720249755859,10.571966551971435C56.28439249755859,10.604906551971435,56.156002497558596,10.618856551971437,56.02203249755859,10.614396551971435C56.198802497558596,10.850336551971436,56.286262497558596,11.101536551971435,56.28439249755859,11.367986551971436C56.28439249755859,11.635936551971437,56.20624249755859,11.906676551971437,56.048082497558596,12.180196551971434C55.91411249755859,12.412796551971436,55.754092497558595,12.597376551971436,55.56987249755859,12.733586551971435C55.38566249755859,12.871276551971436,55.19028249755859,12.963386551971436,54.981882497558594,13.009716551971437C54.7734824975586,13.053816551971437,54.55763249755859,13.055116551971436,54.33249249755859,13.013246551971434C54.10734249755859,12.969156551971436,53.88777249755859,12.884486551971435,53.67006749755859,12.759446551971436C53.4877154975586,12.654126551971435,53.327692497558594,12.522946551971437,53.186276497558595,12.365906551971435C53.04858249755859,12.210156551971435,52.94624249755859,12.034136551971436,52.881116497558594,11.837826551971435C52.815990847558595,11.643006551971435,52.7955227975586,11.432926551971436,52.815990847558595,11.207596551971434C52.838319597558595,10.980026551971436,52.92019149755859,10.743156551971435,53.06160749755859,10.496796551971435L54.0291924975586,11.055756551971434C53.977092497558594,11.146936551971436,53.9417324975586,11.238486551971436,53.921262497558594,11.330586551971436C53.902662497558595,11.420276551971437,53.89893249755859,11.506246551971437,53.9101024975586,11.588306551971435C53.921262497558594,11.667936551971437,53.94731249755859,11.740886551971435,53.98825249755859,11.807126551971436C54.03105249755859,11.874486551971437,54.088732497558595,11.929376551971435,54.163162497558595,11.971426551971437C54.24689249755859,12.020176551971435,54.3306324975586,12.047716551971437,54.41622249755859,12.053856551971435C54.499952497558596,12.060186551971436,54.58182249755859,12.046786551971437,54.661842497558595,12.013856551971436C54.74371249755859,11.982216551971437,54.82186249755859,11.932536551971435,54.8944324975586,11.864996551971435C54.9688624975586,11.795026551971436,55.0339824975586,11.708876551971436,55.09353249755859,11.606166551971436C55.24611249755859,11.343986551971435,55.301932497558596,11.126286551971436,55.26657249755859,10.953046551971436C55.23308249755859,10.778696551971436,55.12516249755859,10.638956551971436,54.94281249755859,10.533636551971435L54.47390249755859,10.263086551971435L54.924202497558596,9.483256551971436Z" fill="#FFFFFF" fill-opacity="1"/></g></g><g style="opacity:0.800000011920929;"><g><path d="M23.96179965873718,65.56925511360168L26.618099658737183,67.10307511360169L26.261009658737184,67.72225511360169L24.145399658737183,68.56917511360169C23.988749658737184,68.63891511360168,23.853999658737184,68.70561511360168,23.739459658737182,68.76928511360168C23.624919658737184,68.83497511360169,23.52721965873718,68.89898511360168,23.442999658737183,68.96130511360168C23.360469658737184,69.02362511360168,23.291409658737184,69.08561511360169,23.23750965873718,69.14743511360169C23.181919658737183,69.20925511360169,23.13475965873718,69.27325511360168,23.097699658737184,69.33928511360169C22.981479658737182,69.53956511360168,22.925889658737184,69.71676511360168,22.93093965873718,69.87071511360169C22.932629658737184,70.02365511360168,22.99999965873718,70.13752511360168,23.12969965873718,70.21264511360168C23.208869658737182,70.25796511360168,23.288039658737183,70.27766511360169,23.36888965873718,70.27177511360168C23.448059658737183,70.26806511360168,23.525539658737184,70.24330511360168,23.604709658737182,70.19782511360168C23.682189658737183,70.15453511360168,23.756299658737184,70.09170511360169,23.82872965873718,70.00951511360168C23.901159658737182,69.92731511360168,23.968539658737182,69.83264511360169,24.03085965873718,69.72535511360168L24.910119658737184,70.23303511360169C24.792209658737182,70.43734511360168,24.65071965873718,70.61134511360169,24.483959658737184,70.75519511360169C24.317209658737184,70.89786511360168,24.136979658737182,71.00297511360168,23.943269658737183,71.07034511360169C23.747879658737183,71.13654511360168,23.544069658737182,71.16063511360169,23.33182965873718,71.14260511360169C23.117909658737183,71.12323511360168,22.90399265873718,71.05282511360168,22.693442658737183,70.93138511360168C22.487945658737182,70.81212511360168,22.322873658737183,70.67737511360168,22.201596658737184,70.52695511360169C22.07526665873718,70.37738511360169,21.991046458737184,70.21686511360168,21.94725175873718,70.04555511360168C21.90177297873718,69.87408511360168,21.90008855873718,69.69351511360168,21.937145458737184,69.50351511360168C21.974202358737184,69.31250511360169,22.04831565873718,69.11778511360168,22.162855658737183,68.91970511360168C22.250444658737184,68.76894511360169,22.354877658737184,68.63368511360169,22.476154658737183,68.51392511360169C22.59574765873718,68.39618511360169,22.733867658737182,68.28855511360169,22.888833658737184,68.19119511360168C23.042109658737182,68.09249511360169,23.213919658737183,68.00136511360168,23.40257965873718,67.91765511360168C23.589549658737184,67.83595511360168,23.79503965873718,67.75476511360168,24.017379658737184,67.67425511360169L25.073499658737184,67.18173511360169L23.540699658737182,66.29691711360168L23.96179965873718,65.56925511360168Z" fill="#FFFFFF" fill-opacity="1"/></g><g><path d="M21.480673217163087,64.13751220703125L22.359933217163086,64.64519120703125L20.372333217163085,68.08828220703126L21.421713217163084,68.25200220703125L20.998933217163085,68.98286220703125L18.967373817163086,68.70544220703125L18.874563217163086,68.65188220703125L21.480673217163087,64.13751220703125Z" fill="#FFFFFF" fill-opacity="1"/></g></g><g style="opacity:0.800000011920929;"><g><path d="M55.36396026611328,65.81260408367157L56.054155266113284,65.41408908367157L57.61437026611328,68.11695908367157L58.13796026611328,67.46814908367158L58.46852026611328,68.04171908367157L57.48215026611328,69.31434908367157L57.40942026611328,69.35639908367158L55.36396026611328,65.81260408367157Z" fill="#FFFFFF" fill-opacity="1"/></g><g><path d="M55.29387788434028,68.17314846126557L56.157287884340285,70.07290846126557L54.44369788434029,71.06218846126556L54.10388788434029,70.47393846126556L55.254217884340285,69.81018846126557L54.88002788434029,69.01539846126556C54.86680788434029,69.03959846126557,54.852267884340286,69.06696846126556,54.832427884340284,69.09737846126556C54.815237884340284,69.12950846126556,54.79143788434028,69.16229846126556,54.76367788434029,69.19588846126557C54.735907884340286,69.23105846126556,54.70417788434029,69.26437846126557,54.668477884340284,69.29583846126556C54.632777884340285,69.32995846126556,54.591787884340285,69.36009846126557,54.54550788434029,69.38627846126556C54.39874788434029,69.47142846126556,54.251977884340285,69.51995846126556,54.107857884340284,69.53198846126557C53.96373788434028,69.54401846126557,53.82357788434029,69.52088846126557,53.68871588434028,69.46283846126556C53.552527884340286,69.40558846126557,53.421628884340286,69.31448846126557,53.29866288434029,69.18953846126557C53.17305288434029,69.06551846126557,53.055375884340286,68.90948846126557,52.94695388434029,68.72147846126556C52.855721884340284,68.56425846126557,52.79093298434029,68.40228846126557,52.74994438434029,68.23529846126556C52.71027801434029,68.06842846126557,52.70234468434029,67.90592846126556,52.724822384340285,67.74779546126557C52.748622184340284,67.58965946126557,52.805477384340286,67.44064546126556,52.898031884340284,67.30101946126557C52.99058688434029,67.16139446126556,53.12413088434029,67.04107246126556,53.29866288434029,66.94005546126556C53.42956188434029,66.86416056126556,53.57103888434029,66.81351976126557,53.71912788434029,66.78773656126556C53.869857884340284,66.76367223126556,54.01926788434029,66.76803553126557,54.16867788434028,66.80109096126556C54.31544788434029,66.83493956126556,54.454277884340286,66.89906646126556,54.58649788434029,66.99347246126557C54.718717884340286,67.08774646126557,54.83374788434028,67.21626546126556,54.92894788434029,67.37903046126556L54.249337884340285,67.77199246126557C54.152807884340284,67.63104446126556,54.049677884340284,67.53782846126556,53.94125788434029,67.49234446126556C53.832837884340286,67.44685946126556,53.731027884340286,67.45228146126557,53.633182884340286,67.50834246126557C53.568394884340286,67.54576146126557,53.52343888434029,67.59468346126556,53.498316884340284,67.65484446126557C53.471872884340286,67.71500446126556,53.46261788434029,67.78230846126556,53.46790588434028,67.85647846126557C53.47319488434029,67.93171846126556,53.491705884340284,68.01223846126557,53.52740588434028,68.09817846126556C53.559138884340285,68.18504846126557,53.602771884340285,68.27469846126556,53.655660884340286,68.36711846126556C53.70987088434028,68.45940846126557,53.766727884340284,68.53900846126557,53.826227884340284,68.60577846126556C53.887047884340284,68.67268846126557,53.94918788434028,68.72252846126557,54.01662788434029,68.75531846126556C54.08141788434028,68.78916846126556,54.148847884340285,68.80529846126556,54.21892788434029,68.80357846126556C54.28899788434028,68.80437846126556,54.36039788434029,68.78374846126556,54.433117884340284,68.74170846126556C54.48204788434029,68.71366846126557,54.52170788434029,68.68312846126557,54.552117884340284,68.65033846126556C54.58120788434029,68.61833846126557,54.60368788434029,68.58554846126556,54.62087788434029,68.55183846126556C54.636737884340285,68.51903846126557,54.64731788434029,68.48492846126557,54.652607884340284,68.44935846126556C54.659217884340286,68.41537846126556,54.66318788434029,68.38166846126556,54.66582788434029,68.34794846126556L55.29387788434028,68.17314846126557Z" fill="#FFFFFF" fill-opacity="1"/></g><g><path d="M55.93804441894531,65.21298413144531L55.93778441894531,65.21313463144531L55.24784441894531,65.6114997314453L55.046114418945315,65.7274377314453L55.16232441894531,65.92871573144531L57.209124418945315,69.47252473144532L57.325374418945316,69.67387473144531L57.52579441894531,69.55735473144532L57.598314418945314,69.51542473144531L57.63774441894531,69.49269473144531L57.665674418945315,69.45662473144532L58.65201441894531,68.18403473144531L58.74696441894531,68.06106473144531L58.67053441894531,67.9262847314453L58.33823441894531,67.35195473144532L58.16857441894531,67.05843473144532L57.956814418945314,67.32255473144531L57.64652441894531,67.70756473144532L56.254454418945315,65.29795473144532L56.138204418945314,65.09660973144531L55.93804441894531,65.21298413144531ZM55.34785441894531,65.78470173144531L56.03804441894531,65.3861867314453L56.038304418945316,65.38603573144532L56.06530441894531,65.37033973144531L56.08127441894531,65.39800173144532L57.61923441894531,68.06014473144532L58.11285441894531,67.44766473144531L58.141724418945316,67.4116447314453L58.165114418945315,67.4521147314453L58.49656441894531,68.02493473144531L58.50740441894531,68.04406473144532L58.493934418945315,68.06151473144531L57.50752441894531,69.33418473144532L57.50372441894531,69.33910473144532L57.49820441894531,69.34228473144532L57.425274418945314,69.38445473144532L57.39827441894531,69.40015473144531L57.38230441894531,69.37249473144531L55.335534418945315,65.82871373144532L55.31952441894531,65.80098473144531L55.34785441894531,65.78470173144531ZM56.368644418945316,69.97679473144531L56.36845441894531,69.97637473144532L55.50524441894531,68.07716473144531L55.42399441894531,67.89633473144531L55.23158441894531,67.94942473144532L54.60331441894531,68.12428473144531L54.445424418945315,68.16839473144532L54.43377441894531,68.33362473144531L54.43372441894531,68.33479473144531Q54.432374418945315,68.36353473144531,54.42564441894531,68.40158473144531L54.42347441894531,68.40875473144531L54.42242441894531,68.41743473144531Q54.42074441894531,68.43144473144531,54.41360441894531,68.44852473144532Q54.399064418945315,68.47358473144531,54.381964418945316,68.49149473144531Q54.35817441894531,68.51686473144531,54.31705441894531,68.54057473144532Q54.26254441894531,68.57188473144531,54.22149441894531,68.57136473144531L54.21502441894531,68.57136473144531L54.21378441894531,68.57139473144531Q54.16821441894531,68.57253473144532,54.123384418945314,68.54934473144532L54.119514418945315,68.54740473144531Q54.059384418945314,68.51782473144532,53.99821441894531,68.45022473144532Q53.92345441894531,68.36704473144532,53.857564418945316,68.25148473144532Q53.787784418945314,68.13046473144531,53.74374441894531,68.01558473144532L53.74121441894531,68.00898473144531L53.73960441894531,68.00608473144531Q53.705834418945315,67.92000473144532,53.700124418945315,67.84495473144531L53.700124418945315,67.84091473144531L53.69968441894531,67.8362047314453Q53.69472441894531,67.78392473144531,53.71085441894531,67.74549473144532Q53.71892441894531,67.72702473144531,53.74938441894531,67.70939473144531Q53.795444418945316,67.68278473144531,53.85257441894531,67.70656473144531Q53.95224441894531,67.74832473144531,54.05678441894531,67.90275473144531L54.18001441894531,68.08041473144532L54.365534418945316,67.97304473144531L55.04511441894531,67.58010473144532L55.24877441894531,67.46323473144531L55.13022441894531,67.26124473144532Q54.95975441894531,66.97381473144532,54.722624418945315,66.80446473144531Q54.486744418945314,66.63634473144532,54.220294418945315,66.5747447314453L54.214074418945316,66.57330473144532L54.21227441894531,66.57312473144532Q53.951134418945315,66.51593473144531,53.686404418945315,66.55802473144531L53.683154418945314,66.55834473144532L53.679644418945315,66.55895473144531Q53.41638741894531,66.60438473144531,53.182675418945315,66.7388747314453Q52.870865418945314,66.91876473144531,52.70455541894531,67.17349473144532Q52.538055018945315,67.42388473144531,52.495007618945316,67.71380473144531Q52.45450741894531,67.99771473144531,52.52444331894531,68.28954473144532Q52.593389518945315,68.57389473144531,52.745274418945314,68.8375047314453Q52.92694941894531,69.15015473144531,53.134666418945315,69.35444473144531Q53.35157941894531,69.5730847314453,53.59845441894531,69.67669473144531Q53.85367441894531,69.78620473144531,54.128064418945314,69.76333473144531Q54.395304418945315,69.7410647314453,54.66160441894531,69.58740473144532Q54.75214441894531,69.53488473144532,54.82415441894531,69.46811473144531Q54.828214418945315,69.46453473144531,54.832224418945316,69.46092473144532L54.95259441894531,69.71592473144531L53.98778441894531,70.27282473144531L53.78761441894531,70.38920473144532L53.90357441894531,70.59004473144532L54.243394418945314,71.17831473144531L54.35965441894531,71.37966473144532L54.56007441894531,71.26314473144531L56.273394418945315,70.2740147314453L56.45687441894531,70.16857473144532L56.368644418945316,69.97679473144531ZM55.32316441894531,68.15992473144532L56.18657441894531,70.05954473144531L56.186764418945316,70.05996473144532L56.19883441894531,70.08619473144532L56.17340441894531,70.10080473144531L54.45954441894531,71.09024473144531L54.432554418945315,71.10593473144532L54.41658441894531,71.07827473144532L54.076784418945316,70.49004473144531L54.06052441894531,70.46188473144531L54.087774418945315,70.44603473144531L55.21206441894531,69.79708473144531L54.881894418945315,69.09763473144531L54.78184441894531,69.2237847314453Q54.741984418945314,69.27405473144532,54.691034418945314,69.31885473144531L54.68997441894531,69.31978473144531L54.688954418945315,69.32073473144531Q54.63300441894531,69.37277473144532,54.56164441894531,69.41417473144531Q54.334104418945316,69.54547473144531,54.111454418945314,69.56402473144531Q53.88673441894531,69.5827547314453,53.67584441894531,69.4922747314453Q53.46559041894531,69.40403473144531,53.27490541894531,69.21185473144531Q53.08636341894531,69.02642473144532,52.91856841894531,68.7376647314453Q52.78099941894531,68.49889473144532,52.71893641894531,68.24293473144532Q52.657889818945314,67.98820473144531,52.692838418945314,67.74317473144531Q52.72932641894531,67.49743473144531,52.87202241894531,67.28283473144532Q53.012205418945314,67.06812473144531,53.28242941894531,66.9122247314453Q53.48384441894531,66.79632473144531,53.71020441894531,66.7566447314453L53.712234418945314,66.75643473144531L53.71520441894531,66.75596473144532Q53.946564418945314,66.71868473144531,54.17464441894531,66.76963473144531L54.180514418945315,66.77094473144531L54.18133441894531,66.77103473144531Q54.40572441894531,66.8242047314453,54.606394418945314,66.96722473144531Q54.809234418945316,67.11208473144531,54.95774441894531,67.36247473144532L54.97406441894531,67.39028473144532L54.94500441894531,67.40696473144531L54.265354418945314,67.79994473144531L54.23931441894531,67.81501473144532L54.22240441894531,67.79064473144531Q54.08447441894531,67.58688473144531,53.92945441894531,67.52193473144531Q53.781024418945314,67.46013473144531,53.64920441894531,67.53629473144531Q53.56191741894531,67.58681473144532,53.52642641894531,67.66811473144531Q53.491750418945315,67.75076473144532,53.50012741894531,67.85009473144531L53.50012741894531,67.85195473144532L53.500359418945315,67.85535473144532Q53.50788841894531,67.96577473144531,53.556246418945314,68.08624473144532L53.55858541894531,68.09207473144531L53.55958041894531,68.09386473144531Q53.608654418945314,68.22019473144532,53.68381441894531,68.35053473144531Q53.760344418945316,68.48476473144531,53.849924418945314,68.58442473144531Q53.936764418945316,68.68039473144532,54.030084418945314,68.72629473144531L54.031514418945314,68.72699473144532Q54.12136441894531,68.77346473144532,54.217604418945314,68.77135473144531L54.218994418945314,68.77135473144531Q54.314734418945314,68.77255473144531,54.41696441894531,68.71382473144531Q54.48378441894531,68.67529473144532,54.526594418945315,68.62962473144532Q54.562614418945316,68.59190473144531,54.590484418945316,68.54205473144532L54.592694418945314,68.53810473144532L54.594534418945315,68.53398473144532Q54.613294418945316,68.49190473144532,54.61966441894531,68.45096473144531L54.62037441894531,68.44863473144531L54.621394418945314,68.44308473144531Q54.63128441894531,68.3891647314453,54.63344441894531,68.34541473144532L54.63501441894531,68.3230847314453L54.656944418945315,68.3169547314453L55.284784418945314,68.14222473144531L55.311854418945316,68.13475473144531L55.32316441894531,68.15992473144532Z" fill-rule="evenodd" fill="#000000" fill-opacity="0.6000000238418579"/></g></g><g style="opacity:0.800000011920929;"><g><path d="M70.76243516357422,22.367501892089845L69.90920516357421,22.869911892089842L69.88005516357421,22.819961892089843C69.76732516357421,22.624631892089845,69.63904516357422,22.468171892089842,69.49133516357422,22.350591892089845C69.34556516357422,22.231641892089844,69.18619516357421,22.150201892089843,69.01127516357423,22.106281892089843C68.84024516357422,22.063331892089845,68.65560516357422,22.054001892089843,68.45735516357422,22.078491892089843C68.26300516357422,22.103751892089843,68.05892516357422,22.163231892089843,67.84513516357421,22.256711892089843C68.01616516357421,22.289751892089843,68.17359516357422,22.355251892089843,68.31742516357421,22.453401892089843C68.46124516357422,22.550001892089846,68.58174516357423,22.682941892089843,68.68086516357423,22.852031892089844C68.79942516357421,23.059211892089845,68.85773516357422,23.268151892089843,68.85190516357422,23.478831892089843C68.84801516357422,23.688151892089845,68.79553516357421,23.891251892089844,68.69447516357423,24.088721892089843C68.59535516357423,24.286971892089845,68.45347516357423,24.473941892089844,68.26883516357422,24.649441892089843C68.08613516357421,24.827471892089843,67.87623516357422,24.987041892089845,67.63522516357422,25.127951892089843C67.38450516357422,25.275851892089843,67.12990516357422,25.378281892089845,66.86946516357422,25.435231892089845C66.61291516357421,25.490811892089845,66.36802516357422,25.499751892089844,66.13284516357422,25.462241892089843C65.89962516357421,25.424731892089845,65.68194116357422,25.339021892089843,65.47981016357421,25.205301892089842C65.28156616357421,25.070221892089844,65.11441916357421,24.887141892089844,64.98225616357422,24.656051892089845C64.84231896357421,24.415441892089845,64.76846326357422,24.169571892089845,64.75485828357422,23.917881892089845C64.74319686357421,23.666381892089845,64.78984256357423,23.419741892089846,64.89090816357422,23.177961892089844C64.99391716357422,22.934631892089843,65.15134616357422,22.701601892089844,65.36319516357422,22.478281892089843C65.57504516357422,22.257681892089845,65.83548516357422,22.057111892089843,66.14062516357421,21.877134892089845L66.53905516357422,21.642740892089844C66.95886516357422,21.395712892089843,67.37090516357422,21.219625892089844,67.77710516357422,21.114672892089843C68.18331516357422,21.009525522089845,68.56619516357422,20.979011492089843,68.92381516357422,21.022936192089844C69.28726516357422,21.068026992089845,69.61766516357422,21.190665892089843,69.91892516357422,21.390659892089843C70.22017516357423,21.589486892089845,70.47478516357423,21.869749892089843,70.68468516357422,22.231831892089843L70.76243516357422,22.367501892089845ZM67.66632516357421,23.027531892089844C67.59247516357422,22.898871892089844,67.48946516357422,22.814131892089843,67.35729516357422,22.773511892089843C67.22707516357421,22.735221892089843,67.09102516357422,22.729581892089843,66.94720516357422,22.756401892089844L66.58570516357422,22.969811892089844C66.22030516357422,23.184771892089845,65.97541516357421,23.394091892089843,65.85297516357421,23.597781892089845C65.72858716357422,23.801461892089844,65.71303816357423,23.983191892089845,65.80438516357422,24.142751892089844C65.85103516357422,24.223801892089845,65.91711516357422,24.284241892089845,66.00068516357422,24.324481892089842C66.08620516357422,24.363351892089845,66.18338516357421,24.380841892089844,66.29222516357422,24.377341892089845C66.40300516357422,24.376181892089843,66.52156516357422,24.353821892089844,66.64983516357422,24.310681892089843C66.77811516357421,24.269861892089843,66.91027516357421,24.209811892089846,67.04632516357422,24.130311892089843C67.18237516357422,24.049271892089845,67.30093516357422,23.962191892089844,67.40005516357422,23.869101892089844C67.50112516357422,23.774451892089843,67.57886516357422,23.677851892089844,67.63328516357421,23.578921892089845C67.68770516357422,23.482521892089842,67.71880516357422,23.386321892089843,67.72268516357421,23.290891892089842C67.73240516357421,23.196231892089845,67.71297516357421,23.108381892089845,67.66632516357421,23.027531892089844Z" fill="#FFFFFF" fill-opacity="1"/></g></g></g></g></g></g></g><g><ellipse cx="38.5" cy="38.5" rx="38.29999999701977" ry="38.29999999701977" fill-opacity="0" stroke-opacity="1" stroke="#C3C3C3" fill="none" stroke-width="0.4000000059604645"/></g></g></svg>