<?xml version="1.0" standalone="no"?><!DOCTYPE svg PUBLIC "-//W3C//DTD SVG 1.1//EN" "http://www.w3.org/Graphics/SVG/1.1/DTD/svg11.dtd"><svg t="1743760418617" class="icon" viewBox="0 0 1024 1024" version="1.1" xmlns="http://www.w3.org/2000/svg" p-id="5932" xmlns:xlink="http://www.w3.org/1999/xlink" width="200" height="200"><path d="M816.364308 32.452923H168.408615a152.457846 152.457846 0 0 0-152.418461 152.418462v647.955692a152.457846 152.457846 0 0 0 152.418461 152.457846h647.955693a152.457846 152.457846 0 0 0 152.418461-152.418461V184.871385a152.457846 152.457846 0 0 0-152.418461-152.457847zM168.408615 108.662154h647.955693c42.102154 0 76.209231 34.146462 76.20923 76.248615v647.916308a76.209231 76.209231 0 0 1-76.20923 76.248615H168.408615a76.209231 76.209231 0 0 1-76.20923-76.248615V184.910769c0-42.141538 34.107077-76.248615 76.20923-76.248615z" fill="#ffffff" p-id="5933"></path><path d="M407.473231 194.993231h-143.753846a76.209231 76.209231 0 0 0-76.209231 76.248615v126.818462c0 42.062769 34.146462 76.209231 76.248615 76.20923h143.714462a76.209231 76.209231 0 0 0 76.209231-76.248615v-126.818461a76.209231 76.209231 0 0 0-76.209231-76.209231z m-143.753846 76.248615h143.753846v126.818462h-143.753846v-126.818462zM765.085538 566.350769a38.124308 38.124308 0 0 1 0 76.209231H223.704615a38.124308 38.124308 0 1 1 0-76.248615h541.380923zM765.085538 742.793846a38.124308 38.124308 0 1 1 0 76.248616H223.704615a38.124308 38.124308 0 0 1 0-76.248616h541.380923z" fill="#ffffff" p-id="5934"></path></svg>