<?xml version="1.0" standalone="no"?><!DOCTYPE svg PUBLIC "-//W3C//DTD SVG 1.1//EN" "http://www.w3.org/Graphics/SVG/1.1/DTD/svg11.dtd"><svg class="icon" width="48px" height="48.00px" viewBox="0 0 1024 1024" version="1.1" xmlns="http://www.w3.org/2000/svg"><path fill="#be8dbd" d="M512 41.6a42.666667 42.666667 0 0 0-42.666667 42.666667v256a42.666667 42.666667 0 0 0 85.333334 0v-256a42.666667 42.666667 0 0 0-42.666667-42.666667zM41.685333 511.957333a42.666667 42.666667 0 0 0 42.666667 42.666667h256a42.666667 42.666667 0 1 0 0-85.333333h-256a42.666667 42.666667 0 0 0-42.666667 42.666666z m599.338667 0a42.666667 42.666667 0 0 0 42.666667 42.666667h256a42.666667 42.666667 0 0 0 0-85.333333h-256a42.666667 42.666667 0 0 0-42.666667 42.666666zM511.872 554.666667a42.666667 42.666667 0 1 0 0-85.333334 42.666667 42.666667 0 0 0 0 85.333334zM512 640.981333a42.666667 42.666667 0 0 0-42.666667 42.666667v256a42.666667 42.666667 0 0 0 85.333334 0v-256a42.666667 42.666667 0 0 0-42.666667-42.666667z"  /></svg>