<?xml version="1.0" standalone="no"?><!DOCTYPE svg PUBLIC "-//W3C//DTD SVG 1.1//EN" "http://www.w3.org/Graphics/SVG/1.1/DTD/svg11.dtd"><svg class="icon" width="48px" height="48.00px" viewBox="0 0 1024 1024" version="1.1" xmlns="http://www.w3.org/2000/svg"><path fill="#be8dbd" d="M556.916364 523.636364a56.552727 56.552727 0 1 1-113.105455 0 56.552727 56.552727 0 0 1 113.105455 0zM535.272727 674.909091v256h-69.818182V674.909091h69.818182z m0-558.545455v256h-69.818182V116.363636h69.818182z m-162.909091 488.727273l-119.994181 119.994182 39.982545 40.029091 120.017455-120.017455L372.363636 605.090909z m325.818182-325.818182l-119.994182 119.994182 39.982546 40.029091 120.017454-120.017455L698.181818 279.272727z m-69.818182 325.818182l119.994182 119.994182-39.982545 40.029091-120.017455-120.017455L628.363636 605.090909zM302.545455 279.272727l119.994181 119.994182-39.982545 40.029091-120.017455-120.017455L302.545455 279.272727z m325.818181 209.454546h256v69.818182H628.363636v-69.818182zM116.363636 488.727273h256v69.818182H116.363636v-69.818182z"  /></svg>