<?xml version="1.0" standalone="no"?><!DOCTYPE svg PUBLIC "-//W3C//DTD SVG 1.1//EN" "http://www.w3.org/Graphics/SVG/1.1/DTD/svg11.dtd">
<svg t="1742976775647" class="icon" viewBox="0 0 1024 1024" version="1.1" xmlns="http://www.w3.org/2000/svg" p-id="1417" xmlns:xlink="http://www.w3.org/1999/xlink" width="200" height="200"><path d="M22.4 0A22.4 22.4 0 0 0 0 22.4v157.056a22.4 22.4 0 0 0 22.4 22.4h157.056a22.4 22.4 0 0 0 22.4-22.4V22.4a22.4 22.4 0 0 0-22.4-22.4H22.4z m0 274.048a22.4 22.4 0 0 0-22.4 22.4v157.056a22.4 22.4 0 0 0 22.4 22.4h157.056a22.4 22.4 0 0 0 22.4-22.4V296.448a22.4 22.4 0 0 0-22.4-22.4H22.4z m0 274.048a22.4 22.4 0 0 0-22.4 22.4v157.056a22.4 22.4 0 0 0 22.4 22.4h157.056a22.4 22.4 0 0 0 22.4-22.4V570.496a22.4 22.4 0 0 0-22.4-22.4H22.4z m0 274.048a22.4 22.4 0 0 0-22.4 22.4v157.056a22.4 22.4 0 0 0 22.4 22.4h157.056a22.4 22.4 0 0 0 22.4-22.4v-157.056a22.4 22.4 0 0 0-22.4-22.4H22.4zM296.448 0a22.4 22.4 0 0 0-22.4 22.4v157.056a22.4 22.4 0 0 0 22.4 22.4h157.056a22.4 22.4 0 0 0 22.4-22.4V22.4a22.4 22.4 0 0 0-22.4-22.4H296.448z m0 274.048a22.4 22.4 0 0 0-22.4 22.4v157.056a22.4 22.4 0 0 0 22.4 22.4h157.056a22.4 22.4 0 0 0 22.4-22.4V296.448a22.4 22.4 0 0 0-22.4-22.4H296.448z m0 274.048a22.4 22.4 0 0 0-22.4 22.4v157.056a22.4 22.4 0 0 0 22.4 22.4h157.056a22.4 22.4 0 0 0 22.4-22.4V570.496a22.4 22.4 0 0 0-22.4-22.4H296.448z m0 274.048a22.4 22.4 0 0 0-22.4 22.4v157.056a22.4 22.4 0 0 0 22.4 22.4h157.056a22.4 22.4 0 0 0 22.4-22.4v-157.056a22.4 22.4 0 0 0-22.4-22.4H296.448zM548.096 22.4a22.4 22.4 0 0 1 22.4-22.4h157.056a22.4 22.4 0 0 1 22.4 22.4v157.056a22.4 22.4 0 0 1-22.4 22.4H570.496a22.4 22.4 0 0 1-22.4-22.4V22.4z m274.048 0a22.4 22.4 0 0 1 22.4-22.4h157.056a22.4 22.4 0 0 1 22.4 22.4v157.056a22.4 22.4 0 0 1-22.4 22.4h-157.056a22.4 22.4 0 0 1-22.4-22.4V22.4zM548.096 296.448a22.4 22.4 0 0 1 22.4-22.4h157.056a22.4 22.4 0 0 1 22.4 22.4v157.056a22.4 22.4 0 0 1-22.4 22.4H570.496a22.4 22.4 0 0 1-22.4-22.4V296.448z m274.048 0a22.4 22.4 0 0 1 22.4-22.4h157.056a22.4 22.4 0 0 1 22.4 22.4v157.056a22.4 22.4 0 0 1-22.4 22.4h-157.056a22.4 22.4 0 0 1-22.4-22.4V296.448zM548.096 570.496a22.4 22.4 0 0 1 22.4-22.4h157.056a22.4 22.4 0 0 1 22.4 22.4v157.056a22.4 22.4 0 0 1-22.4 22.4H570.496a22.4 22.4 0 0 1-22.4-22.4V570.496z m0 274.048a22.4 22.4 0 0 1 22.4-22.4h157.056a22.4 22.4 0 0 1 22.4 22.4v157.056a22.4 22.4 0 0 1-22.4 22.4H570.496a22.4 22.4 0 0 1-22.4-22.4v-157.056z m274.048-274.048a22.4 22.4 0 0 1 22.4-22.4h157.056a22.4 22.4 0 0 1 22.4 22.4v157.056a22.4 22.4 0 0 1-22.4 22.4h-157.056a22.4 22.4 0 0 1-22.4-22.4V570.496z m0 274.048a22.4 22.4 0 0 1 22.4-22.4h157.056a22.4 22.4 0 0 1 22.4 22.4v157.056a22.4 22.4 0 0 1-22.4 22.4h-157.056a22.4 22.4 0 0 1-22.4-22.4v-157.056z" fill="#3D3D3D" p-id="1418"></path></svg>