<?xml version="1.0" standalone="no"?><!DOCTYPE svg PUBLIC "-//W3C//DTD SVG 1.1//EN" "http://www.w3.org/Graphics/SVG/1.1/DTD/svg11.dtd"><svg t="1765444219420" class="icon" viewBox="0 0 1024 1024" version="1.1" xmlns="http://www.w3.org/2000/svg" p-id="2251" xmlns:xlink="http://www.w3.org/1999/xlink" width="48" height="48"><path d="M191.97993 830.3616c0 13.33248-5.05856 26.13248-14.04928 35.55328A46.8992 46.8992 0 0 1 143.99529 880.64a46.8992 46.8992 0 0 1-33.93536-14.72512 51.5072 51.5072 0 0 1-14.06976-35.55328v-134.20544l0.16384-4.17792a127.8976 127.8976 0 0 1-69.30432-47.77984A138.38336 138.38336 0 0 1 0.00041 561.95072v-100.61824c0-17.6128 3.2768-35.06176 9.728-51.34336a134.7584 134.7584 0 0 1 27.72992-43.52 127.81568 127.81568 0 0 1 41.53344-29.10208c15.52384-6.7584 32.17408-10.24 49.00864-10.24l133.95968-0.04096 392.2944-173.17888a122.71616 122.71616 0 0 1 61.70624-9.95328c21.03296 2.048 41.24672 9.54368 58.83904 21.79072a131.9936 131.9936 0 0 1 42.00448 48.37376c9.97376 19.51744 15.17568 41.30816 15.1552 63.44704v468.09088c0 22.1184-5.2224 43.90912-15.19616 63.3856a132.096 132.096 0 0 1-41.984 48.3328 124.416 124.416 0 0 1-58.81856 21.85216 122.85952 122.85952 0 0 1-61.66528-9.87136l-392.33536-173.19936H191.97993v134.20544z m748.25728-161.01376l55.41888 33.54624c22.9376 13.9264 30.80192 44.68736 17.59232 68.77184-3.15392 5.7344-7.35232 10.752-12.34944 14.76608-4.99712 4.03456-10.71104 6.98368-16.7936 8.704a45.8752 45.8752 0 0 1-36.4544-5.0176l-55.41888-33.5872a50.11456 50.11456 0 0 1-22.38464-30.55616 52.4288 52.4288 0 0 1 4.79232-38.1952c3.15392-5.7344 7.33184-10.752 12.32896-14.76608 5.0176-4.03456 10.73152-6.9632 16.81408-8.704a45.8752 45.8752 0 0 1 36.4544 5.03808zM695.07113 245.3504l-3.52256 1.31072-371.56864 164.00384v201.89184l371.56864 164.0448c2.60096 1.14688 5.34528 1.9456 8.15104 2.3552l4.25984 0.26624c7.84384 0 15.40096-3.03104 21.25824-8.4992 5.85728-5.44768 9.60512-12.98432 10.50624-21.13536l0.22528-3.93216V277.56544c0-2.99008-0.38912-5.9392-1.10592-8.8064l-1.39264-4.1984a32.91136 32.91136 0 0 0-15.70816-17.26464 30.67904 30.67904 0 0 0-22.69184-1.9456z m-471.08096 182.39488H128.00041c-7.84384 0-15.42144 3.03104-21.27872 8.47872a34.05824 34.05824 0 0 0-10.50624 21.15584l-0.2048 3.93216v100.63872c-0.02048 8.21248 2.8672 16.15872 8.06912 22.28224 5.20192 6.144 12.36992 10.07616 20.1728 11.03872l3.74784 0.22528h95.98976v-167.7312z m751.94368 33.52576c12.75904 0 24.9856 5.30432 33.9968 14.7456 9.0112 9.4208 14.06976 22.24128 14.06976 35.59424 0 13.35296-5.05856 26.15296-14.06976 35.59424-9.0112 9.44128-21.23776 14.7456-33.9968 14.7456H911.97481a46.96064 46.96064 0 0 1-33.9968-14.7456 51.56864 51.56864 0 0 1-14.06976-35.57376c0-13.35296 5.07904-26.15296 14.09024-35.59424 9.0112-9.4208 21.21728-14.7456 33.97632-14.7456h63.97952v-0.02048z m37.2736-209.69472a52.4288 52.4288 0 0 1 4.8128 38.1952 50.09408 50.09408 0 0 1-22.36416 30.55616l-55.41888 33.54624a45.8752 45.8752 0 0 1-36.4544 5.0176 47.18592 47.18592 0 0 1-16.7936-8.68352 49.664 49.664 0 0 1-12.34944-14.76608 52.4288 52.4288 0 0 1-4.77184-38.17472 50.11456 50.11456 0 0 1 22.36416-30.53568l55.41888-33.54624a45.8752 45.8752 0 0 1 36.4544-5.0176c6.08256 1.69984 11.79648 4.64896 16.7936 8.68352 4.99712 4.01408 9.216 9.03168 12.34944 14.7456h-0.04096z" p-id="2252"></path></svg>