<?xml version="1.0" standalone="no"?><!DOCTYPE svg PUBLIC "-//W3C//DTD SVG 1.1//EN" "http://www.w3.org/Graphics/SVG/1.1/DTD/svg11.dtd"><svg t="1743402383411" class="icon" viewBox="0 0 1024 1024" version="1.1" xmlns="http://www.w3.org/2000/svg" p-id="4894" xmlns:xlink="http://www.w3.org/1999/xlink" width="200" height="200"><path d="M512 624c25.6 0 48 9.6 64 25.6 3.2 3.2 3.2 6.4 3.2 9.6 0 3.2-3.2 6.4-3.2 9.6l-54.4 54.4c-3.2 3.2-9.6 3.2-16 0l-54.4-54.4c-3.2-3.2-3.2-6.4-3.2-9.6 0-3.2 0-6.4 3.2-6.4 16-19.2 38.4-28.8 60.8-28.8z m0-156.8c64 0 128 25.6 172.8 73.6 3.2 3.2 3.2 6.4 3.2 9.6s0 6.4-3.2 9.6l-54.4 54.4c-3.2 3.2-9.6 6.4-16 3.2-54.4-57.6-147.2-57.6-201.6 0-3.2 3.2-9.6 6.4-16 0l-3.2-3.2-51.2-54.4c-3.2-3.2-3.2-6.4-3.2-9.6 0-3.2 0-6.4 3.2-6.4 44.8-51.2 105.6-76.8 169.6-76.8z m0-156.8c105.6 0 208 41.6 281.6 118.4 3.2 3.2 6.4 9.6 0 16l-54.4 54.4c-3.2 3.2-9.6 6.4-16 3.2-54.4-57.6-131.2-89.6-211.2-89.6s-156.8 32-211.2 89.6c-3.2 3.2-9.6 6.4-16 0l-3.2-3.2-51.2-54.4c-6.4-3.2-6.4-9.6-3.2-16C304 352 406.4 310.4 512 310.4z" p-id="4895" fill="#33d399"></path></svg>