<?xml version="1.0" standalone="no"?><!DOCTYPE svg PUBLIC "-//W3C//DTD SVG 1.1//EN" "http://www.w3.org/Graphics/SVG/1.1/DTD/svg11.dtd"><svg t="1765436889334" class="icon" viewBox="0 0 1024 1024" version="1.1" xmlns="http://www.w3.org/2000/svg" p-id="4018" xmlns:xlink="http://www.w3.org/1999/xlink" width="48" height="48"><path d="M772.8 175.808h-132.032l-59.968-61.12v-0.064l-11.968-12.16H352.768l-11.968 12.16v0.064l-59.968 61.12H148.8c-39.808 0-72 32.896-72 73.472v440.512c0 40.576 32.192 73.472 72 73.472H652.8V550.4h192V249.28c0-40.576-32.192-73.472-72-73.472zM469.76 638.08a160.704 160.704 0 1 1 0-321.28 160.768 160.768 0 1 1 0 321.28z m107.2-160.64a107.136 107.136 0 1 1-214.4 0 107.136 107.136 0 0 1 214.4 0z m135.872-130.304a36.416 36.416 0 0 1-36.032-36.672c0-20.288 16.064-36.736 36.032-36.736a36.48 36.48 0 0 1 36.032 36.736 36.416 36.416 0 0 1-36.032 36.672z" p-id="4019"></path><path d="M716.8 929.792h75.776v-89.6h134.656v-63.488h-134.656v-98.816h157.696V614.4H716.8v315.392z" p-id="4020"></path></svg>