<?xml version="1.0" standalone="no"?><!DOCTYPE svg PUBLIC "-//W3C//DTD SVG 1.1//EN" "http://www.w3.org/Graphics/SVG/1.1/DTD/svg11.dtd"><svg t="1743402391895" class="icon" viewBox="0 0 1024 1024" version="1.1" xmlns="http://www.w3.org/2000/svg" p-id="5304" xmlns:xlink="http://www.w3.org/1999/xlink" width="200" height="200"><path d="M665.6 384l-153.6 51.2V307.2H51.2v409.6h460.8v-128l153.6 51.2v-256z m-230.4 256h-307.2v-256h307.2v256zM916.48 716.8c35.84-61.44 56.32-133.12 56.32-204.8s-20.48-143.36-56.32-204.8c-30.72-51.2-71.68-97.28-122.88-133.12L870.4 102.4h-204.8v204.8l76.8-76.8c46.08 30.72 81.92 66.56 107.52 112.64 30.72 51.2 46.08 107.52 46.08 163.84s-15.36 117.76-46.08 163.84c-25.6 46.08-66.56 87.04-107.52 112.64L665.6 716.8v204.8h204.8l-71.68-71.68c46.08-35.84 87.04-81.92 117.76-133.12z" p-id="5305" fill="#33d399"></path></svg>