<?xml version="1.0" standalone="no"?><!DOCTYPE svg PUBLIC "-//W3C//DTD SVG 1.1//EN" "http://www.w3.org/Graphics/SVG/1.1/DTD/svg11.dtd"><svg t="1765436911536" class="icon" viewBox="0 0 1024 1024" version="1.1" xmlns="http://www.w3.org/2000/svg" p-id="5624" xmlns:xlink="http://www.w3.org/1999/xlink" width="48" height="48"><path d="M200 236.672q36.224 8.96 74.24 15.744 62.72-58.176 140.672-79.68-12.8 24.768-23.808 57.6-5.76 17.472-10.752 36.032 32 2.816 65.28 4.224 2.944-10.24 6.208-20.032 16-47.808 35.456-72.576Q501.504 160 512 160t24.704 17.984q19.52 24.768 35.456 72.576 3.264 9.856 6.208 20.032 33.28-1.408 65.28-4.224-4.928-18.56-10.752-36.032-10.944-32.832-23.808-57.6 77.952 21.504 140.672 79.68 38.016-6.72 74.24-15.744-8.576-9.6-17.856-18.816Q684.288 96 512 96T217.856 217.856q-9.28 9.28-17.856 18.816z m624 550.656q-36.224-8.96-74.24-15.744-62.72 58.176-140.672 79.68 12.8-24.768 23.808-57.6 5.76-17.472 10.752-36.032-32-2.816-65.28-4.224-2.944 10.24-6.208 20.032-16 47.808-35.456 72.576-14.208 17.984-24.704 17.984t-24.704-17.984q-19.52-24.768-35.456-72.576-3.264-9.856-6.208-20.032-33.28 1.408-65.28 4.224 4.928 18.56 10.752 36.032 10.944 32.832 23.808 57.6-77.952-21.504-140.672-79.68-38.016 6.72-74.24 15.744 8.576 9.6 17.856 18.816Q339.712 928 512 928t294.144-121.856q9.28-9.28 17.856-18.816z" p-id="5625"></path><path d="M64 768V256q224 64 448 64t448-64v512q-224-64-448-64t-448 64z m522.88-176.896q19.712 27.52 56.064 27.52 36.608 0 56.192-27.52 19.584-27.52 19.584-78.976t-19.584-79.104q-19.584-27.648-56.192-27.648-36.352 0-56.064 27.648-19.712 27.648-19.712 79.104t19.712 78.976z m176-100.352q10.368 6.016 23.68 6.016 13.056 0 23.552-6.016t16.384-16.512q5.888-10.496 5.888-23.04 0-12.8-5.888-23.296-5.888-10.496-16.384-16.512t-23.552-6.016q-13.312 0-23.808 6.016t-16.256 16.512q-5.76 10.496-5.76 23.296 0 12.544 5.888 23.04 5.888 10.496 16.256 16.512z m-416.384 4.736q-12.8-7.936-27.648-7.68l-0.512-1.28 46.592-40.192V408.96H240.256v41.984h65.28l-46.592 45.824 24.576 31.488q5.376-3.328 9.344-4.736 3.968-1.408 8.576-1.408 13.056 0 20.736 7.552 7.68 7.552 7.68 20.352 0 12.544-7.552 20.096t-19.84 7.552q-23.296 0-30.976-23.808l-41.216 14.336q8.96 23.296 27.392 36.864 18.432 13.568 45.056 13.568 20.736 0 37.12-8.704 16.384-8.704 25.472-24.32 9.088-15.616 9.088-35.584 0-18.176-7.552-32.384-7.552-14.208-20.352-22.144zM431.36 609.536q17.024 9.088 38.528 9.088 22.016 0 39.168-9.088t26.88-25.728q9.728-16.64 9.728-38.144 0-19.968-8.576-35.456-8.576-15.488-22.784-23.936-14.208-8.448-30.848-8.448-8.96 0-17.152 3.328l-0.768-0.768 44.288-71.424h-53.248l-35.84 61.184q-14.08 24.32-19.84 41.472t-5.76 35.84q0 20.48 9.6 36.736 9.6 16.256 26.624 25.344z m369.92-142.848q-6.016 6.272-14.72 6.272-8.96 0-14.976-6.272t-6.016-15.488q0-9.472 6.016-15.488t14.976-6.016q8.96 0 14.848 6.144t5.888 15.616q0 8.96-6.016 15.232z m-136.192 93.184q-7.808 16.768-22.144 16.768-14.336 0-22.144-16.768-7.808-16.768-7.808-47.744t7.808-47.872q7.808-16.896 22.144-16.896 14.336 0 22.144 16.768 7.808 16.768 7.808 48 0 30.976-7.808 47.744z m-173.44 9.472q-8.192 8.576-20.992 8.576t-21.248-8.576q-8.448-8.576-8.448-21.888 0-12.544 8.704-20.864t22.016-8.32q12.288 0 20.224 8.192t7.936 20.992q0 13.312-8.192 21.888z" p-id="5626"></path></svg>