<?xml version="1.0" standalone="no"?><!DOCTYPE svg PUBLIC "-//W3C//DTD SVG 1.1//EN" "http://www.w3.org/Graphics/SVG/1.1/DTD/svg11.dtd"><svg t="1765436863976" class="icon" viewBox="0 0 1024 1024" version="1.1" xmlns="http://www.w3.org/2000/svg" p-id="2708" xmlns:xlink="http://www.w3.org/1999/xlink" width="48" height="48"><path d="M223.744 920.064c-3.072 4.608-20.992 35.84-10.24 65.024 6.144 16.896 20.48 28.672 41.984 35.84h2.048c17.408 3.072 55.808-2.048 74.752-39.424l116.224-177.152 0.512-1.024s4.096-10.24 10.752-20.992c8.704-14.336 14.336-17.92 15.872-18.432l0.512 0.512 85.504 95.232h1.536c3.072 5.12 14.848 28.16 14.848 119.296-1.024 4.608-1.536 14.848 6.144 25.088 9.728 13.312 29.184 19.456 57.344 19.456h2.56c7.68 0 28.16-1.024 40.96-13.824 7.168-7.168 11.264-16.384 11.264-27.648v-74.24c0-1.536-2.048-36.352-18.944-88.576-15.36-47.104-46.592-117.248-108.544-188.416v-34.816l19.456-107.008c4.096-4.096 10.24-8.192 13.824-8.192 1.024 0 2.048 0.512 3.072 2.048 1.024 12.8 10.24 44.544 71.168 75.776l0.512 0.512 64.512 24.576c3.072 1.024 33.28 11.264 52.224 1.024 7.168-3.584 12.288-9.728 14.336-17.408 2.048-5.12 9.728-26.112 2.56-43.008-3.584-7.68-9.728-13.824-17.92-16.896l-62.976-34.816c-6.656-5.12-69.12-55.808-65.536-116.736v-3.072c0-1.024-3.584-22.528-17.408-47.104-17.408-32.256-44.032-54.272-76.288-65.024-8.704-6.144-45.568-29.696-90.624-11.264h-0.512L289.28 318.976h-0.512c-3.072 2.048-32.768 19.968-32.768 46.08l-9.728 155.648c-0.512 4.096-2.048 25.6 9.216 38.912 5.632 6.144 13.312 9.728 22.528 9.728h2.048l2.048-0.512c0.512 0 11.264-3.584 22.528-9.216 11.776-5.632 27.648-14.848 28.16-28.672l11.264-108.544c2.048-3.072 9.728-11.776 30.72-25.088l1.024-0.512 30.72-24.576c3.072-2.048 7.168-4.096 10.24-5.632v1.024c-0.512 1.024-2.048 3.584-3.072 5.632-13.312 24.576-54.784 99.84-55.296 152.064l-4.608 140.288-130.048 254.464zM535.04 115.2C535.04 49.664 584.704 0 650.24 0c65.024 0 115.2 52.736 115.2 115.2 0 65.024-52.736 115.2-115.2 115.2-65.536-0.512-115.2-50.176-115.2-115.2z" fill="" p-id="2709"></path></svg>