<?xml version="1.0" standalone="no"?><!DOCTYPE svg PUBLIC "-//W3C//DTD SVG 1.1//EN" "http://www.w3.org/Graphics/SVG/1.1/DTD/svg11.dtd"><svg t="1765437300211" class="icon" viewBox="0 0 1024 1024" version="1.1" xmlns="http://www.w3.org/2000/svg" p-id="1878" xmlns:xlink="http://www.w3.org/1999/xlink" width="48" height="48"><path d="M184.32 184.32v655.36h655.36V184.32H184.32z m0-81.92h655.36a81.92 81.92 0 0 1 81.92 81.92v655.36a81.92 81.92 0 0 1-81.92 81.92H184.32a81.92 81.92 0 0 1-81.92-81.92V184.32a81.92 81.92 0 0 1 81.92-81.92z" fill="#000000" p-id="1879"></path><path d="M410.2144 522.99776l-210.39104 301.056-67.13344-46.94016 224.0512-320.57344a61.44 61.44 0 0 1 92.73344-9.29792l413.24544 393.60512-56.50432 59.31008-395.9808-377.15968z" fill="#000000" p-id="1880"></path><path d="M769.37216 660.33664l-66.3552 92.5696-66.58048-47.75936 80.0768-111.67744a61.44 61.44 0 0 1 96.768-3.97312l113.82784 103.95648-55.25504 60.47744-102.48192-93.5936z" fill="#000000" p-id="1881"></path><path d="M614.4 430.08m-61.44 0a61.44 61.44 0 1 0 122.88 0 61.44 61.44 0 1 0-122.88 0Z" p-id="1882"></path></svg>