<?xml version="1.0" standalone="no"?><!DOCTYPE svg PUBLIC "-//W3C//DTD SVG 1.1//EN" "http://www.w3.org/Graphics/SVG/1.1/DTD/svg11.dtd"><svg t="1743402365631" class="icon" viewBox="0 0 1024 1024" version="1.1" xmlns="http://www.w3.org/2000/svg" p-id="4281" xmlns:xlink="http://www.w3.org/1999/xlink" width="200" height="200"><path d="M772.338983 138.847458a251.661017 251.661017 0 0 0-37.402034 2.776949A321.084746 321.084746 0 0 0 156.20339 247.842712 199.59322 199.59322 0 0 0 0 442.576271a199.59322 199.59322 0 0 0 199.59322 199.593221h572.745763a251.661017 251.661017 0 0 0 0-503.322034z m0 407.864406H199.59322a104.135593 104.135593 0 0 1-22.823051-205.754576l58.576272-13.016949 13.624406-58.402712a225.627119 225.627119 0 0 1 406.823051-74.456949l33.670509 49.811525 59.530847-8.677966A162.538305 162.538305 0 0 1 772.338983 234.305085a156.20339 156.20339 0 1 1 0 312.406779zM112.813559 694.237288h69.423729v190.915254h-69.423729zM295.050847 754.983051h69.423729v190.915254h-69.423729zM477.288136 833.084746h69.423728v190.915254h-69.423728zM659.525424 763.661017h69.423729v190.915254h-69.423729zM841.762712 694.237288h69.423729v190.915254h-69.423729z" p-id="4282" fill="#33d399"></path></svg>