<?xml version="1.0" encoding="UTF-8"?>
<svg width="176px" height="99px" viewBox="0 0 176 99" version="1.1" xmlns="http://www.w3.org/2000/svg" xmlns:xlink="http://www.w3.org/1999/xlink">
    <title>编组 49</title>
    <defs>
        <path d="M4.50598992,11.9874417 L4.50598992,13.5049111 C2.85550285,13.5049111 1.51746945,14.8414818 1.51746945,16.4898037 C1.51746945,18.1381257 2.85550285,19.4746963 4.50598992,19.4746963 C6.08115756,19.4746963 7.37107821,18.2571543 7.48508925,16.712585 L7.49328098,16.4898037 L9.01075043,16.4898037 C9.01075043,18.9767299 6.99402329,20.9921658 4.50598992,20.9921658 C2.01779894,20.9921658 7.63833441e-14,18.9765727 7.63833441e-14,16.4898037 C7.63833441e-14,14.091848 1.87624416,12.1320136 4.24126849,11.995084 L4.50598992,11.9874417 Z M16.4940101,11.9874417 C18.9822011,11.9874417 21,14.0030348 21,16.4898037 C21,18.9765727 18.9822011,20.9921658 16.4940101,20.9921658 C14.094835,20.9921658 12.1339027,19.1181189 11.9968962,16.7543856 L11.9892496,16.4898037 L13.506719,16.4898037 C13.506719,18.138437 14.8438345,19.4746963 16.4940101,19.4746963 C18.1444972,19.4746963 19.4825305,18.1381257 19.4825305,16.4898037 C19.4825305,14.9164055 18.263372,13.6270617 16.7170435,13.5130994 L16.4940101,13.5049111 L16.4940101,11.9874417 Z M16.4133963,3.76147079 C16.8721686,3.76147079 17.2439529,4.12996104 17.2439529,4.58466856 C17.2439529,4.91536494 17.0473362,5.20000003 16.7625399,5.33109753 L16.7625399,5.33109753 C16.2894682,5.54368805 16.0439952,5.97595546 15.9272168,6.09760448 C15.9272168,6.09760448 15.4040972,6.83222286 14.7689657,7.64361005 C13.9026606,8.75144291 13.3461757,9.76006686 13.3509422,10.7497939 C13.3557086,11.7383398 14.0694869,12.7682228 14.8702531,13.7473203 C15.3337918,14.3118663 15.3433248,14.4913872 16.1154922,15.2201002 C16.3121089,15.4067075 16.4741687,15.5307186 16.6981926,15.6429192 C17.0163542,15.7586629 17.2439529,16.0610139 17.2439529,16.4153314 C17.2439529,16.870039 16.8721686,17.2385292 16.4133963,17.2385292 C16.0070551,17.2385292 15.6698276,16.9491699 15.597139,16.567688 C15.4458038,16.3362005 15.2074805,16.0751866 15.0835524,15.9712534 C14.9167261,15.801181 14.5103849,15.5047353 14.050421,15.1386072 C12.8433136,14.1748635 11.5277691,13.4555989 10.5387275,13.4555989 C9.54968594,13.4555989 8.61665032,14.0532145 7.60496801,14.7571253 C7.36306989,14.9248356 6.89953112,15.2744289 6.29419,15.7279554 C5.68765726,16.1814819 5.33136397,16.8003565 5.33136397,16.8003565 L5.33136397,16.8003565 L5.32421427,16.7920891 C5.18598677,17.0578273 4.90714854,17.2385292 4.58660373,17.2385292 C4.12783143,17.2385292 3.75604712,16.870039 3.75604712,16.4153314 C3.75604712,16.0338495 4.01939434,15.7126016 4.37568763,15.6204791 C4.87854975,15.3736379 4.82135216,15.477571 5.26939992,14.9886128 C5.73532192,14.4783955 6.29180677,13.7260613 6.52178873,13.4036323 C7.35353696,12.2402897 7.79205179,11.3663064 7.79205179,10.6446797 C7.79205179,9.60889137 7.21292623,8.85891923 6.61830965,7.97430642 C6.40739356,7.66132592 5.95696257,7.08615044 5.50414834,6.52278554 C5.05371735,5.96178276 4.60805283,5.52124794 4.17787932,5.30511424 L4.17787932,5.30511424 C3.92763988,5.16220616 3.75604712,4.89292483 3.75604712,4.58466856 C3.75604712,4.12996104 4.12783143,3.76147079 4.58660373,3.76147079 C4.99413653,3.76147079 5.33255558,4.05319224 5.40286095,4.43703625 C5.57445371,4.89764906 6.52178873,5.69722566 6.52178873,5.69722566 C6.52178873,5.69722566 7.53466265,6.45782732 7.79205179,6.62789975 C9.73438648,7.90344291 12.1795833,7.61526464 13.5106188,6.52278554 C14.0945108,6.04327579 15.0835524,5.28385519 15.0835524,5.28385519 C15.202714,5.17874098 15.5161091,4.76891368 15.5852229,4.53742622 C15.6090552,4.10515881 15.9713066,3.76147079 16.4133963,3.76147079 Z M4.50598992,0.00783419771 C6.90516496,0.00783419771 8.86609734,1.8818811 9.00310377,4.24561439 L9.01075043,4.51019626 L7.49328098,4.51019626 C7.49328098,2.86156298 6.15616554,1.52530365 4.50598992,1.52530365 C2.85550285,1.52530365 1.51746945,2.86187433 1.51746945,4.51019626 C1.51746945,6.08359447 2.73662798,7.37293833 4.28295652,7.48690059 L4.50598992,7.49508887 L4.50598992,9.01255833 C2.01779894,9.01255833 7.63833441e-14,6.99696521 7.63833441e-14,4.51019626 C7.63833441e-14,2.02342732 2.01779894,0.00783419771 4.50598992,0.00783419771 Z M16.4940101,0.00783419771 C18.9822011,0.00783419771 21,2.02342732 21,4.51019626 C21,6.90815203 19.1237558,8.8679864 16.7587315,9.00491595 L16.4940101,9.01255833 L16.4940101,7.49508887 C18.1444972,7.49508887 19.4825305,6.15851819 19.4825305,4.51019626 C19.4825305,2.86187433 18.1444972,1.52530365 16.4940101,1.52530365 C14.9188424,1.52530365 13.6289218,2.74284573 13.5149108,4.28741499 L13.506719,4.51019626 L11.9892496,4.51019626 C11.9892496,2.0232701 14.0059767,0.00783419771 16.4940101,0.00783419771 Z" id="path-1"></path>
        <path d="M14.7166612,10.050673 L14.9287111,10.0656833 L14.9287111,10.0656833 L15.3540349,10.0879366 C15.6371832,10.1061672 15.9182701,10.1403175 16.1897369,10.2451649 C16.259708,10.2708525 16.3296791,10.2892008 16.4033329,10.3075491 C16.8305248,10.4176388 17.2613995,10.5093802 17.6775434,10.6414879 C17.9795239,10.736899 18.2667737,10.8800157 18.5577061,11.0047841 C18.8044463,11.1112041 19.0585519,11.2029456 19.2905613,11.3387229 C19.7103878,11.5882596 20.1302144,11.841466 20.5168968,12.1350387 C20.9772329,12.4836562 21.3786461,12.9019972 21.6585305,13.4157493 C22.0120686,14.0652787 22.1188666,14.7368261 21.8463476,15.456079 C21.5149056,16.3331273 20.8888484,16.9532995 20.1375798,17.4597122 C19.7251186,17.7386063 19.2795132,17.977134 18.8302251,18.1936438 C18.3514755,18.4248323 17.8579951,18.6303331 17.3571494,18.802807 C16.9299575,18.9495933 16.484352,19.0486741 16.046112,19.1477549 C15.5857759,19.2505053 15.121757,19.3422467 14.6577382,19.4083006 C14.0022195,19.500042 13.3467008,19.5881138 12.6874994,19.6358194 C11.1591834,19.7422395 9.63086737,19.7202215 8.10991669,19.5404083 C7.27762891,19.4449972 6.44902383,19.2835322 5.63514951,19.0853707 C5.01277502,18.9349147 4.40881399,18.7000566 3.81221833,18.4725378 C3.38134369,18.3074032 2.95415175,18.116581 2.54905594,17.8927319 C1.65047975,17.3936584 0.836605434,16.7808255 0.332076992,15.8597414 C0.00431765627,15.2579175 -0.109845718,14.6193971 0.122163705,13.933171 C0.350490431,13.2506147 0.777682399,12.7185143 1.32640309,12.281825 C1.7314989,11.9588951 2.16973894,11.6800011 2.60797895,11.4047767 C2.83998837,11.2616601 3.105142,11.1699186 3.35556488,11.0634986 C3.66491078,10.9313909 3.97425668,10.7992832 4.28728525,10.6855238 C4.56716964,10.5827734 4.8507367,10.4836926 5.14166916,10.4139691 C5.61673607,10.2965401 6.09548568,10.1974593 6.57791797,10.1093875 C6.77310049,10.0726909 6.98301378,10.0763606 7.181879,10.0910392 C7.25921547,10.0983786 7.33286925,10.1864503 7.40652305,10.2378255 C7.35496541,10.3038794 7.31445581,10.3919512 7.24816741,10.4359871 C7.15610017,10.4910319 7.04193682,10.5167196 6.93513883,10.5424072 C6.54845646,10.6378183 6.15809139,10.7148811 5.77877439,10.8323101 C5.39945739,10.9497392 5.03118848,11.1001952 4.66660225,11.2506511 C4.42354476,11.3497319 4.18048727,11.456152 3.95584322,11.5882597 C3.09777663,12.0946724 2.32809456,12.689157 2.04084482,13.7093219 C1.96350835,13.9882159 1.97823911,14.2634402 2.05557556,14.5423342 C2.21761388,15.1221402 2.56746938,15.5771778 3.00939209,15.9698312 C3.49550707,16.3991811 4.03317969,16.744129 4.63714074,16.9789871 C5.19322683,17.1954969 5.74931289,17.4266853 6.32381241,17.5954896 C6.80992739,17.7422759 7.31445581,17.8303477 7.81530156,17.9147498 C8.8611853,18.0872237 9.91443443,18.2046528 11.0192412,18.1496079 C12.1424614,18.2266708 13.2877778,18.0541968 14.4257288,17.8817229 C14.9376226,17.8046601 15.4384683,17.6431952 15.9393141,17.5037481 C16.2928522,17.4046674 16.6463904,17.3019169 16.9851978,17.1588003 C17.9463797,16.7588076 18.8486385,16.2560645 19.5115226,15.4193825 C19.7656282,15.0964526 19.9350319,14.7258171 19.9939549,14.3258244 C20.0860222,13.7129916 19.8319166,13.2029091 19.4636477,12.7368626 C19.1506191,12.3368698 18.7418406,12.0506365 18.3183313,11.7754122 C17.7475145,11.3974374 17.1140919,11.1515704 16.4806694,10.9167123 C16.0829389,10.7662563 15.655747,10.6891935 15.2432858,10.5791037 L14.851284,10.4790716 C14.7862231,10.4608592 14.7215715,10.4408799 14.6577382,10.4176388 C14.5877671,10.3919512 14.5398921,10.3002097 14.4809691,10.2378255 C14.5619883,10.1717717 14.6466901,10.0433337 14.7166612,10.050673 Z M14.5392815,11.5749711 C14.7649268,11.5786756 14.9180433,11.6972216 14.9744547,11.9009724 C15.0872773,12.3084742 15.1880118,12.7159759 15.3048639,13.1197731 C15.4378335,13.5828433 15.5788618,14.0459134 15.7198902,14.5089836 C15.8125659,14.8238713 15.9213592,15.1350544 15.9979175,15.4499421 C16.014035,15.5092151 15.9334473,15.6129428 15.8649479,15.6573975 C15.8004778,15.6981477 15.6957139,15.687034 15.6110969,15.6907386 C14.946249,15.6944432 14.2814011,15.6981477 13.6165532,15.6981477 C13.2942027,15.6981477 13.2136151,15.6203519 13.201527,15.323987 C13.1854094,14.8794397 13.1652625,14.4348923 13.1451156,13.990345 C13.1330275,13.7495485 13.0443811,13.6717527 12.7824713,13.6717527 C11.6623034,13.6680482 10.5421354,13.6680482 9.41793806,13.6717527 C9.14796951,13.6717527 9.03514686,13.7606622 9.00291179,14.0051632 C8.94650047,14.4571197 8.8941185,14.9127807 8.84576593,15.3684418 C8.82158964,15.6055337 8.74906078,15.6944432 8.48312163,15.6944432 C7.74574488,15.7018523 7.00433874,15.7018523 6.26696199,15.6944432 C6.00505222,15.6907386 5.95267026,15.5758972 6.03728726,15.349919 C6.17831559,14.9572355 6.30322642,14.5608474 6.42007849,14.1644594 C6.63363568,13.4309563 6.83107536,12.6974531 7.0365738,11.96395 C7.11313205,11.6861079 7.27833667,11.5712665 7.58456962,11.5712665 L8.79338397,11.5712665 C9.09961694,11.5712665 9.18826331,11.6490623 9.17617519,11.9380181 C9.16811644,12.115837 9.13991076,12.2936559 9.12782262,12.4714749 C9.11170508,12.7419079 9.20438087,12.8308173 9.49449629,12.8308173 L11.0256611,12.8308173 L11.0256611,12.8530447 L12.5769729,12.8530447 C12.9194703,12.8530447 13.0242342,12.749317 13.0000579,12.4344293 C12.9879697,12.2566103 12.9597641,12.0787914 12.9557347,11.9009724 C12.9517053,11.6749942 13.0322929,11.5860847 13.2700264,11.5786756 C13.6931114,11.5675619 14.1161965,11.5638574 14.5392815,11.5749711 Z M12.4444419,3.7 C12.6617206,3.70366967 12.7132783,3.75871453 12.7132783,3.97522434 C12.7095956,4.47796748 12.7059129,4.97704096 12.7059129,5.47978408 C12.7059129,5.82473191 12.7390571,5.85775883 13.0852299,5.85775883 C13.593441,5.85775883 14.1053348,5.85408919 14.6135459,5.8614285 C14.8639688,5.86509816 14.9634014,6.0265631 14.8676515,6.25775155 C14.849238,6.30178744 14.8271419,6.34582334 14.7976804,6.38618957 C14.4625557,6.83755748 14.1311136,7.29259507 13.7959889,7.74396299 C13.1588837,8.60266293 12.5254611,9.46503254 11.8883559,10.3237325 C11.6452984,10.6540017 11.3948755,10.9769316 11.14077,11.2961918 C11.1149911,11.3255491 11.0081931,11.3402277 10.9787316,11.3145401 C10.8977125,11.2448166 10.8351068,11.1530751 10.7688183,11.0650034 C10.3489917,10.4925367 9.93284787,9.9200701 9.5130213,9.34760347 C8.77648345,8.34945654 8.03258022,7.35497927 7.30340774,6.349493 C7.23711936,6.25775155 7.21134053,6.09261694 7.24448473,5.98252721 C7.26289817,5.92014303 7.43230186,5.86509816 7.53541717,5.8614285 C8.03994561,5.84674986 8.54079135,5.85408917 9.04531977,5.85775883 C9.33993491,5.85775883 9.38412718,5.82106227 9.38412718,5.52015031 C9.38412718,5.01373753 9.38412718,4.50365507 9.38044448,3.99724229 C9.38044448,3.75871453 9.42831945,3.70366967 9.66769424,3.70366967 L9.66769424,3.70366967 L11.0487027,3.70366967 C11.5164043,3.70366967 11.9804231,3.7 12.4444419,3.7 Z M12.5850316,1.7 C12.8388827,1.7 12.895294,1.75556842 12.8912646,1.98154666 C12.8872352,2.23345682 12.8912646,2.485367 12.8832058,2.74098172 C12.8791764,2.95584628 12.8066476,3.00771013 12.5729435,3.00771013 L9.59523082,3.00771013 C9.30108599,3.00771013 9.24064527,2.95584628 9.24064527,2.6854133 L9.23661591,1.96302386 L9.23661591,1.96302386 C9.23661591,1.75556844 9.29302724,1.70370457 9.52673135,1.7 L10.3038982,1.70138921 L10.3038982,1.70138921 L11.0780431,1.7 L11.0780431,1.7 L12.5850316,1.7 Z M9.75640608,0 L10.4278017,0.0032414947 L10.4278017,0.0032414947 L12.5971198,0.00370454677 C12.8348533,0.00370454677 12.895294,0.0629775338 12.8872352,0.277842093 C12.8832058,0.381569815 12.8832058,0.489002084 12.8791764,0.592729784 C12.8711177,0.818708027 12.7744125,0.915026612 12.5286203,0.940958548 L12.4480327,0.944200045 L12.4480327,0.944200045 L9.75237669,0.944663116 C9.36152671,0.944663116 9.23661591,0.829821711 9.23661591,0.470479263 C9.23661591,0 9.23661591,0 9.75640608,0 Z" id="path-3"></path>
    </defs>
    <g id="航线规划" stroke="none" stroke-width="1" fill="none" fill-rule="evenodd">
        <g id="航点航线绘制0723" transform="translate(-9018.000000, -5380.000000)">
            <g id="编组-27" transform="translate(8922.000000, 5277.000000)">
                <g id="7提示/tips/白右1" transform="translate(69.000000, 47.000000)">
                    <g id="编组-49" transform="translate(27.000000, 58.000000)">
                        <g id="编组-47">
                            <path d="M18,69 L18,0 L163,1 L163,31" id="路径-2" stroke="#FFFFFF" stroke-width="2" stroke-dasharray="2,2"></path>
                            <g id="编组" transform="translate(152.000000, 18.000000)">
                                <g id="编组" transform="translate(1.500000, 1.500000)">
                                    <mask id="mask-2" fill="white">
                                        <use xlink:href="#path-1"></use>
                                    </mask>
                                    <use id="形状结合" fill="#FEFEFE" fill-rule="nonzero" xlink:href="#path-1"></use>
                                    <g mask="url(#mask-2)" id="1颜色/ic色/nor">
                                        <g transform="translate(-40.500000, -40.500000)">
                                            <rect id="矩形" fill="#FFFFFF" x="0" y="0" width="102" height="102"></rect>
                                        </g>
                                    </g>
                                </g>
                            </g>
                            <g id="编组-22备份-2" transform="translate(0.000000, 70.300000)">
                                <g id="编组" transform="translate(7.000000, 0.000000)">
                                    <mask id="mask-4" fill="white">
                                        <use xlink:href="#path-3"></use>
                                    </mask>
                                    <use id="形状结合" fill="#000000" fill-rule="nonzero" xlink:href="#path-3"></use>
                                    <g mask="url(#mask-4)" id="1颜色/ic色/nor">
                                        <g transform="translate(-22.000000, -26.300000)">
                                            <rect id="矩形" fill="#FFFFFF" x="0" y="0" width="68" height="68"></rect>
                                        </g>
                                    </g>
                                </g>
                            </g>
                        </g>
                        <g id="编组-48" transform="translate(28.000000, 0.000000)">
                            <line x1="38.2156863" y1="0.5" x2="59.7843137" y2="0.5" id="直线-6" stroke="#00D690" stroke-linecap="square"></line>
                            <polygon id="三角形" fill="#00D690" points="57.6666667 1 61.3333333 7 54 7"></polygon>
                            <polygon id="三角形备份" fill="#00D690" transform="translate(57.666667, 83.000000) scale(1, -1) translate(-57.666667, -83.000000) " points="57.6666667 80 61.3333333 86 54 86"></polygon>
                            <line x1="57.5" y1="8.5" x2="57.5" y2="81.5" id="直线" stroke="#00D690" stroke-linecap="square" stroke-dasharray="1,2"></line>
                            <line x1="0.5" y1="86.5" x2="59.7843137" y2="86.5" id="直线-6备份" stroke="#00D690" stroke-linecap="square"></line>
                        </g>
                        <g id="编组" transform="translate(34.000000, 35.000000)" fill="#FFFFFF" fill-rule="nonzero">
                            <path d="M18.4659017,0 C20.5698861,0 22.5656746,0.932456568 23.9152572,2.54657466 C25.2648398,4.16069275 25.8292952,6.29011196 25.4564616,8.36079918 L25.4138183,8.57006839 L25.5208333,8.58333336 C28.7177239,9.02197777 31.134664,11.6983438 31.2462158,14.9232585 L31.25,15.15153 C31.2518358,16.3243602 30.9413097,17.4765231 30.3503418,18.4895834 L30.2802734,18.6003825 L30.4526367,18.8494059 C31.5275415,20.4595689 32.1298512,22.3386697 32.1912842,24.2736817 L32.1969808,24.6211751 C32.1969808,30.3740641 27.5331217,35.0378418 21.7803141,35.0378418 C21.2597448,35.0344294 20.8395408,34.6114619 20.8395408,34.0908814 C20.8395408,33.5703008 21.2597448,33.1473333 21.7803141,33.1439209 C26.4872489,33.143876 30.302956,29.3281507 30.3029785,24.6212158 C30.3065004,22.6559664 29.6269521,20.7505732 28.3806152,19.2310791 C28.1006676,18.8891862 28.094386,18.399127 28.3654785,18.0501709 C29.5153253,16.5647375 29.6783055,14.5400289 28.780866,12.8897979 C27.8834265,11.2395668 26.0953003,10.2759218 24.22347,10.4337565 C23.8925805,10.4628804 23.5706224,10.3165072 23.3750333,10.0480282 C23.1794441,9.77954922 23.1388223,9.42822031 23.267985,9.12219241 C23.8866187,6.48392683 22.3788709,3.81207035 19.8006632,2.97780532 C17.2224555,2.1435403 14.4352766,3.42563007 13.3910726,5.92618818 C13.2837485,6.39130775 12.8470242,6.70383913 12.3721517,6.65535485 C10.9154426,6.50481401 9.46266143,6.97450604 8.36979195,7.94933941 C7.27692247,8.92417279 6.64495467,10.3140651 6.62874348,11.7784424 C6.62438926,12.1760579 6.37209832,12.5286021 5.99715169,12.6610108 C3.66405441,13.4865293 2.05181223,15.6285264 1.90411157,18.0989532 C1.75641091,20.5693799 3.101951,22.8882155 5.32006835,23.9858399 C5.7039277,24.1758735 5.91244008,24.599906 5.82857259,25.0199382 C5.2966735,27.6551946 6.20123055,30.3749562 8.20549756,32.166717 C10.2097646,33.9584778 13.0134925,34.5538233 15.5729167,33.7311198 C16.0710651,33.5713402 16.6044212,33.8456423 16.7642008,34.3437907 C16.9239805,34.8419391 16.6496784,35.3752952 16.1515299,35.5350749 C15.2160576,35.8342591 14.2397183,35.9860185 13.2575683,35.9849101 C8.02746581,35.9849101 3.78788248,31.7453206 3.78788248,26.5151774 C3.78788248,26.1363932 3.81058756,25.7595215 3.85416666,25.3864339 L3.86079915,25.3390707 L3.76322428,25.2803548 C1.50432787,23.8603876 0.0964470774,21.4128098 0.00472005208,18.7462565 L0,18.4659424 C0,15.3363091 1.81311734,12.4900924 4.64961751,11.1676433 L4.7717692,11.1127116 L4.77648925,11.065389 C5.16062952,7.55114095 8.07088097,4.85442738 11.6041667,4.73868818 L11.7670491,4.73583987 L11.8200683,4.59187829 C12.8341746,1.9112778 15.3591444,0.10211458 18.22347,0.00378421469 L18.4659017,0 Z" id="路径"></path>
                            <path d="M7.57843011,49.1085185 C7.54906675,48.6083493 7.91438435,48.1718632 8.41190592,48.1126709 L8.52270507,48.1060791 L15.1988525,48.1060791 L15.1988525,30.8674316 L10.8768717,28.2736817 L10.7850342,28.2121175 C10.3825693,27.9073276 10.2899727,27.3404026 10.5745459,26.9233979 C10.859119,26.5063931 11.4207883,26.3859535 11.8513183,26.6496175 L15.1988525,28.6590983 L15.1988525,21.7803141 C15.194942,21.2760363 15.5869064,20.8571561 16.0903336,20.8276161 C16.5937607,20.7980762 17.0320244,21.1682404 17.0871175,21.669515 L17.0928141,21.7803141 L17.0928141,25.3892009 L18.91097,24.0946859 C19.3181568,23.8036871 19.8814781,23.8797775 20.1968681,24.2683783 C20.5122581,24.656979 20.47081,25.2239029 20.1022542,25.5625 L20.0094808,25.638265 L17.1685384,27.6600342 L17.0927734,27.7064209 L17.0927734,48.1060791 L23.674235,48.1060791 C24.175134,48.106828 24.5888158,48.4975203 24.6181721,48.9975589 C24.6475285,49.4975976 24.2824046,49.9340121 23.7850342,49.9933675 L23.674235,50 L8.52270507,50 C8.02167503,49.9994296 7.60779346,49.6086877 7.57843011,49.1085185 Z" id="路径"></path>
                        </g>
                    </g>
                </g>
            </g>
        </g>
    </g>
</svg>