<?xml version="1.0" standalone="no"?><!DOCTYPE svg PUBLIC "-//W3C//DTD SVG 1.1//EN" "http://www.w3.org/Graphics/SVG/1.1/DTD/svg11.dtd"><svg t="1765442088110" class="icon" viewBox="0 0 1280 1024" version="1.1" xmlns="http://www.w3.org/2000/svg" p-id="1925" xmlns:xlink="http://www.w3.org/1999/xlink" width="60" height="48"><path d="M1024 512a256 256 0 1 1 0 512 256 256 0 0 1 0-512z m-108.16 422.88h216.32v-67.2h-136.16v-70.784h111.552v-67.2h-111.552V667.84h131.264v-66.752h-211.456v333.76z" p-id="1926"></path><path d="M288 768a32 32 0 0 0 32 32h200v-106.56L640 832l-120 138.56V864H320a96 96 0 0 1-96-96v-128h64v128z" p-id="1927"></path><path d="M256 0a256 256 0 1 1 0 512A256 256 0 0 1 256 0z m7.616 83.072c-70.784 0-120.96 44.8-120.96 100.8 0 48.384 32.704 77.504 67.648 91.392l42.56 17.92c28.672 12.096 47.04 18.368 47.04 37.632 0 17.92-13.888 29.12-43.456 29.12-26.432 0-57.344-13.888-80.64-34.048l-45.696 55.104c34.496 31.808 81.088 47.936 124.544 47.936 80.64 0 127.232-48.832 127.232-104.384 0-47.04-24.64-74.816-65.856-91.392l-41.664-16.576c-29.568-11.648-50.176-18.816-50.176-37.632 0-17.472 14.784-27.328 39.424-27.328 25.984 0 46.592 8.96 68.544 25.536l39.872-50.176c-29.12-29.12-69.888-43.904-108.416-43.904z" p-id="1928"></path><path d="M760 160H960a96 96 0 0 1 96 96v128h-64V256a32 32 0 0 0-32-32h-200v106.56L640 192l120-138.56V160z" p-id="1929"></path></svg>