<?xml version="1.0" standalone="no"?><!DOCTYPE svg PUBLIC "-//W3C//DTD SVG 1.1//EN" "http://www.w3.org/Graphics/SVG/1.1/DTD/svg11.dtd"><svg t="1743416431957" class="icon" viewBox="0 0 1024 1024" version="1.1" xmlns="http://www.w3.org/2000/svg" p-id="2805" xmlns:xlink="http://www.w3.org/1999/xlink" width="200" height="200"><path d="M642 512L296.15 858.37a38.17 38.17 0 0 0 0 53.93l2.52 2.52a38.05 38.05 0 0 0 53.89 0l371.12-371.75q0.84-0.75 1.65-1.56l2.52-2.52a38.18 38.18 0 0 0 2.58-51.07 36 36 0 0 0-2.63-2.92l-2.51-2.52-0.19-0.18-372.5-373.12a38.05 38.05 0 0 0-53.89 0l-2.51 2.52a38.17 38.17 0 0 0 0 53.93z" fill="#999999" p-id="2806"></path></svg>