<?xml version="1.0" standalone="no"?><!DOCTYPE svg PUBLIC "-//W3C//DTD SVG 1.1//EN" "http://www.w3.org/Graphics/SVG/1.1/DTD/svg11.dtd"><svg t="1743760813275" class="icon" viewBox="0 0 1024 1024" version="1.1" xmlns="http://www.w3.org/2000/svg" p-id="27338" xmlns:xlink="http://www.w3.org/1999/xlink" width="200" height="200"><path d="M491.07202 1023.99904h-0.768a475.327554 475.327554 0 0 1-322.463697-125.855882l-12.447989-11.935989-2.431997 0.32q-2.143998 0.288-4.287996 0.415999l-9.599991 0.48h-2.623998a136.447872 136.447872 0 0 1-112.895894-213.0238l5.663995-7.807993-0.416 0.639999A478.079552 478.079552 0 0 1 361.600141 85.951919l3.199997-0.863999 3.359997-7.455993A136.799872 136.799872 0 0 1 481.568029 0.32l9.599991-0.32a137.087871 137.087871 0 0 1 122.719884 76.799928l3.839997 8.543992A478.143552 478.143552 0 0 1 953.599586 667.231374a136.607872 136.607872 0 0 1-100.927905 220.127794h-9.599991a149.63186 149.63186 0 0 1-18.687983-1.599998l2.559998 0.415999A474.303555 474.303555 0 0 1 491.648019 1023.99904z m-217.855796-275.775741a135.199873 135.199873 0 0 1-49.695954 107.999898 408.031617 408.031617 0 0 0 266.87975 99.551907h1.183999a408.319617 408.319617 0 0 0 264.415752-97.343909l2.527998-2.175998a136.543872 136.543872 0 0 1 79.871925-241.663773l9.599991-0.192a137.343871 137.343871 0 0 1 45.375957 8.607992A412.159614 412.159614 0 0 0 625.919893 159.263851a135.999873 135.999873 0 0 1-124.799883 113.471893l-9.599991 0.32a136.415872 136.415872 0 0 1-134.687874-113.951893 412.063614 412.063614 0 0 0-267.967748 463.999565l1.567998-0.703999a136.287872 136.287872 0 0 1 34.335968-7.615993l9.599991-0.48h2.751997a137.087871 137.087871 0 0 1 136.095873 133.919875z m-172.799838-60.159944a72.639932 72.639932 0 0 0-26.559975 99.199907 72.511932 72.511932 0 0 0 99.199907 26.559975 72.511932 72.511932 0 0 0 26.559975-99.199907 72.511932 72.511932 0 0 0-99.199907-26.559975z m682.33536 26.559975a72.639932 72.639932 0 1 0 62.847941-36.223966 72.895932 72.895932 0 0 0-62.943941 36.255966zM418.848087 136.511872A72.543932 72.543932 0 1 0 491.392019 63.99994a72.639932 72.639932 0 0 0-72.543932 72.511932zM492.960018 742.399304a191.99982 191.99982 0 0 1 0-383.99964h3.423997a191.99982 191.99982 0 0 1 3.199997 383.99964zM358.400144 547.551487a131.999876 131.999876 0 0 0 128.895879 134.591873h5.695995a131.807876 131.807876 0 0 0 0-263.551752h-2.911997a132.543876 132.543876 0 0 0-131.679877 128.959879z" fill="#33d399" p-id="27339"></path></svg>