<?xml version="1.0" standalone="no"?><!DOCTYPE svg PUBLIC "-//W3C//DTD SVG 1.1//EN" "http://www.w3.org/Graphics/SVG/1.1/DTD/svg11.dtd"><svg t="1743760792170" class="icon" viewBox="0 0 1024 1024" version="1.1" xmlns="http://www.w3.org/2000/svg" p-id="26232" xmlns:xlink="http://www.w3.org/1999/xlink" width="200" height="200"><path d="M960 193.728A135.424 135.424 0 0 0 830.016 64H193.728A135.04 135.04 0 0 0 64 193.728v636.288A135.424 135.424 0 0 0 193.728 960h636.288A135.808 135.808 0 0 0 960 830.016V193.728z m-66.304 0.064v636.416a63.488 63.488 0 0 1-63.488 63.488H193.92a63.36 63.36 0 0 1-45.12-18.56 63.168 63.168 0 0 1-18.752-44.928V193.792a63.872 63.872 0 0 1 63.872-63.744h636.16c35.2 0 63.616 28.544 63.616 63.68v0.064z" fill="#33d399" p-id="26233"></path><path d="M798.336 317.44h-269.44c-18.624 0-33.728 13.888-33.728 30.912 0 17.088 15.104 30.912 33.664 30.912h269.504c18.56 0 33.664-13.824 33.664-30.912 0-17.024-15.04-30.848-33.664-30.848z m0 247.488h-269.44c-18.624 0-33.728 13.824-33.728 30.848 0 17.088 15.104 30.912 33.664 30.912h269.504c18.56 0 33.664-13.824 33.664-30.912 0-17.024-15.04-30.848-33.664-30.848z m-353.728 30.912c0-59.776-52.8-108.16-117.888-108.16-65.088 0-117.888 48.384-117.888 108.16 0 59.712 52.8 108.16 117.888 108.16 65.088 0 117.888-48.448 117.888-108.16z m-82.112 32.832a52.992 52.992 0 0 1-35.776 13.568c-27.904 0-50.56-20.8-50.56-46.4 0-25.6 22.656-46.4 50.56-46.4 27.968 0 50.56 20.736 50.56 46.4a44.288 44.288 0 0 1-14.784 32.832zM427.648 256c-8.896 0-17.344 3.2-23.68 8.896L293.12 366.656l-43.584-39.936a35.2 35.2 0 0 0-23.808-9.024c-18.56 0-33.664 13.824-33.664 30.848 0 8.192 3.52 16 9.856 21.824l67.392 61.824a35.2 35.2 0 0 0 23.808 9.088 35.2 35.2 0 0 0 23.744-9.088l134.784-123.648a29.632 29.632 0 0 0 9.664-21.632c0-17.088-15.04-30.912-33.6-30.912z" fill="#33d399" p-id="26234"></path></svg>