<?xml version="1.0" standalone="no"?><!DOCTYPE svg PUBLIC "-//W3C//DTD SVG 1.1//EN" "http://www.w3.org/Graphics/SVG/1.1/DTD/svg11.dtd"><svg t="1743760890761" class="icon" viewBox="0 0 1024 1024" version="1.1" xmlns="http://www.w3.org/2000/svg" p-id="28541" xmlns:xlink="http://www.w3.org/1999/xlink" width="200" height="200"><path d="M512 46.912c124.992 0 242.24 49.6 328.832 136.256A463.616 463.616 0 0 1 977.088 512a463.616 463.616 0 0 1-136.256 328.832A463.616 463.616 0 0 1 512 977.088a463.616 463.616 0 0 1-328.832-136.256A463.616 463.616 0 0 1 46.912 512c0-124.992 49.6-242.24 136.256-328.832A463.68 463.68 0 0 1 512 46.912z m0 76.8A386.88 386.88 0 0 0 237.44 237.44 386.88 386.88 0 0 0 123.712 512c0 104.384 41.344 202.176 113.728 274.56A386.88 386.88 0 0 0 512 900.288a386.88 386.88 0 0 0 274.56-113.728A386.88 386.88 0 0 0 900.288 512a386.88 386.88 0 0 0-113.728-274.56A386.88 386.88 0 0 0 512 123.712z m-64 640a38.4 38.4 0 0 1-6.208-76.288L448 686.912h36.224V464.96H480a38.4 38.4 0 0 1-37.888-32.128L441.6 426.688a38.4 38.4 0 0 1 32.192-37.888l6.208-0.512h42.688a38.4 38.4 0 0 1 37.888 32.128l0.512 6.272v260.16l36.224 0.064a38.4 38.4 0 0 1 6.272 76.288l-6.272 0.512H448z m64-529.024a53.312 53.312 0 1 1 0 106.624 53.312 53.312 0 0 1 0-106.624z" fill="#33d399" p-id="28542"></path></svg>