<?xml version="1.0" standalone="no"?><!DOCTYPE svg PUBLIC "-//W3C//DTD SVG 1.1//EN" "http://www.w3.org/Graphics/SVG/1.1/DTD/svg11.dtd"><svg t="1743762009336" class="icon" viewBox="0 0 1024 1024" version="1.1" xmlns="http://www.w3.org/2000/svg" p-id="33085" xmlns:xlink="http://www.w3.org/1999/xlink" width="200" height="200"><path d="M885.333333 853.333333H832V597.333333c0-177.066667-142.933333-320-320-320S192 420.266667 192 597.333333v256H138.666667c-17.066667 0-32 14.933333-32 32S121.6 917.333333 138.666667 917.333333h746.666666c17.066667 0 32-14.933333 32-32s-14.933333-32-32-32zM768 853.333333H256V597.333333c0-140.8 115.2-256 256-256s256 115.2 256 256v256z" p-id="33086" fill="#33d399"></path><path d="M629.333333 576h-185.6l81.066667-93.866667c10.666667-12.8 10.666667-34.133333-2.133333-44.8s-34.133333-10.666667-44.8 2.133334l-128 147.2c-8.533333 8.533333-10.666667 23.466667-4.266667 34.133333 4.266667 10.666667 17.066667 19.2 29.866667 19.2h185.6l-102.4 115.2c-12.8 12.8-10.666667 34.133333 2.133333 44.8 12.8 12.8 34.133333 10.666667 44.8-2.133333l149.333333-168.533334c8.533333-8.533333 10.666667-23.466667 4.266667-34.133333s-17.066667-19.2-29.866667-19.2zM501.333333 234.666667c17.066667 0 32-14.933333 32-32v-64c0-17.066667-14.933333-32-32-32S469.333333 121.6 469.333333 138.666667v64c0 17.066667 14.933333 32 32 32zM277.333333 256c8.533333 14.933333 27.733333 21.333333 42.666667 10.666667 14.933333-8.533333 21.333333-27.733333 10.666667-42.666667L298.666667 170.666667c-8.533333-14.933333-27.733333-21.333333-42.666667-10.666667-14.933333 8.533333-21.333333 27.733333-10.666667 42.666667L277.333333 256zM117.333333 352L170.666667 384c14.933333 8.533333 34.133333 4.266667 42.666666-10.666667 8.533333-14.933333 4.266667-34.133333-10.666666-42.666666L149.333333 298.666667c-14.933333-8.533333-34.133333-4.266667-42.666666 10.666666-10.666667 14.933333-6.4 34.133333 10.666666 42.666667zM682.666667 268.8c14.933333 8.533333 34.133333 4.266667 42.666666-10.666667l32-55.466666c8.533333-14.933333 4.266667-34.133333-10.666666-42.666667-14.933333-10.666667-34.133333-6.4-42.666667 10.666667l-32 55.466666c-10.666667 14.933333-4.266667 34.133333 10.666667 42.666667zM853.333333 384l55.466667-32c14.933333-8.533333 21.333333-27.733333 10.666667-42.666667-8.533333-14.933333-27.733333-21.333333-42.666667-10.666666l-55.466667 32c-14.933333 8.533333-21.333333 27.733333-10.666666 42.666666 6.4 14.933333 25.6 21.333333 42.666666 10.666667z" p-id="33087" fill="#33d399"></path></svg>