<?xml version="1.0" standalone="no"?><!DOCTYPE svg PUBLIC "-//W3C//DTD SVG 1.1//EN" "http://www.w3.org/Graphics/SVG/1.1/DTD/svg11.dtd"><svg t="1765444213567" class="icon" viewBox="0 0 1024 1024" version="1.1" xmlns="http://www.w3.org/2000/svg" p-id="2045" xmlns:xlink="http://www.w3.org/1999/xlink" width="48" height="48"><path d="M571.904 203.69a32.981 32.981 0 0 0-32.896-33.023q-168.32 0-288.128 97.706Q128 368.555 128 512q0 143.403 122.88 243.627 119.808 97.706 288.128 97.706a32.981 32.981 0 0 0 32.896-33.024V203.691z m-65.835 582.486V237.824q-123.733 8.49-213.674 81.792Q193.835 400 193.835 512q0 111.957 98.56 192.384 89.941 73.301 213.674 81.792zM647.04 249.771h216.064c18.176 0 32.896 14.762 32.896 33.024a32.981 32.981 0 0 1-32.896 33.024H647.04a32.981 32.981 0 0 1-32.939-33.024c0-18.262 14.763-33.024 32.939-33.024z m0 224.17h216.064c18.176 0 32.896 14.806 32.896 33.067a32.981 32.981 0 0 1-32.896 33.024H647.04a32.981 32.981 0 0 1-32.939-33.024c0-18.261 14.763-33.067 32.939-33.067z m0 224.214h216.064c18.176 0 32.896 14.805 32.896 33.024a32.981 32.981 0 0 1-32.896 33.066H647.04a32.981 32.981 0 0 1-32.939-33.024c0-18.261 14.763-33.066 32.939-33.066z" p-id="2046"></path></svg>