<?xml version="1.0" standalone="no"?><!DOCTYPE svg PUBLIC "-//W3C//DTD SVG 1.1//EN" "http://www.w3.org/Graphics/SVG/1.1/DTD/svg11.dtd"><svg t="1742976784291" class="icon" viewBox="0 0 1024 1024" version="1.1" xmlns="http://www.w3.org/2000/svg" p-id="1723" xmlns:xlink="http://www.w3.org/1999/xlink" width="200" height="200"><path d="M780.4 961.4c-42.6 0-82.9-14.1-114.1-40.2-0.7-0.6-1.4-1.3-2.1-1.9L310.8 565.9c-12.5-12.5-12.5-32.8 0-45.3s32.8-12.5 45.3 0L708.4 873c19 15.4 45.4 24.3 72.7 24.3 28.9 0 58.8-10 81.7-32.9 42.5-42.5 42.5-111.6 0-154.1L517.2 364.6c-12.5-12.5-12.5-32.8 0-45.3s32.8-12.5 45.3 0L908.1 665c67.4 67.4 67.4 177.2 0 244.6-31.8 31.8-74.8 50.1-121.1 51.7-2.2 0.1-4.4 0.1-6.6 0.1z" fill="#ca8a04" p-id="1724"></path><path d="M318.8 575.4h-0.7c-34.5-0.7-68.1-8.2-99.8-22.3-30.6-13.6-58-32.7-81.5-56.7-23.6-24.1-42-52-54.6-82.7C69 381.5 62.6 347.6 63.3 313c0.5-24.5 13.8-35.1 21.7-39.3 19.7-10.4 40.1-0.1 46.8 3.3 9.2 4.7 19.4 11.3 31.1 18.9 59.7 38.9 113.1 67.6 161.3 24.8 50.6-44.9 21.8-99.3-17.9-160.7-7.5-11.5-13.9-21.4-18.5-30.5-3.4-6.7-13.8-27.2-2.9-46.8 4.4-7.8 15.3-20.8 39.9-20.3 68.2 1.4 131.8 30.7 179.1 82.3 22.6 24.7 40.1 53.1 52.1 84.4 12.4 32.3 18.3 66.1 17.6 100.6-0.4 17.7-15 31.7-32.7 31.3-17.7-0.4-31.7-15-31.3-32.7 1.9-92.7-61.4-174.4-145.2-196.3 17 26.4 38 60.9 46.8 98.6 12.4 53.3-3 101-44.6 137.9-20.9 18.5-44.2 30.3-69.2 35-21.4 4-44.2 2.9-67.8-3.3-38.8-10.2-73.5-32.4-99.4-49.2 16.1 88.1 95.5 158.3 189.2 160.3 17.7 0.4 31.7 15 31.3 32.7-0.3 17.5-14.5 31.4-31.9 31.4zM779.4 877.6c-51.8 0-94-42.2-94-94s42.2-94 94-94 94 42.2 94 94-42.2 94-94 94z m0-124c-16.5 0-30 13.5-30 30s13.5 30 30 30 30-13.5 30-30-13.5-30-30-30z" fill="#ca8a04" p-id="1725"></path></svg>