<?xml version="1.0" standalone="no"?><!DOCTYPE svg PUBLIC "-//W3C//DTD SVG 1.1//EN" "http://www.w3.org/Graphics/SVG/1.1/DTD/svg11.dtd"><svg class="icon" width="48px" height="48.00px" viewBox="0 0 1024 1024" version="1.1" xmlns="http://www.w3.org/2000/svg"><path fill="#be8dbd" d="M357.077333 477.909333H85.333333a34.133333 34.133333 0 0 0 0 68.266667h271.744a34.133333 34.133333 0 0 0 0-68.266667zM938.666667 477.909333h-271.701334a34.133333 34.133333 0 0 0 0 68.266667H938.666667a34.133333 34.133333 0 0 0 0-68.266667zM512 50.816a34.133333 34.133333 0 0 0-34.133333 34.133333v271.701334a34.133333 34.133333 0 0 0 68.266666 0V84.949333a34.176 34.176 0 0 0-34.133333-34.133333zM512 633.216a34.133333 34.133333 0 0 0-34.133333 34.133333v271.701334a34.133333 34.133333 0 0 0 68.266666 0v-271.701334a34.218667 34.218667 0 0 0-34.133333-34.133333z" /></svg>