<?xml version="1.0" standalone="no"?><!DOCTYPE svg PUBLIC "-//W3C//DTD SVG 1.1//EN" "http://www.w3.org/Graphics/SVG/1.1/DTD/svg11.dtd"><svg t="1743402403004" class="icon" viewBox="0 0 1064 1024" version="1.1" xmlns="http://www.w3.org/2000/svg" p-id="5918" xmlns:xlink="http://www.w3.org/1999/xlink" width="207.8125" height="200"><path d="M24.163481 550.927368a34.84374 34.84374 0 0 1 34.84374-34.84374 34.795413 34.795413 0 0 1 34.843739 34.84374 379.656614 379.656614 0 0 0 379.269999 379.221672 34.84374 34.84374 0 0 1 34.84374 34.843739 34.84374 34.84374 0 0 1-34.84374 34.892067A449.440748 449.440748 0 0 1 24.163481 550.927368z m146.04408 0a34.84374 34.84374 0 0 1 34.843739-34.84374 34.84374 34.84374 0 0 1 34.84374 34.84374 233.467554 233.467554 0 0 0 233.225919 233.177592 34.84374 34.84374 0 0 1 34.84374 34.892067 34.84374 34.84374 0 0 1-34.84374 34.843739A303.251687 303.251687 0 0 1 170.207561 550.927368z m217.084713 134.058993a46.538865 46.538865 0 0 1-46.44221-46.490538v-34.795412h0.289961a21.457171 21.457171 0 0 0 13.821512-5.122658l93.319363-79.884469a15.029685 15.029685 0 0 1 9.665393-3.092925 14.78805 14.78805 0 0 1 9.665392 3.092925l102.018217 87.278494 61.423569-52.531408a14.498089 14.498089 0 0 1 9.665393-3.092926 14.498089 14.498089 0 0 1 9.665392 3.092926l75.390061 65.144745a21.215536 21.215536 0 0 0 14.063146 5.170985v14.498088a46.490538 46.490538 0 0 1-46.442211 46.490538z m352.448535-111.152013l-62.100146-53.159658a57.605739 57.605739 0 0 0-37.55005-13.53155 57.992355 57.992355 0 0 0-37.598376 13.53155l-33.297277 28.46458-73.940252-63.211666a57.992355 57.992355 0 0 0-37.598377-13.531549 57.654066 57.654066 0 0 0-37.501722 13.531549l-79.304545 67.657747V390.046911a46.538865 46.538865 0 0 1 46.44221-46.490537h306.054651a46.490538 46.490538 0 0 1 46.442211 46.490537v183.642456z m-180.017934-146.720657a28.996177 28.996177 0 0 0 28.996177 28.996177 28.996177 28.996177 0 0 0 28.996178-28.996177 28.996177 28.996177 0 0 0-28.996178-28.996177 28.996177 28.996177 0 0 0-28.94785 28.754542z m411.310775 46.248903a379.656614 379.656614 0 0 0-379.269999-379.269999 34.84374 34.84374 0 0 1-34.84374-34.843739 34.84374 34.84374 0 0 1 34.84374-34.84374 449.440748 449.440748 0 0 1 448.957478 448.957478 34.84374 34.84374 0 0 1-34.84374 34.843739 34.84374 34.84374 0 0 1-34.795413-35.085374z m-146.04408 0a233.467554 233.467554 0 0 0-233.225919-233.225919 34.84374 34.84374 0 0 1-34.84374-34.84374 34.84374 34.84374 0 0 1 34.84374-34.84374 303.251687 303.251687 0 0 1 302.913398 302.913399 34.84374 34.84374 0 0 1-34.843739 34.843739 34.84374 34.84374 0 0 1-34.795413-35.085374z" fill="#33d399" p-id="5919"></path></svg>