<?xml version="1.0" standalone="no"?><!DOCTYPE svg PUBLIC "-//W3C//DTD SVG 1.1//EN" "http://www.w3.org/Graphics/SVG/1.1/DTD/svg11.dtd"><svg t="1765436891897" class="icon" viewBox="0 0 1024 1024" version="1.1" xmlns="http://www.w3.org/2000/svg" p-id="4179" xmlns:xlink="http://www.w3.org/1999/xlink" width="48" height="48"><path d="M673.8944 307.2H195.7888A42.2912 42.2912 0 0 0 153.6 349.6448v375.9616c0 23.3984 18.8928 42.3936 42.1888 42.3936h478.1056c23.3472 0 42.24-18.944 42.24-42.4448V349.696A42.2912 42.2912 0 0 0 673.8944 307.2z m-139.4688 252.4672l-119.3984 96.5632a28.0064 28.0064 0 0 1-45.7728-22.1184v-193.024a28.16 28.16 0 0 1 45.7728-22.0672l119.3984 96.512a28.5184 28.5184 0 0 1 0 44.1344z m324.9664-192l-111.4624 75.4176v187.136l111.4624 58.6752a37.888 37.888 0 0 0 62.208-29.184V396.8512a37.8368 37.8368 0 0 0-62.208-29.184z" p-id="4180"></path></svg>