<?xml version="1.0" standalone="no"?><!DOCTYPE svg PUBLIC "-//W3C//DTD SVG 1.1//EN" "http://www.w3.org/Graphics/SVG/1.1/DTD/svg11.dtd"><svg t="1743402407270" class="icon" viewBox="0 0 1024 1024" version="1.1" xmlns="http://www.w3.org/2000/svg" p-id="6121" xmlns:xlink="http://www.w3.org/1999/xlink" width="200" height="200"><path d="M144.512 492.8a33.92 33.92 0 0 0-33.152-32h-17.92a30.528 30.528 0 0 0-30.976 32c15.872 251.072 217.664 452.864 468.736 468.736 17.6 1.152 32-13.312 32-30.976v-13.44a33.856 33.856 0 0 0-31.296-33.088c-209.792-19.008-372.288-181.504-387.392-391.232z" p-id="6122" fill="#33d399"></path><path d="M350.528 492.672c-2.624-17.472-16.64-31.872-34.368-31.872h-17.92c-17.664 0-32.192 14.4-30.272 32A297.344 297.344 0 0 0 531.2 755.968c17.536 1.92 31.936-12.608 31.936-30.272v-14.144c0-17.152-13.568-30.976-30.464-34.048-93.184-17.024-168.064-91.84-182.208-184.896z m470.848-34.816a32 32 0 0 1 0-45.248l82.688-82.752a32 32 0 0 0 0-45.248l-164.608-164.672a32 32 0 0 0-45.312 0L611.392 202.688a32 32 0 0 1-45.248 0L457.792 94.336a32 32 0 0 0-45.248 0L273.472 233.408a32 32 0 0 0 0 45.248l471.872 471.872a32 32 0 0 0 45.248 0l139.072-139.072a32 32 0 0 0 0-45.248l-108.288-108.352z m-435.2-179.2a32 32 0 0 1 0-45.248l26.368-26.432a32 32 0 0 1 45.248 0l52.032 52.032a32 32 0 0 1 0 45.248l-26.432 26.432a32 32 0 0 1-45.248 0l-52.032-52.032z m153.6 153.6a32 32 0 0 1 0-45.248l154.368-154.432a32 32 0 0 1 45.248 0l52.032 52.032a32 32 0 0 1 0 45.248L636.992 484.288a32 32 0 0 1-45.248 0l-52.032-52.032z m153.6 153.6a32 32 0 0 1 0-45.248l26.368-26.432a32 32 0 0 1 45.248 0l52.032 52.032a32 32 0 0 1 0 45.248l-26.368 26.432a32 32 0 0 1-45.312 0l-52.032-52.032z" p-id="6123" fill="#33d399"></path></svg>