<?xml version="1.0" standalone="no"?><!DOCTYPE svg PUBLIC "-//W3C//DTD SVG 1.1//EN" "http://www.w3.org/Graphics/SVG/1.1/DTD/svg11.dtd"><svg t="1765436909435" class="icon" viewBox="0 0 1024 1024" version="1.1" xmlns="http://www.w3.org/2000/svg" p-id="5464" xmlns:xlink="http://www.w3.org/1999/xlink" width="48" height="48"><path d="M715.04 256.768v0.032a47.808 47.808 0 0 1 47.792 47.792v423.616A47.808 47.808 0 0 1 715.04 776H173.568a47.808 47.808 0 0 1-47.808-47.792V304.56a47.84 47.84 0 0 1 47.808-47.792H715.04z m181.008 78.752c27.92-23.456 70.432-3.568 70.432 32.88v296.192c0 36.464-42.512 56.224-70.432 32.896l-97.152-76.736v-210.88l97.152-74.416v0.064zM364 400A28 28 0 0 0 336 428v168c0 15.472 12.544 28 28 28h168A28 28 0 0 0 560 596v-168A28 28 0 0 0 532 400h-168z" p-id="5465"></path></svg>