<?xml version="1.0" standalone="no"?><!DOCTYPE svg PUBLIC "-//W3C//DTD SVG 1.1//EN" "http://www.w3.org/Graphics/SVG/1.1/DTD/svg11.dtd"><svg t="1769753497384" class="icon" viewBox="0 0 1024 1024" version="1.1" xmlns="http://www.w3.org/2000/svg" p-id="10732" xmlns:xlink="http://www.w3.org/1999/xlink" width="48" height="48"><path d="M896.812985 57.089626H127.187015C57.089626 57.089626 0 114.901905 0 184.999294v444.431899c0 70.097389 57.089626 127.187015 127.187015 127.187014h272.440367v135.136204H312.186309c-20.234298 0-37.577982 17.343684-37.577982 37.577981 0 20.234298 17.343684 37.577982 37.577982 37.577982h399.627382c20.234298 0 37.577982-17.343684 37.577982-37.577982 0-20.234298-17.343684-37.577982-37.577982-37.577981H624.372618v-135.136204h272.440367c70.097389 0 127.187015-57.089626 127.187015-127.187014V184.999294c0-70.097389-57.812279-127.909668-127.187015-127.909668zM549.216655 891.754411H474.060692v-135.136204H549.216655v135.136204z m399.627382-262.323218c0 29.628793-22.402258 52.753705-52.753705 52.753705H127.187015c-29.628793 0-52.753705-22.402258-52.753705-52.753705V184.999294c0-29.628793 22.402258-52.753705 52.753705-52.753705h769.62597c29.628793 0 52.753705 22.402258 52.753705 52.753705v444.431899z m0 0" p-id="10733" fill="#ffffff"></path><path d="M351.932251 320.135498c0-22.402258 18.066337-41.191249 41.191249-41.19125h395.291461c22.402258 0 41.191249 18.066337 41.191249 41.19125 0 22.402258-18.066337 41.191249-41.191249 41.191249H393.1235c-22.402258-0.722653-41.191249-18.788991-41.191249-41.191249zM232.694425 270.272406c22.402258 0 41.191249 18.066337 41.191249 41.19125v177.772759c0 22.402258-18.066337 41.191249-41.191249 41.191249-22.402258 0-41.191249-18.066337-41.191249-41.191249V310.741002c0-22.402258 18.788991-40.468596 41.191249-40.468596zM351.932251 478.396613c0-22.402258 18.066337-41.191249 41.191249-41.19125h395.291461c22.402258 0 41.191249 18.066337 41.191249 41.19125 0 22.402258-18.066337 41.191249-41.191249 41.191249H393.1235c-22.402258 0-41.191249-18.788991-41.191249-41.191249z" p-id="10734" fill="#ffffff"></path></svg>