<svg xmlns="http://www.w3.org/2000/svg" xmlns:xlink="http://www.w3.org/1999/xlink" fill="none" version="1.1" width="238" height="126" viewBox="0 0 238 126"><defs><mask id="master_svg0_9436_094529/125_04718"><g><path d="M160.1616771484375,99L164.6818771484375,104L155.6414771484375,104L160.1616771484375,99ZM162.1701771484375,104.5L162.1701771484375,106L158.1522171484375,106L158.1522171484375,104.5L162.1701771484375,104.5ZM162.1701771484375,108.5L162.1701771484375,107L158.1522171484375,107L158.1522171484375,108.5L162.1701771484375,108.5ZM159.57489714843751,109.01050000000001L160.1613771484375,109L160.74797714843749,109.01050000000001C164.9121771484375,109.16,168.1972771484375,110.889,168.1972771484375,113C168.1972771484375,115.2091,164.5994771484375,117,160.1613771484375,117C155.7233271484375,117,152.1255471484375,115.2091,152.1255471484375,113C152.1255471484375,110.889,155.4106371484375,109.16,159.57489714843751,109.01050000000001ZM170.2062771484375,114C170.2062771484375,111.2386,165.7090771484375,109,160.1613771484375,109L159.8668271484375,109.0026L159.5380571484375,109.0095C154.2807971484375,109.1697,150.1165771484375,111.3428,150.1165771484375,114C150.1165771484375,116.7614,154.6138071484375,119,160.1613771484375,119C165.7090771484375,119,170.2062771484375,116.7614,170.2062771484375,114ZM159.0332271484375,110.1709L158.6826171484375,111.6679L161.6789771484375,111.6679L161.3294771484375,110.1709L162.6701771484375,110.1709L164.0556771484375,114.8297L162.4190771484375,114.8297L161.9592771484375,112.8669L158.4023571484375,112.8669L157.9436171484375,114.8297L156.3070071484375,114.8297L157.6925171484375,110.1709L159.0332271484375,110.1709Z" fill-rule="evenodd" fill="#FFFFFF" fill-opacity="1"/></g></mask></defs><g><g></g><g><g><g transform="matrix(-1,0,0,1,315,0)"><path d="M299.006,29.01052L300.01099999999997,28.999945L299.98900000000003,27.000055L298.985,27.010631L299.006,29.01052ZM294.98699999999997,29.05282L296.996,29.03167L296.975,27.031783L294.966,27.052934L294.98699999999997,29.05282ZM290.96799999999996,29.09513L292.978,29.07398L292.957,27.074086L290.947,27.095237L290.96799999999996,29.09513ZM286.949,29.13743L288.959,29.11628L288.938,27.116389L286.928,27.13754L286.949,29.13743ZM282.931,29.17973L284.94,29.15858L284.919,27.158692L282.90999999999997,27.179844L282.931,29.17973ZM278.91200000000003,29.22204L280.921,29.20088L280.9,27.200995L278.891,27.222147L278.91200000000003,29.22204ZM274.89300000000003,29.26434L276.902,29.24319L276.881,27.243298L274.872,27.26445L274.89300000000003,29.26434ZM270.874,29.30664L272.884,29.28549L272.863,27.285601L270.853,27.306753L270.874,29.30664ZM266.855,29.34895L268.865,29.32779L268.844,27.327904L266.834,27.349056L266.855,29.34895ZM262.837,29.39125L264.846,29.3701L264.825,27.370207L262.81600000000003,27.391359L262.837,29.39125ZM258.818,29.43355L260.827,29.4124L260.806,27.412511L258.797,27.433661999999998L258.818,29.43355ZM254.7991,29.47585L256.8085,29.4547L256.7874,27.454814L254.77800000000002,27.475965L254.7991,29.47585ZM250.7803,29.51816L252.78969999999998,29.49701L252.7686,27.497117L250.75920000000002,27.518268L250.7803,29.51816ZM246.7615,29.56046L248.77089999999998,29.53931L248.7498,27.53942L246.7404,27.560571L246.7615,29.56046ZM242.7427,29.60276L244.75209999999998,29.58161L244.731,27.581723L242.7216,27.602875L242.7427,29.60276ZM238.72390000000001,29.64507L240.73329999999999,29.62392L240.7123,27.624026L238.7029,27.645178L238.72390000000001,29.64507ZM234.70510000000002,29.68737L236.7145,29.66622L236.6935,27.666329L234.6841,27.687481L234.70510000000002,29.68737ZM230.68630000000002,29.72967L232.6957,29.70852L232.6747,27.708632L230.6653,27.729784L230.68630000000002,29.72967ZM226.66750000000002,29.77198L228.6769,29.75082L228.6559,27.750935L226.6465,27.772087L226.66750000000002,29.77198ZM222.64870000000002,29.81428L224.6581,29.79313L224.6371,27.793238L222.6277,27.81439L222.64870000000002,29.81428ZM218.6299,29.85658L220.6393,29.83543L220.6183,27.835542L218.6089,27.856693L218.6299,29.85658ZM214.6111,29.89889L216.6205,29.87773L216.5995,27.877845L214.5901,27.898996L214.6111,29.89889ZM210.5924,29.94119L212.6017,29.92004L212.5807,27.9201477L210.5713,27.9412993L210.5924,29.94119ZM206.5736,29.98349L208.583,29.96234L208.5619,27.9624508L206.5525,27.9836023L206.5736,29.98349ZM202.5548,30.02579L204.5642,30.004640000000002L204.5431,28.00475389L202.5337,28.0259055L202.5548,30.02579ZM198.536,30.0681L200.5454,30.04695L200.52429999999998,28.047057L198.5149,28.0682085L198.536,30.0681ZM194.5172,30.1104L196.5266,30.08925L196.50549999999998,28.0893601L194.4961,28.110512L194.5172,30.1104ZM190.4984,30.1527L192.5078,30.13155L192.48669999999998,28.131663L190.4773,28.152815L190.4984,30.1527ZM186.4796,30.19501L188.489,30.17386L188.4679,28.173966L186.45850000000002,28.195118L186.4796,30.19501ZM182.4608,30.23731L184.4702,30.21616L184.4491,28.216269L182.4397,28.237421L182.4608,30.23731ZM178.442,30.279609999999998L180.4514,30.25846L180.4303,28.258573L178.4209,28.279724L178.442,30.279609999999998ZM174.4232,30.32192L176.4326,30.30076L176.4116,28.300876L174.4021,28.322027L174.4232,30.32192ZM170.4044,30.36422L172.4138,30.34307L172.3928,28.343179L170.3833,28.36433L170.4044,30.36422ZM166.38562,30.40652L168.395,30.38537L168.374,28.385482L166.36457000000001,28.406633L166.38562,30.40652ZM162.36683,30.44883L164.37622,30.42767L164.35517,28.427785L162.34578,28.448936L162.36683,30.44883ZM158.348035,30.49113L160.35743,30.46998L160.33638,28.470088L158.326983,28.491239L158.348035,30.49113ZM158.5,32.68147L158.5,30.67197L156.5,30.67197L156.5,32.68147L158.5,32.68147ZM158.5,36.70049L158.5,34.690979999999996L156.5,34.690979999999996L156.5,36.70049L158.5,36.70049ZM158.5,40.7195L158.5,38.71L156.5,38.71L156.5,40.7195L158.5,40.7195ZM158.5,44.7385L158.5,42.729L156.5,42.729L156.5,44.7385L158.5,44.7385ZM158.5,48.7575L158.5,46.748000000000005L156.5,46.748000000000005L156.5,48.7575L158.5,48.7575ZM158.5,52.7766L158.5,50.766999999999996L156.5,50.766999999999996L156.5,52.7766L158.5,52.7766ZM158.5,56.7956L158.5,54.786100000000005L156.5,54.786100000000005L156.5,56.7956L158.5,56.7956ZM158.5,60.8146L158.5,58.805099999999996L156.5,58.805099999999996L156.5,60.8146L158.5,60.8146ZM158.5,64.83359999999999L158.5,62.8241L156.5,62.8241L156.5,64.83359999999999L158.5,64.83359999999999ZM158.5,68.8526L158.5,66.84309999999999L156.5,66.84309999999999L156.5,68.8526L158.5,68.8526ZM158.5,72.8716L158.5,70.8621L156.5,70.8621L156.5,72.8716L158.5,72.8716ZM158.5,76.89070000000001L158.5,74.8811L156.5,74.8811L156.5,76.89070000000001L158.5,76.89070000000001ZM158.5,80.9097L158.5,78.9002L156.5,78.9002L156.5,80.9097L158.5,80.9097ZM158.5,84.92869999999999L158.5,82.91919999999999L156.5,82.91919999999999L156.5,84.92869999999999L158.5,84.92869999999999ZM158.5,88.9477L158.5,86.9382L156.5,86.9382L156.5,88.9477L158.5,88.9477ZM158.5,92.9667L158.5,90.9572L156.5,90.9572L156.5,92.9667L158.5,92.9667ZM158.5,96.9857L158.5,94.9762L156.5,94.9762L156.5,96.9857L158.5,96.9857ZM158.5,100L158.5,98.9952L156.5,98.9952L156.5,100L158.5,100Z" fill-rule="evenodd" fill="#F7B500" fill-opacity="1"/></g><g><path d="M158.50224,57.977273L158.50224,57L156.502242,57L156.502242,57.977273L158.50224,57.977273ZM158.50224,61.886359999999996L158.50224,59.93182L156.502242,59.93182L156.502242,61.886359999999996L158.50224,61.886359999999996ZM158.50224,65.79545L158.50224,63.84091L156.502242,63.84091L156.502242,65.79545L158.50224,65.79545ZM158.50224,69.7045L158.50224,67.75L156.502242,67.75L156.502242,69.7045L158.50224,69.7045ZM158.50224,73.6136L158.50224,71.6591L156.502242,71.6591L156.502242,73.6136L158.50224,73.6136ZM158.50224,77.5227L158.50224,75.5682L156.502242,75.5682L156.502242,77.5227L158.50224,77.5227ZM158.50224,81.4318L158.50224,79.4773L156.502242,79.4773L156.502242,81.4318L158.50224,81.4318ZM158.50224,85.3409L158.50224,83.3864L156.502242,83.3864L156.502242,85.3409L158.50224,85.3409ZM158.50224,89.25L158.50224,87.2955L156.502242,87.2955L156.502242,89.25L158.50224,89.25ZM158.50224,93.1591L158.50224,91.2045L156.502242,91.2045L156.502242,93.1591L158.50224,93.1591ZM158.50224,97.06819999999999L158.50224,95.11359999999999L156.502242,95.11359999999999L156.502242,97.06819999999999L158.50224,97.06819999999999ZM158.50224,100L158.50224,99.0227L156.502242,99.0227L156.502242,100L158.50224,100Z" fill-rule="evenodd" fill="#FFFFFF" fill-opacity="1"/></g><g transform="matrix(-1,0,0,1,344.304931640625,0)"><g><path d="M172.15470596823502,57L172.65470796823502,57L182.985107968235,57L183.485107968235,57L183.485107968235,55.99999773502L182.985107968235,56L172.65470796823502,56L172.15470596823502,55.99999773502L172.15470596823502,57Z" fill-rule="evenodd" fill="#00F380" fill-opacity="1"/></g><g><path d="M175.84006012547076,57L179.52317012547076,63L172.15695012547076,63L175.84006012547076,57Z" fill-rule="evenodd" fill="#00F380" fill-opacity="1"/></g><g transform="matrix(1,0,0,-1,0,214)"><path d="M175.84006012547076,107L179.52317012547076,113L172.15695012547076,113L175.84006012547076,107Z" fill-rule="evenodd" fill="#00F380" fill-opacity="1"/></g><g><path d="M175.17264288369262,60.99999773502L175.17264515369263,61.5L175.17264515369263,62.5L176.17264300369263,62.5L176.17264300369263,61.5L176.17264300369263,60.99999773502L175.17264288369262,60.99999773502ZM175.17264515369263,64L175.17264515369263,65.5L176.17264300369263,65.5L176.17264300369263,63.5L175.17264515369263,63.5L175.17264515369263,64ZM175.17264515369263,67L175.17264515369263,68.5L176.17264300369263,68.5L176.17264300369263,66.5L175.17264515369263,66.5L175.17264515369263,67ZM175.17264515369263,70L175.17264515369263,71.5L176.17264300369263,71.5L176.17264300369263,69.5L175.17264515369263,69.5L175.17264515369263,70ZM175.17264515369263,73L175.17264515369263,74.5L176.17264300369263,74.5L176.17264300369263,72.5L175.17264515369263,72.5L175.17264515369263,73ZM175.17264515369263,76L175.17264515369263,77.5L176.17264300369263,77.5L176.17264300369263,75.5L175.17264515369263,75.5L175.17264515369263,76ZM175.17264515369263,79L175.17264515369263,80.5L176.17264300369263,80.5L176.17264300369263,78.5L175.17264515369263,78.5L175.17264515369263,79ZM175.17264515369263,82L175.17264515369263,83.5L176.17264300369263,83.5L176.17264300369263,81.5L175.17264515369263,81.5L175.17264515369263,82ZM175.17264515369263,85L175.17264515369263,86.5L176.17264300369263,86.5L176.17264300369263,84.5L175.17264515369263,84.5L175.17264515369263,85ZM175.17264515369263,88L175.17264515369263,89.5L176.17264300369263,89.5L176.17264300369263,87.5L175.17264515369263,87.5L175.17264515369263,88ZM175.17264515369263,91L175.17264515369263,92.5L176.17264300369263,92.5L176.17264300369263,90.5L175.17264515369263,90.5L175.17264515369263,91ZM175.17264515369263,94L175.17264515369263,95.5L176.17264300369263,95.5L176.17264300369263,93.5L175.17264515369263,93.5L175.17264515369263,94ZM175.17264515369263,97L175.17264515369263,98.5L176.17264300369263,98.5L176.17264300369263,96.5L175.17264515369263,96.5L175.17264515369263,97ZM175.17264515369263,100L175.17264515369263,101.5L176.17264300369263,101.5L176.17264300369263,99.5L175.17264515369263,99.5L175.17264515369263,100ZM175.17264515369263,103L175.17264515369263,103.5L175.17264288369262,104L176.17264300369263,104L176.17264300369263,103.5L176.17264300369263,102.5L175.17264515369263,102.5L175.17264515369263,103Z" fill-rule="evenodd" fill="#00F380" fill-opacity="1"/></g><g><path d="M172.1547057003125,108L172.6547078203125,108L182.6995658203125,108L183.1995658203125,108L183.1995658203125,106.99999773502L182.6995658203125,107L172.6547078203125,107L172.1547057003125,106.99999773502L172.1547057003125,108Z" fill-rule="evenodd" fill="#00F380" fill-opacity="1"/></g></g><g><path d="M187.15039,56.4125L183.42969,56.4125C183.28971,56.02188,183.13997,55.67031,182.97721,55.3513L182.17969,55.49128C182.34896,55.77122,182.4987,56.0707,182.63867,56.4125L178.839844,56.4125L178.839844,58.55117L179.57878,58.55117L179.57878,57.11237L186.4082,57.11237L186.4082,58.56094L187.15039,58.56094L187.15039,56.4125ZM178.598958,59.19245L178.598958,59.89232L181.00781,59.89232C180.6888,60.44245,180.34701,61.002340000000004,179.98893,61.56224C180.91992,61.86172,181.84766,62.21003,182.78841,62.61042C181.72721,63.421,180.33724,63.8311,178.638021,63.8409L179.05794,64.5115C180.91992,64.4529,182.39779,63.932,183.51758,62.93268C184.57878,63.4112,185.63997,63.9711,186.69792,64.5928L187.17969,63.9613C186.11849,63.3624,185.07031,62.84154,184.03841,62.40208C184.56901,61.78034,185.03776,60.95026,185.44792,59.89232L187.42057,59.89232L187.42057,59.19245L182.24805,59.19245C182.48893,58.74974,182.73958,58.28099,183,57.77969L182.25781,57.56159C181.98763,58.10195,181.69792,58.64232,181.39844,59.19245L178.598958,59.19245ZM181.85742,59.89232L184.66016,59.89232C184.31836,60.77122,183.87891,61.51016,183.33854,62.1026C182.54753,61.77057,181.7793,61.490629999999996,181.01758,61.27253C181.27799,60.87214,181.55794,60.4099,181.85742,59.89232ZM192.7396,55.46198C191.5775,56.72175,190.1191,57.77969,188.3581,58.63255L188.7096,59.26081C190.4772,58.37214,191.9095,57.3207,193,56.10977C194.1784,57.38255,195.5879,58.4112,197.248,59.21198L197.6094,58.5707C195.9688,57.81224,194.5202,56.78034,193.2604,55.46198L192.7396,55.46198ZM190.207,58.62279L190.207,59.30964L192.6289,59.30964L192.6289,61.05117L189.7285,61.05117L189.7285,61.74128L192.6289,61.74128L192.6289,63.590199999999996L188.8398,63.590199999999996L188.8398,64.3031L197.16989999999998,64.3031L197.16989999999998,63.590199999999996L193.3678,63.590199999999996L193.3678,61.74128L196.2585,61.74128L196.2585,61.05117L193.3678,61.05117L193.3678,59.30964L195.7897,59.30964L195.7897,58.62279L190.207,58.62279ZM207.3978,60.82982L206.7207,60.60195C206.6784,61.181380000000004,206.6296,61.57201,206.5579,61.76081C206.4701,61.9724,206.278,62.08307,205.998,62.08307L204.6374,62.08307C204.35739999999998,62.07005,204.2174,61.930080000000004,204.2174,61.6599L204.2174,59.36172L206.9193,59.36172L206.9193,56.0707L203.3288,56.0707L203.3288,56.74128L206.2194,56.74128L206.2194,58.67162L203.498,58.67162L203.498,61.92031C203.498,62.48997,203.778,62.782939999999996,204.3477,62.782939999999996L206.1283,62.782939999999996C206.6003,62.782939999999996,206.9095,62.65273,207.0592,62.41185C207.2188,62.17096,207.3392,61.64036,207.3978,60.82982ZM199.2077,60.1918C199.1589,61.64036,198.8789,62.95221,198.3776,64.1111L198.92770000000002,64.6026C199.1882,64.0232,199.39,63.4014,199.5495,62.73086C199.9271,63.3331,200.3796,63.7628,200.8874,64.0004C201.4701,64.2706,202.9382,64.4105,205.2786,64.4105L207.4792,64.4105L207.5996,63.7107C207.0592,63.7432,206.2292,63.7628,205.1191,63.7628C203.2897,63.7628,202.0592,63.6716,201.4375,63.5023L201.4375,61.62083L202.86,61.62083L202.86,60.96003L201.4375,60.96003L201.4375,59.55052L202.9772,59.55052L202.9772,58.88971L201.24869999999999,58.88971L201.24869999999999,57.42162L202.8503,57.42162L202.8503,56.76081L201.24869999999999,56.76081L201.24869999999999,55.4099L200.5293,55.4099L200.5293,56.76081L198.8789,56.76081L198.8789,57.42162L200.5293,57.42162L200.5293,58.88971L198.6999,58.88971L198.6999,59.55052L200.7474,59.55052L200.7474,63.1605C200.347,62.8806,200.0085,62.460679999999996,199.709,61.90078C199.7871,61.37995,199.8392,60.84284,199.8587,60.26992L199.2077,60.1918ZM216.5677,56.89102C215.9004,57.48021,215.1582,57.97175,214.3477,58.36237C214.3281,57.8513,214.3184,57.30117,214.3184,56.71198L214.3184,56.01211L208.3678,56.01211L208.3678,56.73151L213.599,56.73151C213.599,59.90208,213.8594,61.98216,214.3802,62.97175C214.888,63.9418,215.5293,64.4301,216.2878,64.4431C216.5189,64.4431,216.74020000000002,64.3324,216.9583,64.1306C217.248,63.753,217.4401,63.1215,217.5378,62.26211L216.8477,62.03099C216.7891,62.711330000000004,216.7077,63.1605,216.61,63.3624C216.5091,63.560900000000004,216.3887,63.6618,216.24869999999999,63.6716C215.7507,63.652100000000004,215.2982,63.2419,214.9206,62.42161C214.6797,61.930080000000004,214.5202,61.06094,214.429,59.80117C215.2493,60.1918,216.0501,60.689840000000004,216.8281,61.30182L217.248,60.67031C216.3691,60.06159,215.4186,59.53099,214.3802,59.09154L214.3802,59.07201C215.36,58.64232,216.2194,58.10195,216.9779,57.460679999999996L216.5677,56.89102ZM223.1302,55.37083L222.3392,55.51081C222.4596,55.741929999999996,222.58010000000002,55.99258,222.67770000000002,56.27253L218.5794,56.27253L218.5794,56.93008L227.4108,56.93008L227.4108,56.27253L223.4492,56.27253C223.3483,55.9405,223.2376,55.64102,223.1302,55.37083ZM225.8092,64.5733C226.5384,64.5733,226.9095,64.251,226.9095,63.6228L226.9095,60.12018L219.0872,60.12018L219.0872,64.6026L219.7773,64.6026L219.7773,60.751689999999996L226.2194,60.751689999999996L226.2194,63.473C226.2194,63.7921,226.0078,63.9516,225.5977,63.9516L224.8001,63.9223L224.9694,64.5733L225.8092,64.5733ZM220.207,57.58112L220.207,59.52122L225.7995,59.52122L225.7995,57.58112L220.207,57.58112ZM225.0996,58.961330000000004L220.9102,58.961330000000004L220.9102,58.14102L225.0996,58.14102L225.0996,58.961330000000004ZM221.0371,61.39297L221.0371,63.3917L224.9694,63.3917L224.9694,61.39297L221.0371,61.39297ZM224.3281,62.8513L221.6882,62.8513L221.6882,61.930080000000004L224.3281,61.930080000000004L224.3281,62.8513ZM183.38086,69.3318C182.94141,69.96979999999999,182.60286,70.6599,182.35221,71.3923C182.05273,72.2517,181.91276,73.1208,181.91276,74.0128C181.91276,74.8819,182.05273,75.751,182.35221,76.6104C182.60286,77.3331,182.94141,78.0232,183.38086,78.67099999999999L184.08073,78.67099999999999C183.67057,78.0004,183.35156,77.3103,183.13346,76.6007C182.83073,75.7217,182.69075,74.8526,182.69075,73.9997C182.69075,73.1404,182.83073,72.281,183.13346,71.4021C183.35156,70.6794,183.67057,69.9926,184.08073,69.3318L183.38086,69.3318ZM187.47591,70.4613L184.66667,77.6L185.54557,77.6L186.30404,75.6013L189.5853,75.6013L190.347,77.6L191.2357,77.6L188.4264,70.4613L187.47591,70.4613ZM186.56445,74.91120000000001L187.9349,71.3402L187.97396,71.3402L189.3249,74.91120000000001L186.56445,74.91120000000001ZM192.0527,70.4613L192.0527,77.6L196.9909,77.6L196.9909,76.8904L192.8633,76.8904L192.8633,70.4613L192.0527,70.4613ZM197.3359,70.4613L197.3359,71.17099999999999L199.8555,71.17099999999999L199.8555,77.6L200.666,77.6L200.666,71.17099999999999L203.1855,71.17099999999999L203.1855,70.4613L197.3359,70.4613ZM203.9961,69.3318C204.3965,69.9926,204.7155,70.6794,204.9466,71.4021C205.2363,72.281,205.3861,73.1404,205.3861,73.9997C205.3861,74.8526,205.2363,75.7217,204.9466,76.6007C204.7155,77.3103,204.3965,78.0004,203.9961,78.67099999999999L204.696,78.67099999999999C205.1257,78.0232,205.4642,77.3331,205.7246,76.6104C206.0143,75.751,206.1641,74.8819,206.1641,74.0128C206.1641,73.1208,206.0143,72.2517,205.7246,71.3923C205.4642,70.6599,205.1257,69.96979999999999,204.696,69.3318L203.9961,69.3318Z" fill="#FFFFFF" fill-opacity="1"/></g><g transform="matrix(-1,0,0,1,314,0)"><path d="M299.206,29.18144L300.199,28.98005L299.801,27.01995L298.808,27.221339L299.206,29.18144ZM295.233,29.98699L297.22,29.58422L296.822,27.624117L294.836,28.0268946L295.233,29.98699ZM291.26099999999997,30.79255L293.247,30.38977L292.85,28.429672L290.86400000000003,28.83245L291.26099999999997,30.79255ZM287.289,31.59811L289.275,31.19533L288.878,29.23523L286.892,29.63801L287.289,31.59811ZM283.317,32.40366L285.303,32.00088L284.905,30.040779999999998L282.919,30.44356L283.317,32.40366ZM279.345,33.20922L281.331,32.80644L280.933,30.84634L278.947,31.24912L279.345,33.20922ZM275.372,34.01477L277.358,33.61199L276.961,31.65189L274.975,32.05467L275.372,34.01477ZM271.4,34.82033L273.38599999999997,34.41755L272.98900000000003,32.45745L271.003,32.86023L271.4,34.82033ZM267.428,35.62588L269.414,35.22311L269.017,33.26301L267.03,33.66578L267.428,35.62588ZM263.456,36.43144L265.442,36.02866L265.044,34.06856L263.058,34.47134L263.456,36.43144ZM259.483,37.23699L261.47,36.83422L261.072,34.87412L259.086,35.27689L259.483,37.23699ZM255.5113,38.0426L257.497,37.63977L257.1,35.67967L255.1137,36.08245L255.5113,38.0426ZM251.539,38.8481L253.5251,38.4453L253.1276,36.48523L251.1415,36.88801L251.539,38.8481ZM247.5668,39.6537L249.5529,39.2509L249.1554,37.29078L247.16930000000002,37.69356L247.5668,39.6537ZM243.5946,40.459199999999996L245.58069999999998,40.0564L245.1832,38.0963L243.1971,38.4991L243.5946,40.459199999999996ZM239.6224,41.2648L241.6085,40.862L241.211,38.9019L239.2249,39.3047L239.6224,41.2648ZM235.6501,42.0703L237.6363,41.6676L237.2387,39.7074L235.2526,40.1102L235.6501,42.0703ZM231.6779,42.8759L233.664,42.4731L233.2665,40.513L231.2804,40.915800000000004L231.6779,42.8759ZM227.70569999999998,43.6814L229.6918,43.2787L229.29430000000002,41.3186L227.3082,41.7213L227.70569999999998,43.6814ZM223.7335,44.486999999999995L225.7196,44.084199999999996L225.3221,42.1241L223.336,42.5269L223.7335,44.486999999999995ZM219.7612,45.292500000000004L221.7474,44.8898L221.3499,42.9297L219.3638,43.3324L219.7612,45.292500000000004ZM215.789,46.0981L217.7751,45.6953L217.3776,43.7352L215.3915,44.138000000000005L215.789,46.0981ZM211.8168,46.9037L213.8029,46.5009L213.4054,44.540800000000004L211.4193,44.9436L211.8168,46.9037ZM207.8446,47.709199999999996L209.8307,47.3064L209.4332,45.3463L207.4471,45.7491L207.8446,47.709199999999996ZM203.8724,48.5148L205.8585,48.111999999999995L205.461,46.1519L203.4749,46.5547L203.8724,48.5148ZM199.9001,49.3203L201.8862,48.917500000000004L201.4888,46.957499999999996L199.5026,47.3602L199.9001,49.3203ZM195.9279,50.1259L197.914,49.7231L197.5165,47.763000000000005L195.5304,48.165800000000004L195.9279,50.1259ZM191.9557,50.9314L193.9418,50.5287L193.5443,48.5686L191.5582,48.9713L191.9557,50.9314ZM187.9835,51.736999999999995L189.9696,51.334199999999996L189.5721,49.3741L187.586,49.7769L187.9835,51.736999999999995ZM184.0112,52.5426L185.9974,52.1398L185.5999,50.1797L183.6137,50.582499999999996L184.0112,52.5426ZM180.039,53.3481L182.0251,52.9453L181.6276,50.9852L179.6415,51.388000000000005L180.039,53.3481ZM176.0668,54.1537L178.0529,53.7509L177.6554,51.790800000000004L175.6693,52.1936L176.0668,54.1537ZM172.0946,54.959199999999996L174.0807,54.5564L173.6832,52.5963L171.6971,52.9991L172.0946,54.959199999999996ZM168.1224,55.7648L170.1085,55.361999999999995L169.711,53.4019L167.7249,53.8047L168.1224,55.7648ZM164.15014,56.5703L166.13624,56.1676L165.73873,54.207499999999996L163.75263,54.6102L164.15014,56.5703ZM160.17791,57.3759L162.16402,56.9731L161.76652,55.013000000000005L159.78041,55.415800000000004L160.17791,57.3759ZM157.198751,57.9801L158.19181,57.7787L157.794306,55.8186L156.801249,56.019999999999996L157.198751,57.9801Z" fill-rule="evenodd" fill="#00F380" fill-opacity="1"/></g><g><g transform="matrix(1,0,0,-1,0,56)"><path d="M15.4987,29.24808L24.2969,42.4453C24.7399,43.109899999999996,24.2635,44,23.4648,44L5.86852,44C5.06982,44,4.59343,43.109899999999996,5.03647,42.4453L13.83462,29.24808C14.2304,28.654342,15.1029,28.654342,15.4987,29.24808ZM6.6159300000000005,42.6L14.6667,30.52389L22.7174,42.6L6.6159300000000005,42.6Z" fill-rule="evenodd" fill="#FFFFFF" fill-opacity="1"/></g></g><g><g><g><g><path d="M158.1616771484375,97L162.6818771484375,102L153.6414771484375,102L158.1616771484375,97ZM160.1701771484375,102.5L160.1701771484375,104L156.1522171484375,104L156.1522171484375,102.5L160.1701771484375,102.5ZM160.1701771484375,106.5L160.1701771484375,105L156.1522171484375,105L156.1522171484375,106.5L160.1701771484375,106.5ZM157.57489714843751,107.01050000000001L158.1613771484375,107L158.74797714843749,107.01050000000001C162.9121771484375,107.16,166.1972771484375,108.889,166.1972771484375,111C166.1972771484375,113.2091,162.5994771484375,115,158.1613771484375,115C153.7233271484375,115,150.1255471484375,113.2091,150.1255471484375,111C150.1255471484375,108.889,153.4106371484375,107.16,157.57489714843751,107.01050000000001ZM168.2062771484375,112C168.2062771484375,109.2386,163.7090771484375,107,158.1613771484375,107L157.8668271484375,107.0026L157.5380571484375,107.0095C152.2807971484375,107.1697,148.1165771484375,109.3428,148.1165771484375,112C148.1165771484375,114.7614,152.6138071484375,117,158.1613771484375,117C163.7090771484375,117,168.2062771484375,114.7614,168.2062771484375,112ZM157.0332271484375,108.1709L156.6826171484375,109.6679L159.6789771484375,109.6679L159.3294771484375,108.1709L160.6701771484375,108.1709L162.0556771484375,112.8297L160.4190771484375,112.8297L159.9592771484375,110.8669L156.4023571484375,110.8669L155.9436171484375,112.8297L154.3070071484375,112.8297L155.6925171484375,108.1709L157.0332271484375,108.1709Z" fill-rule="evenodd" fill="#FFFFFF" fill-opacity="1"/></g><g mask="url(#master_svg0_9436_094529/125_04718)"><g></g></g></g></g></g></g><g><path d="M20.07812,57.29076L18.94857,57.43073L18.94857,54.55964L18.26823,54.55964L18.26823,61.1124C18.26823,61.3826,18.16732,61.5616,17.98828,61.643L18.16732,62.281C18.91927,62.001,19.58984,61.6723,20.17904,61.2816L20.05859,60.6501C19.72005,60.900800000000004,19.348959999999998,61.1124,18.94857,61.291399999999996L18.94857,58.08177L20.07812,57.93203L20.07812,57.29076ZM17.327469999999998,54.41966C16.91732,55.82266,16.26953,57.04987,15.377604,58.1306L15.589193,58.85977C15.908203,58.501689999999996,16.20768,58.12083,16.48763,57.720439999999996L16.48763,63.5831L17.17773,63.5831L17.17773,56.58112C17.47721,55.991929999999996,17.73763,55.37018,17.94922,54.70938L17.327469999999998,54.41966ZM20.1888,54.81029L20.1888,55.461330000000004L21.9987,55.461330000000004C21.95964,55.85195,21.88802,56.22956,21.80013,56.59089L20.50781,56.59089L20.50781,61.3826L21.17839,61.3826L21.17839,57.23216L23.53841,57.23216L23.53841,61.3826L24.21875,61.3826L24.21875,56.59089L22.5,56.59089C22.57812,56.22956,22.64974,55.85195,22.70833,55.461330000000004L24.56055,55.461330000000004L24.56055,54.81029L20.1888,54.81029ZM23.05013,61.5909L22.60742,62.0108C23.25846,62.5805,23.76953,63.1208,24.14062,63.6319L24.61914,63.1501C24.19922,62.6326,23.66862,62.1117,23.05013,61.5909ZM22.02799,57.84089L22.02799,60.012100000000004C22.00846,60.7901,21.839190000000002,61.4216,21.52018,61.9001C21.16862,62.3721,20.5599,62.753,19.69727,63.0329L20.06836,63.6026C20.97982,63.3031,21.63737,62.8832,22.047530000000002,62.3428C22.44792,61.7504,22.66927,60.9724,22.69857,60.012100000000004L22.69857,57.84089L22.02799,57.84089ZM27.7897,54.49128C27.1582,55.4125,26.3574,56.252340000000004,25.3874,57.03034L25.8171,57.63255C26.787100000000002,56.81224,27.5488,55.991929999999996,28.099,55.17162C28.5872,55.6013,29.238300000000002,56.27188,30.039099999999998,57.17031L30.488300000000002,56.59089C29.7103,55.76081,28.977899999999998,55.06094,28.3171,54.49128L27.7897,54.49128ZM26.529899999999998,57.17031L26.529899999999998,57.82135L27.7376,57.82135L27.7376,58.98021L25.7389,58.98021L25.7389,59.64102L27.7376,59.64102L27.7376,62.4307C27.7376,62.7204,27.630200000000002,62.8702,27.4284,62.8702C27.1973,62.8702,26.959600000000002,62.8507,26.709,62.8214L26.868499999999997,63.5115L27.679000000000002,63.5115C28.1901,63.5115,28.4473,63.212,28.4473,62.613L28.4473,59.64102L30.0781,59.64102L30.0781,58.98021L28.4473,58.98021L28.4473,57.82135L29.6582,57.82135L29.6582,57.17031L26.529899999999998,57.17031ZM26.569000000000003,60.2204C26.2598,61.1612,25.8887,61.962,25.4688,62.6423L26.018900000000002,63.0232C26.4486,62.3103,26.8294,61.4704,27.148400000000002,60.5004L26.569000000000003,60.2204ZM29.5475,60.2107L28.9486,60.4223C29.247999999999998,61.1026,29.5182,61.8904,29.7591,62.7921L30.367800000000003,62.5219C30.130200000000002,61.7016,29.86,60.930099999999996,29.5475,60.2107ZM34.550799999999995,60.0219L33.7402,60.1423L33.7402,54.48151L33.040400000000005,54.48151L33.040400000000005,60.253L30.5078,60.6306L30.6087,61.3207L33.040400000000005,60.9529L33.040400000000005,63.5831L33.7402,63.5831L33.7402,60.852000000000004L34.6582,60.712L34.550799999999995,60.0219ZM31.0775,55.19115L30.589199999999998,55.65013C31.2793,56.1612,31.8197,56.63971,32.210300000000004,57.09219L32.6986,56.60065C32.259100000000004,56.14167,31.7188,55.66966,31.0775,55.19115ZM30.9082,57.53164L30.4297,57.99063C31.11,58.53099,31.6504,59.05182,32.0475,59.53034L32.539100000000005,59.03229C32.099599999999995,58.53099,31.5495,58.02969,30.9082,57.53164ZM42.1191,55.64037L42.1191,57.9125L41.2402,57.9125L41.2402,55.64037L42.1191,55.64037ZM42.7181,57.9125L42.7181,55.64037L43.5677,55.64037L43.5677,57.9125L42.7181,57.9125ZM44.199200000000005,54.97956L40.599000000000004,54.97956L40.599000000000004,60.4711C40.599000000000004,61.040800000000004,40.8691,61.3305,41.4193,61.3305L43.5807,61.3305C43.9583,61.310900000000004,44.2188,61.1319,44.339200000000005,60.7706C44.4206,60.5329,44.4889,60.1423,44.528,59.59219L43.8802,59.37083C43.837900000000005,59.92096,43.7988,60.2725,43.75,60.4125C43.678399999999996,60.572,43.557900000000004,60.6599,43.3789,60.6729L41.6797,60.6729C41.3802,60.6729,41.2402,60.5329,41.2402,60.253L41.2402,58.57005L44.199200000000005,58.57005L44.199200000000005,54.97956ZM39.7982,54.41966C38.9193,54.80052,37.7083,55.06094,36.1686,55.20091L36.1686,58.53099C36.1393,60.2628,35.8887,61.7504,35.4069,63.0102L35.9082,63.531C36.4681,62.150800000000004,36.7676,60.4809,36.8001,58.53099L36.8001,55.80964C37.0801,55.77057,37.36,55.74128,37.64,55.70221L37.64,63.4529L38.2975,63.4529L38.2975,55.58177C38.557900000000004,55.51992,38.7988,55.461330000000004,39.039699999999996,55.39948C39.049499999999995,58.26081,39.1178,60.0023,39.248000000000005,60.6208C39.4076,61.4216,39.6973,62.0206,40.1302,62.4405C40.898399999999995,63.1306,42.288399999999996,63.4919,44.3099,63.5212L44.5801,62.8507C42.6986,62.8507,41.4095,62.5707,40.709599999999995,62.0303C40.1302,61.6202,39.807900000000004,60.7608,39.759100000000004,59.46198C39.710300000000004,57.90273,39.6875,56.48021,39.6875,55.20091C39.8893,55.13255,40.087900000000005,55.05117,40.2799,54.96979L39.7982,54.41966ZM50.1888,54.49128C48.9974,55.02188,47.5195,55.37018,45.7585,55.53945L45.989599999999996,56.1905C46.6699,56.1319,47.3372,56.04076,47.9785,55.90078L47.9785,58.23151L45.5469,58.23151L45.5469,58.931380000000004L47.9688,58.931380000000004C47.8678,60.8324,47.1094,62.2322,45.686800000000005,63.1306L46.227199999999996,63.6026C47.7702,62.6,48.5872,61.0505,48.7077,58.931380000000004L51.3997,58.931380000000004L51.3997,63.5928L52.1289,63.5928L52.1289,58.931380000000004L54.4401,58.931380000000004L54.4401,58.23151L52.1289,58.23151L52.1289,54.53034L51.3997,54.53034L51.3997,58.23151L48.7174,58.23151L48.7174,55.72175C49.3392,55.55247,49.9479,55.34089,50.5273,55.08047L50.1888,54.49128ZM63.5677,55.89102C62.9004,56.48021,62.1582,56.97175,61.3477,57.36237C61.3281,56.8513,61.3184,56.30117,61.3184,55.71198L61.3184,55.01211L55.3678,55.01211L55.3678,55.73151L60.599,55.73151C60.599,58.90208,60.8594,60.9822,61.3802,61.9717C61.888,62.9418,62.5293,63.430099999999996,63.2878,63.4431C63.5189,63.4431,63.7402,63.3324,63.9583,63.1306C64.24799999999999,62.753,64.4401,62.1215,64.5378,61.262100000000004L63.8477,61.031C63.7891,61.7113,63.7077,62.1605,63.61,62.3624C63.5091,62.560900000000004,63.3887,62.6618,63.2487,62.6716C62.7507,62.652100000000004,62.2982,62.2419,61.9206,61.4216C61.6797,60.930099999999996,61.5202,60.060900000000004,61.429,58.80117C62.2493,59.1918,63.0501,59.689840000000004,63.8281,60.3018L64.24799999999999,59.67031C63.3691,59.06159,62.4186,58.53099,61.3802,58.09154L61.3802,58.07201C62.36,57.64232,63.2194,57.10195,63.9779,56.460679999999996L63.5677,55.89102ZM69.24799999999999,55.0707L69.24799999999999,55.78034L74.03970000000001,55.78034L74.03970000000001,55.0707L69.24799999999999,55.0707ZM68.9779,57.60977L68.9779,58.32266L72.1289,58.32266L72.1289,62.512100000000004C72.1289,62.7725,71.9596,62.902699999999996,71.6374,62.902699999999996C71.1979,62.902699999999996,70.7487,62.8832,70.2702,62.8507L70.4199,63.5603L71.888,63.5603C72.5293,63.5603,72.85810000000001,63.2706,72.85810000000001,62.6911L72.85810000000001,58.32266L74.47919999999999,58.32266L74.47919999999999,57.60977L68.9779,57.60977ZM67.66929999999999,54.52057C67.1973,55.461330000000004,66.4486,56.30117,65.40690000000001,57.0401L65.6185,57.76276C66.8587,56.9099,67.7572,55.930080000000004,68.31710000000001,54.82005L67.66929999999999,54.52057ZM68.138,56.80247C67.5781,57.9125,66.68950000000001,58.89232,65.4688,59.751689999999996L65.6771,60.4711C66.1589,60.1423,66.58850000000001,59.79076,66.9889,59.43268L66.9889,63.6026L67.6986,63.6026L67.6986,58.70026C68.138,58.20221,68.4993,57.66185,68.78909999999999,57.10195L68.138,56.80247ZM80.5404,54.53034L80.5404,56.35977L79.5378,56.35977L79.5378,57.01081L80.5404,57.01081L80.5404,57.78229C80.5176,60.2204,79.9577,62.001,78.83789999999999,63.1111L79.3587,63.5603C80.5794,62.3428,81.2077,60.4223,81.2402,57.78229L81.2402,57.01081L82.3405,57.01081L82.3405,62.4112C82.3405,63.1111,82.6204,63.4626,83.1999,63.4626L83.5579,63.4626C84.0202,63.4626,84.3001,63.2413,84.3978,62.8116C84.4499,62.590199999999996,84.4987,62.001,84.5508,61.040800000000004L83.9095,60.8422C83.9095,61.3923,83.89,61.9132,83.8607,62.3917C83.8184,62.6716,83.7207,62.8214,83.5579,62.8214L83.2975,62.8214C83.099,62.8214,83.0078,62.652100000000004,83.0078,62.3103L83.0078,56.35977L81.2402,56.35977L81.2402,54.53034L80.5404,54.53034ZM77.42840000000001,57.180080000000004L77.42840000000001,58.68073L76.33789999999999,58.68073C76.6178,58.04271,76.888,57.29076,77.1289,56.45091L79.209,56.45091L79.209,55.76081L77.30789999999999,55.76081C77.4089,55.37995,77.5,54.96979,77.58789999999999,54.54987L76.9076,54.44245C76.8099,54.90143,76.69919999999999,55.34089,76.5983,55.76081L75.3971,55.76081L75.3971,56.45091L76.41929999999999,56.45091C76.1589,57.3526,75.8887,58.1013,75.5892,58.6905L75.7389,59.33177L77.42840000000001,59.33177L77.42840000000001,60.8227C76.78710000000001,60.930099999999996,76.11,61.031,75.3874,61.1124L75.4785,61.812200000000004C76.1589,61.7211,76.8099,61.6202,77.42840000000001,61.5225L77.42840000000001,63.540800000000004L78.1283,63.540800000000004L78.1283,61.3826C78.61,61.2816,79.0788,61.171,79.528,61.0505L79.528,60.3702C79.0885,60.4906,78.62960000000001,60.591499999999996,78.1283,60.6924L78.1283,59.33177L79.3978,59.33177L79.3978,58.68073L78.1283,58.68073L78.1283,57.180080000000004L77.42840000000001,57.180080000000004ZM88.9193,57.33958C88.7793,58.48216,88.4603,59.3806,87.959,60.041399999999996L88.5091,60.432C89.0299,59.77122,89.3685,58.771879999999996,89.528,57.43073L88.9193,57.33958ZM90.1693,56.22956L90.1693,57.58047C90.1497,59.48151,89.6582,60.852000000000004,88.6881,61.7113L89.2188,62.180099999999996C90.2995,61.21,90.8496,59.680080000000004,90.8691,57.58047L90.8691,56.22956L92.0182,56.22956L92.0182,61.363C92.0182,61.5616,91.9206,61.6625,91.7188,61.6625C91.4876,61.6625,91.25,61.643,90.9994,61.6104L91.1491,62.2712L91.9596,62.2712C92.4284,62.2712,92.6693,62.0206,92.6693,61.5323L92.6693,56.22956L94.1992,56.22956L94.1992,55.56224L91.7285,55.56224C91.5885,55.14232,91.4486,54.76146,91.3086,54.429429999999996L90.5794,54.54987C90.7292,54.84935,90.8691,55.19115,91.0091,55.56224L88.418,55.56224L88.418,56.22956L90.1693,56.22956ZM86.2174,54.52057L85.7194,54.992580000000004C86.4193,55.57201,86.9596,56.12214,87.36,56.62995L87.8581,56.14167C87.4089,55.6013,86.8587,55.06094,86.2174,54.52057ZM92.0703,63.430099999999996L94.3978,63.430099999999996L94.5703,62.7107C94.3099,62.730199999999996,93.929,62.7432,93.4375,62.7628C92.9395,62.7628,92.4479,62.7725,91.9694,62.7725C91.1686,62.7725,90.5078,62.7628,89.9772,62.753C89.3783,62.730199999999996,88.9193,62.652100000000004,88.61,62.5219C88.3171,62.3819,88.0501,62.1605,87.8092,61.8806C87.7279,61.7829,87.64,61.7016,87.5586,61.643L87.5586,57.90273L85.5176,57.90273L85.5176,58.56029L86.888,58.56029L86.888,61.6104C86.4876,61.7829,86.0286,62.290800000000004,85.5078,63.1306L86.0482,63.6221C86.5885,62.700900000000004,86.9694,62.2419,87.207,62.2419C87.3275,62.2419,87.4577,62.3201,87.5977,62.5023C87.9199,62.8604,88.2682,63.1111,88.6686,63.2315C89.0788,63.3422,89.6094,63.400800000000004,90.2702,63.4105C90.9082,63.4203,91.5104,63.430099999999996,92.0703,63.430099999999996ZM93.6589,57.492580000000004L93.0697,57.68138C93.3691,58.67096,93.61,59.702870000000004,93.7988,60.7608L94.4303,60.6013C94.1992,59.43268,93.9388,58.39102,93.6589,57.492580000000004Z" fill="#FFFFFF" fill-opacity="1"/></g><g><g><path d="M113.4659,64.0000000350092C115.5699,63.99979136,117.56569999999999,64.932457,118.9153,66.54657C120.26480000000001,68.16069,120.8293,70.29011,120.4565,72.3608L120.4138,72.57007L120.52080000000001,72.58333C123.71770000000001,73.02198,126.1347,75.6983,126.2462,78.9233L126.25,79.1515C126.2518,80.3244,125.9413,81.4765,125.3503,82.4896L125.2803,82.60040000000001L125.4526,82.8494C126.5275,84.4596,127.12989999999999,86.3387,127.1913,88.2737L127.197,88.6212C127.197,94.3741,122.5331,99.0378,116.7803,99.0378C116.2597,99.0344,115.8395,98.6115,115.8395,98.0909C115.8395,97.5703,116.2597,97.1473,116.7803,97.1439C121.4872,97.1439,125.303,93.3281,125.303,88.6212C125.3065,86.656,124.627,84.75059999999999,123.3806,83.2311C123.1007,82.8892,123.09440000000001,82.3991,123.3655,82.0502C124.5153,80.5647,124.67830000000001,78.53999999999999,123.7809,76.8898C122.8834,75.2396,121.09530000000001,74.27590000000001,119.2235,74.4338C118.8926,74.4629,118.5706,74.3165,118.375,74.048C118.1794,73.77955,118.1388,73.42822,118.268,73.12219C118.8866,70.48393,117.3789,67.81207,114.8007,66.97781C112.2225,66.14354,109.4353,67.42563,108.3911,69.92619C108.2837,70.39131,107.847,70.70384,107.37219999999999,70.65535C105.9154,70.50481,104.46266,70.97451,103.36979,71.94934C102.27692,72.92417,101.64495,74.3141,101.62874,75.7784C101.62439,76.1761,101.3721,76.5286,100.99715,76.661C98.66405,77.4865,97.05181,79.6285,96.90411,82.099C96.75641,84.5694,98.10195,86.8882,100.32007,87.9858C100.70393,88.1759,100.91244,88.5999,100.82857,89.0199C100.29667,91.65520000000001,101.20123,94.375,103.2055,96.16669999999999C105.2098,97.9585,108.0135,98.5538,110.5729,97.7311C111.0711,97.57130000000001,111.6044,97.84559999999999,111.7642,98.3438C111.924,98.84190000000001,111.6497,99.37530000000001,111.1515,99.5351C110.2161,99.8343,109.2397,99.98599999999999,108.2576,99.98490000000001C103.02747,99.98490000000001,98.78788,95.7453,98.78788,90.5152C98.78788,90.1364,98.81059,89.7595,98.85417,89.3864L98.8608,89.3391L98.76322,89.2804C96.50433,87.8604,95.0964471,85.4128,95.00472005,82.7463L95,82.4659C94.999842942,79.3363,96.81312,76.4901,99.64962,75.1676L99.77177,75.1127L99.77649,75.0654C100.16063,71.55114,103.07088,68.85443,106.6042,68.73869L106.767,68.73584L106.8201,68.59188C107.8342,65.91128,110.3591,64.102115,113.2235,64.00378421L113.4659,64.0000000350092Z" fill="#FFFFFF" fill-opacity="1"/></g><g><path d="M102.57843012502808,113.10856588134766C102.54906673502808,112.60836588134765,102.91438393502807,112.17186588134766,103.41190593502807,112.11266588134765L103.52270493502807,112.10606588134766L110.19884793502807,112.10606588134766L110.19884793502807,94.86746588134766L105.87686793502807,92.27368588134766L105.78503793502807,92.21211588134766C105.38256793502808,91.90732588134766,105.28996793502807,91.34040588134765,105.57454793502808,90.92339588134766C105.85911793502808,90.50639588134766,106.42078793502807,90.38595588134766,106.85131793502808,90.64961588134766L110.19884793502807,92.65909588134765L110.19884793502807,85.78031488134765C110.19493793502808,85.27603688134765,110.58690793502808,84.85715698134766,111.09033793502807,84.82761705134766C111.59375793502808,84.79807708134766,112.03202793502808,85.16824088134766,112.08711793502808,85.66951588134765L112.09281793502808,85.78031488134765L112.09281793502808,89.38920588134766L113.91097793502807,88.09468588134766C114.31817793502807,87.80368588134766,114.88147793502807,87.87977588134765,115.19687793502808,88.26837588134765C115.51227793502808,88.65697588134766,115.47077793502808,89.22390588134766,115.10227793502807,89.56250588134766L115.00947793502807,89.63826588134765L112.16853793502807,91.66003588134765L112.09277793502808,91.70642588134766L112.09277793502808,112.10606588134766L118.67427793502807,112.10606588134766C119.17517793502807,112.10686588134766,119.58877793502808,112.49756588134765,119.61817793502807,112.99756588134765C119.64757793502807,113.49756588134765,119.28237793502808,113.93396588134766,118.78507793502808,113.99336588134766L118.67427793502807,113.99996588134766L103.52270493502807,113.99996588134766C103.02167493502807,113.99946588134766,102.60779353502808,113.60866588134766,102.57843012502808,113.10856588134766Z" fill="#FFFFFF" fill-opacity="1"/></g></g><g><path d="M64.07747,10.52253L64.07747,11.18984L65.27865,11.18984L65.27865,12.56029L63.546875,12.56029L63.546875,13.24063L65.27865,13.24063L65.27865,14.7022L64.04818,14.7022L64.04818,15.3728L67.63867,15.3728L67.63867,16.5805L64.25977,16.5805L64.25977,17.2608L71.75,17.2608L71.75,16.5805L68.35807,16.5805L68.35807,15.3728L71.96809999999999,15.3728L71.96809999999999,14.7022L70.71809999999999,14.7022L70.71809999999999,13.24063L72.45963,13.24063L72.45963,12.56029L70.71809999999999,12.56029L70.71809999999999,11.18984L71.91927,11.18984L71.91927,10.52253L68.35807,10.52253L68.35807,9.55247C69.61784,9.45156,70.71809999999999,9.311589999999999,71.67838,9.13255L71.33984,8.540099999999999C69.41927,8.8819,66.9974,9.06094,64.09701,9.0707L64.30859,9.67943C65.5,9.67943,66.61003,9.65013,67.63867,9.59154L67.63867,10.52253L64.07747,10.52253ZM70.03776,14.7022L68.35807,14.7022L68.35807,13.24063L70.03776,13.24063L70.03776,14.7022ZM70.03776,12.56029L68.35807,12.56029L68.35807,11.18984L70.03776,11.18984L70.03776,12.56029ZM67.63867,14.7022L65.95898,14.7022L65.95898,13.24063L67.63867,13.24063L67.63867,14.7022ZM67.63867,12.56029L65.95898,12.56029L65.95898,11.18984L67.63867,11.18984L67.63867,12.56029ZM73.7585,9.34089L73.7585,10.03099L77.5085,10.03099C77.4596,10.301169999999999,77.3978,10.58112,77.3392,10.86107L74.9987,10.86107L74.9987,16.7009L73.5697,16.7009L73.5697,17.371499999999997L82.4401,17.371499999999997L82.4401,16.7009L80.959,16.7009L80.959,10.86107L78.0781,10.86107C78.14,10.60065,78.1986,10.3207,78.2474,10.03099L82.2383,10.03099L82.2383,9.34089L78.35810000000001,9.34089C78.4004,9.0707,78.4297,8.790759999999999,78.459,8.50104L77.7298,8.40013C77.6973,8.70938,77.6582,9.02188,77.6191,9.34089L73.7585,9.34089ZM75.7083,16.7009L75.7083,15.822L80.2493,15.822L80.2493,16.7009L75.7083,16.7009ZM75.7083,15.2328L75.7083,14.3799L80.2493,14.3799L80.2493,15.2328L75.7083,15.2328ZM75.7083,13.80052L75.7083,12.96068L80.2493,12.96068L80.2493,13.80052L75.7083,13.80052ZM75.7083,12.37148L75.7083,11.50234L80.2493,11.50234L80.2493,12.37148L75.7083,12.37148ZM90.1191,9.64037L90.1191,11.9125L89.2402,11.9125L89.2402,9.64037L90.1191,9.64037ZM90.71809999999999,11.9125L90.71809999999999,9.64037L91.5677,9.64037L91.5677,11.9125L90.71809999999999,11.9125ZM92.1992,8.97956L88.599,8.97956L88.599,14.4711C88.599,15.0408,88.8691,15.3305,89.41929999999999,15.3305L91.58070000000001,15.3305C91.95830000000001,15.3109,92.2188,15.1319,92.3392,14.7706C92.42060000000001,14.5329,92.4889,14.1423,92.52799999999999,13.59219L91.8802,13.37083C91.8379,13.92096,91.7988,14.2725,91.75,14.4125C91.6784,14.572,91.5579,14.6599,91.3789,14.6729L89.6797,14.6729C89.3802,14.6729,89.2402,14.5329,89.2402,14.253L89.2402,12.57005L92.1992,12.57005L92.1992,8.97956ZM87.79820000000001,8.41966C86.91929999999999,8.800519999999999,85.70830000000001,9.06094,84.1686,9.20091L84.1686,12.53099C84.13929999999999,14.2628,83.8887,15.7504,83.40690000000001,17.010199999999998L83.9082,17.531C84.46809999999999,16.1508,84.7676,14.4809,84.8001,12.53099L84.8001,9.80964C85.0801,9.77057,85.36,9.74128,85.64,9.702210000000001L85.64,17.4529L86.2975,17.4529L86.2975,9.581769999999999C86.5579,9.519919999999999,86.7988,9.46133,87.0397,9.39948C87.0495,12.26081,87.1178,14.0023,87.248,14.6208C87.4076,15.4216,87.6973,16.0206,88.1302,16.4405C88.8984,17.1306,90.2884,17.4919,92.3099,17.5212L92.5801,16.8507C90.6986,16.8507,89.40950000000001,16.570700000000002,88.7096,16.0303C88.1302,15.6202,87.8079,14.7608,87.7591,13.46198C87.7103,11.90273,87.6875,10.48021,87.6875,9.20091C87.88929999999999,9.13255,88.0879,9.051169999999999,88.2799,8.96979L87.79820000000001,8.41966ZM98.1888,8.49128C96.9974,9.02188,95.5195,9.370180000000001,93.7585,9.53945L93.9896,10.1905C94.6699,10.1319,95.3372,10.040759999999999,95.9785,9.900780000000001L95.9785,12.23151L93.5469,12.23151L93.5469,12.93138L95.9688,12.93138C95.8678,14.8324,95.1094,16.2322,93.6868,17.1306L94.2272,17.602600000000002C95.7702,16.6,96.5872,15.0505,96.7077,12.93138L99.3997,12.93138L99.3997,17.5928L100.1289,17.5928L100.1289,12.93138L102.4401,12.93138L102.4401,12.23151L100.1289,12.23151L100.1289,8.530339999999999L99.3997,8.530339999999999L99.3997,12.23151L96.7174,12.23151L96.7174,9.72175C97.3392,9.55247,97.9479,9.34089,98.5273,9.08047L98.1888,8.49128ZM111.5677,9.891020000000001C110.90039999999999,10.48021,110.1582,10.97175,109.3477,11.36237C109.3281,10.8513,109.3184,10.301169999999999,109.3184,9.71198L109.3184,9.01211L103.3678,9.01211L103.3678,9.73151L108.59899999999999,9.73151C108.59899999999999,12.90208,108.8594,14.9822,109.3802,15.9717C109.888,16.9418,110.5293,17.4301,111.2878,17.4431C111.5189,17.4431,111.7402,17.3324,111.95830000000001,17.1306C112.24799999999999,16.753,112.4401,16.121499999999997,112.5378,15.2621L111.8477,15.031C111.78909999999999,15.7113,111.7077,16.1605,111.61,16.3624C111.50909999999999,16.5609,111.3887,16.6618,111.2487,16.671599999999998C110.7507,16.6521,110.29820000000001,16.2419,109.92060000000001,15.4216C109.6797,14.9301,109.5202,14.0609,109.429,12.80117C110.2493,13.1918,111.0501,13.68984,111.8281,14.3018L112.24799999999999,13.67031C111.3691,13.06159,110.4186,12.53099,109.3802,12.09154L109.3802,12.07201C110.36,11.64232,111.21940000000001,11.10195,111.9779,10.46068L111.5677,9.891020000000001ZM117.24799999999999,9.0707L117.24799999999999,9.780339999999999L122.03970000000001,9.780339999999999L122.03970000000001,9.0707L117.24799999999999,9.0707ZM116.9779,11.609770000000001L116.9779,12.32266L120.1289,12.32266L120.1289,16.5121C120.1289,16.7725,119.9596,16.9027,119.6374,16.9027C119.1979,16.9027,118.7487,16.883200000000002,118.2702,16.8507L118.4199,17.560299999999998L119.888,17.560299999999998C120.5293,17.560299999999998,120.85810000000001,17.2706,120.85810000000001,16.6911L120.85810000000001,12.32266L122.47919999999999,12.32266L122.47919999999999,11.609770000000001L116.9779,11.609770000000001ZM115.66929999999999,8.52057C115.1973,9.46133,114.4486,10.301169999999999,113.40690000000001,11.040099999999999L113.6185,11.76276C114.8587,10.9099,115.7572,9.93008,116.31710000000001,8.82005L115.66929999999999,8.52057ZM116.138,10.80247C115.5781,11.9125,114.68950000000001,12.89232,113.4688,13.75169L113.6771,14.4711C114.1589,14.1423,114.58850000000001,13.79076,114.9889,13.43268L114.9889,17.602600000000002L115.6986,17.602600000000002L115.6986,12.70026C116.138,12.20221,116.4993,11.661850000000001,116.78909999999999,11.10195L116.138,10.80247ZM128.5404,8.530339999999999L128.5404,10.359770000000001L127.5378,10.359770000000001L127.5378,11.01081L128.5404,11.01081L128.5404,11.78229C128.51760000000002,14.2204,127.9577,16.000999999999998,126.83789999999999,17.1111L127.3587,17.560299999999998C128.57940000000002,16.3428,129.2077,14.4223,129.24020000000002,11.78229L129.24020000000002,11.01081L130.34050000000002,11.01081L130.34050000000002,16.4112C130.34050000000002,17.1111,130.62040000000002,17.462600000000002,131.1999,17.462600000000002L131.55790000000002,17.462600000000002C132.0202,17.462600000000002,132.3001,17.241300000000003,132.39780000000002,16.8116C132.4499,16.5902,132.49869999999999,16.000999999999998,132.55079999999998,15.0408L131.90949999999998,14.8422C131.90949999999998,15.3923,131.89,15.9132,131.8607,16.3917C131.8184,16.671599999999998,131.7207,16.8214,131.55790000000002,16.8214L131.2975,16.8214C131.099,16.8214,131.0078,16.6521,131.0078,16.310299999999998L131.0078,10.359770000000001L129.24020000000002,10.359770000000001L129.24020000000002,8.530339999999999L128.5404,8.530339999999999ZM125.42840000000001,11.18008L125.42840000000001,12.68073L124.33789999999999,12.68073C124.6178,12.04271,124.888,11.290759999999999,125.1289,10.45091L127.209,10.45091L127.209,9.76081L125.30789999999999,9.76081C125.4089,9.379950000000001,125.5,8.96979,125.58789999999999,8.54987L124.9076,8.442450000000001C124.8099,8.901430000000001,124.69919999999999,9.34089,124.5983,9.76081L123.3971,9.76081L123.3971,10.45091L124.41929999999999,10.45091C124.1589,11.352599999999999,123.8887,12.1013,123.5892,12.6905L123.7389,13.33177L125.42840000000001,13.33177L125.42840000000001,14.8227C124.78710000000001,14.9301,124.11,15.031,123.3874,15.1124L123.4785,15.8122C124.1589,15.7211,124.8099,15.6202,125.42840000000001,15.5225L125.42840000000001,17.5408L126.1283,17.5408L126.1283,15.3826C126.61,15.2816,127.0788,15.171,127.528,15.0505L127.528,14.3702C127.0885,14.4906,126.62960000000001,14.5915,126.1283,14.6924L126.1283,13.33177L127.3978,13.33177L127.3978,12.68073L126.1283,12.68073L126.1283,11.18008L125.42840000000001,11.18008ZM136.91930000000002,11.33958C136.7793,12.48216,136.46030000000002,13.3806,135.959,14.0414L136.5091,14.432C137.0299,13.77122,137.36849999999998,12.77188,137.52800000000002,11.43073L136.91930000000002,11.33958ZM138.16930000000002,10.22956L138.16930000000002,11.58047C138.1497,13.48151,137.6582,14.852,136.68810000000002,15.7113L137.2188,16.1801C138.2995,15.21,138.8496,13.68008,138.8691,11.58047L138.8691,10.22956L140.01819999999998,10.22956L140.01819999999998,15.363C140.01819999999998,15.5616,139.92059999999998,15.6625,139.7188,15.6625C139.4876,15.6625,139.25,15.643,138.99939999999998,15.6104L139.1491,16.2712L139.9596,16.2712C140.4284,16.2712,140.66930000000002,16.0206,140.66930000000002,15.5323L140.66930000000002,10.22956L142.19920000000002,10.22956L142.19920000000002,9.56224L139.7285,9.56224C139.5885,9.14232,139.4486,8.76146,139.3086,8.42943L138.57940000000002,8.54987C138.7292,8.849350000000001,138.8691,9.19115,139.0091,9.56224L136.418,9.56224L136.418,10.22956L138.16930000000002,10.22956ZM134.2174,8.52057L133.7194,8.99258C134.41930000000002,9.572009999999999,134.9596,10.12214,135.36,10.629950000000001L135.85809999999998,10.141670000000001C135.40890000000002,9.6013,134.8587,9.06094,134.2174,8.52057ZM140.0703,17.4301L142.39780000000002,17.4301L142.5703,16.7107C142.3099,16.7302,141.929,16.7432,141.4375,16.7628C140.9395,16.7628,140.4479,16.7725,139.9694,16.7725C139.1686,16.7725,138.5078,16.7628,137.97719999999998,16.753C137.3783,16.7302,136.91930000000002,16.6521,136.61,16.521900000000002C136.31709999999998,16.3819,136.0501,16.1605,135.8092,15.8806C135.7279,15.7829,135.64,15.7016,135.5586,15.643L135.5586,11.90273L133.51760000000002,11.90273L133.51760000000002,12.56029L134.888,12.56029L134.888,15.6104C134.4876,15.7829,134.02859999999998,16.2908,133.5078,17.1306L134.0482,17.6221C134.5885,16.7009,134.9694,16.2419,135.207,16.2419C135.3275,16.2419,135.4577,16.3201,135.5977,16.502299999999998C135.91989999999998,16.8604,136.26819999999998,17.1111,136.6686,17.2315C137.0788,17.3422,137.6094,17.4008,138.2702,17.4105C138.9082,17.420299999999997,139.5104,17.4301,140.0703,17.4301ZM141.65890000000002,11.49258L141.0697,11.68138C141.3691,12.67096,141.61,13.70287,141.7988,14.7608L142.4303,14.6013C142.19920000000002,13.43268,141.93880000000001,12.39102,141.65890000000002,11.49258Z" fill="#FFFFFF" fill-opacity="1"/></g></g></g></svg>