<?xml version="1.0" standalone="no"?><!DOCTYPE svg PUBLIC "-//W3C//DTD SVG 1.1//EN" "http://www.w3.org/Graphics/SVG/1.1/DTD/svg11.dtd"><svg t="1765608632833" class="icon" viewBox="0 0 1024 1024" version="1.1" xmlns="http://www.w3.org/2000/svg" p-id="1742" xmlns:xlink="http://www.w3.org/1999/xlink" width="48" height="48"><path d="M513.27872 898.816c52.309333 3.584 105.642667-4.48 158.592-12.544 23.808-3.584 47.146667-11.093333 70.442667-17.621333a404.053333 404.053333 0 0 0 48.682666-16.128c44.757333-18.688 86.741333-42.154667 117.589334-81.237334 11.818667-15.104 19.712-32.426667 22.442666-51.114666 4.266667-28.586667-7.552-52.437333-24.661333-74.24-14.592-18.645333-33.621333-32-53.333333-44.885334-26.538667-17.621333-56.064-29.141333-85.546667-40.106666-18.517333-7.04-38.4-10.624-57.6-15.786667-9.045333-2.389333-18.346667-4.266667-27.221333-7.509333-3.242667-1.194667-5.504-5.504-8.234667-8.405334 3.754667-3.072 7.722667-9.088 10.965333-8.746666 22.997333 2.048 46.464 0.512 68.565334 9.088 3.242667 1.194667 6.528 2.048 9.941333 2.901333 19.882667 5.12 39.936 9.429333 59.306667 15.616 14.08 4.48 27.434667 11.136 40.96 16.981333 11.52 4.949333 23.338667 9.258667 34.133333 15.573334 19.541333 11.690667 39.082667 23.466667 57.088 37.205333 21.418667 16.298667 40.106667 35.84 53.162667 59.818667 16.426667 30.378667 21.418667 61.738667 8.704 95.317333-15.402667 40.96-44.544 69.973333-79.530667 93.610667-19.2 13.013333-39.936 24.149333-60.842667 34.261333-22.272 10.794667-45.226667 20.437333-68.565333 28.458667-19.882667 6.826667-40.618667 11.52-61.013333 16.128-21.461333 4.778667-43.050667 9.088-64.64 12.16-30.506667 4.266667-61.013333 8.405333-91.733334 10.666666a1134.378667 1134.378667 0 0 1-213.034666-4.48 937.088 937.088 0 0 1-115.2-21.290666c-28.928-6.997333-57.088-18.005333-84.821334-28.586667-20.053333-7.722667-39.936-16.64-58.794666-27.093333-41.813333-23.338667-79.701333-51.968-103.210667-94.976-15.232-28.117333-20.565333-57.941333-9.770667-90.026667 10.666667-31.829333 30.506667-56.704 56.064-77.098667 18.858667-15.061333 39.253333-28.117333 59.648-40.96 10.794667-6.698667 23.168-10.965333 34.816-15.957333 14.378667-6.144 28.8-12.373333 43.349334-17.664a357.12 357.12 0 0 1 39.765333-12.672c22.144-5.461333 44.373333-10.112 66.858667-14.208 9.088-1.706667 18.858667-1.536 28.16-0.853333 3.584 0.341333 6.997333 4.437333 10.410666 6.826666-2.389333 3.114667-4.266667 7.253333-7.338666 9.258667-4.266667 2.56-9.642667 3.797333-14.592 4.992-18.005333 4.437333-36.181333 8.064-53.845334 13.525333-17.664 5.504-34.773333 12.544-51.754666 19.584-11.306667 4.608-22.613333 9.557333-33.066667 15.786667-39.936 23.594667-75.776 51.370667-89.173333 99.029333-3.584 13.056-2.901333 25.898667 0.725333 38.912 7.509333 27.093333 23.808 48.341333 44.373333 66.688 22.613333 20.053333 47.658667 36.181333 75.776 47.146667 25.898667 10.112 51.754667 20.906667 78.506667 28.8 22.613333 6.826667 46.122667 10.965333 69.418667 14.933333 48.64 7.978667 97.706667 13.482667 149.12 10.922667z" fill="#4C90F0" p-id="1743"></path><path d="M513.620053 400.170667H449.27872c-10.794667 0-13.226667-2.56-13.013333-13.056 0.170667-23.978667 0.341333-48 0.341333-71.978667 0-13.354667-2.218667-15.616-15.274667-15.616H351.145387c-5.973333 0-13.696 0.512-15.061334-6.485333a25.941333 25.941333 0 0 1 3.242667-17.493334c11.989333-17.664 25.173333-34.645333 37.888-51.797333 23.125333-31.530667 46.08-63.061333 69.418667-94.421333 20.736-27.946667 41.642667-55.552 62.592-83.498667 3.242667-4.266667 5.632-4.266667 9.045333 0.341333 34.133333 46.293333 68.565333 92.586667 102.698667 138.837334 22.272 29.994667 44.373333 60.16 66.688 90.197333 4.096 5.632 7.04 11.306667 4.266666 18.176-2.901333 6.997333-9.6 6.314667-15.616 6.314667-23.466667 0-46.762667 0-70.272-0.170667-11.989333-0.170667-14.592 2.048-14.592 14.378667 0 24.021333 0 48 0.213334 72.021333 0 11.989333-2.090667 14.208-13.738667 14.208h-64.256z m-0.469333 265.685333c20.224 0 40.448-0.170667 60.842667 0 21.248 0.170667 24.32-3.114667 22.485333-24.704-0.554667-7.04-1.408-14.208-1.578667-21.248-0.170667-7.893333 4.138667-12.714667 12.032-12.842667 18.858667-0.341333 37.717333-0.682667 56.533334-0.170666 9.258667 0.298667 15.104 6.144 17.493333 15.232 4.821333 18.858667 9.088 37.717333 14.08 56.405333 5.632 21.418667 11.648 42.837333 17.621333 64.256 3.968 14.250667 8.106667 28.458667 11.989334 42.666667 1.578667 5.674667-0.853333 9.642667-6.656 10.666666-4.138667 0.682667-8.533333 1.024-12.842667 1.024-26.581333 0.170667-53.162667 0.341333-79.744 0.341334-16.64 0-19.370667-2.901333-20.053333-19.2-0.682667-20.053333-1.536-39.936-2.389334-59.989334-0.512-10.666667-4.266667-14.592-14.72-14.592a19894.229333 19894.229333 0 0 0-144.853333 0c-10.453333 0-15.061333 4.266667-16.469333 14.762667-2.56 20.906667-4.778667 41.898667-6.656 62.890667-1.237333 11.648-4.138667 15.616-15.786667 15.786666-31.189333 0.341333-62.208 0.341333-93.44 0-11.648-0.170667-14.037333-5.333333-10.24-16.128 5.802667-16.981333 10.794667-34.261333 15.232-51.626666 9.088-34.090667 17.834667-68.394667 26.410667-102.656 3.754667-15.104 10.24-20.394667 25.856-20.394667h49.706666c12.714667 0 16.469333 3.754667 16.128 16.469333-0.341333 8.917333-1.536 17.621333-2.048 26.368-0.512 11.690667 3.413333 15.445333 15.061334 15.445334h66.005333v1.237333z m1.152-231.253333h63.232c12.373333 0 14.08 2.090667 13.909333 14.762666-0.170667 10.794667 0.170667 21.589333 0 32.554667-0.170667 10.453333-2.901333 13.226667-13.397333 13.226667-43.008 0-86.186667 0-129.237333 0.170666-8.917333 0-11.989333-2.56-12.373334-11.52-0.298667-12.842667-0.298667-25.685333-0.469333-38.570666 0-7.68 3.925333-10.624 11.306667-10.453334 22.442667-0.170667 44.757333-0.341333 66.986666-0.170666z m-0.341333 91.392h64.938666c10.496 0 12.714667 2.389333 12.714667 12.501333 0 4.266667 0 8.533333-0.170667 12.842667-0.170667 11.306667-5.674667 17.834667-17.152 18.005333-40.448 0.341333-80.896 0.341333-121.514666 0-11.818667-0.170667-16.128-5.290667-16.298667-17.322667 0-4.608-0.170667-9.045333-0.341333-13.696-0.170667-9.6 2.218667-12.373333 11.818666-12.501333 22.101333 0.170667 44.074667 0.170667 66.005334 0.170667z" fill="#4C90F0" p-id="1744"></path></svg>