<?xml version="1.0" standalone="no"?><!DOCTYPE svg PUBLIC "-//W3C//DTD SVG 1.1//EN" "http://www.w3.org/Graphics/SVG/1.1/DTD/svg11.dtd"><svg t="1743127994397" class="icon" viewBox="0 0 1129 1024" version="1.1" xmlns="http://www.w3.org/2000/svg" p-id="1729" xmlns:xlink="http://www.w3.org/1999/xlink" width="220.5078125" height="200"><path d="M638.129085 394.343031h-141.895108c-12.878833 0-14.816357-2.165468-14.816357-15.386216v-79.780382c0-13.676637-2.735327-15.956076-15.956077-15.956077-25.928624 0-51.629304 0.56986-77.500942 0.56986h-0.85479c-6.382431 0-13.163763 0-16.241006-7.408178-3.077243-7.579136 0-13.733623 4.558879-19.945096 24.503974-33.108859 48.893977-66.103745 73.511923-99.155617 37.610752-51.059445 75.791363-102.289847 113.402115-153.292306 3.761075-5.128739 6.097501-5.299697 9.687618-0.56986a21677.640491 21677.640491 0 0 1 145.884127 196.601656c13.961567 18.862362 28.379022 37.49678 41.59977 56.985987 3.419159 5.128739 4.558879 13.334721 3.41916 19.375236-1.367664 7.009276-8.37694 6.895304-14.645399 6.838318h-79.38148c-14.360469 0-16.525936 2.906285-16.525936 17.665656v79.210523c0 11.511169-2.336425 14.246497-14.246497 14.246496z m-141.325249 38.180612h143.604688c8.09201 0 12.536917 2.849299 12.536917 11.397197 0 14.132525-0.56986 28.492994-0.569859 42.739491 0 9.80159-3.875047 12.536917-13.676637 12.536917h-142.464968c-11.568155 0-14.816357-3.305187-14.816357-14.816357v-35.901172l15.386216-15.956076z m68.782087 511.563207c57.669819 3.989019 116.422372-4.900795 174.833009-13.733623 26.27054-3.989019 52.028206-12.308973 77.728886-19.489208a446.20028 446.20028 0 0 0 53.6808-17.779628c49.349865-20.628927 95.622487-46.500566 129.643121-89.581971a119.100713 119.100713 0 0 0 24.788905-56.359142c4.672851-31.570237-8.319954-57.840777-27.239302-81.831877-16.070048-20.628927-37.040892-35.331312-58.809539-49.577809-29.290797-19.375236-61.77281-32.083111-94.311809-44.16414-20.400983-7.750094-42.340588-11.739113-63.48239-17.437712-10.029534-2.621355-20.230025-4.672851-30.088601-8.319955-3.590117-1.310678-6.040515-6.040515-9.060772-9.231729a48.096173 48.096173 0 0 0 4.102991-3.98902c2.849299-3.020257 5.584627-5.926543 7.978038-5.698598 25.358764 2.279439 51.287388 0.56986 75.620405 10.086519 3.590117 1.310678 7.180234 2.279439 10.998296 3.191216 21.882619 5.698599 43.993182 10.428436 65.362927 17.209768 15.500189 4.900795 30.259559 12.308973 45.189888 18.691404 12.650889 5.527641 25.70068 10.257478 37.610752 17.209768 21.597689 12.878833 43.081406 25.928624 62.969516 41.029911 23.649185 17.950586 44.221126 39.548275 58.581594 65.989773 18.17853 33.450774 23.649185 68.041269 9.687618 105.08216-17.095796 45.189888-49.178907 77.159027-87.75842 103.201623a530.653513 530.653513 0 0 1-67.072507 37.838695c-24.56096 11.910071-49.919725 22.509465-75.620405 31.342293-21.939605 7.579136-44.790986 12.707875-67.300451 17.779628-23.649185 5.299697-47.469327 10.029534-71.232484 13.448693-33.621732 4.729837-67.300451 9.23173-101.150127 11.682128a1250.728447 1250.728447 0 0 1-234.953225-4.900795 1033.83978 1033.83978 0 0 1-127.078752-23.421241c-31.912153-7.750094-62.91253-19.88811-93.514005-31.570237a513.842647 513.842647 0 0 1-64.850053-29.860657c-46.15865-25.70068-87.929378-57.270917-113.801017-104.740245-16.810866-31.000377-22.680423-63.881292-10.770351-99.212603 11.739113-35.160354 33.621732-62.570614 61.829796-85.080079 20.799885-16.639908 43.30935-31.000377 65.761829-45.189888 11.967057-7.408178 25.529722-12.081029 38.408555-17.60867 15.842104-6.781332 31.741195-13.562665 47.811244-19.432222 14.360469-5.299697 28.891896-10.428436 43.87921-13.961567 24.333017-6.097501 48.950963-11.169253 73.682881-15.728132 10.029534-1.880538 20.799885-1.70958 31.000377-0.911776 3.989019 0.341916 7.750094 4.900795 11.568156 7.522151-2.678341 3.419159-4.729837 7.978038-8.148997 10.257477-4.729837 2.849299-10.599394 4.102991-16.070048 5.470655-19.831124 4.900795-39.890191 8.889814-59.379399 14.930329a665.026471 665.026471 0 0 0-57.042973 21.540703c-12.536917 5.128739-24.959862 10.599394-36.471032 17.380726-44.050168 26.099582-83.598443 56.701057-98.300828 109.299123-3.989019 14.360469-3.248201 28.492994 0.740818 42.853463 8.319954 29.917643 26.27054 53.338884 48.950963 73.511923 24.959862 22.167549 52.54108 39.890191 83.541458 52.028207 28.54998 11.169253 57.099959 23.079325 86.6187 31.741194 24.902876 7.579136 50.831501 12.138015 76.532181 16.525937 53.623814 8.775842 107.703516 14.816357 164.404573 11.967057zM495.094257 533.38884h71.802344c24.162059 0 48.552061-0.56986 72.942063-0.56986 10.599394 0 13.106777 3.077243 13.106777 13.676637 0 5.128739-0.56986 10.257478-0.569859 15.386217 0 13.220749-4.672851 19.375236-17.665657 19.375235h-134.486929c-12.650889 0-18.805376-7.465164-18.805376-19.945095V547.065477c0-11.169253 2.108482-13.676637 13.676637-13.676637z m70.206736 153.862166h67.243465c23.478227 0 26.612456-3.533131 24.503974-27.353274 0-7.750094-1.70958-15.61416-1.709579-23.364255 0-8.718856 5.014767-14.246497 13.676637-14.246497h62.114726c10.257478 0 16.75388 6.496403 19.375235 16.525937 5.299697 20.799885 9.915562 41.485799 15.386217 62.114726 6.268459 23.649185 12.764861 47.583299 19.375236 71.232484 4.387921 15.671146 8.775842 31.000377 13.106777 46.728509 1.70958 6.268459-0.398902 10.827338-6.838319 11.967057a87.75842 87.75842 0 0 1-14.246497 1.13972c-29.290797 0-58.980497 0.56986-88.32828 0.56986-18.292502 0-20.913857-3.134229-21.654675-21.084815-0.740818-22.110563-1.880538-44.563042-2.849299-66.673605 0-11.739113-5.014767-15.956076-16.525936-15.956077h-159.560765c-11.511169 0-16.696894 5.014767-18.235516 16.525937-2.849299 23.079325-5.299697 45.87372-7.408178 68.953044-1.310678 12.878833-4.216963 17.665656-17.095796 17.665656H342.485783c-12.821847 0-15.500189-5.698599-11.397197-17.665656 6.439417-18.74839 12.195001-37.895681 17.095796-56.985987 10.029534-37.610752 19.660166-75.620405 29.062853-113.402115 4.159977-16.639908 11.283225-22.224535 28.492994-22.224535h54.706548c14.018553 0 17.665656 4.216963 17.665656 18.235516 0 9.80159-2.279439 19.375236-2.27944 29.062854 0 12.878833 3.704089 17.095796 16.525936 17.095796h72.942064v1.13972z" p-id="1730" fill="#1296db"></path></svg>