<?xml version="1.0" standalone="no"?><!DOCTYPE svg PUBLIC "-//W3C//DTD SVG 1.1//EN" "http://www.w3.org/Graphics/SVG/1.1/DTD/svg11.dtd"><svg t="1765609677276" class="icon" viewBox="0 0 1024 1024" version="1.1" xmlns="http://www.w3.org/2000/svg" p-id="2814" xmlns:xlink="http://www.w3.org/1999/xlink" width="48" height="48"><path d="M511.982988 1006.988338A491.977273 491.977273 0 0 1 161.951025 862.014952 491.977273 491.977273 0 0 1 16.977639 511.982988 491.977273 491.977273 0 0 1 161.951025 161.985048 491.977273 491.977273 0 0 1 511.982988 17.011662a491.977273 491.977273 0 0 1 349.99794 144.973386 491.977273 491.977273 0 0 1 144.973386 349.99794 491.977273 491.977273 0 0 1-144.973386 350.031964 491.977273 491.977273 0 0 1-349.99794 144.973386z m-53.995016-491.94325v8.029504c-126.498721 13.133003-218.259627 70.870585-218.259627 137.318138 0 77.26697 122.143735 140.074027 272.186597 140.074027s272.186597-62.841081 272.186596-140.074027c0-66.447553-91.658836-124.185135-217.953417-137.318138v-8.029504z m0-65.256737v41.168223h108.160149v-41.168223z m54.063063-226.289132l-67.059973 84.377845-67.366182 84.309798h80.363092v18.372596h108.160149v-18.372596h79.988836l-66.991926-84.309798-67.093996-84.377845z m0 495.00535c-92.135163 0-167.088547-44.468485-167.088547-99.109945 0-42.393062 45.455162-80.090906 113.093531-93.802306v39.80729h108.160149v-39.60315c67.536299 13.60933 112.889391 51.341197 112.889391 93.700236-0.034023 54.505366-74.987407 98.973851-167.122571 98.973851z m-53.995016-140.482308v82.302423h108.160149v-82.302423z" fill="#409eff" p-id="2815"></path></svg>