<?xml version="1.0" standalone="no"?><!DOCTYPE svg PUBLIC "-//W3C//DTD SVG 1.1//EN" "http://www.w3.org/Graphics/SVG/1.1/DTD/svg11.dtd"><svg t="1769505828389" class="icon" viewBox="0 0 1024 1024" version="1.1" xmlns="http://www.w3.org/2000/svg" p-id="11667" xmlns:xlink="http://www.w3.org/1999/xlink" width="48" height="48"><path d="M512 369.237A142.763 142.763 0 1 0 654.763 512 142.962 142.962 0 0 0 512 369.237z m0 221.502a79.534 79.534 0 1 1 79.534-79.534A79.534 79.534 0 0 1 512 590.739z" p-id="11668" fill="#be8dbd"></path><path d="M544.012 948.642h4.574a435.846 435.846 0 0 0 399.658-399.858v-4.573h43.346a32.012 32.012 0 0 0 0-63.826h-42.948v-4.573A435.846 435.846 0 0 0 548.983 76.154h-4.573V32.012a32.012 32.012 0 0 0-63.826 0v43.346h-4.573A435.846 435.846 0 0 0 76.353 475.017v4.573h-44.34a32.012 32.012 0 0 0 0 63.826h43.345v4.573a435.846 435.846 0 0 0 399.659 399.857h4.573v43.346a32.012 32.012 0 0 0 63.826 0zM512 812.44a32.012 32.012 0 0 0-32.012 32.012v39.767h-5.369a375.003 375.003 0 0 1-335.435-334.838v-5.369h39.767a32.012 32.012 0 0 0 0-63.826h-39.767v-5.368A375.003 375.003 0 0 1 474.62 139.184h5.369v39.767a32.012 32.012 0 0 0 63.826 0v-39.767h5.368A375.003 375.003 0 0 1 884.418 474.62v5.369H844.65a32.012 32.012 0 0 0 0 63.826h39.767v5.368A375.003 375.003 0 0 1 549.38 884.418h-5.369V844.65A32.012 32.012 0 0 0 512 812.44z" p-id="11669" fill="#be8dbd"></path></svg>