<?xml version="1.0" standalone="no"?><!DOCTYPE svg PUBLIC "-//W3C//DTD SVG 1.1//EN" "http://www.w3.org/Graphics/SVG/1.1/DTD/svg11.dtd"><svg t="1743572231014" class="icon" viewBox="0 0 1024 1024" version="1.1" xmlns="http://www.w3.org/2000/svg" p-id="2599" xmlns:xlink="http://www.w3.org/1999/xlink" width="200" height="200"><path d="M1007.216472 337.104078l-71.903401 41.52649-32.538565-56.430517 71.903401-41.583376a32.538564 32.538564 0 0 1 44.427656 11.945977 32.652336 32.652336 0 0 1-11.889091 44.541426zM197.90501 881.726834l-2.901166-368.39116c0-164.968246 133.282966-298.649411 297.682356-298.649411h38.454667c164.39939 0 297.682356 133.681165 297.682357 298.649411l-0.227543 368.39116H197.90501z m567.547653-339.493274c0-156.094092-88.570883-263.778537-244.153005-263.778537S258.317519 386.139467 258.317519 542.23356l-3.071822 282.607671h516.009297l-5.802331-282.607671zM497.237049 384.319128h89.936137L519.706861 526.476248h112.349065l-202.285202 213.321008 67.466325-165.878416H407.244026l89.993023-189.599712z m279.592734-187.608716l-56.373632-32.59545 41.469604-71.960286a32.538564 32.538564 0 1 1 56.373632 32.59545l-41.469604 71.960286zM478.4648 32.59545a32.538564 32.538564 0 1 1 65.134014 0v83.109865H478.4648V32.59545zM205.357024 124.750126a32.652336 32.652336 0 0 1 56.430517-32.59545l41.469604 71.960286-56.373632 32.59545-41.526489-71.960286zM16.496825 337.104078a32.652336 32.652336 0 0 1 32.59545-56.487403l71.846515 41.583376-32.538564 56.430517-71.903401-41.52649z m95.45404 629.951159l803.338474-0.967055c15.927969 0 28.784115 12.969917 28.784115 28.897885a28.841 28.841 0 0 1-28.784115 28.954772H111.950865a28.32903 28.32903 0 0 1-28.670343-28.442801c0-15.984854 12.685489-28.442801 28.670343-28.442801z" fill="#ea580c" p-id="2600"></path></svg>