<?xml version="1.0" standalone="no"?><!DOCTYPE svg PUBLIC "-//W3C//DTD SVG 1.1//EN" "http://www.w3.org/Graphics/SVG/1.1/DTD/svg11.dtd"><svg t="1743572225420" class="icon" viewBox="0 0 1024 1024" version="1.1" xmlns="http://www.w3.org/2000/svg" p-id="2395" xmlns:xlink="http://www.w3.org/1999/xlink" width="200" height="200"><path d="M731.050667 256.426667c0 118.016-95.573333 213.717333-213.546667 213.717333a213.632 213.632 0 0 1-213.504-213.76C304 138.368 399.573333 42.666667 517.504 42.666667a213.632 213.632 0 0 1 213.546667 213.76zM633.6 669.141333c-7.424-29.866667 6.272-62.805333 26.112-93.568A511.189333 511.189333 0 0 0 512 553.856c-124.458667 0-243.84 45.056-331.861333 125.226667C92.117333 759.210667 42.666667 867.968 42.666667 981.333333h640.426666a124.330667 124.330667 0 0 1-39.68-10.282666c-106.24-65.834667-47.658667-163.029333-28.330666-174.933334-22.357333-63.744 6.826667-99.712 22.613333-113.578666l-4.138667-13.397334z" p-id="2396" fill="#16a34a"></path><path d="M893.525333 776.362667l81.28 81.450666a22.442667 22.442667 0 0 1-16.469333 38.186667h-104.106667v65.792a19.584 19.584 0 0 1-19.626666 19.541333h-19.882667a19.584 19.584 0 0 1-19.584-19.541333V896h-104.106667a22.442667 22.442667 0 0 1-16.469333-38.229333l81.28-81.408h-42.453333a20.48 20.48 0 0 1-16.213334-32.938667l67.754667-73.856h-28.586667a17.749333 17.749333 0 0 1-15.36-26.581333l88.32-122.112a17.706667 17.706667 0 0 1 30.72 0l88.362667 122.112a17.749333 17.749333 0 0 1-15.36 26.581333h-28.586667l67.754667 73.898667a20.48 20.48 0 0 1-16.213333 32.896h-42.453334z" p-id="2397" fill="#16a34a"></path></svg>