<?xml version="1.0" standalone="no"?><!DOCTYPE svg PUBLIC "-//W3C//DTD SVG 1.1//EN" "http://www.w3.org/Graphics/SVG/1.1/DTD/svg11.dtd"><svg t="1743128005669" class="icon" viewBox="0 0 1204 1024" version="1.1" xmlns="http://www.w3.org/2000/svg" p-id="1932" xmlns:xlink="http://www.w3.org/1999/xlink" width="235.15625" height="200"><path d="M601.22116 1022.600938C269.931558 1022.600938 1.368317 891.888196 1.368317 733.773579c0-131.011877 184.589471-241.21764 436.256074-275.238968v82.629148C247.135166 569.264599 110.433816 644.773762 110.433816 733.773579c0 112.939435 219.733292 204.49522 490.787344 204.49522 271.059975 0 490.793267-91.555785 490.793267-204.49522 0-93.208427-149.80698-171.697085-353.686161-196.33567v-82.250047c264.727808 29.501736 462.751661 142.888392 462.75166 278.585717 0 158.114617-268.566203 288.82736-599.858766 288.827359zM782.191403 589.561296l87.844745 233.922914h-133.810707l-23.323579-85.712303h-222.846064l-21.511004 85.712303h-133.573769l86.046978-233.922914h90.297052l-12.353352 73.489267h206.378877l-13.440306-73.489267H782.191403z m-393.909339-255.386529h102.422351V239.846808h191.463633v94.327959H786.337817l-198.435532 195.743324-199.620221-195.743324z m103.05616-224.054448h190.198977v81.900564h-190.198977V110.120319z m0-108.870026h190.198977v81.571812h-190.198977V1.250293z" p-id="1933" fill="#33d399"></path></svg>