<?xml version="1.0" standalone="no"?><!DOCTYPE svg PUBLIC "-//W3C//DTD SVG 1.1//EN" "http://www.w3.org/Graphics/SVG/1.1/DTD/svg11.dtd"><svg t="1743416499193" class="icon" viewBox="0 0 1024 1024" version="1.1" xmlns="http://www.w3.org/2000/svg" p-id="4546" xmlns:xlink="http://www.w3.org/1999/xlink" width="200" height="200"><path d="M658.2784 369.7152c-132.4544-34.0992-263.5264 10.752-360.1408 108.3392l-43.6736-62.976c-4.4544-6.4-13.056-3.6864-14.3872 4.4032l-35.072 205.6192c-1.1264 6.3488 3.0208 12.1856 8.3456 12.1344l172.6976-6.2976c6.8608-0.256 10.5984-10.1376 6.0928-16.4352l-43.52-63.0784c10.5472-10.5472 21.6576-20.5312 33.1776-29.6448a313.6512 313.6512 0 0 1 122.88-60.3136 286.2592 286.2592 0 0 1 137.216 1.6896c45.568 11.776 88.0128 34.048 125.9008 66.1504a394.9568 394.9568 0 0 1 92.16 115.7632c3.072 5.888 6.1952 11.776 9.0112 17.92l60.7232-62.0544c-58.4704-114.4832-154.112-200.8064-271.4112-231.2192z" fill="#999999" p-id="4547"></path></svg>