<?xml version="1.0" standalone="no"?><!DOCTYPE svg PUBLIC "-//W3C//DTD SVG 1.1//EN" "http://www.w3.org/Graphics/SVG/1.1/DTD/svg11.dtd"><svg t="1743416495513" class="icon" viewBox="0 0 1024 1024" version="1.1" xmlns="http://www.w3.org/2000/svg" p-id="4342" xmlns:xlink="http://www.w3.org/1999/xlink" width="200" height="200"><path d="M1024 0H0v1024h1024z" fill="#999999" opacity=".01" p-id="4343"></path><path d="M425.0624 369.7152c132.4032-34.0992 263.4752 10.752 360.0896 108.3392l43.7248-62.976c4.4032-6.4 13.056-3.6864 14.336 4.4032l35.1232 205.6192c1.1264 6.3488-3.072 12.1856-8.3968 12.1344l-172.6976-6.2976c-6.8608-0.256-10.5472-10.1376-6.0416-16.4352l43.4688-63.0784a369.8176 369.8176 0 0 0-33.1776-29.6448 313.7024 313.7024 0 0 0-122.88-60.3136 286.2592 286.2592 0 0 0-137.1648 1.6896 316.928 316.928 0 0 0-125.952 66.1504 395.008 395.008 0 0 0-92.16 115.7632c-3.072 5.888-6.144 11.776-8.96 17.92L153.6 600.8832c58.5216-114.4832 154.112-200.8064 271.4624-231.2192z" fill="#999999" p-id="4344"></path></svg>