<?xml version="1.0" standalone="no"?><!DOCTYPE svg PUBLIC "-//W3C//DTD SVG 1.1//EN" "http://www.w3.org/Graphics/SVG/1.1/DTD/svg11.dtd"><svg t="1765442544515" class="icon" viewBox="0 0 1024 1024" version="1.1" xmlns="http://www.w3.org/2000/svg" p-id="2115" xmlns:xlink="http://www.w3.org/1999/xlink" width="48" height="48"><path d="M636.572197 76.794461a39.402629 39.402629 0 1 0-26.221678-74.271384L137.939644 169.29482a39.355888 39.355888 0 0 0-26.268419 37.112321v222.300002a39.355888 39.355888 0 0 0 39.355887 39.355888h433.101729v88.013226H492.142633v-58.98709a26.268419 26.268419 0 1 0-52.536838 0v59.033831H150.886889a39.355888 39.355888 0 0 0-39.355887 39.355888v194.535872a39.402629 39.402629 0 0 0 24.352039 36.411207l472.504357 194.535873a39.402629 39.402629 0 0 0 29.914214-72.869156l-448.012094-184.486566v-128.771343h433.054987a39.355888 39.355888 0 0 0 39.355888-39.355887V428.753884a39.355888 39.355888 0 0 0-39.355888-39.355887H492.142633V287.175519a26.268419 26.268419 0 0 0-52.536838 0v102.222478H190.336259V234.264753l446.048974-157.423551z m275.771659 133.585662V105.353187a26.268419 26.268419 0 0 0-52.536838 0v105.073677a26.268419 26.268419 0 0 0 52.536838 0z m-121.80694-118.254627l-100.913731 28.839172a26.268419 26.268419 0 1 0 14.396216 50.480236l100.960472-28.885913a26.268419 26.268419 0 0 0-14.442957-50.433495z m-201.874202 57.678344l-100.913731 28.839171a26.268419 26.268419 0 0 0 14.396215 50.480236l100.913731-28.885912a26.268419 26.268419 0 1 0-14.396215-50.433495z m323.634401 270.489931V315.313576a26.268419 26.268419 0 1 0-52.490097 0v105.026936a26.268419 26.268419 0 0 0 52.536838 0z m0 210.007129v-104.980194a26.268419 26.268419 0 1 0-52.490097 0v104.839972a26.268419 26.268419 0 1 0 52.536838 0z m-453.387304 207.015709l3.505572 0.98156a26.268419 26.268419 0 0 0 30.101177-38.047141v-93.201473a26.268419 26.268419 0 1 0-52.536838 0v105.026936a26.268419 26.268419 0 0 0 18.696384 25.286859z m453.387304 2.991421v-105.073676a26.268419 26.268419 0 1 0-52.490097 0v105.26064a26.268419 26.268419 0 0 0 52.536838 0z m-349.014742 26.876052l100.960472 28.839172a26.268419 26.268419 0 0 0 14.396215-50.480236l-100.960472-28.839172a26.268419 26.268419 0 1 0-14.396215 50.480236z m201.874203 57.631603l100.960472 28.885912a26.268419 26.268419 0 1 0 14.396215-50.480236l-100.913731-28.839171a26.268419 26.268419 0 0 0-14.442956 50.480235z" p-id="2116"></path></svg>