<?xml version="1.0" standalone="no"?><!DOCTYPE svg PUBLIC "-//W3C//DTD SVG 1.1//EN" "http://www.w3.org/Graphics/SVG/1.1/DTD/svg11.dtd"><svg t="1765436898765" class="icon" viewBox="0 0 1024 1024" version="1.1" xmlns="http://www.w3.org/2000/svg" p-id="4659" xmlns:xlink="http://www.w3.org/1999/xlink" width="48" height="48"><path d="M190.592 512v183.68c0 16.864 13.696 30.592 30.592 30.592h581.632a30.592 30.592 0 0 0 30.592-30.592V512h53.6v344.416a30.624 30.624 0 0 1-30.592 30.592H167.584a30.592 30.592 0 0 1-30.592-30.592V512h53.6zM856.448 136.992c16.864 0 30.592 13.696 30.592 30.592v237.28h-53.6v-183.68a30.592 30.592 0 0 0-27.552-30.432l-3.04-0.16H221.184a30.592 30.592 0 0 0-30.592 30.592v183.68H136.992V167.584c0-16.864 13.696-30.592 30.592-30.592h688.864z" p-id="4660"></path></svg>