<svg viewBox="0 0 1024 1024" xmlns="http://www.w3.org/2000/svg">
  <path d="M640 545.92V160c0-70.72-57.28-128-128-128s-128 57.28-128 128v385.92c-54.08 43.52-89.6 110.4-89.6 185.6 0 131.2 106.56 237.76 237.76 237.76s237.76-106.56 237.76-237.76c0-75.2-35.52-142.08-89.92-185.6zM512 928c-94.4 0-171.2-76.8-171.2-171.2 0-66.24 38.08-123.84 94.4-152.64V160c0-42.56 34.24-76.8 76.8-76.8s76.8 34.24 76.8 76.8v444.16c56.32 28.8 94.4 86.4 94.4 152.64 0 94.4-76.8 171.2-171.2 171.2z" fill="#ff4d4f"/>
  <path d="M512 512c-17.6 0-32 14.4-32 32v210c0 17.6 14.4 32 32 32s32-14.4 32-32V544c0-17.6-14.4-32-32-32z" fill="#ff4d4f"/>
  <circle cx="512" cy="756" r="80" fill="#ff4d4f"/>
</svg>